/* XPM */
static char *_045ad1c0e4648bba2636fba80044085BEKh4bNRWz2QMGOB[] = {
/* columns rows colors chars-per-pixel */
"64 63 256 2 ",
"   c #0A0805",
".  c #130D06",
"X  c #1A150C",
"o  c #18140C",
"O  c #141412",
"+  c #1D1A13",
"@  c #1B1915",
"#  c #0F100E",
"$  c #211D14",
"%  c #231E19",
"&  c #36100D",
"*  c #25221C",
"=  c #2A251C",
"-  c #262117",
";  c #312B1F",
":  c #0C0637",
">  c #14083A",
",  c #1A1331",
"<  c #2A2621",
"1  c #2C2A24",
"2  c #292927",
"3  c #322D23",
"4  c #322E29",
"5  c #33322D",
"6  c #383329",
"7  c #3B3934",
"8  c #393836",
"9  c #2D2E31",
"0  c #251D3C",
"q  c #470A0B",
"w  c #54070A",
"e  c #460D11",
"r  c #491716",
"t  c #571A19",
"y  c #4C100D",
"u  c #56221C",
"i  c #4F241D",
"p  c #65241E",
"a  c #582625",
"s  c #423D33",
"d  c #423D38",
"f  c #522D2B",
"g  c #642727",
"h  c #653837",
"j  c #63302C",
"k  c #631E20",
"l  c #47433B",
"z  c #534B3E",
"x  c #6F503A",
"c  c #0B0546",
"v  c #150A42",
"b  c #160849",
"n  c #1D1346",
"m  c #170A56",
"M  c #1D1257",
"N  c #0C0653",
"B  c #251A48",
"V  c #261856",
"C  c #2B2248",
"Z  c #342B52",
"A  c #2B1D62",
"S  c #392D69",
"D  c #1F1369",
"F  c #443A58",
"G  c #6B3C43",
"H  c #443869",
"J  c #453777",
"K  c #494845",
"L  c #524D45",
"P  c #59554C",
"I  c #5A5753",
"U  c #494C5B",
"Y  c #754847",
"T  c #77554A",
"R  c #635D54",
"E  c #655F5B",
"W  c #7C5957",
"Q  c #6B4C46",
"!  c #7B644A",
"~  c #68645B",
"^  c #766859",
"/  c #7F705B",
"(  c #564B76",
")  c #5C5378",
"_  c #4F466E",
"`  c #655B7B",
"'  c #60576A",
"]  c #6B6964",
"[  c #736E67",
"{  c #7B756C",
"}  c #767269",
"|  c #7A7975",
" . c #686577",
".. c #5F6160",
"X. c #3F4140",
"o. c #86653C",
"O. c #875958",
"+. c #8C5452",
"@. c #866949",
"#. c #856A57",
"$. c #8B7458",
"%. c #957856",
"&. c #916D51",
"*. c #8B6866",
"=. c #986865",
"-. c #8A7868",
";. c #947C69",
":. c #827D76",
">. c #9A7A76",
",. c #A37977",
"<. c #865960",
"1. c #7F807B",
"2. c #9B835D",
"3. c #A1805B",
"4. c #998468",
"5. c #898379",
"6. c #978878",
"7. c #9D907F",
"8. c #A48A68",
"9. c #A68A75",
"0. c #A99479",
"q. c #B49771",
"w. c #B4A07B",
"e. c #C1A17A",
"r. c #574C85",
"t. c #685C87",
"y. c #6C5B91",
"u. c #6E6586",
"i. c #74698A",
"p. c #766A96",
"a. c #7B7598",
"s. c #746C8D",
"d. c #786FA5",
"f. c #837798",
"g. c #85778A",
"h. c #8879A8",
"j. c #8D7EAD",
"k. c #A37E85",
"l. c #8A8785",
"z. c #958C86",
"x. c #95938C",
"c. c #9B9488",
"v. c #8B839B",
"b. c #94889A",
"n. c #9D9B94",
"m. c #979597",
"M. c #8F918C",
"N. c #A68883",
"B. c #A49582",
"V. c #AC9C8A",
"C. c #A99788",
"Z. c #B49A87",
"A. c #A39C93",
"S. c #A79A96",
"D. c #B79A97",
"F. c #B38B89",
"G. c #B6A38A",
"H. c #ACA394",
"J. c #ABA49B",
"K. c #A7A49C",
"L. c #B2A594",
"P. c #B3AA9C",
"I. c #BCAC9C",
"U. c #B8A697",
"Y. c #B2A894",
"T. c #8A82A5",
"R. c #978AA7",
"E. c #9D92A9",
"W. c #978DB4",
"Q. c #9B93B8",
"!. c #8D85B5",
"~. c #A699AA",
"^. c #A79BB9",
"/. c #B49FAD",
"(. c #ABA9A4",
"). c #B4ACA4",
"_. c #B8A9A6",
"`. c #BCB2A4",
"'. c #BBB5AB",
"]. c #B7B3A9",
"[. c #ACA5B5",
"{. c #BBADBC",
"}. c #B5A9B7",
"|. c #BCB7B7",
" X c #C5A998",
".X c #C7B39A",
"XX c #C7AF8C",
"oX c #C6AAA7",
"OX c #C3B4A4",
"+X c #C4BAAC",
"@X c #CBBDAC",
"#X c #C8B6A9",
"$X c #D6B8AC",
"%X c #C3BCB3",
"&X c #CBBCB3",
"*X c #C6B7B9",
"=X c #D4BBB7",
"-X c #C7ACB4",
";X c #E2BDBB",
":X c #C29FA3",
">X c #CCC0AD",
",X c #D4C5AB",
"<X c #CBC2B4",
"1X c #C6C3BC",
"2X c #CBC4BB",
"3X c #C7C2B6",
"4X c #D2C3B4",
"5X c #D3C4BB",
"6X c #D3CABC",
"7X c #DAC8BA",
"8X c #D9D0BD",
"9X c #E3CABA",
"0X c #E7CDB0",
"qX c #D4C29D",
"wX c #9B94C5",
"eX c #A89CCB",
"rX c #ADA4C7",
"tX c #B6A9C8",
"yX c #BCB4C9",
"uX c #B7ACD4",
"iX c #BBB2D7",
"pX c #AFA4D3",
"aX c #BFB5E7",
"sX c #C6BAC7",
"dX c #C6B9D6",
"fX c #D3BACC",
"gX c #C6BCE6",
"hX c #C8BEFA",
"jX c #E2BDC5",
"kX c #CCCAC4",
"lX c #CBC5C6",
"zX c #D3CDC3",
"xX c #D3C4CC",
"cX c #D8CAC6",
"vX c #D9D3C9",
"bX c #CDC3D7",
"nX c #D6C9D6",
"mX c #DCD6D6",
"MX c #E3CBC7",
"NX c #E3D3C9",
"BX c #E4CDD4",
"VX c #E5D8D8",
"CX c #F3DFD4",
"ZX c #E6E3DA",
"AX c #CCC4E5",
"SX c #D6CAE6",
"DX c #DBD2E7",
"FX c #D6CCF3",
"GX c #DCD5F7",
"HX c #CAC4F2",
"JX c #E5D8E8",
"KX c #E5DBFB",
"LX c #F2D8E4",
"PX c #EBE8E5",
"IX c #F1EBE5",
"UX c #EDE6F6",
/* pixels */
"+.u p p f ,XV.6.'.6Xz.s ; 3 3 6 n.].s 3 A.V.@.%.>X5.= { 3XP.l 6 = 5.`.).3 l `.8.%.3..X~ = P kX| = 8 5 5 5 ] ].'.7.`.$Xa k k t =.",
"+.y p u f L.9X8X`.s . = ; ; ; $ 6.c.+ - z 8X%.w.>X- = 7 8XA.- 3 1 s vXc.1 - ^ 8X@.e.G.- 4 ; +Xz = 2 1 2 2 + l '.4X,XD.f g k t =.",
"o.u p u h 5XU.-.H.'.l.l - = ; 6 OX).z d 1XP.$.&.@Xl.$ 5.+XI.P 1 $ ^ 6XY.6 d <XV.%.&.#X:.= R cX5.6 7 7 d I K.kXY.5.8XOXj k k t +.",
"x y i r 9.,X#X.X6.P.).).(.`.V.Y.Z.B.kXbX{.{.OX#X}.dX%X@X0.0.4X6.5.vXV.`.1XxXsXlXC.#XsXsX1X3X9.OX'.3XmX|.'.1X).H.8X.X8X0.a k y +.",
"N.*.Q -.@XL.^ #X~ + = = P n.>XV.&.! *Xu.n A tXtXV A {.C.! 4.U.zXvXL.4.#.*X .V ( nXb.V Z [.C.@.;.`.2X5.d 1 < < n.I.6.7X8XD.-.W D.",
"vXMXMX7XL.>XOXV.6XP + 3 = $ 7 I.0.F.mX( m m rXW.m m u.BX6.oXC.z { 8XZ.F.nXH b M uX) b > u.cX6.OXc.6 - 1 < % n.ZX>X8XOX7.cXMX&XCX",
";.@XB.4X7.V.P.:.3XmXP - $ 3 X ~ VXR.eXdXy._ sXbXH t.gXuXR.fXd $ X R nXR.rXuX( _ sXg.Z f.AX[.-XJXz % = - 8 A.mXK.P P.H.>XV.G. XB.",
"6.7XU.C.vXU.'.% 3 I |.].{ 6 = '.T.> > uXdXbX*XfXnXSXiXB > rXg.$ $ n.R.> C dXsXfXC.*X-XSXd.v B dXx.- P z.vXn.8 @ X.kX<XY.V.G.#XB.",
"6X6.P.3X~ n.IX~ + X 6 4X8X+X+XNX` > v y.-X=XN.N.-XsXy.b b R.oX! $.cXi.b > f./.oX=.F.oX{.H b v W.NX>X`.NXn.@ 2 + 1.PXR P <Xc.6.3X",
"mX; { IXP + (.].X ; $ 6 Y.6.4.C.FXj.h.uXBX*.r e #.cXpXh.y.fX-.q.q.C.tXH t.tXBX+.q r >.fXeXf.y.fX6.4.Y.c.- 2 * 5 kX} # ~ mXP s zX",
"n.+ 6 vXR o - %X[ X ; X ~ OXx 5.DXgXKXdX*XT y t h _.bXKXKXnX=.o.o.;.nXgXDX}.oXt k w O.C.dXhXgXsX$.%.>X; = 2 4 lXM.+ * ..1X= * M.",
"P + o n.~ + X ^ ZX} X X B.,X X7XE.> Z R.LXD.g u 0.BXb.C C *X8.0Xq.F.R.0 F ~.BXO.y g D.nXf.Z , }.$X,XvX^ o 6 '.ZXK 1 * | 1.+ 2 ] ",
"P $ o c.J.+ - ; +X'.7.0.$XY T BXg.> c f.sX2X=X=XoXb.i.> v f.LXF.e.MXt.v > h./.$XD.7XjX{.S v v ~.jXx >.jXV.'.<X`.2 4 2 3X~ * 2 ] ",
"P $ + 5.ZXl $ X 6.H.4.@XF.q q k.DX( H FXAXE.)._.*XtXgXA C fXD.q t -Xj.> H SXdXsX(.*X~.gXpXH f.LXY r r oX.X0.<X[ + = P ZX] * 2 } ",
"z $ o 1.vXc.. X c.V.x 9.oXf & ,.C.$XJX~.A > R.dXA S Q.dXxXVXx q q W BXb.dXeXJ H gXW.b A rXnX5X$XG r Q 7X4.%.Y.K.; = H.>X..* * ] ",
"~ o . H.V.4X].sXJXkXN.$XLXfXU.9X3.T 2X` c v t.rXm b F fX>.0.oX=.O. XD.D.bXB b m dXt.m b E.D.#..X$X:XnXxX@XG.1XbX1X3X.XI.A.5 2 M.",
"1X).(.Y.@./ lXE.J h.GXj.J j.BX,.&.&.4.nX( B ~.xX( H {.).@.$.7X-XvXOX&.! *Xs.> J JXb.n p.xX%.%.%.F.BXy.Z {.UXd.V h.xX4.8.,XvXkXvX",
"].~ } Y.2.4.dXB b M gXF m b /.F.x XX9XoXBXfX).N.nXmX{.OXG.G.x.@ 4 Y.G. X'.lXyXsX/.-XfXfXoX0Xe.#.4Xg.v b u.SXV M F nXG.U.3X~ } |.",
"L o   7.mX/.SXp.v r.JXf.v S uXfXI.oX+.t Y $X@.x _.E X $ 6.>X{ + + [ 7X>X= 6 3XV.@.9.oXh k =.=X=XLXtXZ > [.JXJ B R.JXtXVX1.+ % 1.",
"~ o + (.W.> ( KXQ.tXb.-Xg.gXj.C g.BXY y r  XXX%.V.*.X % d VX{ + % [ IX[ $ X 5.I.3..XF.& y O.LXg.H AXSX^.sXxXtXtXFXr.> Q.|.1 * n.",
"@X-.7.JXJ m b pX/.-XN.=X-XtXH b > ~.:Xx N.cX7.U.c.P.< < + (.| + % ] mX3 - 3 +XY.$XB.7X-.x =Xj.> v i.yXcXMXoXBXdXQ.v M T.ZXV.5.vX",
"4. Xw._.Q.m V j.xXO.t j D.fXy.A A tXoX$XcXl . 4 J.vXR % @ 5.5.- @ x.x.X - R VX3Xs o :.NX$X7XR.> V p.BXL.h a >.VXrXr.V tX]..X,X>X",
"q.x o.&.fXdXfX/.:Xt p w #.-XSXSXDX-X@.! #Xs % % < (.).@ $ { kX1 5 mX| - + n.vX6 = - z $X&.3.sXyXsXsX5X=.t p h jX{.UXFXDXw.2.2.qX",
"3.8.%.,.{.( ` sX;Xx w t F.BXE.H i.xX4.2.9.`.6 % < + |.[ . } IXI ~ IX5.. ] kX7 = 3 6 ).B.8.9.sXa.f.~.VX>.t t O.MXyXs.( 1XG.qXXX.X",
",X>X>XmXr.b > W.S.=XN.D. X}.H b > f.BX>X'.zX2X5 % + ~ PX~ ~ 6XI.`.6X5.P PX| * 2 1 %XkX3X`.vXv.> v i.lX=XD.>.#X*XR.v m h.VXJ.H.vX",
"<X6 l mXp.b J KXdXfX_.-X/.gXeXb v rX}.+ 6 :.'.3XP < $ |.1X%Xc.@X`.C.3X3XkX5 + l |.vXx.P * m.tXn n uXAXsXnX*XxXlXFXS B eX}.4 4 (.",
"I .   :.VX[.FXeXJ J bX^.M r.gX}.}.ZX7 . % X % I mX1X| Y.V.`.P.+X>XC.<XA.K.U (.mX1.5 * 1 @ ] VXS.R.iXr.Z sXDXr.r.iXtX~.PXI - * M.",
"H.L K &XV.S.bXn D m iXi.m m i.nX6.G.`.l $ + - o L kX'.3X<XI.NX-X4XCXY.I.2X].vXI @ 2 2 2 d P.Y.7.VX` b M f.AXM m _ JX).<X3X| | 1X",
"].zXvXc.#.! lXv.V H SXv.C V E.oXT $.H.zX'.[ 3 4 = ~ +X-.&XVXO.r Y ,.MX7X{ `.] + 9 8 I n.+XG.$.@.'.[.C V }.DX( C m.1X4.0.Y.vXvX'.",
"kXx.6.>X0.I.|.1XdXdXD.oXfXDX-X=X0.G.I.P.1X1XlXvXzX'.&X7X7X>.q w q r W =X`.+X(.kXkX|.kXmX%X#X.XXX$X*XfX{.<X+XlXbXkXkXqX.X>X{ M.zX",
"5.+ . } >X4Xl $ k.C.T @.-X>.e j ;X6.- ; = % l x.kX'.5..XoXr y w w w & k.`.5.%X1Xl.K 5 5 7 6 S.MXY r D.=X8.8.+X(.9 I 6XvX~ * = K.",
":.% = 6 vXc.X X s @X@.q.9Xr k e $XR . - - - o   L cX8XNXD.t w w w w r 9.8X6X3Xs     O # #   { -Xr k i MXq.q.8X5 2 5 3X3X5 7 5 K.",
"5.+ . 5.+X&Xl l xX6.@.@.-XoXr #.7XV.; 4 2 2 L K.2XH.-.7X,.e w w w q i *X$X-.].vX]...2 9 9 X.`.8XT f _.OX8.8.+X).5 | vX6X} * 7 ].",
"2XA.{ >X9.0.+XyXb./.*X=Xg.}.BX:X;.G.U.].cX'.|.kXP.A.>X#X&X*.t q q e N.7X+XzXn.(.(.[.1XmX|.].V.V.6XcXsX}.&X&XsXyXnXcX`..X6Xn.(.kX",
"(.%XzXB.$.! fXS v A LXi.b b }.C.x #.H.%X5.7 - = * A.P.6.MXNXD.O.F.k.NX&X5.].]   # # 9 1.|.]./ / *Xg.B V R.dXA V a.lX6.0.].vX2X%X",
"5.l s S.#X'.LXH b S KX` b b W.BXV.@X6.= O - % + x.VX'.NXA.S.NXcXP.cXA.P.6X%XPX} # O O # * n.OX>XJXp.V n W.pXM M _ UX&X4X(.l L K.",
"~ . . | fX( W.FXf.R.nX}._ ^.gX) g.JX6 o - @ 7 n.mXx.L ].J.cXc.@X6.6.kX(.x.7 l.kX1.9 O O   I JXi.f.FXW.' [.bXt.a.HXyXv.DX[ * * l.",
"+Xd ~ VXi.> B dX~.cXoXBX*XdXu.> > yXS.= I K.ZXx.5   X.ZX).z.'.#X X0.H.].mX1 # 2 |.vXK.I l nXa.: > uXbXxXvXzXDXfXdXZ , T.vXL P vX",
"#X9X.XU.E.> , ^.-XN.h O._.BX' > B xX`.,X+XVXx.X = # m.kXO ..IXK c.3X..2 mX1.* 8 9 %X<X+X6X5Xa.: : i.xX=X>.*.-XxXm., 0 v.8X8X>X>X",
"Z.$.&.;.DXeXpXyX=Xf t e N.sXdXiXbX{.! #.L.n.- 2 O [ kX<   ] lX. P PX|   8 1XX.* 5 5 3XV.#.6.SXwX!.iXnX=.t t Q fXuXrXT.kXG.w.w.G.",
"Z.$.@.N.sXW.AXsXMXj r e D.fX}.p.T.sX;.;.5X6 % @ { IX|   # 5.M.# # |.|     M.mXX.2 * L 8X;.>.dXeXaXdXfX#.r a Q *XlXuXdXmXV.8.q.XX",
",X8XG.@Xf.: , tXnXD.O.N.+XsXC , : ~.MXZ.$X:.= :.2XzX8 @ 8 lX|     | l.  @ X.kX1XI 1 5.6XoXMXf.: v t.JX_.Y h F.VXa.0 0 [.>XqXqXG.",
"6Xl 5.ZX` : C SX|.JX=XLXxXDXu.: 9 fX,.q Y MX X.Xz.J.o - ] PX:.#    .lXO % @ K.C.&X X7XY a -Xh.v c p.nXxX5X=XvXsX[.C C v.ZX:.6.8X",
"[ O o K.^.) tXSXu.E.nX{.u.tXFXa.sXBXg w r  X;.x #X[   X H.3XM.O O ] ZX..  # [ `.#.U.F.& e =.JXp.r.aXwXu.sX|.Q.Q.GX .Z lXM.2 5 5.",
"5.o - ].cXnXJXH > S KXi.b b yXVXZ.$X9.Y k.xX-.#.).mXI } @XV.z.  # } +XP.7 5 ~.P.! 9.;XQ & N.oXU.mXW.c b eXFXS M T.UX3XZX{ * 1 1.",
"kX(.3XI.T #.sX0 : H KX) b V yX6.x 0.D.MX^.g.-X-Xv.s.DX1X;.9.&XI 7 J.B.0.1XlX[.yX_.%XtXSX-X=Xe.@._.v.c N T.rXm M _ mX0.Y.'.M.M.1X",
"1X5.c.`.4.-.*X}.' sXBXfX` tXBXZ.%.x z.^.m c T.tXc c ) {.x @.oXcXvX$X&.! (.s.c S FXp.N r.nX;.%.9.Z.JXh.( lXnXu.( yX1X0.w.3Xn.K.1X",
"[ o   { Y..X[ l.ZXn.-.S.LXD.*.$X X4.nX) N N Q.W.c c r.DX*X#XD.& f oXZ.U.DXC c m gX_ N N Q.cX$..XoX>.sXJX+X).lXDXm.K.,X,X1.* 2 1.",
"] - + R vX5.. X 5..Xx 9.D.r q W VXtX^.iXr.Z {.[._ T.gXa.t.DX<.& e Y JXE.uXtX( ) bXm.Z d.FXyX|.kXY e G =XG.4.1X{ = < K.ZX} 5 5 } ",
"[ % + R vX7 - X 5.Y.V.0X Xa e F.sXn : wXAXyX/.S.=X^.W.c : t.BXa i MXT.: C AXdXSX|.nXuXGXwX: _ DX<.e i -X,XY.OX{ 4 5 ..PX} 5 9 | ",
"] $ + ~ K.o = 1 3X<X5.^ &X#X:XLXy.c v J sX-X>.O. X~.t.c c t.vX.X#XcXt.c : a.tXoXN.-X].dXJ N c Q.BX-.D.*X| K.kX].8 8 2 |.1.9 5 } ",
"5.$ o K.~ + + R ZX{ + . R &XZ.C.pXr.p.pXfXW & q T sXpXd.r.rX5.4.4.N.iXr.u.iXJXY e r K.GX!.S _ HXoX.XzXU 8 9 n.PX] 9 1 n.M.2 5 1.",
"zX7 6 VX~ X ; ].{ o 3 X R OXx #.bXHXHXrX/.h w e h {.rXuXgXbX4.! @.-.SXGXKXyX_.i k e >.}.AXGXUXkX;.%.>X5 X.Z U m.(.2 2 M.kXX.7 1X",
"mX{ } vXP $ |.(.X 3 $ L &XB.G.U.^.> B f.xXk.a i >.nXu.: : T.`.7. XC.[.C U tXBX*.r j :XDXQ.U ) mXC.G.J.(.X.K U 9 1Xn.* l.IX....ZX",
"Y.>XI.H.} H.vX} o o l vXzXJ.5.VXf.m b p./.*X5XoX*X(.a.c c H bXP ^ DXt.: : Q.~.xXD.$X*X[.J D c W.mXJ.'.mX1XX.X.9 1.PX1.1.vXP.K.3X",
"6.I.V.6.8Xc.|.3 7 l.2Xx.L % . | HXJ S hXiXp.sX[.R.pXHXS n Q.m.# O l.rXn ( GXyXsX}.}.~.gXwXJ S rXb.@ 2 ..[.|.| X.5 1X3X8XP.8X>XY.",
"2X%X6X$X4.c.3Xx.mXvX6   . - . [ vXsXDXj.D N !.tXN M wXSX{.2Xn.O O } vXsXFX!.M r.GX[.n r.aXAX|.vXX.2 9 O 9 1.PXkXM.].H.`.+X>X>XH.",
"cXN.D.4XI.4XS.V.'.=       3 :.$X4.T |.( m m h.pXN N _ |./ -.<Xm.M.1X7.{ dXB N m AXs.M B v.kX7.`.m.X.2 9 Z X.} zX'.kX<X.X8X8XNX8X",
"=.e r h oXNX6.cX5.L I E c.mXvXD.$.! P.bXy.p.*XxXT.) dX'./ $.C.1X1XH.$.4.1X[.Z u.JX[.) _ [.1X:.4.].kX(...X.X.4 1.+X5.8XNX>.Y #.,.",
"=.y k q Q &XzX6.].IXZXK.l.:.{ 6. XG.z.] DX{.4.-.{.JX| z.I.V.].P l 2Xc.>Xm.M.DXdXK.(.1XSX|.kXY.,Xn.M.(.K.].kX%XJ.>X>X>X5.t a r O.",
"=.y p t r D.OXA.+X:.3 . o X +   { ].X o K &X&.@.3X]   O n.3X- O O 7 ].|.X., 1.(.2./ (.1.X. .vX5.$ 1 1 2 K l.].P.6.$XD.i a j a =.",
"=.q y w r  X9X+X*XI + % - - - o ] ].$ o s ,X%.@.6XR     m.%X8 # O 5 kX(.9 9 I vX2.0.'.5 U U 1XI 1 5 5 5 1 = P 6X8XMXF.f g g a <.",
"F.+.=.+.W OXU./ H.VXzX:.P P P P K.2X:.P `.C.%.4.6.vX] K (.].E.K K l.(.].] I kX).5.0.|.M.U M.kXn.7 l X.7 I (.kXY.4.$X;Xj a g a =."
};
