/* XPM */
static char *_8969_06448b2490786a027870872373bb269b697f4e2501b9c1765a17dea7c7c2a10f[] = {
/* columns rows colors chars-per-pixl */
"64 64 252 2 ",
"   c #010300",
".  c #0B0100",
"X  c #030B02",
"o  c #0A0B03",
"O  c #090F0A",
"+  c #130300",
"@  c #170B01",
"#  c #061409",
"$  c #151409",
"%  c #091A13",
"&  c #171B14",
"*  c #261802",
"=  c #341D00",
"-  c #221104",
";  c #18251A",
":  c #0C2215",
">  c #272109",
",  c #372301",
"<  c #25271C",
"1  c #362F19",
"2  c #192B22",
"3  c #1D3227",
"4  c #2B2D24",
"5  c #262B24",
"6  c #27352A",
"7  c #34352A",
"8  c #2A3A32",
"9  c #393C33",
"0  c #312F24",
"q  c #432B01",
"w  c #463716",
"e  c #523706",
"r  c #423D2E",
"t  c #39443B",
"y  c #2E4B3B",
"u  c #57451B",
"i  c #6D4C11",
"p  c #45473B",
"a  c #54492D",
"s  c #6C572D",
"d  c #786437",
"f  c #1C5B4D",
"g  c #18584B",
"h  c #165D52",
"j  c #1A5D52",
"k  c #394D42",
"l  c #225B4C",
"z  c #255945",
"x  c #395649",
"c  c #2E5D52",
"v  c #156155",
"b  c #1B6255",
"n  c #15645B",
"m  c #1C655A",
"M  c #19695D",
"N  c #0E685C",
"B  c #236253",
"V  c #2B6353",
"C  c #26675B",
"Z  c #366A59",
"A  c #306450",
"S  c #196C63",
"D  c #1A7369",
"F  c #11726A",
"G  c #266D62",
"H  c #376E62",
"J  c #2B7468",
"K  c #37776A",
"L  c #367D72",
"P  c #287D72",
"I  c #474B43",
"U  c #48554B",
"Y  c #54564C",
"T  c #495C52",
"R  c #585C53",
"E  c #635E4E",
"W  c #4A6657",
"Q  c #56655A",
"!  c #587255",
"~  c #65655B",
"^  c #746A4E",
"/  c #586C62",
"(  c #467767",
")  c #5C7A6E",
"_  c #57776A",
"`  c #467D72",
"'  c #597D71",
"]  c #4C6C62",
"[  c #676B63",
"{  c #68766A",
"}  c #74756A",
"|  c #657D72",
" . c #7B7B72",
".. c #777B73",
"X. c #706D64",
"o. c #8E6416",
"O. c #A77215",
"+. c #8D6E36",
"@. c #A77B2A",
"#. c #835B12",
"$. c #8B7649",
"%. c #837D70",
"&. c #3A8376",
"*. c #318171",
"=. c #488578",
"-. c #5C8275",
";. c #578778",
":. c #538D7B",
">. c #668679",
",. c #77867B",
"<. c #6B8D73",
"1. c #6E845D",
"2. c #BE851B",
"3. c #B7882A",
"4. c #B78B36",
"5. c #BC913A",
"6. c #AC8439",
"7. c #CB8C1A",
"8. c #C48D24",
"9. c #C7922D",
"0. c #C3933B",
"q. c #CA9738",
"w. c #D19A37",
"e. c #998657",
"r. c #BA9546",
"t. c #B79759",
"y. c #AC8B4B",
"u. c #86857B",
"i. c #928D6E",
"p. c #AF9A69",
"a. c #B6AC72",
"s. c #BBA559",
"d. c #C89B45",
"f. c #C39C53",
"g. c #CBA148",
"h. c #D5A648",
"j. c #CBA55A",
"k. c #D4A955",
"l. c #DCB25A",
"z. c #E4B65A",
"x. c #E3AD4A",
"c. c #CDB171",
"v. c #E4BC6B",
"b. c #C19F60",
"n. c #E8C377",
"m. c #F6CD78",
"M. c #F6CB71",
"N. c #DEC17E",
"B. c #4C8E82",
"V. c #4D9385",
"C. c #589587",
"Z. c #588F85",
"A. c #6A8D81",
"S. c #778E82",
"D. c #689788",
"F. c #779789",
"G. c #779E91",
"H. c #669B91",
"J. c #59A496",
"K. c #5FA08C",
"L. c #6AA697",
"P. c #78A797",
"I. c #75A793",
"U. c #6AADA1",
"Y. c #75AEA3",
"T. c #67B5A7",
"R. c #79B4A5",
"E. c #7BBFB0",
"W. c #7AC6B6",
"Q. c #898B83",
"!. c #869689",
"~. c #95968C",
"^. c #879C93",
"/. c #999C94",
"(. c #928F88",
"). c #A19E92",
"_. c #84AC9C",
"`. c #8CAB9D",
"'. c #88A596",
"]. c #96A69A",
"[. c #92AF93",
"{. c #A8A69A",
"}. c #B3AC90",
"|. c #89ADA2",
" X c #97ADA2",
".X c #84B4A3",
"XX c #8CBCAA",
"oX c #89B8A8",
"OX c #9CBAAB",
"+X c #95B5A8",
"@X c #97BDB2",
"#X c #85BEB1",
"$X c #A7ABA3",
"%X c #A6B7AB",
"&X c #B5B3A8",
"*X c #A6BCB1",
"=X c #B9BAB3",
"-X c #B0AEA2",
";X c #CCB889",
":X c #C1BFB7",
">X c #C4BBA3",
",X c #89C6B6",
"<X c #93C4B3",
"1X c #99C9B9",
"2X c #92C6B3",
"3X c #ACCBBC",
"4X c #A6C7B8",
"5X c #B4C7BB",
"6X c #B8D0B1",
"7X c #BFC89D",
"8X c #D4C490",
"9X c #FCD988",
"0X c #ECD398",
"qX c #F5D897",
"wX c #E7CD91",
"eX c #FCE692",
"rX c #C7C6BB",
"tX c #D4CDBA",
"yX c #D2CFAE",
"uX c #E5D4AA",
"iX c #F8E6A7",
"pX c #EFEEBB",
"aX c #CDE3B5",
"sX c #9DD5C5",
"dX c #99CEC3",
"fX c #AACDC2",
"gX c #BACCC4",
"hX c #A8D8C8",
"jX c #B9D6C8",
"kX c #B6DED1",
"lX c #A9E5D4",
"zX c #B7E3D4",
"xX c #B1E1CD",
"cX c #AFEADF",
"vX c #C9CBC3",
"bX c #C6D7CA",
"nX c #D6D5C9",
"mX c #DBDAD3",
"MX c #CAD7CD",
"NX c #E2DED1",
"BX c #CBE4D9",
"VX c #D5E8D5",
"CX c #E7E5D9",
"ZX c #F1F6D5",
"AX c #D4F5E7",
"SX c #ECEBE4",
"DX c #E6F8E9",
"FX c #F8F5E9",
"GX c #FEFEF4",
"HX c #FFFFF9",
"JX c #F7FAF2",
"KX c #EDF7EB",
/* pixls */
"& @ i.qX9.7.7.m.}.$ < *XY.m K lXT.F D P lXL.N *.lXL.S D K lXJ.M K lXJ.D D *.lXK.S *.lXK.D D L lXJ.m &.zXQ O E iXq.7.7.l.uX< $ 5 ",
"  . d wX3.7.9.n.i.    >.C.j B 1X=.v n m oXZ.h b 1X=.b b B ,XV.j A 1X&.v n m 2X:.j B 1X` n n B ,X=.v Z +X%   1 0Xd.8.8.w.c.    $ ",
"a u c.n.h.n.c.i.).{ W <X2X>.G.+XA.D.|.' '.].;.I.+X>.G..X' `.+X_ G.+X>.F..X-.'.`.;.L.+X| G._.' `..X>.I.1X>._ u.}.e.v.z.l.9X^ r E ",
"0X0Xv.3.d.eXu . p BX` g <X!.5X;   ..gX%   '.1XhX:   ! %X#   } GXaXX   { $X# X ].<XhX%   { bXO    XF.3X( B oX%X  @ 8XM.2.r.eXwX;X",
"q.9.h.9.8.h.e O T K j J _   5 t   U &   X ' m L t   r ~.  . . i.0 .   I !.  # -.j B.8     I O O R X 8 ` n m | # X y.9.7.w.g.0.@.",
"7.7.m.m.9.r.aX<.hXl G zX| o & =X(.%X  O *X|.h L jX .SXyX@ @ s y.$.= + ^ GX~.OX_.h L BXt   Y =X$XQ o & AXZ.h P.+X[.8X4.x.9Xd.9.O.",
"7.8.c.+.e.uX'.:.R.4X_ / !.nX(.NXHXmX$XY u.F.v L ^.9 X.^ y.@.O.d.0.o.4.+.^ U / F.j L  XR Q.vXJXHX(.rX&X{ ] |.dXZ.<.yX8Xd b.r.9.O.",
"x.v.d . X [.Z h ( '.    vXGXSX{.SXHX{.    >.=.H.;   . s g.9.z.h.z.g.w.y.+     >.L H.%   I JXHX:XrXGXHX9   U |.g z P.p   * ;Xl.0.",
";X8X%.; W bX=.V F.bXp < } CXNX0 (.SX:Xp 2  X1XlXt . + e 4.d.0Xc.wXc.d.#.*   o %X1XlXt < (.CXnX0 ).SX&X0 < /.4XZ Z 1X'.; 7 yX;X}.",
"& o ].3X( =.kXOX5X; 7 -XCX=X7 rXSX~.5 6 %X^.V ( bX^ u t.0.9X^ . , wXz.4.$.w vXG.V ( jXR 5 Y nXSXE } CXnX~ < >.gX3X_.( D.VX5   0 ",
".   -.L f G ) % [     ^ GXFX&XNXHXSXX   S.>.v l BXnX$.j.5.n.w .   c.h.d.e.i.JX' f C %X;   Q.HXGX&XNXFXtX    Y t y -.v m H.:   & ",
"{ ' L.g H sX;   p u.p &XCXHXFX%.vX(.| ] @XXXV.U.'.* = o.0.m.a.r ^ wXz.O.i   { +XV.T.1X<.{ ,.=X/.&XGXFXtX .p u.  X '.J.h Z |.U /.",
"#XoX@XD.>.%X} Q.X.FXFXtX&X .=X4 X U cXJ h ,XE.hX%   . i q.2.9Xv.9Xd.8.O.- .   |.XXlXJ v oX@X    ).u.).>XSXGX-X~ Q.^.|.;..X1XoXP.",
"S g |.S.  5 JXHXrXCXFXFXa . 4 I   ] K n C V.n ` k     s k.9.0.9.0.0.d.y.@   # | b *.&.v B ;.% O Y . . tXFXJXrXSXJXQ.  8 4XZ V f ",
"b g +Xu.  < :XGX>Xr CXGXu.. o gX!.hXl H lXR.n L kX%.nX(.a i o.j.t.e s ^ nX/.%X|.v L cXD.z L.*X*X/   r NXGX%.~ HXSX~   9 gXZ V j ",
"W.,X'.Q ~ $X:XQ.[ $XrX} E [ %XG.-.R.4XZ >.D.h K !.7 {.rX. + q $.u - + E CXp Q D.j L |.x _.1XZ.;.%X(.Y ~ &X&XQ.R rX{.Q.U | 1X.XL.",
"T.R.Q   o vXJX=X%.HXHX(.. O +XZ j =.G.X   >.' G.;   5 ,.    > nXX.  . 9 ..    ,.' L.%   k |.j h `.Y   7 SXHX=X%.GXHXI   O @XH.Y.",
"N b <.6 R mXSXHXvX:XJX .2 ] zX-.C H.bXp 5  X1XhXk 5 ^.MXk 2  XMXMXy 2 ^.kXy ; OX1XxXt 4 /.4XH J 1X+X3 8 MXSX&XHXKXSX/.5 ] ( B m ",
"F M hX$X< 5 mXvX&X5 7 ].dXK ` zX+X5X& 6 *XP.m L hXD.L L K hXU.j ( hXC.L L L hXH.v L bXR & { gX3XR.Z D.BXI 9 ~ mXmXX.& Q AX( G S ",
"N M >.#   O ~ o [     <.L j H ] # ~     { >.h v dX' j v B #XB.f c sX=.h n C <X;.h C +X    I 9 3 :.f b L.3   Y 7 4 I .   W ( j n ",
"U.#XQ   O  X9   p Q.-.G.g J fX6 X I !.R VXMXD._.'.| G.@X| F.oXF.`.'.) '.+X' ^. XD.+XDX~.Y !.X   |.H.n C `.Q u.X   ].I   # 4XF.R.",
"R..X`.Q | jXS.] F.OX|.2XJ.J.sXA.Q !.+X|.DXMX{ =X&   ..%XX   ].,.%X&   Q 5XX   ].,.].KXjX'.OX/ Q 1XW.V.R.2X_.+X_ W fXoXW >.OX_.I.",
"S h .XoXS h j Y.,Xf f T.T.N N m P.2Xj j |.t   5 I   I O   & Y   5 p     I & $ U   X +X( g B.hXH m n &.sXJ v ;.hXJ n n =.hXV m v ",
"N v .X@XG S G R.1Xl l #X,XC S G .X2Xv v OX!.O # gX].*X  % 5X{ X % BXU   Q 5X*X[   t jX( g V.lXK M M ;.xXJ f >.xXK S M V.lXZ m v ",
",X2X'.U ) jX>.x F.3X*X^.T ) jX>.T F.2X2X^.R [ *XH.=._.<X=.D.+XF. XP.:.P.2X;.;.<X/.U / 4X.X@XW T 3X`.x / 3XOX*XW W 3X|.x ) 4X.XP.",
"K.R.Q X   ~.& . o rXnX$   @ /.O X t P._.T   O %XC j ` +Xg g u.FXbXk z :.R.l l `.Q     `.D.F.    } Y      .FXp .   ,.I   # OX<.P.",
"N m <.< r mX5 . + s s * + & CXU ; >.C M A.I R gX;.A `.bX1.1.yXpXiXi.1._.jX( ] <X/.8 | _ g Z.I & rX..  + q +.* .   -X).& / K m M ",
"F m hX].tXNXr e e b.j.i e r NXnX~.BXM n jX X$ 2 zX<XAXZXpXa.s.m.k.s.8XAXDX4XkX_ O U DXZ.j Y.gX{.FX%.w q y.j.+., w ).ZX(.zX` G n ",
"S m -.$ O 1 r.d.3.5.0.4.q.f.w @ # { C B ) o   % C.B i.ZXeXr.4.g.9.3.n.pX6XB =.A     U ' l ;.8 o * $.k.3.8.9.4.4.k.s $ X U ( V B ",
"T.,XQ   . = 0.8.l.m.m.v.@.0.q .   k ,X#XW   & *XK l 1.a.s.l.g.eXz.h.l.s.a.B z <XT     @XP.P.  + + +.9.9.m.v.m.3.d.i +   # 1XP.E.",
"T.R.|.0 . i @.z.8X$.$.;Xz.@.i + > '.R.R.'.[ [ %X'.<.8Xy.3.z.wXs p.9X3.4.a.).<.%X(.U >.@XP.@XT . e o.k.n.p.^ ;Xv.d.#.,   { <XY.L.",
"M j `.CXd t.5.v.e..   $.M.0.b.d VX*Xf f  X{     4XFXiXl.h.m.w # X a.z.h.eXZXKX8   < 3XW f ` JX%.@.f.j.v.@ . w wX0.h.$.}.VXc B f ",
"C f +XnXu t.0.n.p.. . e.m.5.b.a rX4Xl B OXQ.O   6XZXpXl.w.m.s # $ c.z.w.0XpXZXx   9 bX] l ;.SXE @.t.k.wX* . u qXq.j.d u.VXZ c B ",
"W.,X^.$   e @.k.8Xp.p.;Xl.3.e + o S.1X,X!.U [ vX<.*.a.6.3.l.0Xe.a.eX3.3.a.<.! 3X/.k ] 4XoX1X8 . , o.k.z.c.e.8Xc.w.i *   T fXXXY.",
"J.T.W     = d.2.l.v.v.z.8.d.q .   y L.Y.T   o G.K z 1.8Xk.l.5.m.h.q.z.c.[.y c _.9     _.Z.D.    + $.0.w.v.z.M.3.w.#.+   # oXZ.L.",
"N m S.0 7 a y.d.O.0.0.O.0.y.a 9 5 S.C b A.;   # L.K _.ZXiX5.4.w.w.3.N.ZXaX( H.c     _ ' f Z.U < a $.f.O.3.q.@.6.f.d r ; _ ( B b ",
"F n hX].vXFXw = e p.t.i = w GXnX~.zXS n jX-X4 k lX#XAXDXaXa.a.qXc.s.7XDXDX1XhX<.6 T DXZ.j Y.gX/.GX%.> = @.p.d * * &XGX!.zX` C M ",
"F M ) X $ 5X< . . a s .   & rX<   _ G C _ ; Y bX( B <.4Xc ! 7XZXaXi.x D.1XZ c 1X/.& T ` j ;.8   {.X.  . , e.+ . . ].}   x ( B M ",
"R.<X/   % $X<   & NXSX5   ; $X<   k <X,XW   & 4XA b ;.1XZ z !.JXVXz z H.oXf l |.[     OX_.'.X   ,.Q     /.JX[     Q.Q   # 6XP.XX",
"Y.P.`.{ -.fXF._ '.`.'.|.) >.fX>.{ '.R.P.].X.~ ].R.D.|.'.` .X+XQ <.OXZ.D.oXG.G.+X!.R ,.+XG.oX>.Q 4X`.Q ,.+XG.%X<.] 1X.X] ,.+XI.D.",
"N v Y.|.m M b L.,Xf f Y.Y.j M b I.XXv h |.{   o 4X,.$X  X  X/   $ bX8 X T $X].Q   5 4XH g =.sXC n v ` hXJ h ;.dXG n n &.sXV C h ",
"F v oX1XG G G E.1Xl B W.W.G D G .X1Xb b OXW   t 7   I &   X R   t 7     U X   R   X 4X( f B.lX=.S S V.lXJ h A.kXL S G C.lXH m v ",
",X1X'.y _ BX>.k ,.3X1X@X:.J.zX-.y S.3XOXKXVXF.bX< X S.bX;    X].bX; X | MX:   %X'.4XJXBX X4Xx x hX,X=.J.hX+X*Xk U kX+Xy Q 3X<XR.",
":.I.!     ,.4   t ~ T A.v C #X2 X p X.6 vX3X' A.5XF.;.D.| 4X_.' <.3XD.>.D.-.4X'._ F.DX~ 7 ..    G.:.j C S.8 ..    u.4   # [.-.H.",
"N n F.5   . ..<  .    A.:.b Z >.5 ..    | >.v b <X( v h l #XB.f B 2XL j j j XX;.f C [.X   I R x :.z B .X5   R I U I   X -.K B v ",
"F n fX=X7 t mXSX=X9 R /.fX` Z.kX@X4X9 t 5XP.J &.hXG.=.V.' hXY.V =.lXH.=.V.=.fXP.G =.bX{ 9 ,.gX4X,X=.D.bXR R [ SXSX .7 [ AX( G M ",
"S C _ & I mXSXHXvXnXHXQ.# x lXK b C.gX7 # ].fXlX6 % S.gX3 O ^.KXmX3 % S.gX6 O +X1XxX6 & Q.4XV m <XG.% 8 SXJX:XHXJXFXQ.& y _ l C ",
"W.,X/   & vXHX$X~ GXJXQ.  % 4XZ f =.`.  X -.( :.3   5 u.  . + >Xa     9  .    >.H C.; X T XXj g |.[   4 mXGX&XR FXHXY X # 3XR.,X",
"T.U.|...~ Q.=X~. .Q.tXu.} ~ /.|.F.XX2X` '.G.v L OXY rXtX  + e $.s - + E GX~ ,.I.v K <X_ |.1XP.G.$XQ.R %.&X).%.} rX~.,.R ^.oXL.C.",
"N g _.{   5 nXHX:XR CXGXX.    =X| 1Xf C 1XL.n &.4X~ ).i.$.#.O.j.r.i +.$.). .^.P.v P xX;.g H.'./.R   < mXGX).} HXFX}   ; 4XV C f ",
"C l XX'.# 5 SXJX:XFXFXFXE   p 7   T ` n m C.M :.6   . s k.9.h.r.d.d.d.y.+     ) V :.L v B -.    ~ X @ tXFXGXrXmXHX..X T jXZ V B ",
"1X1X<X-.A.gXQ [ E FXNXyXrX{.vX0 & T AX` v 1X,XlX2 . + e q.3.9Xv.qXg.9.O.- X X +XdXlXL G @X@X% O ).-X>X>XCXSX{.p ~ ].@X' I.hXXX+X",
"U x D.g G R.2   I E < {.SXGXFX~.SX$Xk x hXR.L B.4X7 q @.q.9Xe.= a 0Xz.@.+.@ ~._.*.V.lX>.k } SX=X:XGXZXnXY <  .    G.=.j Z A.6 S.",
"    >.Z.j G F.6  .  . X.GXZX~.CXGXCXo   ,.>.j j MXNX+.j.0.n.w X + a.h.w.t.i.JX_ v m +X$   Q.HXHX).vXGXnX. . U Q W A.j G .X#   $ ",
"1 >  X*X_ Z.hX@X3X9 p -XnX&Xr &XnX(.9 p 4X'.H -.5Xa w y.0.9Xe.* w 0Xz.@.+.$ {.'.Z ;.gXX.r R vXvX~ X.mXrXX.9 S.3X1XoX' D.MXt $ r ",
"8XuX%.X y jX( l >.gX7 $ %.SXSX7 ).GX:X4 X [.dXzX6 X + e d.4.0X;XqXb.d.@.- o   OX1XlX2 $  .FXCX9 ).JX:X4 $ Q.1Xc z <XF.# < uX>X;X",
"w.k.d X $ [.Z f =.+X    vXHXCX:XJXHX-X.   ' G V.3     s k.q.k.q.k.d.w.r.+     | G Z.;   Y GXJXmXvXHXHX9   ! oXf z [.E   , c.t.4.",
"7.8.N.e.t.uX+XH.<X+X' S.S.&X} mXHXmXQ.U ].G.h L *XR (.$.+.o.O.h.5.#.+.+.u.} S.P.h L gX~ ..&XJXHX%.{.~.S._ _.1XP.F.aX8X+.c.g.9.O.",
"7.7.M.M.5.5.yX! <Xz B dX_   $ $XX./.    !.P.m L *X~ nXtX. + u +.d - . ^ GX..!.G.b L 3X4   Y (.Q.R   % zX=.h G.!.i.;X3.h.m.w.q.O.",
"w.w.x.3.8.h.q   x =.n B |   I 7   I 5     ' G B.3   4 Q.  X # }.r .   t ,.    ' C B.2 X   T     Q   x ( h G '   X y.w.7.w.k.d.@.",
"0XwXn.4.h.eXs o U AX=.B fX XgX8 # F.BX3 X `.1XxX3 # >.5X2 X ,.KXnX; X <.5X2   +X1XxX2 # ,.BX; X *X|.kX( Z dX%X. * wXM.9.g.iX8X;X",
"1 > s.9Xh.k.j.;X}.t k 4XR.( -.fXF.-.;.-.4X[.K ;.3XF.;.D.;.6X.XZ -.hXF.-.A.;.3X'.Z :.6XF.;.;.-.3XP.( >.kX' y } yXt.k.h.z.0Xu > r ",
"  X d 8X3.8.4.v.i.    >.D.l V 2X&.b M b .X>.v m 2X( b b A .X:.l A 2X*.m M b oX;.b C 2X( m M z ,X:.f Z oX%   0 8Xd.8.8.d.;X.   & ",
"& * i.wX3.7.8.v.}.$ 7 6XY.C G lXT.S D *.hXL.M P lXI.S D *.lXJ.B J lXU.D D *.xXD.N *.hXL.G D &.lXJ.m ( kX} $ E uX0.7.8.k.8X4 & 5 "
};
