/* XPM */
static char *_8172_784ae380de287f047a28803534f2c7e9238dae03543c97cc18817e6a2055d7a3[] = {
/* columns rows colors chars-per-pixel */
"64 64 243 2 ",
"   c #020102",
".  c #050409",
"X  c #08070B",
"o  c #09090B",
"O  c #080804",
"+  c #16140C",
"@  c #1A1917",
"#  c #110E07",
"$  c #25231C",
"%  c #332B14",
"&  c #1E1F21",
"*  c #211F20",
"=  c #232224",
"-  c #2B2A26",
";  c #292A28",
":  c #33332D",
">  c #383732",
",  c #2E312C",
"<  c #212018",
"1  c #423F3A",
"2  c #39433B",
"3  c #45433D",
"4  c #4B442A",
"5  c #305549",
"6  c #1C685C",
"7  c #256859",
"8  c #35695C",
"9  c #1B6D64",
"0  c #1C7166",
"q  c #14756D",
"w  c #1B746B",
"e  c #13786E",
"r  c #1A796E",
"t  c #167166",
"y  c #147B73",
"u  c #1B7B73",
"i  c #147F79",
"p  c #1B7E79",
"a  c #157671",
"s  c #0F7B73",
"d  c #256D61",
"f  c #23746A",
"g  c #247569",
"h  c #37776A",
"j  c #237C73",
"k  c #297D74",
"l  c #377D73",
"z  c #474743",
"x  c #585A55",
"c  c #53524B",
"v  c #536A5C",
"b  c #64645C",
"n  c #7C7352",
"m  c #487969",
"M  c #54746A",
"N  c #686863",
"B  c #76766C",
"V  c #7A7A75",
"C  c #716E6A",
"Z  c #635F53",
"A  c #9C761A",
"S  c #A27817",
"D  c #937422",
"F  c #15837C",
"G  c #1B837B",
"H  c #1B8278",
"J  c #0F807C",
"K  c #23837A",
"L  c #278379",
"P  c #388479",
"I  c #47867A",
"U  c #54877A",
"Y  c #72846F",
"T  c #B48A1E",
"R  c #BB8C1E",
"E  c #BC8D17",
"W  c #BE901E",
"Q  c #AC871F",
"!  c #AA8629",
"~  c #B48B23",
"^  c #B98E23",
"/  c #B38C2B",
"(  c #B38924",
")  c #BC9124",
"_  c #BA912C",
"`  c #A98935",
"'  c #B38E33",
"]  c #BB9334",
"[  c #B79539",
"{  c #9A842F",
"}  c #C18E19",
"|  c #C29019",
" . c #C19326",
".. c #A98E46",
"X. c #B79948",
"o. c #B69C55",
"O. c #AA944F",
"+. c #BBA157",
"@. c #8A8471",
"#. c #B6A568",
"$. c #AA9D70",
"%. c #C19D45",
"&. c #C6A44C",
"*. c #C6A856",
"=. c #D2AE56",
"-. c #CAB169",
";. c #D9BB69",
":. c #CBB678",
">. c #CCB270",
",. c #DCC27D",
"<. c #E7C878",
"1. c #E8C56B",
"2. c #138681",
"3. c #1A8682",
"4. c #1D8882",
"5. c #2A8B82",
"6. c #388C84",
"7. c #3A948B",
"8. c #369890",
"9. c #478C82",
"0. c #499487",
"q. c #4B9C94",
"w. c #58978D",
"e. c #6C9789",
"r. c #55A49A",
"t. c #49A498",
"y. c #65A59A",
"u. c #78AA9D",
"i. c #7CA28F",
"p. c #59ACA3",
"a. c #68ADA3",
"s. c #78ADA2",
"d. c #79B5AA",
"f. c #6BB9AE",
"g. c #77C5B9",
"h. c #93938E",
"j. c #999A95",
"k. c #8C8E88",
"l. c #A39D90",
"z. c #98A49A",
"x. c #8AAD99",
"c. c #A3A29C",
"v. c #B5AF91",
"b. c #84ACA2",
"n. c #9AABA2",
"m. c #83BBAE",
"M. c #85B5AA",
"N. c #87BDB2",
"B. c #99B9AD",
"V. c #A8A9A5",
"C. c #BBB9B5",
"Z. c #ADB7AE",
"A. c #C8B987",
"S. c #CCBD8F",
"D. c #C2BDB0",
"F. c #8AC5BA",
"G. c #96C8BA",
"H. c #A8C5B7",
"J. c #B1C8B4",
"K. c #BFC293",
"L. c #DBC586",
"P. c #D7CB97",
"I. c #E7CC86",
"U. c #EBD28A",
"Y. c #E8D597",
"T. c #EBD394",
"R. c #FDE496",
"E. c #C5C3BD",
"W. c #D5CFA9",
"Q. c #EBDAAD",
"!. c #FCE8A7",
"~. c #FEECBA",
"^. c #FCEAB4",
"/. c #FFF3B9",
"(. c #FFF3B4",
"). c #89CCC3",
"_. c #98CDC1",
"`. c #98D6CA",
"'. c #92D7CD",
"]. c #A5D5C9",
"[. c #B7DDD4",
"{. c #B2D4C7",
"}. c #9AE2D6",
"|. c #B8E4D8",
" X c #A8E5D9",
".X c #BBEDE3",
"XX c #BBF6E8",
"oX c #A8EEE1",
"OX c #C5D6CA",
"+X c #D5D2CB",
"@X c #DBDBD5",
"#X c #D9DAD5",
"$X c #CCD1CA",
"%X c #E4DED3",
"&X c #C6E6D9",
"*X c #D6E6DA",
"=X c #D8E8CE",
"-X c #F8EAC4",
";X c #FEF3C4",
":X c #FFF3CB",
">X c #FFFBCD",
",X c #E3E3DD",
"<X c #EAE3D6",
"1X c #F6EDDB",
"2X c #FFF5D4",
"3X c #FFFCD3",
"4X c #FDF4DB",
"5X c #FFFBDC",
"6X c #F6F1DB",
"7X c #E9EAC9",
"8X c #C6ECE3",
"9X c #D5EDE5",
"0X c #C9F4E9",
"qX c #D6F6EA",
"wX c #CEFCF3",
"eX c #DBFEF4",
"rX c #D7FEF9",
"tX c #ECEBE4",
"yX c #ECEEE9",
"uX c #E6EAE5",
"iX c #F3EDE3",
"pX c #F2EEEA",
"aX c #F9EFE3",
"sX c #ECF3EC",
"dX c #E8F7E9",
"fX c #FBF3E3",
"gX c #FEFCE3",
"hX c #F4F2ED",
"jX c #FBF4EB",
"kX c #FEFDEC",
"lX c #F5F3E5",
"zX c #E5FEF6",
"xX c #ECFCF4",
"cX c #E4FFFC",
"vX c #EBFFFB",
"bX c #ECF6F1",
"nX c #F4F5F1",
"mX c #FAF6F2",
"MX c #F3FCF4",
"NX c #FDFBF4",
"BX c #F4FFFA",
"VX c #FEFEFA",
"CX c #F8EFF0",
/* pixels */
"E E | | E | E ) ! U.gXpXVXN   X . . .   > tXmXCXCXMXqXl y 2.F 2.2.2.2.q M.BXyXnXpXVXh.  . . . . . X +XNXjX:XX.E } } | E | E ] S ",
"E W ~ ( ( ~ W ) / T.4XyXVXb   X . . .     3 pXmXCXsX0XP y i q q q e F q M.vXpXpXVXj.  .   . . .   . +XmXaX-X%.R R T ~ T T )  .S ",
"| T &.,.,.,.&./ ~ <.5XlXVXV   X . . . . X   1 iXmXzX.Xk w 7.F.m.N.a.p q s.vXbXVXh.    . . . . X   @ ,XjX4X~.[ ^ ] 1.:.,.;.' [ S ",
"| ~ ,.>X3X3X<.Q ) ' Y.fXfXmXx   . . . . . .   3 tX9XU j q p.rXvXvX.Xu H f N.BXj.  . . . . . .   @ $XNXfX-X-.( ^ X.(.5X3X!.' [ S ",
"| ( ,.3X1X4XI.~  ./ ..-XfXmXnX,   X . . . . o   b i.6 G e r.cXuXMX|.p F u h z.O O . . . . . .   V.NXpXfX:.` ) ^ X.^.4X2X!.` ] S ",
"| ( L.3X2X3X<.~ ) ' L.2XlXVXV     . .     X   , =X&XP j e r.vXBXBX|.u G r d.vXY   . . . . . .   ; #XmX4X^.o.( ^ X./.2X5X!.' ] S ",
"E T =.<.I.<.=.R ~ 1.3XiXNXk.  . . . X   X   , @XNXvX Xk u 8.'.).'.f.i q y.zXxXVXV   X . . . . X   - tXjX4X^.] R  .<.I.<.1._ ] S ",
") ) R ~ ( ( ) _ ' U.2XiXNXb   o X X . X   - @XNXsXbXqXP L p 0 0 0 j K w N.zXsXyXVXV   X . . X . . O $XfX1X;X%.^ _ / ! ( ( _ ] S ",
"! ( ( _ ) _ ( / { U.3X4XgXn             - *XNXhXBXvXqXh d w p H K u w 7 b.vXzXnXhXVXV             O W.5X3X/.X.! ~ ) ^  .( / ` D ",
"I.I.,.' / / ;.U.U.,.:.A.A.v.l.c.c.z.V.k.$XNXxX9Xb.u.b.].`.).6.0 0 a.`.`.F.u.u.].vXsXNXj.z.n.c.V.c.c.S.:.:.:.I.I.U.X./ ( *.U.T.#.",
"fX5X5XY.O.I.3X4X>X>.! / { Y.kXVXVXBXeXi.=XxX0X9.9 9 I cXBXvX|.U b.cXBXvX_.6 0 f G.cXzXx.H.vXBXVXVXgX+.! / [ ~.5X3X~.o.#.:X5XkXE.",
"pXpXiX6X-X2XaX1X2X:./ _ ` U.lXyXzXqXI 7 8XwX9.q 3.u m qXbXyXBXn.*XMXyXBXG.d 4.F f F.cXu.7 _.vXyXuX2X*./ ^ X.-XiXlXfX-X:XfXiXjXZ.",
"VXVXVXpXlXaXNXNXgXA.{ ' { Y.MXzXwXU q K }.0.e F G 0 b.xXsXVXV.  z mXjXMX&Xh y 3.p w '.d.q r _.cXvX5X+.! ! ..2XVXVXjXaXaXmXmXVXD.",
"V V k.CXmXVXj.C B A.Y.L.P.K.x.m.0.w H G 5.e F F 0 d.zXsXVXc.      z CXnXBX[.l y 2.i j 5.H H f s.d.x.P.U.I.Y.@.B V #XVXVX$XC V C ",
"  .   b VXV   .   v.kXfXkXi.6 q y G F F F F F 6 u.zXsXVXz.  . . o   z jXnXMX|.h y 2.F i F F y q t d &XgXgXfX$     = uXE.+   . & ",
". X . . : O . o   V.VXuXcXs.a 2.u j j H F F s g.rXxXMXc.  . . . . X   z tXxXzXoX5.i F p u j p H F L 8XbXhXpX;   o   ; @   o . & ",
". . . .   . . X   V.VXbXwX9.e H ].8X&X.X8.s G t.w.w.Z.$   X . . .   o   Y x.I p.5.i w ).8X|.|.w.e H F.vXhXpX;   X .   . . .   & ",
". . . . . . . .   V.BXqX9.q H L 0XBXnXcXq.a G q 6 s.*X@   . . . . . X   Y &Xh t 2.3.g }.vXMXvXy.e H g G.vXsX;   X . . . . . . = ",
". . . .   . . .   Z.eXU w H F j &XnXyXzXq.e G 0 s.BX,X+   . . . . . o   V VX|.m y H 0 `.vXsXvXy.e 2.p g _.vX;   . . . . . . . & ",
"  X . . . . . X   z.e.7 L F J K XXvXcXcXq.a f f.vXmX,X@   X . . . . o   V VXzX|.L p w }.cXeXcXr.a F G g 8 B.;   X   . . . X   & ",
",   X . . . .   - $X{.|.'.K i F q.r.r.t.4.a 9.wXxXmXuX@   . . . . . .   @.NXyXvXd.e H 8.r.r.r.L F y a.XX{.=XV   X . .   .   o N ",
",X>   X . .   = #XNXMXwXq.u 2.F H e e t y w U qXlXjX%X+   . @ C.x   X   B gX6XMXF.6 j u e e e s J F g `.vXxXVXC   . . .     V.$X",
"mXuX:   o   $ @XVXbX0X9.q F F y H H H H P P Y 7X-X;X7X% + * D.VXCXx @ # @.>X(.>Xx.m I g H G H y F F H w G.xXnXVXB   X O   j.VXC.",
"pXmXuX:   = @XNXhX9X0.y G G q f.7.e g a.0XqX7X$.X.O.#.-X<XpXmXiXCXmX,X1XP.O.o.O.W.dXqX XL r j g.K y F F g _.xXhXVXB   O j.VXjXD.",
"mXpXmX,Xx OXNXyXBXb.t 3.F 0 u.rX0.6 s.zXxXlX-XX./ ! o.;XjXCXaXaXlXpXmXkXI.! ' ! P.kXhXvX|.h 7 oX Xk y 3.y l 9XlXCXNXB x.VXyXmXD.",
"nXbXBXqXx.&XvXdXvXu.9 p 0 s.zXzXU u.vXlXnXfX~.O./ / o.~.4X4X:XA.Q.5X1X5XI.! _ ` P.gXjXyXMX&Xm ].vX[.l p u l qXMXbXvXB.H.vXsXBXC.",
"eXeX0Xw.6 9.8XeXzXs.h l u.zXbXMXH.dXbXhXCXiX~.$...X.+.!.~.^.-.! ..T././.I.` X...P.gXpXpXsXMXOX=XMXxX[.m l U 0XeXrXm.9 g _.rXcXH.",
"I 9.P w H y P 9.m ].wX9XxXsXVXc.- - - - ; < 4 ^.~.^.R.+.o.[ (  .^ _ %.o.,.^.^.:X@.@ , - - - $ x lXhXxX9X9X0Xw.I I r G H k U 9.m ",
"u y a q e a a u d `.vXbXsXVXV.              < 1XfX3X^.X.( ^ } } } } ^ ! A.>X2XkXB               c nXnXsXMXrXI w r q y a e r g 0 ",
"2.i 6.r.q.q.8.p r '.vXyXVXV..   . X X . X   - hXhX4X!.[ ^ } } } } } } ( ,.>X1XVXk.  o X X . X O   c mXnXhXrX6.y K q.q.q.q.p K r ",
"2.q d.cXeXcX).w p 6.8XVXV.. . . .   X X   o C.mXfX-X=.( } } } } } } } ^ [ T.4XhXyXz   . . . . . o   c hXvXm.u y 9.wXrXcXXXl j r ",
"2.a N.vXyXvX).w K 9 9.V.. . . . . . .     C.VXiXfX:.` } } } } } } } } } _ ..7XjXjXmX1   X . . . . o   x B.7 G y I rXdXxX8Xh j r ",
"2.a N.BXbXBX'.w H q b.OX,   O . . . . .   C NXjXfXW.' ^ } } } } } } }  ./ *.1XpXVX$X<   . . . . . .   h.OXh p p I rXBXBX8Xl k w ",
"2.a a..X[..Xf.a r a.cXNXuX:   X . . . . X   C mXfX4XU.) R } } } } } } ^ &.~.fXmXE.@   . . . . X     j.NXxX|.L u P  X[..X'.k j r ",
"2.2.p a u u p K w }.vXyXmXuX:   X X . o X   < iXjX4X^.[ ^ } | | } } } ^ ,.3XiXVXV   o X X X X     j.VXyXhXeX7.a H y u r p H K r ",
"a a a p F p a w 7 ].vXBXsXnX,X:             < 2XgX4X^...( R ^ R ^ R ^ S A.3X2XkXB   .           j.VXsXBXBXzXP t e H F F y w 0 d ",
"s.s.r.f u w w.s.u.G.].].9XMXmX@Xb b b N N x n W.T.U.U.:.>.-._ ^ ( &.>.>.<.U.U.Q.$.x b N N b b z.VXsXxX{.].].M.u.a.P u r 9.u.s.e.",
"vXbXcXM.d a.cXcXcXu.7 d I 0XxXbXb.9XBXNXVXkX;XO.` ` X.(.2X>XU.` +.(.:X3XI.! ! ` W.kXVXVXBXMXH.OXMXxXm.d 0 l qXvXxX|.h I 0XzXMXJ.",
"CXsXbXxXB.zXbXsXvXs.w K e 9.0XzXI m 8XMXuXaX^.X.] _ o.^.2X1X4XQ.-XfX1X4XI.]  .' P.6XiXsXzXM.7 ].cXM.0 p p l 9XbXdXMXJ.&XBXyXmXC.",
"CXpXVXZ.+ h.VXyXBXB.9 G G r I XXt.9 I 0XvXMX;XO.! ! O.3XmXVXpXmXlXmXVXkXI.D ' { P.kXMXvXN.d w oXg.0 p 3.w 9.eXpXmX,X: c mXhXVXC.",
"yXVXZ.X     h.VXsXvXN.0 G 3.e 7.8.H r 0.'.G.J.K.L.A.S.v.j.c.mXpXVX+Xj.l.v.,.:.A.J.G.G.g.w p j t.y F 2.a I 8XxXmX,X:     c nXVXC.",
"VXV.    X .   h.VXdXzXm.t F F s J F G H q 7 U dX5X5X7X#     C VX$X@     B gX5XkXx.6 d H 3.3.G i 2.2.a 6.0XxXNX,X:   X X   c VXD.",
"V.o . . . . X   h.MXxXcXg.H H F w w w r H H I qXyXfX7X@   o   b ;   o   V NX1XkXF.d L H t w w a F y 9.0XzXMX,X:   O . . X   b C.",
"X   X . . . X     V.B.M.F.5.J H g.F.F.F.P w P |.vXMX,X+   X X     . X . V VXuXzXy.0 H p.).).).7.s i p.G.x.{.3   X . . . . .   > ",
"  . . . . . . .   V.B.7 t F F j 0XvXvXcXq.e H P 8XNX,X@   X . . X . X   V BXxXF.H H w  XvXzXcXa.a 2.y 6 m &X-   . . . .   .   & ",
". . . . . . . .   V.cXd.0 F F K 8XsXsXeXq.H H t U qXuX@   . . . . . X   V BXM.d H H w `.cXuXzXy.a 2.y 9.qXxX-   X . . . X . . = ",
". . . . . . . .   V.MXcXd.f F j 0XzXxXeX0.e H H 7 U {.@   . .   . . X   B H.7 0 H H 0 }.cXzXcXy.e p I 0XMXsX;   X . . . . .   & ",
". . . .   . . X   V.VXbXcXy.a K a.d.s.g.L H H g.`.G.OX>   . . . . . .   z.J.G.}.7.J H r.d.d.d.7.y u |.MXhXpX=   X .   . . . . = ",
"  X   o k.@   X   V.VXsXzXs.q 2.a e e e J F y 7.wXzXMX%X-   o . . .   h.VXxXcXg.y F 2.y a q a i F L &XMXpXpX;   X   C c   X   = ",
"    O Z.VXD.@     v.gX4XgXx.6 y p G J F s F F q I 0XxXNX@X-   o O   h.VXbXvXM.0 F F F y F 2.p u w d =X5X5X6X$     C VXhXz     & ",
"C.C.$XmXiXmX+XZ.D.A.-.>.#.P.J.|.d.0 u G r.g H G q 9.0XsXNX,X- .   h.VXsXzXm.0 G 3.s 7.t.y q 9.].|.J.:.-.-.>.S.C.C.mXpXmXtXZ.C.h.",
"NXVXmXaXkXaXkXNX5X:.A / { Y.kXBXzXd.9 j XXg.0 F F t e.xXpXNX*X: k.NXpXBX].7 H 3.a P XXd.6 9.8XxXMX3X+.~ / ` :XNXkXlXfXfXaXVXVXE.",
"pXiXfX2XL.-XfX1X2X:./ _ / Y.5XdXyXvXd.8 &XvXd.d G u I qXhXsXBXB.*XMXsXBXG.d G q P .XvXe.m 0XxXyXlX2X*./ ) [ -X6XiX4XY.Q.gX1XmXC.",
"2X2X;X:.` *.;X:X>X>.` ` ` Y.kXVXVXNXBXB.*XxXzXd.f f U eXvXcXN.7 U 0XcXvX_.7 k I 8XxXMXJ.*XBXMXVXVX5X+.! ' X.^.3X>XY.` X.Q.2XgXS.",
"*.&.&./ _ ~ %.*.+.U.!.Q.~.@.> z z 3 5 2 j.VXsXxX&X[.[.y.w.t.u p a 6.r.w.N.&X[.9XxXnX,Xx 2 z z z 3 3 W.^.Q.Q.-.&.&.' ^ ~ ] *.-...",
"T T T W ^ _ T ~ ! U.5XaXkXb   .           j.VXsXmXBXqXh w a p p p y a 9 M.BXMXhXmXuX>               +XgXfX:X[ R T ^ ^ ^ ~ ( / A ",
"W ^ ] [ X.X.] _ ~ U.5XtXVXN   o . . . . X   j.VXyXxXwXP a 5.6.m P P G w m.vXyXmXtX>   O X X . o O . +XkX6X;XX.W _ [ X.[ [ / ] S ",
"E Q 1.(.^.(.1.~ ^ *.:XfXkXC.+   . . . X . .   j.VXBXN.f a r.wX0XrX Xu y 9.0XBXtX>   X . . . . .   N jXlX5XY._ T %.R.^.(.R._ ] S ",
"| ~ A.3X2X3X<.( W ~ #.-XCXVX$X+   . . .   . .   h.G.0 p a r.cXbXxX|.j 3.w 9.OX>   . . .   . .   B VXhX4XP.` ) T X.(.5X4X!.` ] S ",
"E ( ,.3X1X4X<.~ ) / +.;XfXmX@X@   . . . . X .   @.M.9 3.a r.cXyXxX|.u i q 9.J.*   . . . . . .   V VXhX5XL.` ) ^ X./.5X2X!.[ ] S ",
"E ~ ;./.~./.1.~ _ %.-XfXjX+X$   X . . .   .   k.VXvXd.f a r.rXwXeX Xp y I 8XBX@X=   X . . . . .   V mXfX5XL./ R %.!././.R.' ] S ",
"| ) [ X.o.X.] _ / U.5XiXVXN   o . . . . X   k.VXpXxXwXP p K 9.9.9.6.p t d.vXyXVX#X$   . . . . . . O +XmXfX:X%.T ) X.X.X.[ _ _ S ",
" .^ ) _ / ^ _ _ ` T.fXjXVXN   .           k.VXCXmXBXwXl j i a u u u 3.q M.BXMXpXVX#X;   .   .     O +XVXhX2XX.) ) ) _ / ) ) ] S ",
"R R ^ R R R R ^ ! L.7X#XtXN + = & & & @ C tX@X@X@X*X|.m k 3.3.3.3.5.3.f b.9X#X,X#XtXC.; @ & & & @ = E.<X@XQ.X.T R T R R ~ ~ ' A "
};
