/* XPM */
static char *_648881fe37a42d7ce3a20350b74cedfKv3jdv8WqIYPDE4g[] = {
/* columns rows colors chars-per-pixel */
"64 64 233 2 ",
"   c #020101",
".  c #050409",
"X  c #08070B",
"o  c #0A0A0B",
"O  c #0B0A03",
"+  c #14130B",
"@  c #0E0E10",
"#  c #191815",
"$  c #100F0F",
"%  c #211E18",
"&  c #25251C",
"*  c #2B2B25",
"=  c #35332C",
"-  c #3B3B34",
";  c #373733",
":  c #30302C",
">  c #3C4134",
",  c #47463A",
"<  c #17594B",
"1  c #135D54",
"2  c #1C5D53",
"3  c #0F5B4F",
"4  c #2C5D4F",
"5  c #0E675C",
"6  c #14645C",
"7  c #16655A",
"8  c #266458",
"9  c #386658",
"0  c #36715F",
"q  c #0D6B63",
"w  c #0B6E6A",
"e  c #0A6B66",
"r  c #136B64",
"t  c #1B6B64",
"y  c #136E6A",
"u  c #156661",
"i  c #0D736D",
"p  c #13726D",
"a  c #19746D",
"s  c #0A7673",
"d  c #0A7776",
"f  c #127672",
"g  c #117974",
"h  c #236D65",
"j  c #346C61",
"k  c #2C7269",
"l  c #24746A",
"z  c #387569",
"x  c #2D7D72",
"c  c #387C72",
"v  c #4C4C44",
"b  c #494A45",
"n  c #514E46",
"m  c #4C5249",
"M  c #53534C",
"N  c #575649",
"B  c #5C5C53",
"V  c #575A53",
"C  c #5D6158",
"Z  c #486854",
"A  c #63635C",
"S  c #67665A",
"D  c #746F5C",
"F  c #457A6C",
"G  c #49776A",
"H  c #4B776C",
"J  c #6B6C63",
"K  c #696C66",
"L  c #74746A",
"P  c #787B74",
"I  c #6F7169",
"U  c #847D69",
"Y  c #39867D",
"T  c #44897E",
"R  c #468378",
"E  c #598A7B",
"W  c #59907D",
"Q  c #728879",
"!  c #BB8929",
"~  c #BD8D33",
"^  c #B78B37",
"/  c #BE9139",
"(  c #CB8D1D",
")  c #C68A1A",
"_  c #D88F18",
"`  c #DA9016",
"'  c #D6911C",
"]  c #D8921B",
"[  c #D69017",
"{  c #CF901F",
"}  c #C58D24",
"|  c #CA8E23",
" . c #C38D2B",
".. c #C88E2B",
"X. c #CE9124",
"o. c #C8912C",
"O. c #D29222",
"+. c #C28E32",
"@. c #C3943B",
"#. c #C79435",
"$. c #D18F21",
"%. c #BC9647",
"&. c #B6995A",
"*. c #B48F41",
"=. c #87857A",
"-. c #958D77",
";. c #9B947E",
":. c #8C846C",
">. c #AF9B6D",
",. c #B9A165",
"<. c #C49C47",
"1. c #C09C50",
"2. c #CCA246",
"3. c #D5AB58",
"4. c #D0A754",
"5. c #DBB465",
"6. c #D1B56F",
"7. c #E4BB69",
"8. c #E2BF78",
"9. c #DAC17E",
"0. c #E8C579",
"q. c #E6C06D",
"w. c #3D8881",
"e. c #458B83",
"r. c #588E82",
"t. c #599488",
"y. c #4F948C",
"u. c #659688",
"i. c #769988",
"p. c #729A8F",
"a. c #68A699",
"s. c #77A694",
"d. c #7AB8AB",
"f. c #74B0A4",
"g. c #898B84",
"h. c #87978A",
"j. c #98978B",
"k. c #9B9C94",
"l. c #969994",
"z. c #A39B86",
"x. c #A29F96",
"c. c #8AA896",
"v. c #96A897",
"b. c #8AA58D",
"n. c #A8A28D",
"m. c #A6A699",
"M. c #AFB19A",
"N. c #85B6A9",
"B. c #86BDB1",
"V. c #98B6A8",
"C. c #A8ABA3",
"Z. c #A9B7A8",
"A. c #B7B6A9",
"S. c #BABBB4",
"D. c #D3BC8A",
"F. c #C2BEB2",
"G. c #8AC6BC",
"H. c #95C8BD",
"J. c #AAC4B8",
"K. c #B0C5B1",
"L. c #D8C284",
"P. c #D9C899",
"I. c #E7C987",
"U. c #F2D28B",
"Y. c #EBD597",
"T. c #F6D999",
"R. c #E9D08D",
"E. c #FFE19D",
"W. c #C6C4B9",
"Q. c #D3CDB9",
"!. c #D9CEA8",
"~. c #E4D6AC",
"^. c #EEDAA9",
"/. c #FFEAAC",
"(. c #FDE3A5",
"). c #E7E9BD",
"_. c #FAE7B7",
"`. c #FFF4BD",
"'. c #FFF3B8",
"]. c #9BD4C9",
"[. c #97CCC3",
"{. c #B7D6C8",
"}. c #ACD5CD",
"|. c #B0E6D3",
" X c #CCCCC5",
".X c #C6C9C4",
"XX c #D5D4CB",
"oX c #DDDCD5",
"OX c #D4DCD4",
"+X c #C6D9CE",
"@X c #E5DDCB",
"#X c #D9EBC9",
"$X c #C5E8DA",
"%X c #D8E6D8",
"&X c #C8F3DB",
"*X c #D0E9CB",
"=X c #E7ECC7",
"-X c #FCEECB",
";X c #F8EAC5",
":X c #EDF2C7",
">X c #FFF4C4",
",X c #FFF4CB",
"<X c #FFFCCD",
"1X c #FBF9CA",
"2X c #E5E4DB",
"3X c #E8E9D9",
"4X c #EAF5D7",
"5X c #FEFBD4",
"6X c #FFFDDA",
"7X c #FAF6D8",
"8X c #C9EDE2",
"9X c #DEEEE2",
"0X c #D7F7E7",
"qX c #D9FFF5",
"wX c #CEFAEC",
"eX c #ECECE3",
"rX c #E6E8E1",
"tX c #ECFCEB",
"yX c #E8F5E7",
"uX c #FEFBE3",
"iX c #F2F4EA",
"pX c #F4FDEC",
"aX c #FCFBED",
"sX c #F5F8E5",
"dX c #EDFEF5",
"fX c #ECFFFB",
"gX c #E4FEF8",
"hX c #F4FFF3",
"jX c #FDFEF3",
"kX c #F1FFFC",
"lX c #FFFFFA",
"zX c #F9F7F2",
"xX c #F2EFE5",
/* pixels */
"f i i s s u H fXK   * oXzXb   . . .   .   o C.lXP   o %X[.3 s i s i 3 d.tX&   J lXS.# . . . . . .   : rXeX-   m fXr.q s i i i i ",
"f p s s s w R fXV.* XXzXb   . . .   . . .   @ A.lXI b fX[.u s s s f 5 f.dXC V jX.X# . . . . .     .   - eXrX= h.fXr.q d s i i i ",
"g i s s d p t f.tXeXrXb   . . . . . . . . .   o C.iXeX{.c w d d s s i x {.yXxXS.#   . . . . . . .   .   ; oXxXtXB.t f s s s i i ",
"g i s s d s u z 9XzXA.  . . . . . . . . . . @   N zXhXV.1 f i d s i i 7 i.pXlXJ   o . . . . . . . . . .   k.lXyXF u g s s s s i ",
"g s s d d f z 8XrXm.lXC.    o X X . X . X X   n lX XA.gXa.y f d s g q t.hXS.W.hXA   X X . . X . X X     j.lXm.OXwXF y d d s s f ",
"t q f f p 1 H gXI   L lXC.                  v zX X# O rXH.1 t f g r 3 N.hX& O S.zXA                   j.lXg.  V fXE 1 y s i q 5 ",
"u.t.k 6 c r.h.pXj., , F.aXm.n N M M M M n S 3XsXI , B %XK.W r.7 7 R E K.4XS , S =XxXL n N M M M M , j.jXW.N , =.pXc.u.c 7 h t.t.",
"dXgX}.H 8XgXpX4X5X5X5X-X>X5XuXuXjXaXlXaXaXlXtXyXhXhXpX4XpXhXfXs.u.gXhXtX4XpXhXdXtXtXaXpXaXlXlXlXaXuX6X,X,X<X5X5X4XpXhX8XR H.gXdX",
"m P yXyX%XV J 7XI.4.3.3.3.8.>XQ., n , g.hX{.t.t.y.r.Q 0XZ.> S.kXhX.X> v.tXQ W y.t.t.K.hXv.> v , F.7XI.4.3.3.4.8.,XQ m OXyXyXi.b ",
"  # oXlXW.  = 7X3.! ( ( [  .8.<Xz.  > 9X8XF 7 q q q 8 wXZ.  o S. X#   l.gXz 5 q q 5 z |.yXM   U 5XI.+.| ( } ) 3.<X,   A.lX3X:   ",
": XXeXj.lXA., ,X7.( O.] ' O.! 0.6XA.2X8Xc q f s g f t B.fXh.  + #   P kX[.t f s s f r k $XyXM.6XI.o.O.' ` ' { 3.<Xn j.lXl.2X2X- ",
"%XzXv   I lXXX-Xq.( ' ] ` _ $.^ P.uXyXG u s s d d s f t B.kXh.    P kX].t w s d s s g u 9 %XjX~.^ X.' ` ` ] ( 3.>XQ.lXg.  ; eXrX",
"xXn   X   I zX,X5.} ' ] ` ] ..3.-X2XyXJ.h d d d s s s s 7 G.kXg.P kX].h p i d d s s s t N.iXoX-X5.o.O.` _ ] | 4.,XjXg.  X   - rX",
"v   X . .   P 6XY.@.X.' ' X. .E._.& g.fXw.e d d d d s i r 8 V.aXpXJ.8 r p s s s d s e w.fXv.% Q._.@.o.' ' O.+.I.5X-.  . . . . ; ",
"o   . . X   = xX5XT.#.X.} #.%._.A.  B fXe.e f d d d p l x 9 b.4XsXV.9 0 l q s s d s w e.fXV   z.>X&.@...| +.R.,XuX,   . . . .   ",
"$   . . O   - aXF.7XT.*.4.(.`.uXW.  J fXT q f e s i a |.&X#X5X~.P.5X=X&X|.Y i f w f e Y kXJ   m.uX;X/.5./ I.5XF.aXn   . . . . X ",
"$   . .     ; lXA S 7X~.-X@XM.F.g.  S kXT 7 7 y.a t k &X:XY.0./ / q.Y.).0Xz u r y.7 r w.fXS   P F.M.~.-X~.6XU v lXb   . . . . . ",
"@ . . . .   ; lXI   j.aXxX-     O   B hXF < u.qXH.2 0 *XP.^ o.O.' } ^ 9.4XG 2 G.qXs.< F kXB         * 2XlXC.  M lXb   X . . . . ",
"@ . . . .   = lXA ; 4X%X4XA.B S S B z.sXc.b.4X:XtXK.9 *XR. .O.] ' O.o.0.:XZ v.tX=X6Xv.c.pXz.B S J B m.iX%XtXv b zXb   X . . . . ",
"@ . . . .   ; zXm.9X8XG s.fXfXfXkXhXsX4X5X<X^.&.L.5XA.).U.} O.` [ ' { q.).K.5XP.&.Y.<X7X4XpXhXhXkXfXfXN.Z |.yXx.aXn   . . . . . ",
"o . . . .   ; iXsX&Xz 5 r Y e.T R R c.5X6.2.#.o.+.8.<X1X0. .' ` [ ' X.q.,X5X0.~  .#.2.6.5Xc.Y T R w.w.t u k |.kXpX,   X . . . . ",
":   .   X   V pX{.R q g s w e e 5 < b.1X2.) [ [ O. .8.>XU.@.X._ [ O.! R.1XI.~ O.] ] ) 2.5Xc.< 7 e w e s g w z {.jXJ   X .   . # ",
"OX*   o   b 3XpXs.5 f d s s d p t u.4X(.#.[ [ [ _ X.*.(.,XR.+.$.O. .I.`./.1.| ] ` [ [ #.Y.6Xs.7 a s s d d f 1 t.tXxXB   o   % W.",
"zXoX*   b iX3XtXa.5 s d d d d w Y wX4X,.o.] [ ` ` O.@.(._.7XI.@.^ 0.5X)./.<.$.` ` ` ]  .&.:XqXT e d d d d s r t.yX3XjXV   %  XzX",
"M iXOXC iXXXB dXa.5 f s s s d s p f.tX~./ | ] ` ` O.@.'.;.U 5XP.D.uX;.:.`.<.{ ` ` [ ' / P.pXG.r i s s s s g q t.fXA W.lXS W.lXC ",
"  ; 3XzXXX# * hXs.7 p i s s s w 5 2 b.5XU.@...| $.o.%.'.z.O =.uXuXj.  U 1X<. .' X.| +.I.6Xv.< 7 i s s s s p 7 t.hX,   W.hXiXn   ",
"& , 2XhXXX* , pXc.0 l e s f q x Y F Z v.5XY.%.2.<.%.&.>Xn.+ U aXlXj.+ ;.1X,.%.<.2.&.I.5XK.Z G Y x p i s y h j i.pXA # W.hXyXV % ",
"yXkX$Xi.0XhXsX4XyXgX|.k y f 7 |.0X4X4X:X1X<X/./.`.<X,X-XxXaXlXl.=.lXaX7X>X<X<X`././.>X>X).4X4X0X|.l p p h ].gXyX4XyXhXgXp.{.fXyX",
"N.d.c 1 e.N.V.tXZ.i.gX{.k u 8 |.).9.0.q.q.0.`.>X-.:.-.3XQ.U L o   I =.S.7X;.U :.).`.I.7.0.0.9.).&Xk t t ].kXl.v.tXZ.N.y.1 x d.N.",
"7 5 i f r 7 F dXJ   K fX|.j 2 *XT.! o.| } ~ 6.<Xn.  O 2Xx.    . .     =.zX# O -.5X0. .} } ! ! R.#X8 8 ].fXP   v hXE 1 r g p q 6 ",
"a a i s s y c wXOX:   C kX{.l.5X0.} O.' ' X.! q.5XM.=.lXg.  o .   o   J lXj.j.5X0.~ O.' ] { } q.5Xv.J.lXP   % .XqXe.y s s s s y ",
"g s s s s g 7 E yX%X:   V iXpX~./ O.' ` [ [ O./ D.7XzXk.  .   . . . .   =.jXuXD./ O.] ` ` [ O.@.P.sXhXL   # +XkXu.7 s d d s s i ",
"f i s d d d 7 t.fXXX*   I tXyX~.@.X.] ` ` [ ' +.D.uXzXC.O . . . . . .   k.aXuXP.@.| ] ` _ _ { / !.sXpXQ   # S.kXp.t f d d d s w ",
"f f i d d a F qX+X#   L fXK.h.1XU. .O.O.' X. .8.6Xz.L jXg.  X X . o   L lX=.=.6XI.+.X.' O.O.( 0.6Xb.Z.kXg.  # S.fXe.r g d i f i ",
"7 6 y f r 1 H kXA   L fX}.8 4 *XY.^  .}  .~ D.<Xj.  O 3Xm.      .     =.aX% O U ,XI.~ } |  .! R.#X9 8 G.fXg.  v dXW 1 r f i 5 7 ",
"H.[.e.1 y.H.J.tXS.v.fX}.h t h |.4XR.R.U.0.U.`.;X>.;.z.3XXXk.g.+   =.k.W.7Xn.;.;.;X1XU.0.U.R.P.).&Xk t 7 H.fXZ.Z.yXK.H.a.1 c G.G.",
"%XgX&Xc.0XdX%X4X9X0X].h y p t ].&X#X#X=X1X>X(.(.`.`.>X-X3X3XlXC.l.lXeX3X-X>X`._./.(.>X1X).#X#X&X|.a w y t G.qX9X4X2XyXgXc.$XgX%X",
"$ : %XlX X$ - pXs.8 7 p s s y a k 0 9 v.5XI.1.@.<.*.&.;Xz.  L aXzX-.  -.,X,.%.@.@.%.L.<XK.Z j k l w s d f r 8 u.hXN   A.hXeX, . ",
"  b 3XzXoX& * kXa.7 g g s s s s t 8 c.6XI.+.| O.O...<._.z.O j.sXuXM.O U >X1...' ' X.! 0.5XJ.8 r i i d d s f 6 t.fX, # XXzXiXA   ",
"J zX Xn rX2XD dXa.5 g d d d s s p d.tX!.@.O.` ` ` { @.'.z.-.5XD.D.5Xn.-.`.<.$.` [ ] ' ~ P.4XG.a s d d d d s u t.dXJ  XzXM A.lXI ",
"zX X#   ; rXiXtXa.5 f d d d d w Y wX4X,.~ ] ` ` ` O.@.(.;X5X0./ ^ 5.,X;X/.2.X.[ ` [ [ o.&.:XqXw.w d d d s s r t.yXxXiXb   $ S.lX",
"W.&   o   ; oXhXs.2 a s d d g g 5 W 4X(.#.[ ] ` ] X.%.(.>XI. .O.'  .6.'./.1.| ' ` [ ` #.^.4Xu.t f d d s s g 6 t.tX3Xv   o   + S.",
"*   .   o   n pX$XR u g s e e q r < Q <X2.) ] ' ' ~ I.>XU.~ X.' ' O.+.I.`.Y.+.{ [ ` ) 2.<Xb.< u q e i i s 5 z +XaXS   X . .   @ ",
"X . . . X   ; yXdX0XR 7 t Y w.Y e.R v.5X6.2.#.o.~ I.7X1X0. .' [ ` ' | 7.1X<XU./  .o.2.6.1Xc.F T T Y w.h 7 c $XtXsX,   X . . . . ",
"@   . . X   ; lXk.OX0XH c.fXfXkXfXhXsX:X1X1X(.,.P.5XZ.).U. .' ] [ ' } 0.).M.5X~.,.T.<X5X4XtXhXkXdXfXfXV.G 8X2Xj.aXv   o . . . . ",
"@   . . X   = lXA & %XeXtXm.S J J A n.tXc.b.4X4XtXV.4 #XR.+.O.] ' O.o.0.:X9 b.tX4X4Xc.c.sXz.A D I S l.tXyX4X- , lXv   . . . . . ",
"@ . .   .   ; lXI   j.jXeX>   O     A hXR < W wXB.2 0 &XR.^ ..O.X.X.! L.4XF < f.qXu.< F kXB       O & 4XaXM.  M jXv   . .   . . ",
"@   . . .   ; lXS L 6X!.;X;XM.W.g.  S hXR r 5 Y a u k &X:XY.0.%./ 0.Y.).0XY r r Y r y T fXS   P F.M.@X-X!.5X-.n jXb   . . . . . ",
"@   . . .   - zXQ.,XU.^ 4.T._.6XF.  S dXT q a i s w l ].|.*X6X~.!.5X*X{.|.x i s w f e Y kXS . C.6X_.(.3.^ I.5XQ.sXv   X .   . X ",
"@ . . . .   = 7X5XR.+.O... .*./.F.  A dXT e s d d s p a h 4 h.iXsXv.4 h r y s d d d w w.fXC   z.>X*.+...X.+.I.-X7X,   X . . . . ",
"b   . . .   =.6XI.+.| _ ] O.+.T.-X; k.kXY w s s d s i f t 8 Z.hXpX{.j t p s s d d d w Y fXC.* ~./.#.O.' _ X. .I.6Xk.  X . X   = ",
"iXm   .   =.jX-X7.) _ ` ` ] X.4.;X4XiXV.h s s s d s s p t ].fXI A kX|.h y d d d d s f y c.tXeX-X3...O._ _ ] | 3.-XlXl.  . . - 2X",
"oXiXm   g.lXW.>X7.( ] ` ` ' O.^ !.uXyXH 6 g s s d d y t ].kXP .   K fX}.l i s d d s d u Z 9XzX~.*.X.] ` ` ] ' 3.-XF.lXl.  ; eXoX",
"= XXeXk.lXl.- 5X7.| O.] ] O. .I.5Xm.%X0XY q f s s p t [.kXU   % *   K kX}.h a s s f q c 9X2Xk.6XU.+.O.O.] O.| 3.5X, g.lXm.oXoX: ",
"  % 2XzXA.  = 5X5.! | | | +.I.7X=.  : %X9XR 5 5 q 6 8 wXC.. # .XoX*   h.gXz 6 w e u z 8X9X4   D 7XU.+.} | |  .3.5X,   C.jX3X*   ",
"C i.iXyX%XK P 7XR.3.3.7.3.I.7XQ.B B M g.yX*Xp.a.a.t.i.0XS.m {.dXgX+Xm C.yXi.u.t.a.p.{.zXk.m A M F.5XR.3.7.3.3.L.5X=.C OX9XgXl.B ",
"fXfXH.F $XkXhX3X7XuX6X-X-X6XuXaXlXlXlXlXzXhXpXyXdXkXjXyXyXkXfXu.E qXkXdXeXjXhXfXtXtXhXaXlXlXlXlXaXaX6X,X1X5X6X5X4XpXfX8XF B.fXfX",
"u.t.h 6 c t.h.tXj., M W.lXl.v M M m M M M V oXaXU , N oX{.r.y.7 7 T r.Z.yXS , I xXeXS m M m M m M n =.lXXXN , =.pXc.r.c u t y.u.",
"u q y g w 6 F fXP   g.lXj.                  - eXoX* + yXH.< y f f y 3 N.hX& + W.iXn .         .       U lXm.  M dXr.1 i f i q u ",
"g s d d d p k 8X%XZ.lXl.  . X X o . . . . o   - iXOX.XfXt.u d d d f y y.gX X XlXm   o . X . X X X X X   P lXS.+X8Xz p d d s d d ",
"g s d d d s u F rXzXC.  X . . . . . . . . . o   b zXlXc.1 a s s s d g 1 i.pXjXS   X .   . . .   . . . X   g.lXyXR 6 f d s s d w ",
"g i i s d f t B.tX3XrXb   . . . . . . . . X   $ S.xX2X$XY w d s s s p x $X2XyX X*   . .   . . . . . .   ; %X3XtXH.h i s s s s s ",
"f i s s d r R fXc.& oXzXb   .   . . . . .   # .XlXV - dXG.6 f s s f 5 d.fXv , zXOX%   . . . . . . .   ; eXoX% =.fXr.u d s i w s ",
"f y f i g y F gXK   = oXxXb   @ X X . X . # S.lXI   O %XH.7 a i s a 7 d.yX&   V lX X% . X X X X . . : rX2X:   m dXr.5 f s i s w "
};
