/* XPM */
static char *_3b742191d1740a3c89bebb6692f8ee6W8j9Kg5JC1SKhiyH[] = {
/* columns rows colors chars-per-pixl */
"64 64 224 2 ",
"   c #020101",
".  c #080604",
"X  c #0A0905",
"o  c #050409",
"O  c #08070B",
"+  c #0A090A",
"@  c #070909",
"#  c #12110D",
"$  c #181504",
"%  c #151412",
"&  c #181616",
"*  c #1B1A14",
"=  c #1C1C1C",
"-  c #111D19",
";  c #211F16",
":  c #1A261D",
">  c #23231D",
",  c #1C1C20",
"<  c #211F20",
"1  c #232222",
"2  c #2B2A25",
"3  c #292B25",
"4  c #33322D",
"5  c #38352E",
"6  c #353430",
"7  c #393834",
"8  c #413F38",
"9  c #463D25",
"0  c #42413C",
"q  c #4C4A3C",
"w  c #53503F",
"e  c #155C4E",
"r  c #165D53",
"t  c #225B49",
"y  c #0E675D",
"u  c #12655C",
"i  c #16675B",
"p  c #0D6B62",
"a  c #0E6763",
"s  c #136760",
"d  c #136A63",
"f  c #1A6B66",
"g  c #126E6B",
"h  c #17736B",
"j  c #0B7673",
"k  c #0C7874",
"l  c #127672",
"z  c #147873",
"x  c #0E766F",
"c  c #377468",
"v  c #2A7064",
"b  c #3B6F58",
"n  c #484742",
"m  c #4B4B45",
"M  c #4E4D49",
"N  c #474641",
"B  c #53524C",
"V  c #54574C",
"C  c #5B5A54",
"Z  c #5E5D5A",
"A  c #565952",
"S  c #4F504A",
"D  c #625F5A",
"F  c #4C6758",
"G  c #63625C",
"H  c #696657",
"J  c #666561",
"K  c #6C6B65",
"L  c #6E6D69",
"P  c #686461",
"I  c #716F6A",
"U  c #72716C",
"Y  c #7E7B6B",
"T  c #797673",
"R  c #7B7B75",
"E  c #7E7E79",
"W  c #777671",
"Q  c #817E79",
"!  c #3D8176",
"~  c #5B8D7D",
"^  c #71897C",
"/  c #B78A33",
"(  c #BD8929",
")  c #BE891F",
"_  c #CB8D1C",
"`  c #C0871E",
"'  c #D28E19",
"]  c #D78F15",
"[  c #DA9016",
"{  c #D6911B",
"}  c #D99219",
"|  c #D79014",
" . c #C68D23",
".. c #CA8D22",
"X. c #C88E2A",
"o. c #CB9027",
"O. c #D29122",
"+. c #C59337",
"@. c #D39D3C",
"#. c #D38F20",
"$. c #BA9443",
"%. c #83837C",
"&. c #87867C",
"*. c #9E937D",
"=. c #A2997C",
"-. c #BFA254",
";. c #C09640",
":. c #D8A548",
">. c #CBA85B",
",. c #D4A955",
"<. c #E7B55D",
"1. c #D8B97C",
"2. c #CCAA65",
"3. c #E7BC6A",
"4. c #E8C378",
"5. c #55958A",
"6. c #639A8B",
"7. c #759E92",
"8. c #68A499",
"9. c #77A698",
"0. c #71A38D",
"q. c #6EABA1",
"w. c #7BB4A9",
"e. c #868681",
"r. c #8C8C85",
"t. c #8D8D88",
"y. c #888982",
"u. c #918F8A",
"i. c #928F86",
"p. c #93928C",
"a. c #929187",
"s. c #969691",
"d. c #9C9B94",
"f. c #9E9D99",
"g. c #A19F9A",
"h. c #98A69B",
"j. c #88A294",
"k. c #A3A29C",
"l. c #A9A89E",
"z. c #A8B88E",
"x. c #89B8AA",
"c. c #96B8AA",
"v. c #98ACA0",
"b. c #ABAAA4",
"n. c #ACABA7",
"m. c #B1AEAA",
"M. c #B4B3AC",
"N. c #BBBBB3",
"B. c #BBBAB5",
"V. c #A0B6A9",
"C. c #D4BD88",
"Z. c #C1BEB9",
"A. c #C1BEB7",
"S. c #C9BEA8",
"D. c #91C5B8",
"F. c #A5C9BC",
"G. c #BEC1B8",
"H. c #DBC695",
"J. c #D4C68E",
"K. c #E8C883",
"L. c #ECD194",
"P. c #C4C2BC",
"I. c #C8C5B9",
"U. c #CCC3AD",
"Y. c #EDD6A8",
"T. c #FFEAB4",
"R. c #FCE8B7",
"E. c #EBEAB7",
"W. c #A8CCC4",
"Q. c #B8CCC3",
"!. c #B5D9CB",
"~. c #B7DAD1",
"^. c #B9DFD4",
"/. c #ABD2C5",
"(. c #C6C6C1",
"). c #CCCBC4",
"_. c #C9C6C1",
"`. c #D5D3CC",
"'. c #DAD6CD",
"]. c #DCD9CE",
"[. c #DEDCD5",
"{. c #DAD6D1",
"}. c #D2CFCA",
"|. c #E1DED9",
" X c #E2DED5",
".X c #C9E7D9",
"XX c #FAE9C5",
"oX c #FFF3CB",
"OX c #FFF6C6",
"+X c #E4E2DC",
"@X c #ECEBDE",
"#X c #E5E3D9",
"$X c #FBEFD5",
"%X c #F2EBDA",
"&X c #F3EAD9",
"*X c #ECF7D6",
"=X c #FEF2D2",
"-X c #FEF3DC",
";X c #FEFDDE",
":X c #F1F4DC",
">X c #DCFAEB",
",X c #EAE7E2",
"<X c #ECEAE5",
"1X c #EEECE9",
"2X c #E6E8E2",
"3X c #F1ECE4",
"4X c #F2EEEB",
"5X c #F8EFE0",
"6X c #ECF3EA",
"7X c #F5F1E4",
"8X c #F5F2EC",
"9X c #F9F5EE",
"0X c #FEFBEE",
"qX c #F8F8E7",
"wX c #E4FDF3",
"eX c #EBFDF4",
"rX c #EDFFF9",
"tX c #F6F5F1",
"yX c #FAF6F2",
"uX c #F3FBF2",
"iX c #FDFBF5",
"pX c #F4FFFB",
"aX c #FFFEF9",
"sX c #FFFEF9",
/* pixls */
"o o o o o o o O   E iX<X4X1XaXe.  o o o o o o o o o o J iX3X3X4XiXm.  O o o o o o @   B iX<X4X<XaXB.% o o o o o   1 <X4X4X4X8X'.",
"o o o o o o o o   e.aX1X4XaXu.  o o o o o o o o o o o o U yX8X3XyXM.  O o o o o o o   A sX<X<XaXP.&   O o o o o   3 <X4X4X4X8X'.",
"o o o o o o o O   Z sX4XsXt.  o o o o o o o o o o o o o   L yX1XsXr.  o o o o o o o   5 4X8XaXP.%   o o o o o o   3 <X4X4X4XtX{.",
"o o o o o o o o o   T yXt.  o o o o o o o o o o o o o o @   K iXg.. o o o o o o o o o   m <XP.$   o O o o o O O   1 ,X4X,X1X4X}.",
"o o o o o o o o o   . u.%   o o o o o o o o o o o o o o o o   a.>   o o o o o o o   o @   %.0   @ o               > qXiXiXiXaX X",
"o o o o o o o o .   R yXs.  o o o o o o o o o o o o o o o   I 9Xk.o o o o o o o o o o   S 7XI.*     G M.n.n.m.b.b.b.L Z G G G P ",
"o o o o o o o O   D aX4XsXs.  o o o o o o o o o o o o O   L iX1XaXr.  O o o o o o o   5 7X8XiXI.$ H yXaXiXiXsXyXsX2X#         = ",
"o O o o o o o O   e.iX,X2XiXp.  o O o O O o O o o O o   K iX<X2X9XM.  O O o o o o +   C 0X&X%X;XC.E.-X&X3X<X1X1X8X[.* o + +   1 ",
"      . o o       Q sXiXiXiXaXk.@                     ^ aXaXaXaXiXM.      o o @       w qXOXOXL.$.,.T.=X=X5X3X1X8X[.& o o o   < ",
"R e.C   o   Z %.R i.a.r.r.r.r.s.Z E Q E E E E E R &.D t.r.y.r.t.r.a.%.%.U +     N &.Y =.H.K.4.+.O. .,.K.J.Y.5X8XtX[.&   o o   < ",
"sXsXaXI   T sXiXaXa.              t.sXaXsXsXsXiXsXM.+             C sXiXsXk.  B 8XaX0XY./  ...{ { { .... .>.=X1X8X[.%   o o   1 ",
"1X1X4X8Xi.yX1X,XiXr.  + o O O . o   T iX,X1X,XsXg.    + o @ o +   C iX2X2XsXh..XuX%XoXY.o.[ } } } } [ [ ' ,.oX<X8X+X=   o O   = ",
"4X1XaXu.# k.aX,XsXt.  O o o o o o o   R sX3XsXl.. o o o o o o o   C sX2XeX!.c 9.wX%XOXK.O.} [ [ } | [ [ ' @.T.$XiX(.+ o o o   q ",
"1XiXu.    X k.iXyXr.  O o o o o o o @   R iXk.    O o o o o o o   C uXwX^.c i i j.*XL./ O.} | | | | [ } } X.2.oXI.>   . O   Z `.",
"sXu.  o o     f.sXr.  O o o o o o O @ @   p.=   + O o o o o   @   C pX!.v p z h t z.-. .{ | } } [ [ [ [ } O./ C.0   + o   A yX{.",
"e.o o o o o o   M.s.  o o o o           I 0Xp.        o o o o @   F .Xv p k x y 0.*XK.+.{ } } } [ [ [ [ } _ ,.T.U.*     C 9X9X`.",
"o o o o o   o   # D   o o o o   4 K Z e.tX4XsXf.C L N   o o o @   F ! p j j p 5.wX:X=X4...[ [ [ [ [ [ } { @.T.$XiX(.# A 9X8X8X`.",
"o o o o o o o +   Q Q   . o o   L sXiXiX4X1X4XiXiXsXf.  O o @   V F.d k j j a w.pX3X-XY.X.{ } [ [ [ } { _ ,.oX@X@XaXl.].iX,X4X`.",
"  o o o o o o o   &.sXL   o +   D iX,X4X4X4X4X1X,XiXp.  O o   S uX/.u k j x y w.rX3X5XY./ _ _ ' [ [ ' _ ) >.;X0XiXN.# m 1XaXaX X",
"o o o o o o o +   ^ aXyXU   o   e.iX4X4X4X4X4X4X4XiXm.  o   M 1XiXW.s j j l y w.pX<X5XR.1.3.<.X.o...:.3.3.1.=.s.t.*     m f.s.p.",
"o o o o o o o o   Q aX3XaXI   L yX4X4X4X4X4X4X4X4X3XiXp.  M 8X6XuXW.s k k j u w.rX1X4X5X5X$X=XL.$.>.R.=X;XS.        o o       = ",
"o o o o o o o o   Q aX<X3X8Xi.8X4X4X4X4X4X4XtX4X4X4X<XaXs.+XtX2XuXW.f k l z i w.rX<X1X1X1X,X<X;XJ.E.-X@XiXP.o @ @ o o o o @   1 ",
"o o o o o o o .   %.aX@XiXk.* k.sX1X4X4X4XtX4X4X8X4XyXI.> T sXtXaXF.r d p y e w.pX6XuXtXtXeXeX.Xb 0.eX6XiXb.  o o o o o o o   1 ",
"o o o o o o o O   %.yXiXk.X     b.yX1XtX4X4X4X4X4XiXI.*     T (.P.V.5.5.5.5.~ x.~.~.~.~.~.~.W.c d i 9.uXN.#   @ o o o o o o   1 ",
"o o o o o o o O   R aXk.o   +   D sX,X4X4X4X4X4X,XaXu.  . o       A pXwXeXwXeXc.r f f f g f a g x h e v.:   o o o o o o o o   , ",
"o o o o o o   O   y.M.  o o @   L sXyXyX1X4X4XtXyXsXg.  O o O O   C iX<X3X<XpXx.s k k k j k j j z u 6.>Xh.. o o o o o o o o   1 ",
"    o o o o o o   C %   o o O   M A.m._.iX<XyX`.b.A.I   o o o +   C iX1X8X1XuXx.s k k k j j j l u 6.>X6XsXp.  + o o o o o O   1 ",
"Z   o o o o o   R r.  + o o o       o o l.sXI.*       o o O + +   Z iX<X1X2XeXc.s l j k k l l y 5.>X6X,X9X(.  @ O o o o o +   1 ",
"yXK   O o o   L sXt.  O o o o o o o o   X h.>   . o o o o         C sXiXsXiXpXc.r s y y y y i 9.eXiXiXiXaXI.      . o o       = ",
"1XyXJ   @   I yXsXt.  + o o o o o o o   w #XI   o o o o o 7 U L H &.k.d.f.f.h.h.9.q.q.q.8.w.~ j.h.d.g.h.k.s.L L J +     6 U K U ",
"4X4XyXJ   L iX<XaXr.  o o o o o o +   S 7X9XaXK   o o +   r.sXtXsXM.  o       ^ pXeXeXeXpXQ.-             N sXiXsXk.  5 2XsXsX[.",
"1X1X1X8Xi.9X1X,XaXr.  + o o O @ o   S 1X8X2XiXn.  + + +   %.iX+XyXn.  O . X   &.iX<X,XaXN.#   . O O . +   m tX<X<XsXd.`.yX,X6X`.",
"iXiXsXk.* b.sX9XaXr.              A uXyXuXuXsXl.          &.aX9XsXN.  o   O   Z sX1XaXA.#   . O o o o o   m yX,XiX`.> L iX3X8X{.",
"m.B.t.X   + s.M.M.p.V C C C A F F F.!.W.W.W.!.v.A C C C V a.M.m.N.%.  o o o o   Y iXN.#   o o o o o o O   m yXtX`.1     U iX8X`.",
"      o o         %.sXiXaXtXpX.X! u i d s f e 0.pXiXaXiXaXy.          o o @ @ o   a.2   + o o o o o o o   N sX}.<   @ o   L aX`.",
"O o o o o . o o   %.yX1X2XwX!.v p k k j j x y 8.eX<X1X2XiX&.  + o o o o         A 1Xu.        o o o o O   B [.;   o o o @   W [.",
"o o o o o o o O   T sX<XeX!.v p j j j j k x y 8.eX1X4X<XaX&.  O o o O   6 U J Q 4XtXsXf.J U M   o o o O   m 4   o o o o o o   A ",
"o o o o o o o o   + n.pX!.c h k j k x j z z i 8.eX<X1X<XuXy.  + o o O   U sXaXsX4X1X4XiXiXsXM.  o   .   8 n.  o o o o o o o   = ",
"o o o o o o o o .   X v.c i z k p p y p p p e 6.rXuXuXuXiX&.  o   o O   P iX,X1X4X4XtX1X2XiXk.  o +   4 4X).  o o o o o o o   1 ",
"o o o o o o o o .   B .X8.u h y 5.8.8.8.8.8.6.x.W.F.F.F.Q.j.A J m   o   %.sX1X4X4X4X1X4X1XtXB.  o   5 +XsXB.  o o o o o o o   1 ",
"o o o o o o o o   N 8XuX>X0.t 0.>XwXeXeXrXwXrXW.r i s s e x.pXyXaXI   C 3X4X4X4X4X4X4XtX4X4XiXt.  4 ,XtXiXP.  o o   o o o o   < ",
"O o o o o o o +   &.iX&X:X:Xz.*X6X1X@X<X1X1XuXF.d k k l u x.rX,X1X9Xi.3X8X4X4X4X4X4X4X4X4X4X1XsXp.`.iX,XyXZ.  o o o o o o o   < ",
"      o o .       Y 0XoXOXL.-.K.oX-X-X7X1X6XuXF.y k j l u x.rX,X0XN.> f.aX4X4X4X4X4X4X4X4X1XyX}.2 R aX3XyXZ.  o o o o o o o   < ",
"B C 6   .   7 C q =.R.Y.4.+.+.+.K.Y.Y.XX3X2XuXF.a k j j y w.eXaXN.#     b.yX4X4XtX4XtX4X1XtX{.>     T yX9XA.  o o o o o o o   1 ",
"yXaX<X0   B 8XiXqXH./ o. .#.O.' ..+./ 1.-X<XpXF.a k j j u w.pXN.#   +   J iX,X1X4X4X1X1X1XsXf.  + o   T sXZ.  o o o o o o o   < ",
"4X3X8X@XQ 3X8X&XoX4.o.[ [ [ [ [ [ [ _ 3.=X<XeXF.d k j j u D.Q.+   . O   W sXiXyX4X4X1XtXiXsXM.  o o .   &.(.  o   o o o o o   < ",
"4X<XiXI.0 I.yX&XOX4._ [ [ [ [ [ [ } _ <.oX:XeXD.p k j g i ^ :   O o o   M M.k.P.yX1XtX`.g.M.T   o o o o   Z %   O o o o o o   4 ",
",XiXI.*   > I.;XL.+.#.[ [ [ [ [ [ [ { +.L.qX^.c p k x y 9.^   + o o o           f.sX}.1       o o o o .   M g.  o o o   @   6 B.",
"iXP.%   @   ; C.+._ } [ [ [ [ [ [ [ [ ..$.J.b s j z u 6.rXr.  o o o o o o o .     d.2   @ @ o o o o o o   m sXp.  o o o   > #X#X",
"I.*   @ o   H R.,. .' [ [ [ [ [ [ } }  .>.E.0.i h u 6.>XuX&.  @ o o o o o o +   5 ].U   + o o o o o o o   m yXaXp.  @   3 [.iX}.",
"*   o o   G 9X-XT.,._ [ [ [ [ [ } { _ :.R.qXwX0.t 6.wX2XiX&.  O o o o o o +   7 @XyXiXU   o o o o o o o   m aX,XsXs.  3  XyX8X`.",
"o o o @   m.iX&XoXK. .} [ [ [ [ } {  .3.=X<X6X6Xh.>X6X,XiXy.  + O o O . o   5 +X8X<X3XyXL   o . O O O +   m 9X,X,XsXs.}.yX,X8X`.",
"o o o o   l.iX3X-XC. .| ] [ ] } } '  .3.;X9XaXN.: V.sX9XaX&.  o           8 <XiX9XyXyX0XaXR               N sX9XiX[.7 T aX9XaX[.",
"o o o o   b.yX3X-XY.>.,.@._ #...@.,.>.1.U.P.b.%   X f.I.).a.8 m n n N m q m.).Z.P.P.Z.P.I.).Z n n n n m 0 I ).P.G.5     T ).I.M.",
"o o o o   l.iX1X3X%X$XoXR.>./ ,.T.XX;X=.  o     . o       &.sXtXiXtXsX[.4           o       % n.sXtXyXtXsX(.      o o o       < ",
"o o o .   b.iX3X4X4X4X3X=XR.C.R.$X<XiXp.  @ o o o o o +   &.sX<X,XtX`.1   o o o o o o o o o     f.sX2X1X9XG.  o o o o o O o   > ",
"          l.sX4X8X8X4X4XiXU.9 U.0X,XsXr.  O o o o o o O   W sX,XiX`.1   o o o o o o o o o o o     h.aX2XsXB.  O o o o o o o   , ",
"1 3 1 1 ; l.,X X|.|.|.+XP.*   > ).aXB.%   o o o o o o o   + b.sX}.<   O o o o o o o o o o o o o .   k.aX[.4   o o o o o o o   1 ",
"<X,X1X,X9XK @ * & & & * +   +   > l.#   o o o o o o o   o   X k.3   o o o o o   o o o o o o o o o     d.7   . o o o o o o o   < ",
"4X8X4X3XaXG     o       o o +   A ].0   o o o o o o o o @   6 `.J   . o o o o o o o o o o o o o +   3 }.I   o o   o o o o o   1 ",
"4X4X4X3XsXD   O o o o o o @   C 9XiX<X7   O o o o o o o   5 +XsXyXJ   @ o o o o o o o o o o o o   2 {.iXyXU   o o o o o o o   1 ",
"4X4X4X<XiXG   O o o O o @   A 8X4X@XaXd.  o o o o o o o   r.sX,X4XiXG   o o o o o o o o o o o   2 [.iX,X0XI.  o o o o o o o   , ",
"9X4X9X3XaXG   o           D 0X8X8X3XsXp.      o o     o   %.sX7X8X7XyXL       o o   o     o   4  X0X5X4XiXP.    o o     o     < ",
"'. X{.'.#XK # , = = , % q  X].}.{.'.#Xt.% , , , , = , , # %.#X'.].'.].[.B % , , = = , , , * 3 A. X'.'.'.#Xn.= = , = , , , = = 4 "
};
