/* XPM */
static char *c7d02d5652094b17ad88570847bafec4D4m2xaBAlSkCfo1m[] = {
/* columns rows colors chars-per-pixl */
"64 64 234 2 ",
"   c #020202",
".  c #0A0201",
"X  c #000A05",
"o  c #0A0A06",
"O  c #050409",
"+  c #08070B",
"@  c #000B0A",
"#  c #0B0A0B",
"$  c #130200",
"%  c #1B0400",
"&  c #150C01",
"*  c #1C0B00",
"=  c #140F09",
"-  c #05120D",
";  c #13120E",
":  c #1B1204",
">  c #0E0D11",
",  c #001412",
"<  c #031B17",
"1  c #141314",
"2  c #1D1C1A",
"3  c #171814",
"4  c #100F14",
"5  c #250A00",
"6  c #241300",
"7  c #2E1A00",
"8  c #261803",
"9  c #321D00",
"0  c #211E1A",
"q  c #382404",
"w  c #22221D",
"e  c #2B2213",
"r  c #342A18",
"t  c #3F3117",
"y  c #082827",
"u  c #093936",
"i  c #183B38",
"p  c #112E2B",
"a  c #232322",
"s  c #292926",
"d  c #2D2D2B",
"f  c #272823",
"g  c #39342A",
"h  c #353533",
"j  c #3C3C3A",
"k  c #383935",
"l  c #2A3835",
"z  c #00231E",
"x  c #4A2D01",
"c  c #452701",
"v  c #4C3102",
"b  c #48320C",
"n  c #573704",
"m  c #493718",
"M  c #533812",
"N  c #643E00",
"B  c #433A29",
"V  c #413D3A",
"C  c #07423E",
"Z  c #17413D",
"A  c #2B433E",
"S  c #5A4318",
"D  c #6A4603",
"F  c #724C06",
"G  c #7C540B",
"H  c #664915",
"J  c #7B5819",
"K  c #705015",
"L  c #484434",
"P  c #544C3A",
"I  c #57472C",
"U  c #634D26",
"Y  c #6C5528",
"T  c #775A25",
"R  c #6C5938",
"E  c #745D35",
"W  c #796338",
"Q  c #7D6028",
"!  c #074A46",
"~  c #184A47",
"^  c #1A5A57",
"/  c #0F554F",
"(  c #274A47",
")  c #275955",
"_  c #385956",
"`  c #31504B",
"'  c #1B615C",
"]  c #0E605A",
"[  c #29645E",
"{  c #35625D",
"}  c #176763",
"|  c #197F7D",
" . c #0F6964",
".. c #276863",
"X. c #346662",
"o. c #337A76",
"O. c #2B7672",
"+. c #4A4B46",
"@. c #484946",
"#. c #53524E",
"$. c #5C5C5A",
"%. c #575854",
"&. c #4B564F",
"*. c #605F5C",
"=. c #7B6946",
"-. c #62625F",
";. c #766C59",
":. c #526A64",
">. c #656462",
",. c #6A6B68",
"<. c #75736B",
"1. c #797976",
"2. c #69726D",
"3. c #5F665F",
"4. c #845D17",
"5. c #835A0E",
"6. c #8A6319",
"7. c #956C1C",
"8. c #B57B0E",
"9. c #AE7915",
"0. c #AD7A1B",
"q. c #A87618",
"w. c #B37B12",
"e. c #B27D1B",
"r. c #B87B10",
"t. c #8A6726",
"y. c #946D27",
"u. c #9A732A",
"i. c #896C37",
"p. c #997736",
"a. c #916E33",
"s. c #AD7D23",
"d. c #A77A28",
"f. c #B17E22",
"g. c #B17F28",
"h. c #A57D35",
"j. c #815F20",
"k. c #8C7446",
"l. c #977A45",
"z. c #8E7952",
"x. c #A27E40",
"c. c #1A827F",
"v. c #17807D",
"b. c #2C837D",
"n. c #25817D",
"m. c #32827E",
"M. c #46837E",
"N. c #B6811D",
"B. c #AD812D",
"V. c #B48224",
"C. c #B4842C",
"Z. c #B88323",
"A. c #AD8334",
"S. c #AB833B",
"D. c #A9833D",
"F. c #B28533",
"G. c #B18738",
"H. c #9B8154",
"J. c #AA8747",
"K. c #B18B46",
"L. c #AB8C56",
"P. c #B08C50",
"I. c #81827D",
"U. c #0E8685",
"Y. c #0D8886",
"T. c #148585",
"R. c #1B8381",
"E. c #118887",
"W. c #238583",
"Q. c #2B8683",
"!. c #2C8885",
"~. c #268884",
"^. c #338582",
"/. c #3B8985",
"(. c #478683",
"). c #768781",
"_. c #898A86",
"`. c #89928D",
"'. c #94928B",
"]. c #9C9C9A",
"[. c #979794",
"{. c #A29D93",
"}. c #9DA19C",
"|. c #A3A29E",
" X c #B3A88F",
".X c #A4A4A2",
"XX c #A9A9A5",
"oX c #ADADAA",
"OX c #A6A8A5",
"+X c #B1AFA9",
"@X c #B7B4AB",
"#X c #B5B5B1",
"$X c #BDBDBA",
"%X c #B9B9B5",
"&X c #ACB1AC",
"*X c #C7B38B",
"=X c #C0BFBA",
"-X c #C7BCA8",
";X c #BFC2BE",
":X c #C2C1BC",
">X c #D7C7A6",
",X c #E4D5B8",
"<X c #C5C5C2",
"1X c #CDCDCA",
"2X c #CBCBC6",
"3X c #D7D4CA",
"4X c #D5D5D2",
"5X c #D9DAD5",
"6X c #DDDDDA",
"7X c #D8D8D3",
"8X c #D0CFCD",
"9X c #E2DCCF",
"0X c #E2E2DE",
"qX c #E7E2D4",
"wX c #F4E9D1",
"eX c #E5E5E2",
"rX c #EAEAE6",
"tX c #EDEDEC",
"yX c #E7E8E3",
"uX c #F0EFED",
"iX c #EFF0ED",
"pX c #F1F1EE",
"aX c #FDF9EB",
"sX c #F1EFF0",
"dX c #F1F1F0",
"fX c #F3F3F1",
"gX c #F7F8F4",
"hX c #FBFAF5",
"jX c #FEFEFA",
"kX c #FFFFFD",
"lX c #FDFEFB",
"zX c #F8F6F4",
"xX c #EFF0F1",
"cX c #DFE0DB",
/* pixls */
"pXuXdXdXxXhX%X  o   j yXsXtXlX_.  %.lXtXtXdX>.  O O O O + XXkXyXtXkX[.  O O O +   _.zXtXtXfXL   OXlXtXzX6Xd   O ; 5XgXuXsXsXuXtX",
"uXuXsXsXtXhX<XO   h eXfXsXtXzX7Xo &XlXtXsXdXdX%.  O O O   + +XkXkX].    O O O   1.hXtXuXtXkX_.; yXdXuXtXgX7Xs   3 0XfXsXsXxXdXpX",
"uXpXdXxXpXtXzX'.L eXgXtXxXdXtXzX'.0XdXdXdXtXdXzX>.  O O O   O XX[.    O O O   _.lXuXuXuXuXzX4X].hXtXuXdXtXlX6XV +XzXuXpXsXdXpXuX",
"uXpXxXsXpXtXlX:X_.lXtXxXpXpXtXpX:XrXdXxXpXpXtXkX].  O O O +   1.>.  # O O O + $XkXtXsXpXdXfX0X2XgXtXxXdXtXuXzX,.4XzXtXsXxXdXuXdX",
"tXtXpXpXtXdX4Xw   1.kXuXtXrXiXyXs :XhXtXtXuXkX|.  O O O O   >.hXpX%.  + O +   4 ;XlXrXpXrXlXXXh gXtXtXtXdXhX$.  h yXtXtXtXdXtXtX",
"lXlXpXrXfXkX:X      ,.aXlXhXlXXX  1.kXhXaXaX'.  . . . .   1.kXhXlXlX>.    . . . * @XhXhXlXkX#.  <XkXlXlXrX@.    o eXkXsXtXdXlXhX",
"XX&XiXjX4XXX}.*.$.$.#.%X&X|.#Xj   w +X|. X*Xn n n n M M P oXoXXXXXoXXXL m n n n n H *X X+X].;   #.%X}.#XOX+.-.$.>.XXXX6XlXeXXXoX",
"    %.;X2   @.lXkXkXlXzXI.      O .   . n p.S.F.S.D.L.=.&             : k.L.D.G.G.S.p.q .     O       |.lXkXkXkXhXw   s $Xk   o ",
"#   j }.O   +.gXrXtXtXtXkX'.O O O . . S G.e.0.0.0.S.E .   O O O O O O   % W A.9.9.0.s.S.b .   O   = +XlXtXtXtXuXyXd   3 XXs   1 ",
"  h eXkXoX  L hXtXxXdXxXdXyX2   o . b J.0.r.8.w.V.G %   O O O O O O   o . * 6.e.w.8.8.s.J.9 . O   h gXiXxXxXtXpXtXw 1 2XkX5Xa   ",
"k 0XhXrXkX].#.zXtXxXxXrXkX'.  .   . H S.9.r.8.w.V.D $ . + O O O O O O + . $ F Z.w.8.8.9.J.x . . .   @XlXtXxXuXpXyXV :XlXrXlX4Xd ",
"eXgXtXxXiXhX:XyXgXtXtXpXaXm 7 W R $ D A.9.w.w.w.9.D.S . . + + O + + O . . U F.0.w.8.w.0.F.c % W R 6 P aXpXrXtXhXcX2XhXrXxXtXgX6X",
"xXuXxXxXtXhX%X%.gXzXkXwX Xt.A.B.S.F D C.w.8.w.e.g.A.P.U .             . Y P.h.Z.e.8.w.w.A.n 5.G.C.h.a.*XaXhXhX0X+.4XzXdXxXsXtXdX",
"rXtXuXxXtXzX$X  -.5X_.e 6.C.9.w.w.f.d.g.9.w.e.q.G T T R +.1.<.<.<.,.1.P W T J 5.q.w.w.0.d.d.s.w.8.9.F.K r '.4Xj o 5XdXtXxXtXrXtX",
"lXlXfXxXdXkX:X  O #   q A.w.w.8.8.f.4.F F.q.C.5.$ . . . # oXkXkXlXlX[.    . . $ 6.V.s.F.N a.s.8.8.w.e.h.6   #   ; cXlXpXtXaXlXhX",
"$.#XyXuX6X[.h   +     R A.9.8.8.8.C.T % K S.h.J . + O +     [.hXlX_.  O O O + . t.d.h.n % a.f.8.8.8.9.A.I   O O O L OXcXuXyXXX#.",
"    1.2Xh       O O   B G.e.w.8.8.f.T $ $ U P.T . + O O O +   }.`.  O O O O O . t.P.M $ % a.s.8.8.w.V.J.t   +   O     +.8X*.  . ",
">.;XtXpX0X|.j   . . . $ n s.g.g.V.G.i.. .   R E   @ O O O   O ` ( @   O O O O   =.S . . % k.G.g.Z.V.d.q $ o   .   +.+XyXpXrX@X-.",
"lXhXpXuXsXlX<X  $ b H D N d.4.K Y R B . .   . L #   O   i / } ^.m.^ ^ y O O   > k   .   . P Y T K 6.7.N D H t . ; 0XkXpXtXpXhXhX",
"tXtXdXdXtXzX-X. S J.F.g.C.C.J 5 $ . $   O o   ` _ @ @ X ) /.n.R.R.W.(.~   O , :.A   O O . . $ $ 5 t.B.C.C.A.D.q * 5XpXuXdXtXtXtX",
"sXsXxXxXtXaX-Xn S.0.e.w.9.9.Z.t.* . . O O O   ( (.' @ @ ^ b.R.T.E.| ^.~ X < ..(.i   o O O o . 6 u.Z.9.9.w.9.0.A.S 9XpXuXdXpXtXpX",
"eXfXtXxXtXhX*Xh.0.8.r.8.r.r.9.h.E &   @ @ @ X ~ Q.b.) - ' W.R.E.E.R.!.! , X.Q.Q.~   @ O @   6 i.g.w.8.8.8.8.8.s.p.>XhXtXdXtXhX5X",
"h 6XhXtXkX{.v S.9.w.8.r.w.e.C.F.P.k.&   X X X ~ !.v.!.] ] ~.R.E.T.T.b.]  .Q.c.!.! X @ X   8 z.K.A.C.e.8.8.w.8.0.h.x =XlXyXkX8Xd ",
"  d cXkX.X. x G.9.w.w.9.9.q.D H H U L _ ` ) ^ O.W.E.T.n.m.b.c.T.T.c.b.m.W.R.E.R...^ ) ` @.L U H H F q.e.9.w.w.0.D.7 & ;XkX4Xw   ",
"#   j [.#   v S.0.e.g.s.N.7.$ .       ( (.o.~.R.T.E.T.!.' / ^.c.c.^.! [ W.E.E.T.R.!.^.M.i     . . % y.e.f.g.e.0.D.9 . 2 .Xs   > ",
"O O O   O . x D.S.5.v h.B.t.o o O O   O ! Q.c.T.E.E.U.!.~ @ ' m.m./ - [ W.Y.E.T.T.| ^.u O O O O O * u.C.p.c 6.S.l.9 . O   O O + ",
"O O O O + . b L.R % $ c J.i.. O O O O @ O ~ ^.c.U.Y.U.W.) X @ ` A X @ { W.U.E.v.R.^.C O @ O O O   $ k.l.9 . * W L.q   O O O O > ",
"  O O O O   b =.$ . o . b =.. O O O O @ O , ! W.W.!.~.(.(   @ OX`.  X { /.~.~.~.n.C @ O O O O O O o k.9 . . . & =.7     O O O O ",
"a   O O O   P :   O   . . L w   O O Z ..[ }  .^./ C ~ i M.@X;XkXgX#X&X2.i ~ u ^ m. .} ..X.y   #   g B   . O +   e P   O O O   h ",
"8Xa   #   ,.$X  O   O +   #.1X;     ~ /.W.R.R.Q.) , @   '.lXgXrXxXgXkX3.  X < ..n.W.W.W./.u O   s 6XV   + O O   # 5X%.  +   j yX",
"lX4Xw   >.kX$X  O O O O   @.lX$X- X ' W.R.T.T.c.!..., O #XzXrXdXxXrXgX`.  y O.~.T.T.E.R.~.^ X s 5XkXh   O O O   ; 6XgX#.  k tXgX",
"rXlX1X<.zXhX$X  O O O +   +.zXlX<X_ m.R.T.E.E.E.T.^._ OXkXtXuXxXxXxXtXkX`.X.Q.T.T.E.E.T.R.o._ 6XhXuXk   O O O   ; 5XhXdX<.eXfXtX",
"rXkX.XV 6XlX%X  O O O +   +.zXlX`.i o.R.T.Y.E.T.c.m.Z ,.iXiXiXiXxXuXiXeX&.( ^.R.E.E.E.E.W.o.p OXkXsXk   O O O   1 4XkX<Xh #XkXrX",
"kXOXO   d uX:X  O O O +   +.kX_.  O ^ Q.R.R.R.c.Q./ X   [.hXrXiXuXrXlX2.  - ' !.c.v.R.| !.u   O |.kXk   O O O   ; yX1X3   # %XkX",
"].+   +   j |.    O O +   +.].  O   ~ (.o.!.~.b.! - - X `.lXlXxXxXlXkX2.X - - ^ b.n.^.m.(.u @ O   .XV   + O O   3 oX2   +   4 +X",
">   +   +   B r   .     . P =   O O y Z C ! ! b...[ ..{ :.&.1.gXyX3.&.:.{ [ [ } b.! ! C Z < O O   : L . .   . . m r   + O O   1 ",
"O O O O O . b z.6 . . . Y k..   O O O O O , } R.R.W.R./.A X X 2.&.X X { m.~.R.~.W.] @ X O O O O O % z.H . . . r H.9 . O O O O + ",
"O O + O + . x L.k.9 $ U J.t.. O O O @ O , ..Q.R.E.Y.Y.~.) X z { _ < @ ..R.Y.Y.Y.v.^.) @ O O O O   & u.J.S $ c l.H.9 . O O O O > ",
"O O   3   . v S.F.7.G h.d.y..   O     , ..n.v.T.E.E.Y.~./ < o.b.!...- [ ~.E.E.E.T.v.Q.) @   o O O % u.s.A.G d.d.x.9 . O 1   O + ",
"+   1.0Xd . v S.9.w.N.9.e.7.* % &   > :.(.b.!.W.T.E.T.~.[ O.R.T.T.~.[ O.W.T.E.T.~.Q.b.(._ > . o . 5 u.e.0.N.8.q.h.q   j 0X%.  > ",
"  2.lXhX0X7 c G.9.w.w.w.w.0.y.y.a.k.B p p i y ' W.T.W.n.b.b.R.E.E.R.b.o.n.R.U.~.' y u p f P k.y.y.y.e.w.w.w.w.0.S.7 B rXlXdX#.  ",
"1.gXsXrXlX3XE h.9.8.w.8.r.w.e.C.J.S       O   ~ !.| ^.u ] n.v.E.E.R.~.! ! ^.v.b.Z X       . Y K.g.e.w.w.8.8.r.0.p.R qXzXtXsXtX$.",
"gXsXxXsXuXhX>Xa.g.8.r.r.r.w.0.A.M . O O O @ X ( m.m.u @ ' b.T.E.Y.v.!./ @ ~ m.m.Z   @ O O   . U A.9.w.r.r.8.w.g.p.,XaXtXdXtXdXsX",
"sXsXsXsXuXhX@X7 h.g.9.e.w.0.A.n $ . o O O @   ( (.u @ @ ' b.c.T.R.| m.~   @ ~ M.A X O   O . . $ F C.9.9.9.0.F.y.q 3XzXuXdXuXuXtX",
"pXtXtXtXrXhX:X. 9 l.D.h.B.d.D % * % . . O O   A l X @   _ /.m.n.W.b.M.(   @   ` l   O   . $ * % 5 G h.A.h.J.i.6 & qXuXtXdXtXtXpX",
"yXkXhXzXlXkXXX    8 c c v u.y.a.a.z.R . .   7 P   O O O y y ! o.O.C u < O O O   P &   . . =.k.a.a.y.y.c c c 6 . = <XkXlXdXlXlXcX",
"a ,.=X0X|.+.=   . . . 5 5.g.e.V.0.S.W .   6 l.W . O O O O O @ _ A X   O O O O   i.W & . & k.A.e.f.e.f.F $ . . +   1 $.oXyX#X*.w ",
"  1 _.4X#.      + +   R G.w.8.8.8.V.Q $ 6 i.J.J . O O O O   a 5X$X>   o O O O . t.J.W * % a.e.8.r.w.w.K.I   + O     o >.7X<.o   ",
"XXuXjXzXkXcX,.  O     U A.9.8.8.8.N.J 6 u.B.B.J .     O   a 5XgXlX:X;         . t.g.F.4.5 y.e.8.8.w.9.h.m     O o _.eXkXdXlXyX].",
"hXpXtXtXrXkX2X  # @.. * u.N.e.w.w.N.t.t.V.9.V.5.5 : * & g 8XgXrXyXhX#X0 * * 6 5 6.f.9.C.4.p.f.w.8.w.f.y.. : @.  ; eXgXtXxXtXfXlX",
"rXtXpXuXuXgX@X  |.lX2X;.i.G.e.9.0.u.7.A.9.w.w.9.d.p.l.z.g s a a a a f B z.x.p.d.e.9.w.9.A.6.g.9.9.s.G.W <.7XkX1.o 4XzXxXsXuXuXrX",
"hXtXdXdXuXlX:X].lXrXhXhX,XH y.S.J.c D F.9.8.w.N.0.g.h.q               . b J.s.w.w.8.8.e.F.c n G.S.t.K wXhXzXuXlX_.5XaXtXsXsXuXzX",
"%XlXtXuXfXiX}.gXuXxXtXrXaXP $ m t $ D F.9.8.w.w.s.u.9 . . + O O O O O . . b h.0.w.8.8.9.h.x % B m . ;.jXrXpXuXfXrXOXhXtXsXtXkXXX",
"o oXkXuXkX%.j hXtXxXxXtXzX#X    . . S S.q.8.8.w.g.n . o   O O O O O O   . . F Z.w.r.w.0.J.b .     o 8XzXtXpXxXfXrX2 1.kXtXkX].O ",
"  o oXhX,.  +.hXtXxXxXtXgXrX2   o   9 l.g.8.w.w.e.u.7 . + O O O O O O . . c d.w.w.8.w.g.l.6   +   h zXdXtXuXxXxXtXs   _.kX].  + ",
"@   f I.    @.hXxXxXxXgXrXL   O O . . 7 p.s.e.s.0.A.k.8 .               q l.h.0.e.s.s.a.6 . . O     -.zXaXxXuXfXtXw   O _.1   # ",
"1 1 ].pX$.  #.aXyXrX0X0X%.  3 o   + 3 & b l.l.D.h.l.z.z.r 1 4 4 1 4 1 g z.l.x.x.h.p.z.q * ;   O o 1   1.yXyXrXyXyXh   ,.iX1.# 2 ",
"6X0XhXgXtX0X#X2 f 2 d <X6X6XrX3.  k 0X6X9X,XM 5 9 7 9 8 B 8XyX6X5XtX%Xr 7 7 9 9 * U 9X9X0X4Xa   1.tX5X6X@X2 w 2 d 2X0XfXgXzXcXcX",
"pXdXtXuXtXkX$X    # #XkXgXxXkX<X  [.kXpXuXaX3Xe . .   . O k yXlXlX4Xa   .   . . g 9XhXfXpXlX<.  0XlXfXgXlX[.    o cXhXuXtXiXgXfX",
"iXpXxXxXxXuXrX%.; ;XkXtXxXuXtXuX$.4XgXxXsXtXlX7Xs O + O O   k 0X1X0   O O O O j yXhXtXxXuXhX=X>.hXtXtXtXtXkX].  ,.pXuXuXdXuXtXiX",
"iXpXuXuXpXtXlX4X[.kXrXpXuXuXuXiX3XrXpXdXxXxXrXkX$X  O O   #   >.+.  # O O O + 1XlXrXsXsXpXpXyX7XpXpXdXuXuXrXkX'.yXgXxXsXxXxXpXiX",
"pXiXdXxXtXpXyX+.o #XkXtXuXxXfXpX%.4XzXuXxXtXlX6Xd O O O O   h 0X2X2   O O O   j rXgXtXsXiXhX:X>.lXtXuXuXtXkX.X  ,.zXtXsXuXuXpXpX",
"pXpXdXpXuXjX%X    + oXlXpXtXhX:X  '.lXuXtXgX7Xs   O O O   k yXzXhX1X2     O O   k 0XaXpXtXlX<.  7XgXuXuXlX].    # 7XzXuXpXpXpXiX",
"iXrXrXtXyXzX$X= 1 + 1 :XdXyXgX<.  @.uXyXuX0Xk   1 4 1 O d 6XfXyXyXhX<X2 > 4 4 1   +.yXrXtX0Xd   _.hXyXgX&X# ; > 0 7XuXuXuXrXrXrX"
};
