/* XPM */
static char *_05aa8ce983041528aaf6ab670d62b25ceTTJ1bdjqTMdpmD[] = {
/* columns rows colors chars-per-pixel */
"64 64 249 2 ",
"   c #020200",
".  c #0A0301",
"X  c #030A03",
"o  c #0C0A04",
"O  c #0C0C0A",
"+  c #020D0A",
"@  c #120B01",
"#  c #150B03",
"$  c #06130C",
"%  c #17150A",
"&  c #0C1914",
"*  c #161B16",
"=  c #221A06",
"-  c #211E17",
";  c #1A261C",
":  c #0D2219",
">  c #2C230B",
",  c #28261A",
"<  c #342C17",
"1  c #352A0F",
"2  c #1A2823",
"3  c #1E332B",
"4  c #262C28",
"5  c #27322A",
"6  c #383528",
"7  c #393A34",
"8  c #2F332A",
"9  c #493B1A",
"0  c #463D28",
"q  c #33433A",
"w  c #5A4619",
"e  c #4A4637",
"r  c #544C35",
"t  c #544A30",
"y  c #67593B",
"u  c #6D5829",
"i  c #76633A",
"p  c #145D52",
"a  c #195D53",
"s  c #155D51",
"d  c #3A4B44",
"f  c #235D4E",
"g  c #325950",
"h  c #0E655D",
"j  c #146256",
"k  c #13655B",
"l  c #1B655A",
"z  c #14695D",
"x  c #1C6659",
"c  c #266659",
"v  c #35685A",
"b  c #0D6A62",
"n  c #0D6B67",
"m  c #146C63",
"M  c #1A6D63",
"N  c #156C66",
"B  c #157166",
"V  c #14736C",
"C  c #1B746B",
"Z  c #1A746A",
"A  c #0D7673",
"S  c #147671",
"D  c #187973",
"F  c #0D726B",
"G  c #266C63",
"H  c #356E62",
"J  c #297469",
"K  c #377569",
"L  c #297C72",
"P  c #387C73",
"I  c #474D46",
"U  c #47554D",
"Y  c #56554A",
"T  c #465A54",
"R  c #595C56",
"E  c #514F49",
"W  c #57645C",
"Q  c #666558",
"!  c #73694D",
"~  c #5A6A62",
"^  c #477769",
"/  c #497D72",
"(  c #567C73",
")  c #52756A",
"_  c #7A7B74",
"`  c #6A756C",
"'  c #645D4C",
"]  c #876E3C",
"[  c #877855",
"{  c #847B6A",
"}  c #388479",
"|  c #2C8177",
" . c #49867A",
".. c #55867A",
"X. c #548977",
"o. c #68857A",
"O. c #7A857C",
"+. c #6E816B",
"@. c #BC8A2B",
"#. c #BA8726",
"$. c #B88C35",
"%. c #B68D3A",
"&. c #BE871F",
"*. c #C98C1E",
"=. c #D5931E",
"-. c #CF901E",
";. c #C48D24",
":. c #CA8E23",
">. c #C48E2A",
",. c #C98F2A",
"<. c #CC9124",
"1. c #CA932B",
"2. c #D39423",
"3. c #D1962A",
"4. c #C69537",
"5. c #D39B33",
"6. c #D29D3C",
"7. c #C18E32",
"8. c #DAA43C",
"9. c #B99449",
"0. c #B69653",
"q. c #85847B",
"w. c #958B6F",
"e. c #AC996D",
"r. c #B8A471",
"t. c #AC995C",
"y. c #C69B46",
"u. c #C49E54",
"i. c #DBA946",
"p. c #CAA559",
"a. c #D9AD54",
"s. c #D4A951",
"d. c #E2AE49",
"f. c #E6B657",
"g. c #E4B14D",
"h. c #C9A967",
"j. c #D8B46A",
"k. c #C7AD77",
"l. c #D7B876",
"z. c #CEB273",
"x. c #E6BB68",
"c. c #E2BE74",
"v. c #F2BF63",
"b. c #F8C668",
"n. c #FDD37B",
"m. c #F1C877",
"M. c #ECC26A",
"N. c #3C8C82",
"B. c #478D83",
"V. c #588D82",
"C. c #4B9689",
"Z. c #56978A",
"A. c #589C92",
"S. c #4B9B91",
"D. c #798C84",
"F. c #67988A",
"G. c #779589",
"H. c #769D93",
"J. c #6A9B91",
"K. c #5AA497",
"L. c #67A699",
"P. c #79A89A",
"I. c #76A28B",
"U. c #78ACA3",
"Y. c #7AB7AB",
"T. c #70B5AA",
"R. c #5FADA0",
"E. c #888B84",
"W. c #86978C",
"Q. c #92988D",
"!. c #A39D8C",
"~. c #89A89B",
"^. c #94A69B",
"/. c #86AC91",
"(. c #A7A799",
"). c #B7AD89",
"_. c #95ABA3",
"`. c #86B7A9",
"'. c #98B8AB",
"]. c #87BEB2",
"[. c #93B8AE",
"{. c #A7ACA5",
"}. c #B7B5A9",
"|. c #ACB9B2",
" X c #CAB688",
".X c #D3BB86",
"XX c #CBB88F",
"oX c #C5BEAA",
"OX c #89C5B7",
"+X c #98C8B9",
"@X c #8EC2AF",
"#X c #A6C9BC",
"$X c #B7C6BD",
"%X c #B1C199",
"&X c #DCC287",
"*X c #D9C497",
"=X c #E5C584",
"-X c #FDD887",
";X c #E6CE98",
":X c #F8D898",
">X c #EDD295",
",X c #FFE498",
"<X c #FFE48F",
"1X c #D0C7B0",
"2X c #EBD6A8",
"3X c #F4DCA7",
"4X c #E8D8B2",
"5X c #FDE5A8",
"6X c #FDEAB6",
"7X c #FFF6B7",
"8X c #FCF1AD",
"9X c #98D4C7",
"0X c #8ED0C5",
"qX c #A9CDC2",
"wX c #A8D7C9",
"eX c #B9D6CA",
"rX c #B7D5CA",
"tX c #AAE5D8",
"yX c #B8E5D7",
"uX c #B7F3E7",
"iX c #9FE4D8",
"pX c #CACCC5",
"aX c #C3DCD2",
"sX c #D2D4CC",
"dX c #C7E7DA",
"fX c #D5EBD7",
"gX c #FBEBC4",
"hX c #FFF6C6",
"jX c #E9E5D9",
"kX c #F4EBD4",
"lX c #FFFCDC",
"zX c #FEF6D7",
"xX c #EBF0D0",
"cX c #CAEDE2",
"vX c #D4ECE2",
"bX c #C9F7E9",
"nX c #D7F6EA",
"mX c #C8FEF2",
"MX c #DBFFFD",
"NX c #D6FFF7",
"BX c #FAF7E8",
"VX c #E5FEF3",
"CX c #E4FFFD",
"ZX c #EDFFFC",
"AX c #EAFCF4",
"SX c #F2FFFC",
"DX c #FDFEF6",
"FX c #EBEDE5",
"GX c #E3DDCE",
/* pixels */
"A V h R.MXY.n A A n ].MXR.n S C bXbXN.n A n N.uXuXJ n D tXNX| F b S.NXOXV n  .NXiXC F S n S.MX9Xb S k 0XMXA.n A A N wXMXN.n S S ",
"D B B } `.f C S A N f `.} N S m P...j S S S a V.T.G C m K @Xz B B | @Xc B V J Y.G m S S S p H.J.m S b A.L.a C S S N v `.J F N N ",
"z z j A.NXF.a p b a J.NXZ.p M l yXrXJ p b p H wXyXf k G @XbXc z j  .mXJ.j j H nX`.G k k a P dX[.p Z p `.cX/ l b b l ~.nXK k m m ",
"T.} Z.`._.G.V.Y.Y.V.D._.`.F.K Y._.~.( T.Y.U.( ~.~.`.L.S.+XOXY. .Z.`.+XOXC.T.`._.H.( Y.Y.J.V.^.^.P.^ I.~._.( J.Y.Y.( ~.~.`.B.C.L.",
"NX`.bX~.    2 aXrX;     E.SXvXvX*     ` AX`     & vXOXB h x NX_.qXrXp z L tXrX    + _.SXT     ' zX).BXQ X X d AX'.$     dXwXqXNX",
"].f F.G.  O . Q R   o . < jXDXQ.. . . O E.O   O X W.K B Z J ~.  ; ~.M Z s V.~   O   8 { . o   y c.%.&Xi   o . { 7   O $ `.H v OX",
"B B x V.4 .   pXpX. . > 1XzXkXzX[ .   E DX0 .   ; AXtXK x F.5     T F.a  .NXdXX . . { lX! . # t.4.1.%.0.% . y lXw.    d  .b N M ",
"A A z Y.aXR pXFXFXoXk.r.z.>X6Xk.k.r.oXsXFXjXE.O.$Xo.Z. .wXmX5     W MXOX .V.G.$XQ (..Xk.z.0.2X>X@.=.<.n.:Xr.h.z.XX(.' VXB.b S S ",
"A V b Y.pXR oXjXBXzXj.7.#.i.b.@.>.y.2XBXFXGX_ _ nXv k k A.NX3     ~ mXP n b ( VXR oX:X#.;.6.-X-X<.=.<.b.-X6.,.@.2X1XY nXB.n V S ",
"V M l V.2 . O 1XzX6Xa.*.2.3.8.1.2.1.:XgXBX0     ~ P N S a Z.3     g B.b D N / U   % 0.4.2.*.7.g.<.<.>.g.<.-.2.7.t.=   d  .l N M ",
"OXf F.D.  O @ XXj.s.v.1.#.a.n.$.#.i.v.y.>X9 .   2 [.l S S L ~.. 5 _.M S n J @X$ O . [ c.*.2.<.i.f.$.j.f.*.2.&.x.[ . # + [.K H +X",
"MX].nX~.    > r.7.;.,.n.m.=X8Xz.-Xf.;.>.u.[ .   2 CX0XC k c VX(.pXaXp k L uXfXX . # XX7Xd.<.#.f.7Xz.7Xl.#.:.d.8X;X# .   dXwXqXNX",
"R.} X.`.E.< 1Xh.#.2.#.x.2X9 = w.8X$.<.2.9.5X! I '.P.R.S.OXqXO.4 7 W.wXOXC.R.P.(.e.9.x.f.g.g.>X.Xy > y XX<Xf.d.f.M.9.r.(.~. .B.K.",
"m m j Z.SXkXzX>Xd.2.a.>X6     . e.=X5.5.j.6XBXAXeXf k l `.pX$     7 vXF.l l H fX&X%.>.*.*.6.5Xw.. X   { 5Xy.;.*.*.4.&XxXK z m z ",
"V Z M K fXDXkX7Xb.8.n.5X1   O   e.8Xd.d.:XgXBXSX~.f C k ( /.  .   * _.v z B v %Xp.&.2.-.-.@.l.y . O   t l.@.<.-.*.#.t.%XH B Z B ",
"| z x `.vXE.zXz.@.<.@.z.w.. . 0 .X9.>.>.9.gXoX{.bXK L N.tXNXq .   ~ MXOX| J ..xX2Xu.y.8.3.d.7X X# . @ ).8Xg.5.5.8.y.>XxXX.z c L ",
"mX`.yX^.$ . ! h.,.2.>.-X6Xe.r..X7Xs.*.<.9.k.-   7 nXtX} L / vXQ.}.rXJ L S.mXaX; % 9 2X8Xb.5.4.j.3X[ 2Xl.4.5.v.5X3Xt = ; eX#X+XdX",
"bXX.+XW.  o # r.y.,.i.g.$.m.8X9.y.g.6.$.j.w .   2 dXN.b n G cXE ` rXl N j L.aX  . . w.5X@.2.;.f.,Xh.,Xx.*.:.7.:Xe..   X aXP.J.cX",
"} j G X.X . . 1X4X:Xv.*.:.5.d.>.*.5.,X;XzX0     q  .m S m P U     ~ J N V m V.2   . ] y.<.=.:.i.3.&.4.i.*.=.-.y.[ . . & V.x x N.",
"F V j Y.D.# E sXBXgXy.>.1.5.d.>.3.@.*XlXBX{ 4 5 qXH N N G 9X3     W 9Xj N m ( '.X ' m.@.1.*.a.b.*.=.*.b.d.;.=.@.=X! . _.C.h D B ",
"S S b Y.AXE.DXBXFXzX>Xu.%.x.3X9.y.l.zXBXjXDX$X|.VXv c ^ yXSX4     R ZX+XH a ( SXQ.kX;X%.4.j.7X:X<.=.;.n.7Xl.4.$.;XkXQ.ZXB.b F D ",
"F S p U.`   I jXjXe t ] 3X6XgXgXk.w 0 E.DX_ - O Q dXwXg I {.4     R Q.q ) yXrXU & < e.6Xh.9 y .X>.2.@.c.! w r.7X).< . _.B.m B m ",
"B.p K (       E.E.. . . ! BXzXoX= .   4 $X*     o |.T     4 I   . R O     O._.      E oX% .   i a.#.p.i . . # }.Y     & V.c x C.",
"uXV.wX~.  O   _ D.      I AXSX|.      4 }.*     . (.0 .   @ GXy w.oX  . . Q w.  o   I (.X     ' 7Xr.7XQ   X   _.I   X X yXP.L.uX",
"uXU.tX~.: . 5 eXnX( 5 ; '.eXU.bXI 4 q qXVX~ X . t 6X3Xw < 9 3X=X3X X1 1 u 7X4X9 . % W.VXH.5 , +.fXO.fX` 4 3 G.CX^.% X 5 wX+XOXtX",
"L x f `.nXG.AXo.c K [.CXP.a c H nXcX .G g dX$X(.hX0.y.p.3X7Xu.>.@.j.hX;Xu.%.r.lXE.jX+Xf K J.ZX#Xx c f 9XCXH.H f `.vXW.VXX.x c J ",
"B Z j T.OXJ tXB.b V k 0XT.j M C tX} h M c yXT 0 2Xy.,.;.y.n.8.<.:.g.n.4.:.>.h.*X% D.[.a B j L.0XB | a 0XR.k S h Y.@XK iXB.z J B ",
"| z c C.B j K B.h S n m S.c k } N.k S N P T   . w p.:.2.-.3.8.@.;.i.3.-.=.>.u.> .   / G m A z C.Z h G C.m S F N C.c j | N.j z } ",
"uXX.@X+Xz B c tXL.k N k OX+X..uXL m m G eXI   . > 3X6.*.-.1.-Xz.c.-X*.*.;.f.2X  .   D.wXk m k L.tX^ wXP.b N l 0XOXa M z tXF.F.yX",
"bX`.yXOXG } F.cXbXV.P H +XpXW.nX .K P 9XAX{.4 % 9 6Xn.8.5.y.6Xr.XX>X4.5.8.,X2X> - 7 pXVXY.P H L.nXo.fXP.H P ~.MXyX..P K uXwX#XcX",
"| z x Y.VX_.; 2 2 2 _.SXO.    2 vXnXU & * * Y jX3Xy.5.8.<X7X0 .   ! 7Xn.8.4.p.gX1X8 2 * : ` ZX|.$ X $ {.ZX( & 2 ; 3 rXNXC.x M | ",
"B B B  ._.X     .     ^.8 . O   q.R           y =X$.3.>.h.)..     = &X9.*.<.y.&X=   .       _ Q   o X W q.          > @XJ B B B ",
"b B j C.eX5         4 sXe       |.E.          w.:X@.:.>.l.XX@     < 3Xp.;.;.y.5Xy         X {.q.  .   _ |..         I aXJ z B z ",
"S.J } OXdX'.d U T d '.vXW.4 & W rXaX) U T E R 1X.Xj.d.i.-X5X! % > w.5Xm.8.g.k.*X}.I Y U d D.vX'.d & q _.cXG.d T U g qXyXL.} } C.",
"NX@XbX+Xj x Z.NXmXB.M p 9XvX_.CXK a J OXSXQ..   > 7Xn.3.:.4.8X.X3X,X@.<.8.,X2Xo   * pXZXL.G p L.CX/.ZXP.p G L.MXcX/ x l uXwXwXNX",
"9Xv J.].h Z x OX} k V h ].J.v 0X} n N h [.d     > ;X4.*.-.3.m.u.h.b.<.2.*.y.*X# .   D.U.j S k K.Y.f `.L.b D a L.T.p V Z 9X .^ +X",
"Z m l S.L k  .B.m S n L S.l m L S.a S S H (   . u p.:.=.>.i.5.;.>.i.5.-.=.>.p.9 . $ ( l N V z K.M N x K.m B S b Z.H p N.N.z B J ",
"B Z j Y.tX .bXX.j N J tXT.j B J uXL.m N x cXD.' 6X0.>.>.a.,X6.>.*.f.<Xy.:.>.h.6Xt {.+Xp m m 0XwXb C j 0X0XM m h ].tX..mX .B Z b ",
" .v v `.rX` dXF./ / [.cX~.H c ..eXaXV.( ) rX{.q.4Xr.h.p.;X2Xp.y.9.j.3XXXp.p.r.4X_ $X'.^ ( J.vX'.^ c ^ [.vXP./ / _.$X` dXF.v H  .",
"mX@XbX~.    o pXAXT $   ^.vX#XVX5 X & '.ZXI   . 1 hX*X> . = 6X&X5XXX. o w hX4X#     D.ZXD.$ . ~ CX[.VX` X $ ` ZXW.X   $ yXwX9XuX",
"iXK `.P.  O   ` ~   X   7 FXSX^.  X   & Q.*   .   q.< .   % oX, ' (.. o . Y ` . o   7 E.  X   $ pXDXsX&       E.q   O + wXA.Z.yX",
"L z x ( +     {.(.  .   { BXkX4X%     7 jX4     % fXE.    7 7     I *   + |.}.    . Q sX.     e kXkXkXe     . pX`     2 ..a M P ",
"B Z z `._.4 { FXjX_ , ! l.l.u.=Xe.7 e }.DX{.I q W.'.@X/ D.sX4     W pX` X.+X'.D.8 ~ pXBX!.6 t ).=Xy.=Xk.r 6 Q.BXsXQ 4 |.B.m S N ",
"A V h Y.AX{ DXFXzXBXXX7Xx.@.<.7.hX*X4XBXjXDX}.{.VXv l c +XAX4     W ZXU.c s ) SXE.GXBXkXzX*X5X,X#.3.@.-X5X*XlXkXBXGXE.SXB.m S S ",
"F Z j P.T . sXDXhX5X%.f.g.1.<.5.b.%.j.7XzXDXQ   ~.H Z B p Y.3     T Y.j S m  .o.    Q.zXu.>.y.v.:.2.>.f.8.$.u.zX(.. . ( B.b M N ",
"S.s K X.  O 4 [ *Xy.1.-.g.$.@.i.8.;.y.j.XX6 *   3 Z.j D S K (   O o.G Z n m I.$ +   e *X7.2.;.d.i.#.s.d.*.2.$.=Xe   . $ J.G l R.",
"NXF.aX~.  . . e.>X$.>.#.-X5Xl.8X4.;.;.p.2X6 .   , VXL.l k G VX{ {.yXs z x +XdXX   . e 3Xy.*.&.f.7Xz.7Xj.*.>.y.5Xr . X   dX+X[.NX",
"wXI.#X^.e t w.5X<Xf.i.a.&Xw.y *Xj.g.8.b.5X;Xy t W eX9XB.S.F.$X` O.|.V.C.K.tX#XY O 8 r.5Xv.8.a.l. Xt )..Xa.i.f.,X).< # E #X~.P.9X",
"B z s P.lXm.4.<.-.;.f.7X! .   # 2X,X5.-.<.1.s.8XfXc j | tXnX;     U CXY.B j / CX$XkX=X#.*.i.7X).  . . e.7Xd.;.@.&XhX1XZX} j m m ",
"D Z x } ).%.>.2.=.<.%.z.> X O . [ h.#.=.=.<.#.t./.x Z j ^ D.  O . & H.c M Z c [.DXgXu.1.2.#. Xe   O   0 z.@.2.1.0.6XBX#Xc C C C ",
"z x f I.BX&X7.;.:.>.j.hX'     o 4X,X4.*.>.>.p.6XfXc x G wXnX*     I ZX`.x j ^ VXsXzX=X#.>.i.7Xe.  .   w.7Xp.@.@.&XzX4XZX^ p l k ",
"0XC.@X/.Q y 0.-Xn.g.g.c. X[ t ).l.x.i.v.n.=X] ! +.#XOXC.L.~._.R ` '.P.L.A.9X+X` * e k.-Xf.i.c..Xe.6 w..XM.g.f.-X).r * ~ +XA.L.OX",
"NXU.cX~.    #  X-X,.*.&.-X5X&X7X6.*.*.f.5Xr .   ; nXT.n b G ZXE.}.yXs k N 9XcX    . y 5Xi.*.&.f.7Xz.7Xc.&.:.6.,X'   .   dX9X9XNX",
"L.s ^ o.  % * ! .Xy.3.>.a.y.@.g.6.:.7.p.).- *   3 P.j S V K (   * G.G S n M H.&     6 *X$.3.;.i.s.@.s.a.:.1.$.&X0   X + P.v c U.",
"b J j L.d . pXBXzX2X%.i.g.>.3.1.x.%.z.gXzXDXR . G.H B V a U.3     T J.h S N  .`     Q.zXu.$.y.f.;.3.>.f.4.%.u.zX!..   ~  .z M N ",
"A A z Y.nX_ DXFXBXBX.X7Xx.@.1.7.7X;X2XBXFXDX{.^.VXc z N OXMX4     W MXA.N p / SXO.sXBXkXhX=X3X:X#.3.@.-X,X&XlXxXBXsX_ ZXB.n V S ",
"A S k Y.|.8 E.FXjX{ 6 [  Xl.0.;Xe.r Y |.DX{.R E W.'.Y.C.].uX3     ~ bXL.A.OX'.E.7 ` pXBX!.0 y ).=X0..X Xy 0 Q.BXpX_ 7 aXB.b S F ",
"Z M l ..&   . }.}.  .   w.zX6XGX%     0 FX6     % nX+Xc s  .5   . g / p K yXeX      Q jXO .   e zX4XzXE . . . GX_     3 B.l M L ",
"9Xv P.G.  O . R R   O   7 kXDX!.  X   O E.O . O X G.H z B K $X; d '.M C s X.W   O   , E.    X O 1XDX1X% O O   _ 6   X + qX..( wX",
"MX`.nX~.X   d nXnXd     ^.AXeXVX2   $ _.SX^.+   ; VXiXL z G NX#XeXyXp M  .mXdXX   * qXZXD.    W ZX#XSX~     ~ ZXrX*     cXwXqXNX",
"S.J } `.eX~. .A.A. .~.eX`.P H A.#X$XX.A.Z.A.X.#X#XF.C.C.wXtXK.J K Y.uXOXN.C.I.rX+XX.Z.Z.Z.o.rX+X .c  .+XeXH.V.A.K.X.'.eXL.K P C.",
"b B j X.yX^ l b z x ^ yX .k B j wX/.x z z z G Y.9Xf z x I.tXx B z } wX^ z j v yXJ.x m h z c +X/.j Z j L.wXH b b b c o.yXG m m b ",
"| b z  .+Xv M V V M v +X .z Z x @XG.l B B Z x F.OXc J j o.+XG B z } wX^ z B v +X .x F F B l [.P.z Z x L.].f V F V z ) +XJ m V Z ",
"| | B T.NX@XZ D D Z OXNXT.m L L uXcXB.Z D Z  .uXuXK Z } yXbX} Z B K.NXwXL Z  .mXtX} B | B L.MX+XG D c OXNXU.M | Z L tXNXB.B L C "
};
