/* XPM */
static char *_3cf388f83434fd4a74dcef7b7955c89oQ7G2jS6mMoxw1FN[] = {
/* columns rows colors chars-per-pixel */
"64 63 235 2 ",
"   c #020101",
".  c #0B0A06",
"X  c #050409",
"o  c #08070B",
"O  c #0A090B",
"+  c #090501",
"@  c #110D09",
"#  c #13130E",
"$  c #1A170E",
"%  c #141413",
"&  c #1B1A15",
"*  c #1D1C1A",
"=  c #181715",
"-  c #10100F",
";  c #211E19",
":  c #1E211B",
">  c #23221C",
",  c #232422",
"<  c #2B2A25",
"1  c #2D2C2A",
"2  c #272824",
"3  c #302F2B",
"4  c #302D24",
"5  c #33322D",
"6  c #3A3A34",
"7  c #393934",
"8  c #423F37",
"9  c #47453C",
"0  c #1A5D55",
"q  c #18584E",
"w  c #255B4F",
"e  c #14635D",
"r  c #1A635C",
"t  c #166358",
"y  c #2E675E",
"u  c #0D6763",
"i  c #0D6965",
"p  c #0D6D6A",
"a  c #136661",
"s  c #136B65",
"d  c #1A6A63",
"f  c #116D6A",
"g  c #196B67",
"h  c #0D716D",
"j  c #12726D",
"k  c #1B746C",
"l  c #067675",
"z  c #097675",
"x  c #0C7876",
"c  c #097778",
"v  c #0B7879",
"b  c #137471",
"n  c #127976",
"m  c #1C7671",
"M  c #256C62",
"N  c #2A746D",
"B  c #38756B",
"V  c #2A7971",
"C  c #387C73",
"Z  c #3F6F61",
"A  c #4B4A45",
"S  c #5A5B56",
"D  c #53524C",
"F  c #5C625D",
"G  c #406F5F",
"H  c #65635D",
"J  c #49756A",
"K  c #547263",
"L  c #497E73",
"P  c #517069",
"I  c #6B6B65",
"U  c #696966",
"Y  c #75726B",
"T  c #797A75",
"R  c #716E69",
"E  c #605C59",
"W  c #837C6D",
"Q  c #39867D",
"!  c #4C847C",
"~  c #46847A",
"^  c #55857B",
"/  c #7C837C",
"(  c #65877B",
")  c #BB8D37",
"_  c #BB892D",
"`  c #CD8D1E",
"'  c #D78F18",
"]  c #DB9015",
"[  c #D6911B",
"{  c #D8911C",
"}  c #C78D27",
"|  c #D29324",
" . c #C89539",
".. c #CA9332",
"X. c #BC9548",
"o. c #B59555",
"O. c #AF9050",
"+. c #87857B",
"@. c #938D7B",
"#. c #BFA46A",
"$. c #BB9E62",
"%. c #C79B47",
"&. c #C79E51",
"*. c #C6A35A",
"=. c #D5A751",
"-. c #C7A766",
";. c #D6B879",
":. c #C9B07D",
">. c #E4BB6F",
",. c #E2AD4F",
"<. c #E5C27C",
"1. c #388982",
"2. c #4A8A82",
"3. c #558C82",
"4. c #54948B",
"5. c #749587",
"6. c #6B9D96",
"7. c #68988E",
"8. c #5CA19B",
"9. c #6DA49A",
"0. c #77BCB4",
"q. c #73AFA8",
"w. c #7AC1BA",
"e. c #838A83",
"r. c #8C8B84",
"t. c #8D8D89",
"y. c #868783",
"u. c #918F8A",
"i. c #928F84",
"p. c #8D948D",
"a. c #879188",
"s. c #93928C",
"d. c #999589",
"f. c #8D9791",
"g. c #9B9B94",
"h. c #959893",
"j. c #A19E97",
"k. c #AA9F89",
"l. c #9CA69D",
"z. c #88A69B",
"x. c #A3A29C",
"c. c #A8A69B",
"v. c #BAB19D",
"b. c #99ABA1",
"n. c #88B4AA",
"m. c #95B8AC",
"M. c #89B9B1",
"N. c #95BCB1",
"B. c #89ADA3",
"V. c #ACAAA3",
"C. c #A6A9A3",
"Z. c #B0ADA7",
"A. c #ABB2AA",
"S. c #AAB2A5",
"D. c #B4B2AC",
"F. c #B8B5A7",
"G. c #BCBDB8",
"H. c #BABBB4",
"J. c #AABAB0",
"K. c #D6BD89",
"L. c #D0BA8C",
"P. c #C1BEB7",
"I. c #8DC5BC",
"U. c #BBC5BD",
"Y. c #AFC1B3",
"T. c #DCC18A",
"R. c #D6C398",
"E. c #FAD998",
"W. c #EBCD8C",
"Q. c #C6C4BB",
"!. c #D5CAB0",
"~. c #F4DBA4",
"^. c #E7D9B5",
"/. c #F1DEB6",
"(. c #EBD6A9",
"). c #FDE6AA",
"_. c #FAE7B9",
"`. c #FFF2BD",
"'. c #FFE09E",
"]. c #B3D3CB",
"[. c #ADE4DC",
"{. c #B9EDE3",
"}. c #B7F2E9",
"|. c #87CDC3",
" X c #CBCCC4",
".X c #C7C8C4",
"XX c #D0CFC9",
"oX c #CAD4CA",
"OX c #D3D2CC",
"+X c #D7D7CC",
"@X c #CCDBD3",
"#X c #C6D9D1",
"$X c #D8D9D4",
"%X c #E1DED8",
"&X c #C8E6D8",
"*X c #D9E9DC",
"=X c #D9F1DB",
"-X c #FBECC6",
";X c #FFF3C3",
":X c #FFF2CC",
">X c #FFFCC7",
",X c #E7E6DB",
"<X c #F3EEDB",
"1X c #EEF4DD",
"2X c #FEF4D4",
"3X c #FFFDD4",
"4X c #FFFCDC",
"5X c #FAF5DB",
"6X c #E9E3C7",
"7X c #C5EDE4",
"8X c #C8F7EC",
"9X c #D4F4E8",
"0X c #DDFDF4",
"qX c #DAFFF6",
"wX c #D4F5E9",
"eX c #E9EBE5",
"rX c #F1EEE4",
"tX c #F0EFEA",
"yX c #E9F6E9",
"uX c #F4F2E6",
"iX c #FFFBE5",
"pX c #F5F4EC",
"aX c #F9F6ED",
"sX c #F4FCED",
"dX c #FCFBED",
"fX c #FAF5E4",
"gX c #E3FEF3",
"hX c #ECFEF4",
"jX c #E4FFFB",
"kX c #EBFFFD",
"lX c #F4FEF3",
"zX c #FDFCF3",
"xX c #F3FFFD",
"cX c #FEFFFA",
"vX c #F8F6F1",
/* pixels */
"X   X X X X X o   x.cX3   X   u.cXXX, X X X X X   @.>X*.}  .).:X:XE. .| -.3X+.  o X X X X 2 $XcXy.  .   7 cXt.  o X X X X X X X ",
"X X X X X X X     C.zX1     y.cXOX2   X X X   X   d.3X-.) ) T.>X:XK.) } -.4X+.  X X X X X   3 $XcXT     7 cXh.  X X X X X X X X ",
"X X X X X X X o   y.cXC.# r.cXOX>   X X X X X X   Y dX(.o.>.;X)._.;X;.o.(.dXY   X X X X X X   2 $XcXT # D.cXT   o X X X X X X   ",
"X X X X X X X X X O c.cXXXvXXX>   X X X X X X X .   g.iX^.`.).$.$.~.`./.dXj.. + X X X X X X X   < OXaXOXzXg.. X X X X X X X X X ",
"X X X X X X X X X      XdX,X<   O X X X X X X X X     Q.iX_.o.) ) *.-XfXQ.    X X X X X X X X o   7 tXdXQ.    X X X X X X X X X ",
"  X X X X X X X X X s.zX,XzXV.O X X X X X X X X .   +.hX*X1X~.X.X.~.5X9XsXY   X X X X X X X X X % D.aX,XcXW X X X X X X X X X X ",
"X X X X X X X X   T cX X1 g.cXA.O X X X X X X X   I xX#XJ M.iX^.^.dXN.J &XcXU   o X X X X X   - H.cXu.3 OXcXU   X X X X X X X X ",
"X X X X X X X X   Z.zX6   O j.cXD..   o X X o .   h.xX^ e r N.gXhXI.M r ^ hXe.  o X . X o   # G.cXu.X   A zXh.  o X X X X X X X ",
"        X X       j.zX>       d.zXF.@             r.kX2.f b e I.I.r b d ^ xX/             # G.cX+.      4 zXi.  X   X X   X     ",
"Z.D.h.-     +.D.V.+XfXH.V.D.Z.Z.rXdXQ.V.Z.A.A.S.S.#XqX2.p l h f h h x i 4.qX#Xb.A.A.A.Z.V. XzX,XZ.Z.D.V.P.fX+Xc.D.T     % g.D.Z.",
"pXvXcXH.& s.cXzXfXrXrXuXvXvXvXpX,X,XdXsXyXyXgX0XqXqX8X2.p x z z z x x i 4.8XqXgX0XgXyXyXvXzX,X,XpXaXpXuXuX<XuXuXzXcXy.* P.cXpXpX",
"; ; g.zX+XzXQ.3 $ V.dX9 = ; ; ; > > d.zXoXK Z B B B C k h l z l x l l h s Q B B B Z K oXcXt.; > > : > ; 9 dXg.$ 7  XvX+XcXu.; ; ",
"  X +  XdX,X4     j.zX2               g.xX].y a j p h z z z z z l z l l z h p j r y ].cXt.              5 zXu.    5 tXzXP.X     ",
"+ + g.zX%XvXH.$   C.cX5   o o o X X X   f.kX].N p x z z l z l z l z l l l z x f N [.xXt.  X X X X X O   6 cXh.  * P.aX$XcXu.  X ",
"+ h.cXQ.> u.cXG.. g.zX1   X X X X X X X   h.xX].N f z z z l z l z l z z l z i N ].xXy.  X X X X X X o   7 cX@.@ .XcXy.> XXcXt.  ",
"x.cXQ.=     u.cXZ.D.zX1   X X X X X X X X   f.kX[.k z c z z l l l z l z x h m [.xXp.X X X X X X X X o   7 zXx.D.cXy.    *  XcXh.",
"cX.X% X X X   u.cXtXtX4   . X X X X X     : ].xX|.f z z z z z z l z z z z z k 0.jXG.*   X X X X X X X X 6 uXrXzXy.    O X * .XcX",
"G.%   X X X X   t.aXuX5   o X X X X X X * oXxXn.e j z z z z l x z l z z z z b e n.kX.X* X X X X X X o   8 fXfX+.  . X X X   * .X",
"- X X X X X X X   D.zXG.%   o X X X O   A xXN.M m z c z z z z z v l c z z c z k r Y.xX6 X X X X X o   & Q.dXc.  X X X X X X   = ",
"X X X X X X X .   j.lXlXU.% X X X   X   7 xXB.q a u s i u u h h z p u u i s s a q M.lX<     X X X   * .XzXdXi.  . X X X X X X X ",
"X   X X X X X X   C.hXY.cXG.% X   , R F y.sXU.5.6.9.6.6.6.6.V g g V 9.6.6.6.6.9.7.U.sX/ S U * X   * .XxXH.lXh.  X X X X X X X X ",
"X X X X X X X X   x.hXK B.xX].O , @XxXcXlXyXsXhXxXkXxXxXkXjX[.y B [.kXxXkXkXxXxXlXsX1XlXxXcX@X= % .XkXf.K hXs.  o X X X X X X X ",
"X X X X X X X X   l.xXL 0 M.kXU..XxXm.3.z.hXS.F F F F F S f.xX].].hXa.S F F F H F J.hXz.4.n.xX].].kXq.0 ^ kXs.  o X X X X X X X ",
"X X X X X X X o   l.kXL a a M.kXjXn.r t ^ hX/               s.zXzX+.  X           a.lXJ 0 0 B.jXkXB.d g ! kXf.  O X X X X X X X ",
"        X X       l.jXL i b e w.0.e b g 3.xXe.  .         > Q.5XiXF.&         .   p.kX! f m 0 0.0.e n i ! kXs.  X   X .         ",
"F.F.c.;   X e.G.A.&XqX~ i v x p p b x i 3.kXe.    I Q.F.F.^.>XK.R.4X^.v.F.H.H   X p.kX! f z z p h j x i 2.gX&XA.G./     > V.F.v.",
"`.;XiX!.1 h.xXjX0X8X}.Q p z z z z z v i 3.kX5.    g.iX:X;X).>.) ..<.).`.2XiXr.    p.kX2.p c v z z h x i ~ }.8X9X0XxXr.4 OXiX;X`.",
"%.o.R.iX6XsX].G B B V k z z z l z l v s 3.kX+.    i.4X#.X. .` [ ` } ..X.:.4X+.    p.kX! s c c c l l l h j Q N B J ].yX,X3XR.X.%.",
"} ..O./.iXeXJ t j p p z z z l z z z c s 3.kX/     @.3X-.} [ ' ' ' [ | } -.3XT     a.kX2.p c z z l l l z h h h k 0 L eXiX^.O...} ",
"=.) W.;X/.2X&XB s x z z l z z l l z c i 2.jX#X& & ^.`.%.` ] ] ] ] ] ] ` =.`.!.# > @XqX1.p v l l l x l z l x n s C &X5X_.`.W.) ,.",
"_.(.`.E.X.<.4X&XB p x l z l z l z z l z g q.xX.XQ.3X>.| [ ] ] ] ] ] ] [ ` <.3XQ.XXkXq.g x z l z l z z l l x a Q &X4X;.X.E.`.(._.",
"2X2X(.O.) ) !.hX}.b h z l z c c l z z z b 0 b.vXiXL._ | [ ] ] ] ] ] ] [ [ _ R.iXvXz.q j z z z l z z l z l h k }.lXR.)  .O./.2X-X",
";X:X_.:.) *.6XhXq.f z z z l z z z l l x a C @XsXuX/.%.| { ] ] ] ] ] ] { } &._.fXaX#XB p z z l z l l l l l x f q.gX/.*.) :.-X;X;X",
"W.-.`.-X;._.sX9.e b z z z l z z z z z h V {.xXI I 3X'...' ] ] ] ] ] ] [  .'.4XH Y xX[.V h z z z l l z l l l h e 9.sX).;.;X_.-.W.",
"| ) -.).2X1X6.0 b l z z l v l z l z x i 4.jXf.    k.>X=.` ] ] ] ' ' ] ` =.>Xd.    b.jX2.p c z l l z z c x x x n e 5.1X:X_.*...| ",
"} _ -._.dXyX7.0 e u u p z l z z z l x i ^ kX+.    @.3X$._ ` ` | [ [ } _ -.4XW   X a.kX! f z l z z l z z h u u a t 7.yXdX_.o._ } ",
"T.K.-XfXr.*XhXn.n.M.0.V j z z z v z x i 3.kX5.    i.dX!.K.<. .| |  .<.K.!.dX+.    p.kX! u c c v c z c p C 0.M.B.m.hX+X+.iX-XK.T.",
"4XiXdXR   6 eXcXxXhXgX~ p z x p p z x i ^ kXy.    d.zX4XiX3X).%.*.).3X4XiXzXy.    p.jX2.f c v p p z z p 2.jXhXxXcX*X5   H iXiXiX",
"9 9 6       2 A 6 A.0X~ p z s 1.Q u n s 3.kXe.    1 A 9 8 W iX/._.5XY 8 9 A < X   p.xX! i n u 1.1.i n p ! gXb.6 A ,   X   7 9 9 ",
"      X X o       l.gX~ g g C }.}.C g a ^ kX+.  .           y.dXdXT           . X t.kXL g a ~ }.}.C i g ! kXp.    X X X X       ",
"X o X X X X X O   x.kX! 0 Q 9XhXhX9XL w ( lX+.  @ . @ @ . 6 OXyXsXoX5 . O @ O @ + s.lX( w 2.9XhXxX7XC r ^ kXf.  O X X X X X X o ",
"X   X X X X X X   b.hXJ J 9XxXS Y xX0X&X*XyX,X@X@X@X@X@X@XyXkX5.5.kXyX@X@X@X@X@XoX=XyX*X&XgXcXU H xX8XG J hXp.  X X X X X X X X ",
"X X X X X X X X   c.sX5.&XcXF     T @XoX+XyX=X&X7X7X7X7X7X{.6.t r 8.{.{.{.7X7X&X&X=XyXOXoX$XI   X U xX&X5.zXs.  O X X X X X X X ",
"o X X X X X X o   x.sX,XzXS   o X   o   9 sXn.w M d M M M a p z b a d M M M M M w m.sX6   O   X X   U cX,XsXd.  o   X X X X X X ",
"  X X X X X X     j.dXuXS   X X X X X   9 lXn.0 k h b h b h x z x x h b b h z k w m.xX7   X X X X X   U aXzXr.  o X X X X X   X ",
"S   X X X X o   6 $XdXH   o X X X X X   8 xX7X! s z z z z z z z l l l l z z n i ! 9XlX1   o X X X X .   Y aX+X3   X X X X X   U ",
"cXR   . X X X 7 ,XiXtX<   O X X X X X X X Y cX9X2.i z z l z z l l l z z l x s 2.wXlXU X X X X X X   X   5 fXcX$X1   o X X   Y cX",
"$XcXU   O   7 eXuXOXaX5   X X X X X X X o   y.kX}.m h z l z l l z z l l z h V }.xX/   X X X X X X X o   6 dXXXpX,X3   O   Y cX$X",
"3 +XcXR   6 eXzXA h.cX3 X X X X X X X X   7 $XqX8.s z z z z c c z l l z z x j 8.jXOX3 X X X X X X X X   7 cXy.D cX%X5 X Y cXXX2 ",
"  1 $XcXr.,XzXS   C.cX3   X X X X X o   7 eXjX7.u z z z l z l c l z z l z z b e 6.kX*X5   o X X X X X   7 cXd.  U cX+Xr.cX$X,   ",
".   , +XzXrXA   + c.cX3 X O X X o o   6 yXjX7.a b z c c l l x l z l l z z z x b a 6.xX*X5   o o o o o X 6 cXh.    S pXzX X*   O ",
"    6 %XdXpXU X   j.zX>             6 eX9X( q a a s i p z x l l l z z z p u u u a q ( yX*X7             < cXi.    Y vXzX+X1     ",
"u.s.rXvXY XXcXg.@.XXfXc.r.i.s.s.s.r.,XsXoXl.N.N.N.M.I.C h l x x z z z p Q I.M.m.N.m.x.OXdX$Xi.u.s.t.u.r.c.fXQ.@.x.cX.XY zX,Xt.u.",
"aXzXrXD X 2 XXzXaXrXrXdXdXzXzXuXiXzXfX,XyXsXhXyXyXhXjX3.p c x h p x x p 4.jXgXsXhXhXsXyX,XdXzXdXpXzXzXzXfXrXuXiXzX.X;   E pXzXzX",
", 2 ;   X   % < * V.dX9 ; < & H eXtXS > > > , 2 > l.gX! p b e 4.4.a n i 3.jXa.: 2 , > 2 , S rXeXS $ < * D zXl.* 1 O X X   * , , ",
"      X X X       x.zX>     6 ,XpXD               e.kXL a u 3.8X8X! a a ^ kX/               D zX,X3     < zXr.    X X X o     X ",
"X X X X X X X o   x.cXW X A tXvXA   O X X o X X   p.cXz.w 3.9X<X1X9X^ w B.xX+.  o X o X X o   D vXeX8   y.cXu.  o X X X X X X X ",
"X X X X X X X X X 2 OXcXf.,XvXA   X X X X X X X X 2 @XxXm.=X>XL.:.3X=Xm.xXoX, X X X X X X X o   D zX%Xg.cX X,   X X X X X X X X ",
"X X X X X X X X X   $ XXzXrX9 X O X X X X X X X o   * OXlX2X-.) ) ;.1XlX X#   X X X X X X X X o X A pXzXQ.% X X X X X X X X X X ",
"X X X X X X X X X   A *XfXpXY   X X X X X X X X X   A 6X2X-X>.) ) <.`.:X6X8   X X X X X X X X X X W vXaX%X6   X X X X X X X X X ",
"X X X X X X X X X A tXpXH .XcXT X X X X X X X X   A iX:XK.E.;XK.L.>XE.;.2X<X9   X X X X X X X   y.cXG.U vXeX8 X X X X X X X X X ",
"X X X X X X X X   V.cXD   *  XcXT   X X X X X o   d.iX:.) %.~.2X2X(.%.) L.iX+.  o X X X X X   r.cXG.=   E cXh.X o X X X X X X X ",
"X X   X X X X o   x.zX2     ; OXcXT X X X X X o   @.3X*.} } T.;X;XK.} } -.3X+.  X X X X X X y.cX.X&     3 cXp.X X X X X X X X X "
};
