/* XPM */
static char *_07380c8c6e54946c833f2ec61c517daj6BMzINJVqn3x7tz[] = {
/* columns rows colors chars-per-pixel */
"64 64 240 2 ",
"   c #020102",
".  c #080604",
"X  c #090905",
"o  c #05040A",
"O  c #08070C",
"+  c #0A0A0B",
"@  c #040908",
"#  c #120F08",
"$  c #12120E",
"%  c #151101",
"&  c #0E0D13",
"*  c #100F15",
"=  c #131214",
"-  c #151419",
";  c #1C1B1B",
":  c #191915",
">  c #09120B",
",  c #211E17",
"<  c #211902",
"1  c #19201B",
"2  c #23221D",
"3  c #352D18",
"4  c #242522",
"5  c #2C2C29",
"6  c #33322D",
"7  c #393835",
"8  c #2D3630",
"9  c #1C1B20",
"0  c #403D35",
"q  c #38413E",
"w  c #43423E",
"e  c #51421B",
"r  c #26675D",
"t  c #1B736C",
"y  c #16726B",
"u  c #177774",
"i  c #1B7672",
"p  c #167A77",
"a  c #1B7975",
"s  c #1A7E7B",
"d  c #157C7A",
"f  c #1C6F67",
"g  c #21746E",
"h  c #287B76",
"j  c #347C76",
"k  c #317067",
"l  c #3C4E48",
"z  c #464642",
"x  c #4A4A46",
"c  c #4C4C49",
"v  c #504F4A",
"b  c #52534D",
"n  c #595955",
"m  c #40544B",
"M  c #625D4B",
"N  c #50635C",
"B  c #62625E",
"V  c #746A50",
"C  c #52756D",
"Z  c #646361",
"A  c #6C6B67",
"S  c #716F67",
"D  c #73726B",
"F  c #787974",
"G  c #9E721C",
"H  c #B57B0F",
"J  c #B97D0F",
"K  c #AD7A15",
"L  c #A3751A",
"P  c #AC7B1B",
"I  c #A67517",
"U  c #B47C12",
"Y  c #B97D10",
"T  c #B27E19",
"R  c #A5740F",
"E  c #9B7627",
"W  c #99772F",
"Q  c #A37926",
"!  c #917D4D",
"~  c #817C6C",
"^  c #1A817E",
"/  c #15817E",
"(  c #3A847D",
")  c #45857D",
"_  c #59837B",
"`  c #63887D",
"'  c #7F807B",
"]  c #AB8739",
"[  c #B28B3A",
"{  c #99834F",
"}  c #A88A46",
"|  c #B8954A",
" . c #B99955",
".. c #AB8D4B",
"X. c #82827E",
"o. c #968F79",
"O. c #AC996D",
"+. c #BCA269",
"@. c #BAA777",
"#. c #BEA05A",
"$. c #C2A66A",
"%. c #CAB27B",
"&. c #CCB178",
"*. c #C2A15A",
"=. c #DFC17B",
"-. c #138786",
";. c #1B8683",
":. c #148886",
">. c #1A8986",
",. c #148988",
"<. c #178889",
"1. c #298885",
"2. c #3A8883",
"3. c #3C918B",
"4. c #478B82",
"5. c #579B93",
"6. c #4F8F88",
"7. c #659C92",
"8. c #6D948B",
"9. c #56A29C",
"0. c #4EA59F",
"q. c #6CA59D",
"w. c #77A49A",
"e. c #69ACA4",
"r. c #75ABA3",
"t. c #79B4AC",
"y. c #74B7B0",
"u. c #8D8D8A",
"i. c #898A86",
"p. c #908E89",
"a. c #93938C",
"s. c #9A9A94",
"d. c #9D9D99",
"f. c #969691",
"g. c #899891",
"h. c #A09D96",
"j. c #87A498",
"k. c #95A49D",
"l. c #A3A39E",
"z. c #A9A799",
"x. c #B4AA8D",
"c. c #83B5AE",
"v. c #87BAB2",
"b. c #94B5AC",
"n. c #A5A6A3",
"m. c #ABABA5",
"M. c #ADAEA9",
"N. c #A6AAA4",
"B. c #B5B4AC",
"V. c #BBBAB6",
"C. c #BDBEBA",
"Z. c #B7B6B2",
"A. c #A8BAB0",
"S. c #D5BE8A",
"D. c #C8BB9A",
"F. c #C7B688",
"G. c #97C4BC",
"H. c #82C1B8",
"J. c #B4C7BD",
"K. c #D9C28C",
"L. c #DBC798",
"P. c #E3CC98",
"I. c #E7CB90",
"U. c #C3C2BB",
"Y. c #D3CAAD",
"T. c #E8D7AC",
"R. c #FAE7B8",
"E. c #FDE4AB",
"W. c #9ACAC2",
"Q. c #91D1C9",
"!. c #A3CCC6",
"~. c #B6D7CE",
"^. c #ABDBD5",
"/. c #B5DDD5",
"(. c #AAD3CA",
"). c #BAE5DD",
"_. c #AAE5DD",
"`. c #B6ECE3",
"'. c #C9C9C4",
"]. c #C9D4CA",
"[. c #D2D1CD",
"{. c #D8D6C9",
"}. c #DBDBD5",
"|. c #DDDEDA",
" X c #D6D8D2",
".X c #E0DFD9",
"XX c #E7DEC5",
"oX c #D7E4DA",
"OX c #CBE4D7",
"+X c #E9E3C9",
"@X c #F7EAC8",
"#X c #FFF3CB",
"$X c #FFF6C7",
"%X c #E3E2DD",
"&X c #EBE8D9",
"*X c #F3EDDD",
"=X c #F4EBD4",
"-X c #FFF5D4",
";X c #FDF5DB",
":X c #FFFADC",
">X c #FFFBD6",
",X c #C5ECE5",
"<X c #D6EBE3",
"1X c #CCF5EC",
"2X c #CEF8EE",
"3X c #D7F5EC",
"4X c #DDFFFB",
"5X c #D7FBF4",
"6X c #C9FCF5",
"7X c #E5E5E1",
"8X c #E5EBE3",
"9X c #EBEBE5",
"0X c #EDEEEC",
"qX c #E5EEEB",
"wX c #F2EEE4",
"eX c #F0EFEB",
"rX c #E6F1ED",
"tX c #ECF1ED",
"yX c #EDF8EB",
"uX c #F5F1E4",
"iX c #FAF5E3",
"pX c #FFFDE3",
"aX c #F1F1ED",
"sX c #FEFEEC",
"dX c #F7F7EB",
"fX c #EFEFF1",
"gX c #F1EFF0",
"hX c #E6F4F1",
"jX c #EDF3F1",
"kX c #E3FDF5",
"lX c #EBFCF5",
"zX c #E3FFFA",
"xX c #EBFFFB",
"cX c #F1F1F1",
"vX c #F3FBF4",
"bX c #FBFBF5",
"nX c #F3FFFB",
"mX c #FEFEFA",
"MX c #FEFEFB",
"NX c #F8F7F3",
/* pixels */
"& & & & & & & O 4 7XgX0X0XaX9Xw O & & o F bXwX8X5 O * * + X.MX9X0XrX0X0XqXyX X4 o = & & & & & * l.bX9XeX0XvXF o = + & & & & O 9 ",
"  o o o o o o   ; 7XcX0XaXtXx   o o o   2 7XnXn.  o o       u.MX0XaXcXcXcXtXNX'.;   O   o o o   + M.MX0X0XMXD   @ o o o o o o - ",
"o o o o o o o   - 7XNXaX9Xz   O o o o o   s.MXw   O o o o o   i.MXtXaXcXcXeX0XMX[.,   O o o o o   X n.MX9XMXA   X o o o o o o - ",
"o o o o o o o o   b cX0Xz   X o o o o O   x '..   o o o o o o   i.bXeXgXgXeX0X0XMX[.,   o o o o O   O n.MXM.= o O o o o o o o - ",
"o o o o o o o o O   Z n   X O o o o o o   * z   o o o o o o O O   d.MX0XjXgXjXcX0XMX[.$ o o o o o O   o f..   o o o o o o o o - ",
"  o o o o o o o   2 U.Z.$   O o o o o O   5 a.  o o o o o o O   w |.cXeXgXgXcX0XaXNXZ . o o o o o O   B %XB   o o o o o o o o - ",
"o o o o o o o o + U.MXMXV.$   O o o O O   F MX4   O o o o O   q 0XvX0XgXgXcX0XcXbXB     o o o o O   Z NXNXbXb   o o o o o o   - ",
"o o O o o o O   2 &XwX*XsXB.#   O O O @ X [.MX~   X O O o   q 8XjXqXjXrXrXrXcXbXn   + O X O X X   M dXwX&XbXF . & o o o O O o - ",
"      O O       % =XpX;X-X:XY.<         b bXaX X@         m kXxXkXlXxXzXlXlX8Xv               O V pX-X#X$X:XS       O o       X ",
"n.M.D     , l.z.x.x.$.$.$.+.&.{ @.z.l.l.[.NX0XNXZ.l.l.A.8.8.t.q.r.e.r.r.w.k.].s.N.N.n.n.l.z.x.{ +.$.$.$.$.@.x.z.M.Z     5 m.n.l.",
"MXMXMXF 5 '.MXbX$X} G I I I I Q $.$XsXMXNX0XcX0XMXnXnX,X6.p u p u u u t k J.vXMXMXMXMXMXbXpXI.] L L R R L E L.dXbXbXA 6 |.MXMXaX",
"0X8XbX|.p.MX9X*XE.] P H Y Y Y U L  .@X9X0XcXcXjX0XlX_.j d ,.,.,.,.<.;.j ^.xXhX0X0X0X0X*X;XP.Q K Y J J J [ G K.;X&XMX'.f.MX&X0X%X",
"0XNX8X7   u.MX*XR.] P H H H H H T L +.;XwXgXgXqXlX~.j s -.-.-.-.,.s j ^.xX0XjXgX0XeXeX:XI.Q P Y U H H H H I K.;XdX}.4   l.MX0X%X",
"NX8X7   o   i.bXR.] P Y H H H H Y L +.;XwX0XfXjX3X6.d <.,.-.-.,.-.1._.zXhXfXcXeXgXeXdXL.Q P K H H H J H H L S.pX{.2   X   d.MX%X",
"8X7   O o o   o.$X] P Y H H H H U Q T.iXaXMXgXjX5X4.s <.-.-.-.,.-.1.`.zXrXfXeXgXgXeXdXD.W P U U H H H H J L P.XX2   O O o   l.dX",
"7   @ o o o o   ! } I U H H H U I | :XMX Xf.7XnX1X4.s ,.-.-.-.-.,.p ( ).xXrXjXgXtXeXwX;X=.P U H H H H H T Q O.3   X O   o   o i.",
"  o o o o o o   < %.E U Y Y U P G P.Y.n -   z rX5X) ^ ,.,.,.,.,.,.>.s ( ).xXrXaX0XeXaX=XR.] K Y H H U U R *.V   X o o o o o o & ",
"o o o o o o o   , @X&.Q P L L ] $.e       &   l 3X) ^ :.-.-.-./ d p s g C ~.nXMXMXnXbXsX$X} G I K K T L } $X~   O o o o o o o - ",
"o o o o o o o   , &X:XF.W  .S.>Xo.  X O o o O   l 6.a :.,.,.-.1.9.7.5.7.7.w.].B.C.V.V.V.D.@.+.| T Q L | R.sXD   + o o O o o   - ",
"  O O o o o O   = 7XdX;XR.=XiXdX7 . O O o O O   > !.2.a ;.;.p 0.4XkXzXkXkXyX%X7   .     # +X>X$XI.W ..R.iXMXD   O X     o o o - ",
":     o o       z 9XaXeXuX*XbXZ.  o o o o o o   $ oX,X( ^ ^ / 9.4XrXhXhXrXrXNX0Xw   X   $ }.dX*X;XY.+XiXwXMXD   +   $ 2   o   - ",
"}.u.6 o   * b B.aXcXjXeXgX0XMXv   o o o o o o   $ }.xX).( ^ a 9.zX0XgXgXcXfX0XNX0Xz   o = |.NXtXeXdXaXeX0XMXD   X O n.%X5   o - ",
"aXMXMXf.x [.MXMXfX0XfXfXgX0XbXu.  o o o o o O   = oXjXlX).) g 9.zX0XcXcXgXcXgX0XNXcXx   : |.NXfXeXeXeXgX0XMXF   X n.MXNX|.6   - ",
"NXC.Z 2 + 8 i.}.bXaXcXfXjX0XrXMXi.  @ o O o O o $ |.NXqXkXOXk 5.lXaXgXgXeXtXgXtX0XcX0Xw   |.NXgXgXgXgXgX0XMXS   M.MX0X0XvX%X5 X ",
"7             * A 0XfX0XlXlXzXkXxXj.@           . }.dXeXtXxX~.w.yX0XgXcXgXjXgXgXcXfXNX0Xb }.NXfXgXgXgXjXtXbX' f.MX0XgXgX0XbX Xw ",
"  o O o o O &   $ 7XjXzX~.7.q.q.q.r.` b.N.m.m.m.M.9XcXeXgXrXvXXX+XiXwXtX0XcXgXcXfXgXjXcX<X].vXrXjXgXcX0XlX<X].bX0XaXgXgXeX0XbX.X",
"O o o o o o o   , 7XxX^.h u d d p u h Q.xXMXMXMXMXcXcXcXcXeXbXY.O.R.pXaXtXgXjXgXcXcXgXhX3X` ~.xXrXeXtXlXzX8.A.lXtXaXfXaXgXgXeX%X",
"o o o o o o o   ; 3X^.h -.,.-.,.,.:./ y t.4XrX0XjXfXcXgXjXtXsXT.E ..R.iXwXeXcXgXjXcXfXjX5X) k /.xXrXjX4Xe.r G.vX0XtXcXfXgXgXdX%X",
"  O o o o o O @ 1 G.( d -.,.,.-.,.-.,.;.t y.zXtX0XfXaXcXeXeXiXT.P R | R.iX0XeXcXcXgXjXhX2X4.a j ^.4X6Xe.a g G.xXjXfXeX0XgXgXaX%X",
";   O o o o @   N 4.d ,.-.-.,.-.-.-.-.-.;.t c.kXrX0XtXtXeXwXiXT.L ] G | @X;X0XeXfXfXfXlX2X4.^ ;.j ^.e.u >.u W.xX0X0XNXbXgX0XNX%X",
"'.2   O o o   Z 2X) / ,.-.-.-.-.,.-./ / / ^ f r.lXyXaXaXuXwXiXT.E H P G } R.iXdXcXcXjXkX5X4.s ,./ s d -.:.a G.lX8XMXl.A bXaXtX%X",
"bX[.,   O   n nX1X( ^ ,.-.-.-.-.-.-.1.3.3.3.4.) A.&X+XR.@XR.R.P.] [ [ [ } +.oXoX1X<X,X1X`.2./ ,.,.-.-.-.,.a G.kXMXM.X   Z bXaX%X",
"9XMX[.;   Z bXhX1X( ^ ,.-.-.,.-.,.p Q.4X3X5X5XrX&XY.! ] ] ] ] *.$X@X@X#X=X*XoX_ j ( ( 1.1./ -.-.-.-.-.-.,.u G.vXN.X   &   B bX%X",
"0X9XbX'.D cXgXlX1X4.s >.d 1./ :.:.p G.vXrXtXtXaXaX-XK.E R H R  .>XyXaXaXaXaXlXOX) a / / :.:.-.-.-.-.-.,.,.t !.A.@ . O o o   Z 9X",
"aXaX0XNXMXgX0XhX1X( ^ s ( `.e.i >.a W.vXfXjXjXeXyXwX>XL.P P K | -X0XaX0XaXaXtXkX,X) a :.:.-.-.-.-.-.-.-.;.h ` >   O o o O X   b ",
"aXtXfXfX0XgXfXlX2X) g 2.).kX4Xr.a g G.xX0XaXcXcXaXaXuX:XK.Q L #.;XtXaXaXfXcXaXrXxX,X2.a >.:.-.-.-.-.-.:.t H.C   @ @ o o O X o + ",
"tXtXgXgXeXjXgXjX1XC ) ,XzXrXhXzXr.r J.lX0XjXfXcXeXaXeXwX:XL.E  .;XtXcXgXcXcX0X0XqXkX,X( u >.,.,.,.,.-.t r.xXF   o o o o o o   - ",
"0XaXcXgXcXfXgXjX<X` OXlXjXcX0XrX4Xw.A.lXtXcXcX0XcXfXtXaX9XpXS.O.iX0XjXgXfX0XbXMXMXnXnX5X5.i u p p u t t.5XnXF   O o o o o o o - ",
"bX0XeXgXeXcXtXdXoX XlXqXaXeXjX0XlXrX].bX0XeXjXcXfXcXgXaXaXuXpXY.9XyXtXjX0XNXV.f.s.f.g.k.8.8.v.r.t.r.A.kXrXMXS   X O o o O X   o ",
"i.bXaX0XeX0XbX%Xb oXdXtXtXgXgXcX0XMXS p.MX0XeXjXgXeXfXcXjXtXvX].j.4XhXfX0XMXn             8 <XxXkXlXxXyXeXNXV.x o           5 F ",
"  F MXtX9XNX%X5 & 7XNXfXgXgXaXgX0XMXZ   l.MX0XeXcXgXjXgXjXtXNX~.r e.kXyXqXMXZ   + O O O @   4  XvXqX0XfXcXeXvXNXU.D 5 : b l.wXaX",
"X   X.bXbX%X7 . 2 7XgXeXeX0XeXeX0XMXS   . h.MX0XgXcXgXgXcX0XlX/.^ g e.kXrXMXZ   + O o o o X   4  XNXjXjXcXcX0XNXMXNXF v  XMXMX%X",
"O o   X.oX6     , 7XcXeXwXsXuXeXqXMXA   +   d.MX0XgXgXgXjX0XlX/.h ;.t e.5XnXB   X o o   o o . X '.NXfXgXcXfXaX'.A :     X c M.|.",
"o O o o ;   X   , 7XaXwX;XD.+X;X*XbXA   +     d.MXrX0XhXhXhXlX/.h :.;.i e.zXZ   O o o O o @   n bX9XiXuX9XMXu..     o o       6 ",
"o   o o   O o o , %XuX-X&.E ..E.$X;XV . . .     s.aXlXkXzXzX4X_.^ ,.-.;.y y.N   O o o o o o   B.sX-XT.R.*XMXS   O o o o o O o + ",
"o o o o O o o   , &X;X&.L T I [  .O.D.U.U.C.U.C.U.(.` 7.7.5.5.6./ -.-.-.>.h 8.+   O o o X   3 @XP.+.W ..R.sXD   O o o o o O   ; ",
"o o o o o o O   , @X&.Q T U K K K G P.sXNXbXbXbXbXhXr.k a p d s ;.,.-.-.:.i /.A.@ o @     3 ..| E I ] I ] R.~   O o o o o O o - ",
"  o o o o o O   < $.Q U H H H Y Y L K.;X9X0XgXgXgXhXxXt.g >.,.-.-.-.-.-.,.a !.nXM.O @ x z.@X| R H U H Y R | V   X o o o o o   * ",
"7   O O o o o . O.} P U H H H H U K [ E.iX0XeXgXgXtXhXzXy.t >.-.-.-.-.-.,.s !.lXnXC.U.bXpXL.L U H H H H U E %.0   X o o o   + s.",
"0Xx   O o @   a.$X] P H H H H H Y K Q ..@XaXjXgXcXfX0XhX4Xy.d ,.-.,.-.-.<.g !.nXqXbXbXwX#X .L U H H H U J G L.+X6   O O o o M.dX",
"NX0Xx   .   s.sXE.] P H H H H U U T E +.*XaXgXfXgXgX0XlX6X9.d -.-.-.-.;.;.g (.vXfX0XgXiXT.E T H H H H H J I S.sX&X6   o . M.MX%X",
"0XNX0Xx o d.MX*XR.] P H H H H U T L *.#XuX0XfXcXgXqXlX5X5.u ,.-.-.-.-.;.g v.kXfXfXfXcXiXT.W P Y H H H H J G K.;XiX%X7 X M.MX0X%X",
"0X7XNX%Xf.MX9XwXR.} P Y H H J U G $.#XwX0X0XqX0X0XjX2X5.p >.,.,.,.:.^ t v.zXrXeXgXcXfX9X;XP.W R Y J J J J P K.;X&XMX[.d.MX9XaX|.",
"MXMXMXS ; C.MXsX#XW E L G L L Q &.$XiXMXMXMXMXMXMX<X_ f g p u u u i j Q.nXnXMXcXgXfXaXMXbX:XE.| G G L L L E L.sXbXdXn 2 '.MXMXaX",
"u.f.Z     - i.p.o.F.F.%.%.%.S.{ o.o.p.u.p.p.p.i.m.J.k.b.v.c.c.c.c.v._ w.u.u.u.}.NXeX0Xs.p.p.p.! %.%.%.%.&.F.x.o.s.v     2 u.p.u.",
"      o O       % &XpX;X;XpXx.#               $ C.nXxXxXxXxXxXxXnXg.          A MXNXZ.          w :XpX>X-XiXB       o o       X ",
"O O O o o O O   2 9XwX9XbXz..   O O O O O   2 [.MX0XhX0XtXrXqXnXi.  o O O O o ; .XMXb   + X X X   v uXuX&XbX~   + O o o o O o - ",
"o o o o o o o o + Z.MXMXN.o . O o o o O   2 [.MX0XgXgXjXcXaXbXi.  @ o o o o O   l.%X+ o O o o o X   v aXbXNXx   X o o o o o   - ",
"o o o o o o o o   = Z.d.@ o o o o o O   5 [.bX0X0XgXfXgXeXNXX.  O O o o o o o   w F   O o o o o o O   v  Xb   o O o o o o o o - ",
"o o o o o o o o X   S B   X o o o o O   B MX9XeXcXgXcX0XgX0X7   +   o o o o o   2 w   o o o O o o O   + d.+   O o o o o o o   - ",
"  o o o o o o o o Z bXaXb   o o o o o o   A bXaX0XcXcXgXfXNX7X7   X o o o o o   F U.  o o o o O o   * V.MXV.: o o o o o o o o - ",
"o o o o o o O o ; 8XcXaXaXb   o o o o o X   A MXcX0XgXjXgX0XNX7X7   o   o o   . '.bX5   O o o O   + V.MX9XMXD   O o o o O o   - ",
"  o o   o       ; 7XNX0XaXNXn     o o     @   Z NXaXcXcXcXdXeXbX9X7   @   @   x NXMXp.  o       = C.MX0X0XMXD   o o   o   o o * ",
"- - * * * - = * 4  X7X%X%X9X%Xz & - & * = = - O ~ 9X%X7X7X%X%X.X9X}.7 + = = $ d.0X%X[.; & - = : n.NX|.7X%XcXF + - & - & - = = 9 "
};
