/* XPM */
static char *_409_9807d30cc448841fdecab8052dac567c87c0ff4fdc76c481d4c5ce18ca9fd942[] = {
/* columns rows colors chars-per-pixel */
"64 64 235 2 ",
"   c #020305",
".  c #040609",
"X  c #060A0D",
"o  c #0B0B0D",
"O  c #09070C",
"+  c #060D12",
"@  c #0C0E11",
"#  c #110F13",
"$  c #0D1114",
"%  c #0D1419",
"&  c #131315",
"*  c #141619",
"=  c #161A1C",
"-  c #1B1C1D",
";  c #181819",
":  c #1E201F",
">  c #1C1E22",
",  c #151E24",
"<  c #201E21",
"1  c #1D2124",
"2  c #1A242A",
"3  c #0D2A3B",
"4  c #172D3A",
"5  c #14313F",
"6  c #222225",
"7  c #232529",
"8  c #292A2C",
"9  c #292D32",
"0  c #2C3237",
"q  c #35363A",
"w  c #3B3A3C",
"e  c #343437",
"r  c #1C3545",
"t  c #1C3B4D",
"y  c #15374A",
"u  c #1B3D51",
"i  c #143C52",
"p  c #0A3044",
"a  c #273C4A",
"s  c #373E44",
"d  c #223F51",
"f  c #413F42",
"g  c #1D4255",
"h  c #1C445A",
"j  c #19455B",
"k  c #3A4349",
"l  c #224254",
"z  c #22465A",
"x  c #244A5D",
"c  c #2A4A5B",
"v  c #2B4455",
"b  c #374A57",
"n  c #2D4856",
"m  c #1D4862",
"M  c #244D63",
"N  c #2A4E62",
"B  c #234F68",
"V  c #255066",
"C  c #26526B",
"Z  c #2B556C",
"A  c #2C586D",
"S  c #2D5365",
"D  c #325263",
"F  c #345A6D",
"G  c #3B5A6C",
"H  c #365667",
"J  c #2C5B72",
"K  c #295973",
"L  c #325D73",
"P  c #375F74",
"I  c #304F61",
"U  c #3D6175",
"Y  c #3C647A",
"T  c #35637A",
"R  c #2E617C",
"E  c #424244",
"W  c #44464A",
"Q  c #4A494C",
"!  c #48474C",
"~  c #464C53",
"^  c #4A555C",
"/  c #57575A",
"(  c #495B66",
")  c #575D64",
"_  c #435F71",
"`  c #605E61",
"'  c #4A616D",
"]  c #43667A",
"[  c #446A7D",
"{  c #486676",
"}  c #526573",
"|  c #546974",
" . c #546C7B",
".. c #5C6D76",
"X. c #58717D",
"o. c #5C6368",
"O. c #626264",
"+. c #6B6A6D",
"@. c #64676B",
"#. c #646C74",
"$. c #676C75",
"%. c #64737C",
"&. c #6C737C",
"*. c #6B7177",
"=. c #737375",
"-. c #74757A",
";. c #79797C",
":. c #716F73",
">. c #3B6C82",
",. c #37708B",
"<. c #496E82",
"1. c #4B7285",
"2. c #4A7489",
"3. c #587788",
"4. c #587D91",
"5. c #507287",
"6. c #687A86",
"7. c #727681",
"8. c #737B84",
"9. c #7B7D83",
"0. c #767E89",
"q. c #807E83",
"w. c #5B8295",
"e. c #68818D",
"r. c #7D828B",
"t. c #768289",
"y. c #638394",
"u. c #698899",
"i. c #738693",
"p. c #728D9C",
"a. c #798A94",
"s. c #79909E",
"d. c #678DA0",
"f. c #6990A4",
"g. c #7493A3",
"h. c #7A96A6",
"j. c #799EB2",
"k. c #718EA0",
"l. c #7CA1B5",
"z. c #5F8EA0",
"x. c #828285",
"c. c #82858C",
"v. c #8A8A8D",
"b. c #85888D",
"n. c #858B93",
"m. c #8B8D94",
"M. c #848F98",
"N. c #898D98",
"B. c #8D939B",
"V. c #88949A",
"C. c #939295",
"Z. c #94969B",
"A. c #9B9B9D",
"S. c #98979B",
"D. c #918F92",
"F. c #889BA7",
"G. c #959BA3",
"H. c #9C9DA3",
"J. c #989CA6",
"K. c #A19FA2",
"L. c #8CA1AD",
"P. c #9DA3AB",
"I. c #98A3AA",
"U. c #87A5B6",
"Y. c #99ABB6",
"T. c #9CB2BD",
"R. c #A3A2A5",
"E. c #A3A5AB",
"W. c #ACABAD",
"Q. c #A7A9AC",
"!. c #A5ACB3",
"~. c #ACADB2",
"^. c #A6ACB6",
"/. c #B1AFB3",
"(. c #ADB1B6",
"). c #ACB4BC",
"_. c #A5B2BB",
"`. c #B3B3B6",
"'. c #B3B5BB",
"]. c #BCBABE",
"[. c #B7B8BC",
"{. c #C0BDBF",
"}. c #99B7C8",
"|. c #8EB1C3",
" X c #A5BDCC",
".X c #A8B9C3",
"XX c #B4BAC3",
"oX c #BEBDC1",
"OX c #B3B7C2",
"+X c #C1BEC2",
"@X c #ACC1CD",
"#X c #BCC4CB",
"$X c #B7C2C9",
"%X c #AAC7D6",
"&X c #B7C9D5",
"*X c #B8D0DE",
"=X c #BAD6E4",
"-X c #BDE1EF",
";X c #C3C1C4",
":X c #C8C4C7",
">X c #C5C5C9",
",X c #C9C6CA",
"<X c #C5C9CE",
"1X c #CDCACE",
"2X c #D0CCCF",
"3X c #C4CBD3",
"4X c #CECDD1",
"5X c #C8CFD9",
"6X c #D1CDD1",
"7X c #CDD1D5",
"8X c #C5D4DC",
"9X c #CCD4DB",
"0X c #C7D3D9",
"qX c #D4D2D5",
"wX c #D4D4D9",
"eX c #D9D6DA",
"rX c #D5D8DD",
"tX c #DBD9DD",
"yX c #D8D5D7",
"uX c #C3D9E6",
"iX c #CCDBE4",
"pX c #C6DBE7",
"aX c #D3DBE3",
"sX c #DADCE2",
"dX c #D5DDE7",
"fX c #C3DEF3",
"gX c #E0DEE1",
"hX c #CDE1EC",
"jX c #D3E2EB",
"kX c #DCE5EC",
"lX c #DDE3E8",
"zX c #CAE5F3",
"xX c #D8E9F4",
"cX c #E6E5E9",
"vX c #ECF6FF",
/* pixels */
"].qX6X6X6X6X6XyX6X6X2X2X2X6X2X6X1X:X,X,X,X,X,X,X>X>X,X,X;X,X[.x.:X;X>X>X;X;X:X:X>X;X;X:X;X;X;X;X;X;X;X;X{.;X{.;X{.;X;X{.oX{.oX<X",
"].yX6X6X6X6X6X+X6X6X6X6X6X2X2X2X2X,X,X,X,X;X,X,X>X,X<X;X7XW.8 & q oX,X;X>X;X;X>X;X;X;X;X;X;X:X;X:X;X;X;X;X;X;X;X;X{.;X{.;X{.{.>X",
"+XqX6X6X6X6X6X6X6X6X6X6X6XyX2X2X1X<X,X:X,X,X>X,X>X>X:X;X,XW $ : o +.1X;X;X>X:X>X:X;X;X;X:X>X;X;X;X;X;X;X{.;X;X;X;X{.{.;XoX;X{.>X",
"+XqX6X6X6X6X6X6X6X6X6X6X6X+X2X2X2X1X;X,X,X;X,X;X>X>X:X7XqX/ o = o v.eX1X;X:X;X;X;X:X;X;X;X;X;X;X;X;X;X;X$X;X{.;X;X;X;X{.{.{.{.;X",
"{.6X6X6X6X+X6X6X6XyXyXeX+X6X+XyX1X2X<X,X,X,X,X>X;X,X,XW.W.A.q = / S.v.A.1X;X;X;X:X;X;X;X:X;X;X:X;X;X;X;X;X;X;X{.;X+X{.+X;X;XoX>X",
"+X6X6X6XyXeX6X6X6XyX+X+XyX6X6X6X1X2X1X:X,X,X;X:X:X7X` ; $ / iXt.lXq . $ x.7X;X;X;X;X;X:X;X;X;X;X;X;X;X{.;X;X;X;X;X{.{.{.oX{.{.>X",
"+XyX+X6X+X+XeX6X6X6XeXyX+XqX+XyX2X1X2X:X,X<X,X:X2XO.o : & ^ h.n L.s $ : $ ;.2X;X;X;X;X;X:X;X;X:X;X;X;X{.{.{.;X;X;X+X;X{.{.{.{.,X",
"{.+XeXyXyXyXyX6X6X6X+XqXeXeX+XqX1X2X2X,X,X,X;X2XC.o : : = ' S V S ' $ ; : & K.1X;X;X;X;X;X;X{.;X;X;X;X{.:X{.;X;X;X+X;XoX{.;X{.>X",
"+XyX6X6X6X6X6X6X6X+XyX+XyXyX+XyX1X1X1X2X:X,X2XtXv.$ : & t. Xg R V @Xt.+ & $ A.eX,X1X{.{.2X2X7X7X:X{.,X2X{.2X:X{.;X;X+X+X+X+X{.:X",
"{.tX+X6X6X6X6X6X6XgX/.+XyX+XeXeX7X1X7X2X:X1X;.`.D., 9 ..hXT.x J V }.*X( k k A.=.O.W.,X4XC.v.v.x.{.2XW.O.w ;.].;X+X+X+X+XoX+X{.:X",
"{.+X6X6X6X6X4X1XyX` < e R.cXS.f E w W {.yXE $ & @.hXg.[ P w.j V S w.A F h.kXW . o e :X+.$ $ & $ E [.O.  ; o S.:X+X+X;X+X+X;X{.>X",
"+XeX6X6X6X6X2XeXK.# < # / S.- # : : & E x.& : ; 8 s.L T M { g.l l.Y C Y c 6.1 : : : =.& : 7 : : . +.E ; : & =.2X+X;X+X+X+X{.{.>X",
"+XyX6X6X6XqX2XqXK.* > # f E.7 # & ; ; ;.$X= & X k =Xz.A g U hX_.hX' j A p.zXs . X 1 iXV., % & % ..xX*.X & ; W.:X;X;X;X{.].;X{.,X",
"+X6X6X6X6X6X6X6XeX` > 9 q.aX0.s ' ( ^ }._.%.0 k t.L.z.3.g.F.3X3X0XL.U.1.w.e.a.%.o.F.X.X.| L.T.X. .{ a.E.+.`.{.;X{.;X{.{.;X].{.>X",
"+XyX+XeX6X6X6X6X+XcXS.+XY.r m 5.xX%XT L U zXL.@X}.p x T @XhX7X7X0XhXU.L V 5 }.j.p.=Xj V S U.T.V M g L.V.8 W.,X#X;X;X#X{.{.].{.>X",
"{.yXyXyX6X6X6X6XeX+Xe ^ F.N K i 1.z.K ,.,.j.S Y f.V A F ' !.].$X[.I.H U M g Y V x 1.J A x Y J V V g ' : o 6 `.;X;X;X{.;X;X;X{.:X",
"{.+X+XeXqX6X+XyXeX/ o + ( ' m K M w.,.L z.Y R V 2.4.L }.&X>X/ , @.#X0XT.5 p.2.C V Y j.t 6.d.C B g X...X : $ R.,X;X;X{.{.{.;X{.,X",
"+XyXqXeX6X6XeX+XeXE ; $ %.=XU m g j.%Xe.-Xw.R V w.=X6. X9XrXQ.  Q.tX7XP.%.zX1.S F G pXL.uXu.i j U zX8.X : ; R.1X{.;X;X;X;X{.{.<X",
"+XyX+X+X+XyXyX+XeXQ & $ ..pXu.2.w.Y.kXhXhX| T.p.3.dX#XOXrXrXb./ x.rX7X(.3X9XX.Y.$X..3X9X5X.X}.u.T g...X : o K.,X{.;X;X{.oXoX{.>X",
"+X+XeXyXeXtX+XqXeX/ o @ b ( g 5.pXjX7XtX7X!.jXhX^.5X9XJ.).P.oXgX;XP.P.I.7X#X).9X9X^.`.7X#X8XY.G Z L ' , . e {.;X;X;X{.;X;X+X+X,X",
"oXqX6X6XyXyX6X+XqX].8 k s.z Z p X.sXrXlX/ oXlXrX<X!.9XB.0.n.wX5X7XS.r.A.7XZ.[.9XrX'.8 `.7X9XL.A J x L.!.k ;X1X{.;X;X;X{.+X+XoX,X",
"oXqX6X6X+XyXqXyX1XcXR.'.$X3 h [ uXjXrX` $ :.;X7X!.c.E.N.r.n.E.;XR.m.b.Z.P.n.Z.).A.w & ! ^.Y.}.w.Y 1.e.Z.o.K.].;X;X;X;X;X;X{.;X,X",
"oX6X6X6X6X6X6X+XtXC.9 9 %.@Xg.Y w.X.!.[./ 7 W.oXB.G.N.P.c.n.E.;X(.C.m.!.N.M.V.'.].w =.wXOX_ d M w.zX%.  $ o R.1XoX#X{.;X;X{.oX<X",
"OXqX6X6X6XwX6XyX,Xe $ $ 9 $X<.V g l.jXcX[.(.cXrXOXr.N.<X^.n.9X4XrXE.).<Xm.t.(.7XwX`.[.<X5X&XJ B g 3.k & : o O.,X{.{.;X;X;X;X{.:X",
"+XqX2X6X6X4X4XqX1Xw $ ; 2 L.[ Z V l.aXrX<X'.sXsX!.E.J.oX9X^.<X9X#X_.9X#XG.Q.P.<X6XE.OX4X#X6.d z U *X@.  & . R.yX1X{.{.;X{.;X{.,X",
"OXyX6X6X4X4XqX].1X;.1 1 ) =Xl.>.w. ._.7XE.c.XXE.+XdX&XOXaXY.6.pX3.L.jX).#XwX#XA.E.m.S./.P.6.k.4.3.s.t.#.k t.+.O.+.{.;XoX;X{.{.:X",
"oXqX6X6XqXsXO.> ; P.$XL.=Xh C 4.-XxX9X(.N.N.t.G.sX9XiX} .X Xu ] x }.}. .9X5XrXP.q.N.q.E.3XiX%XG g 3 p.*XX.iX0 . . w {.>XoX+X+X:X",
"oXqX6X6XwX+.@ > X b.%.H U.A R x } 3XrXrX).N.n.B.oXiXiX_ I h.C C Z w.K ] *X$XOXZ.N.q.P.<XOXOX) d x g  .U g | 0 & : o q {.;XoX+X,X",
"OXqX1XeXv.# 6 * 1 ( x M U 1.A U..XXXP.J.J.E.4X#X$X6.P Y M L [ g <._ M J v ( OX>X3XG.q.0.c.'.#X.Xr H 3.l M l 8.1 $ : o C.1X;X{.<X",
"+XtXyXcX=.. % , $Xh.i j [ =X[ @XkXrX[.n.B.N.^.rXxX*X<.B g P =X5.=X5.p j P %XdX5XG.7.0.7.P.4X<XXXb @Xs.3 g G =X_.7 + . R.;X`.1X:X",
"[.+X+.K.q.~ ~ i.%XU.<.2.i.xX$X$XcXcX(.S.B.Z.E.OXM.U.d.1.h.i.8.~ 7.0.g.5.4.h.6.Y.P.q.0.J.Z.+XsX~.!.iXY.F.u.[ y.u.{ e.G.;.e 8 +.,X",
"/.e # O q.vXh.S Z A Y %XxX9XrXO.P.D.[.sXOX!.lXaXs.l V ] =X^.. * . M.=X[ m c e.5XaX^.E.wX<X@.+.! ].;X4X.XG j x V H 3.'.8 o & & Q.",
";.: 6 ; w a.A T R K C F $XrXtX!   e gXwX9X+X9X9XxX4.K j } ( > 6 , s 3.d M _ uX5X3XOXoX5XsX/ @ 6 oX>X3XF.r u i x x G G.7 & - ; A.",
"/.7 & . @.xXz.A B V R }.xX7XsX@.D.q.OXsXXXJ.sX9Xi.N B L =X_.+ , + F.fX<.M d } #X4XZ.q.+XE.N.+X9.OX3XoX&Xk.l z c H L.9X/ & & w ,X",
"[.R./ ;.C.*.^ i.}.l.2.z.u.hX#X).cXgXOXB.B.N.N.^.Y.@XU.Y <.5.Y.^ I.0.F J k.*X.X^.0.7.7.$.N.aX<XXXM.uXk.d F [  X.Xk 2 = C.~.S.{.:X",
"[.cXyXcXD.  + 7 &XT.A Z G hX} _.kXsXoXq.N.N.OXdXkX@XG N Z <.=X . X4.i J N L.iXaXOX7.#.) q.3X9X&Xc F.i.p M c F.~ X ; O m.qX,X{.,X",
"].2X1XeXC.& : & 2 ..A V U  .x j..X_.!.G.J.J.+XOXXXi.3.{ Z P Y d U Y g H 6.6.^.E.OXN.n.B.m.P.t.u.x x ] r 3 n s + : & : W.:X].;X,X",
"].qX4X2XyX+.o 6 + ..s.S U.c R R _ .XaXsXOX0.0.q.>XdXxX .M U.J B M l.1.I pX9X#Xc.#.$.N.5X7X*Xi.y M i d.F.a .X! @ $ : K.,X].;XoX,X",
"].qX4X2X2XgX+.& o t.iXs.jXa J 2.*XxX9X~.7.0.7.0.wX5XiX..Y.*XH 4.c U.uX8.#X>XwXN.#.$.@.c.$X@X=Xd.l l 6.XX$.9X! * 8 R.1X{.#X;XoX>X",
"].eX2X2X7X2X7XW.W.D.q 1 ^  X|.<.4._ G.<XOXq.(.E.'.qX>X).dX.X0.zXL.L.rX$X'.5X`.H.'.*.n.#X!.' G [ 4.*Xt.* & 7 K.oX].,X{.{.{.{.;X>X",
"[.qXqX6X6XqX1XqXtX` o - @ F.w.A u 5.iXqX7X`.wXsX~.n.N.OXaX~.4X5XaX^.5XoXq.q.G.6X5X~.`.,X3XT.N V S p.b @ > o =.7X;X{.;X{.].;X].:X",
"{.qX2XqX6X4X2X1XyX) O - & F.4.J C k.iXsX4XA.sXwX+X8.7.oXOXn.qXwXsXN.N.;X8.$.J.,XqXm.Z.sX&Xi.z A U  X#.  * . x.1X].;X;X{.;X+X{.,X",
"[.qX2X2X6X6X2X1XtXA.8 6 q  X%X1.3. .G.).C.; ;.].c.9.0.G.q.q.B.OXG.7.7.n.c.8.-.Z.S.& ! C.Z.| 4.1.4.|.i.~ w / `.>X#X{.;X;X;X;X{.,X",
"{.2X2XqX6X6X1X2X2XyX1Xc.iXb x A |.pX9Xb.  W ~.1X~.7.P.G.8.0.^.3XOXc.7.r.'.0.J.+X].C.@ / <X5X&X[ g t i.5X*.tX>X;X{.;X;X;X{.{.].>X",
"].yX2X6X6X6X6X6X2X6XO.# s.' m m H 8XaXcX;.x.cX7XrXP.wXJ.7.8.3XwXiXB.&.c.9X/.(.3X1X].+.7X;X3Xi.r h i } ~   +.,X{.;X;X;X;X;X;X{.>X",
"].yX6X6X6X6X6X1XtXC.o - 2 6.A L |.*XoXqXlXZ.<XjXJ.$XaXE.'.oXE.1X/.E.OXG.<X<XG.#X0XV.oX3X;X&X=Xy.z G } + ; o K.1X;X{.;X{.{.{.#X,X",
"].qX6X6X6X6X4X1XtXv.& - 1 &X}.Y <.t L.dXdX0.| F.s &X#X!.wXeX~.8 ` sXqXOX^.iX(  .h.b @X<X5XY.<.[ 3.*XM.X ; & S.,X{.;X{.;X#X{.{.:X",
"+XqX6X6X6X6X1X1XtXm.& - 1 @Xu.M M M  X6.T.h.y t n *X_ M.kXwX+X* &.gXiXoXb  X6.p t G %X' F.U.y M S U.a.. ; o C.1X{.#X{.;X{.{.{.>X",
"{.yX6X6X6X+XeXyXgXS.O > , 5.I B C L <.y I <.z g c { 3 6.Y.E.8.! ) P.F.F.r c G u l G ] y c 3.g h j I ^ + & $ R.,X{.:X;X{.+XoX{.,X",
"[.6X+X6XqXeXyX+XyX+X` * a._ N B M j.l z c 4.4.d U.I g t r J.aXeXeX<X( 4 N u u.} I U.c t y [ e.3 g g %.#.@ x.1X{.;X{.{.#X{.+X].:X",
"+XyXyXyX6X+X+X6X+XyX+Xq.xX( t I Y.xXi.v r p.iX0.jXk r I .XxX<X4X1X9XhX3.d r F..Xt.8Xa 4 v Y.jX%.5 3 %.0X+.eX;X;X;X{.;X;X{.#X;X:X",
"+XeXyX+X6XqXeX6XgX+Xf 8 f L..X( ^ ) ^ '  XM.0 > ~ Y.}._  .} uXOX9XF.' { 4. X6.7 > ~ P.F.s W W k ^ ).t.e - E W.,X;X;X;X{.{.;X].:X",
"{.6X6X6X6X6X6X6XeX` O < O 0.7.% & $ $ ; D./ O ; @ 0. .t t d }.d p.k.y z c F.s @ * # B.! $ $ o $ @ *./ . :   +.1X+X+X{.+X{.;X].:X",
"+X6X6X6X6X6XyX+XeX:.O < O q.-.O & & & ; A.` . - O N.7.r r D I d d ] z d v ^.k . > @ S.Q   & o o @ D.+.  ; . @.2X:X+X+X+X;X].oX:X",
"+X6X6X6X6X6X6X6XeX].f 6 Q +XgX9.! ! f A.cXR.f 6 / R.J.( #.Y.M M t 4.g.( &.^.q.f 6 @.,X,XO.Q Q Q D.tXR.E : f W.:X+X+X+X+X;X].].,X",
"].6X6X6X6X6X6X6X1X6XeX/.gX6X1XeXeXqXqXqX:XqXqX`.gXq . > J.pXN M y k.xX^ @   D.tX`.qX+X+X7X2X7X2X1X{.:X,XW.2X;X;X+X+X;X;X{.;X{.,X",
"+XyX6X6X4X6X6X4X6X4X1XyX1X1X4X1X1X1X1X,X4X1X1XqX1Xw & ; $ a.I l t 6.^   1 X x.eX,X;X:X;X+X;X{.;X;X{.#X{.>X{.;X;X;X+X+X+X{.{.{.,X",
"+X6X6X6X2X6X4X2X4X6X6X1X2X2X4X4X1X1XqX1X1X1X1X1XqX;.o : ; : | l I ( + 6 & - `.2X>X,X;X;X;X;X;X;X;X:X{.;X;X;X;X{.:X+X+X+X{.{.].:X",
"oX6X6X6X6X4X6X4X6X6X4X5X1X6X1X6X1X6X1X1X1X1X2X1X1XtX=.o o % 0X&.OXn.  @ : ~.qX:X1X>X,X;X;X#X:X:X;X;X;X;X;X;X;X;X+X+X+X+X+X{.#X:X",
"oXqX6X6XqX6X6X6X4X1X6X4X4X4X1X4X4X1X6X1X1X1X1X2X1X1XyXq.` +.C.~ &.q.` ` W.eX:X,X1X,X,X;X;X>X;X;X:X{.{.;X;X{.:X{.+X+X;X+X{.{.{.:X",
"OXqX6X6X6X6X4X6X1X6X6X6X1X2X6X1X4X1X4X6X1X2X1X1X1X1X,XeXtX2X1 o   O.cXeX1X,X,X,X,X2X,X:X;X;X:X;X;X;X;X;X;X;X;X{.;X;X;X].#X{.].:X",
"oX6X6XqX6X6X6X5X6X6X6X6X6X5X6X1X1X4X1X1X1X1X2X1X1X1X1X:XqXv.& : & e ;X1X,X1X,X1X,X,X,X,X;X;X;X;X;X;X;X;X{.;X{.#X].].;X;X{.{.].:X",
"oXqX6XqX6X6X1X6X6X1X6X1X6X4X4X1X4X4X6X1X2X1X2X1X2X2X1X1X1X2Xe o . +.eX,X,X1X1X1X,X,X,X<X>X;X;X:X;X;X;X;X;X;X{.#X;X;X{.].{.{.].:X",
"OXqX6X6X6X6X6X6X6X6X6X6X4X4X1X6X4X4X1X1X1X2X1X2X1X,X2X1X1X1X{.;.v.{.1X,X1X,X1X,X,X1X,X,X>X>X;X;X;X;X;X;X;X;X{.;X;X{.{.{.{.#X].:X"
};
