/* XPM */
static char *_0966_6a00ee7097856bf52ce66153fe6acc79f1e789d8ca2d03520b6e5777b7a66790[] = {
/* columns rows colors chars-per-pixel */
"64 63 239 2 ",
"   c #040000",
".  c #090202",
"X  c #0D0B0B",
"o  c #090707",
"O  c #1A0C04",
"+  c #120D0C",
"@  c #170B05",
"#  c #1B130B",
"$  c #110E11",
"%  c #151212",
"&  c #1B1412",
"*  c #1D1B1B",
"=  c #1C1917",
"-  c #2C0500",
";  c #2D0901",
":  c #2B0A05",
">  c #330500",
",  c #330A03",
"<  c #3B0C04",
"1  c #3B0F0A",
"2  c #370A06",
"3  c #231609",
"4  c #3D120B",
"5  c #38120A",
"6  c #221D1C",
"7  c #281A16",
"8  c #3C1813",
"9  c #26211E",
"0  c #36261B",
"q  c #252322",
"w  c #2A2523",
"e  c #2D2B2B",
"r  c #2C2826",
"t  c #332D2C",
"y  c #372923",
"u  c #3B3229",
"i  c #353433",
"p  c #3B3533",
"a  c #3D3A39",
"s  c #312F31",
"d  c #221D21",
"f  c #461B0D",
"g  c #441C15",
"h  c #4A1C15",
"j  c #4D1A14",
"k  c #49220D",
"l  c #4B231B",
"z  c #482419",
"x  c #53241C",
"c  c #54291B",
"v  c #57311C",
"b  c #4C2923",
"n  c #542B24",
"m  c #562925",
"M  c #48342A",
"N  c #5A332B",
"B  c #423D3B",
"V  c #443934",
"C  c #593A34",
"Z  c #63352B",
"A  c #65392C",
"S  c #623924",
"D  c #653B33",
"F  c #683C35",
"G  c #45413E",
"H  c #4B433A",
"J  c #59453B",
"K  c #6B422E",
"L  c #6B423B",
"P  c #67453A",
"I  c #72443D",
"U  c #764A3B",
"Y  c #75593E",
"T  c #4A4643",
"R  c #4A4746",
"E  c #574A45",
"W  c #54514D",
"Q  c #5B534C",
"!  c #565353",
"~  c #5B5855",
"^  c #694B45",
"/  c #744B43",
"(  c #774B45",
")  c #6B534C",
"_  c #66534A",
"`  c #7B5443",
"'  c #7C534C",
"]  c #755448",
"[  c #675B57",
"{  c #795952",
"}  c #69635D",
"|  c #74655A",
" . c #6A6765",
".. c #756B67",
"X. c #78726D",
"o. c #7C7876",
"O. c #98712D",
"+. c #8A6A35",
"@. c #94733C",
"#. c #997639",
"$. c #896B36",
"%. c #A17D3C",
"&. c #835848",
"*. c #835C54",
"=. c #855C55",
"-. c #8C684B",
";. c #916B4C",
":. c #957542",
">. c #9C7E4A",
",. c #9A7848",
"<. c #8C6255",
"1. c #83635C",
"2. c #8C675B",
"3. c #956B5B",
"4. c #946A58",
"5. c #867259",
"6. c #997956",
"7. c #A27D48",
"8. c #A17C54",
"9. c #8A6A64",
"0. c #956D65",
"q. c #887666",
"w. c #9B736B",
"e. c #967468",
"r. c #837B77",
"t. c #9C7B74",
"y. c #9A7C76",
"u. c #A5796A",
"i. c #A57C74",
"p. c #AC8337",
"a. c #9D8252",
"s. c #A4824A",
"d. c #A28253",
"f. c #AB8553",
"g. c #AC8A5B",
"h. c #A6875B",
"j. c #B28C5B",
"k. c #B5915F",
"l. c #978566",
"z. c #88827D",
"x. c #9A8579",
"c. c #A48C63",
"v. c #AC8B64",
"b. c #AC8C6B",
"n. c #A88469",
"m. c #AE926A",
"M. c #AC9266",
"N. c #B3946B",
"B. c #B69669",
"V. c #A5847C",
"C. c #A98877",
"Z. c #B38A79",
"A. c #A9937A",
"S. c #B79876",
"D. c #B18D6A",
"F. c #BDA37C",
"G. c #BAA06F",
"H. c #C39D77",
"J. c #C29B6E",
"K. c #C9A57D",
"L. c #8A8684",
"P. c #958C87",
"I. c #98928D",
"U. c #9C9794",
"Y. c #A78983",
"T. c #B58D83",
"R. c #A79788",
"E. c #B99986",
"W. c #A79C95",
"Q. c #B79C96",
"!. c #BCA487",
"~. c #ACA49B",
"^. c #A9A299",
"/. c #BAA79A",
"(. c #BEB19D",
"). c #ABA7A4",
"_. c #B8ACA5",
"`. c #BDB5A9",
"'. c #BDB5B2",
"]. c #C49B84",
"[. c #C49A8A",
"{. c #C39E95",
"}. c #C4A483",
"|. c #C5AB8C",
" X c #CAA888",
".X c #D2AC88",
"XX c #D6B28C",
"oX c #C8A797",
"OX c #D3AC96",
"+X c #CAB397",
"@X c #DCB59B",
"#X c #D7B797",
"$X c #CAB08D",
"%X c #E0B89C",
"&X c #C7ABA4",
"*X c #CAB9A7",
"=X c #D7B7A5",
"-X c #C5BBB5",
";X c #DBBCB4",
":X c #D9BCB7",
">X c #D1ACA3",
",X c #E2BBA6",
"<X c #E1C39D",
"1X c #D8C4A7",
"2X c #CBC3B9",
"3X c #D8C6B8",
"4X c #D2C5B0",
"5X c #E5C6A9",
"6X c #E5C7B7",
"7X c #E6D5B8",
"8X c #F3D7BA",
"9X c #E7D1A8",
"0X c #D9C39E",
"qX c #D6CBC5",
"wX c #DCD2CA",
"eX c #D6D1CE",
"rX c #EACCC3",
"tX c #E6CBC5",
"yX c #E8D6C9",
"uX c #F2D5CA",
"iX c #F5D9C8",
"pX c #E7DBD3",
"aX c #F6DDD1",
"sX c #F1CDC4",
"dX c #FAE2CD",
"fX c #EDE1D8",
"gX c #FEE4DB",
"hX c #FFEBDB",
"jX c #FCE6D3",
"kX c #FFF2DC",
"lX c #FEEDE2",
"zX c #F8EDE6",
"xX c #FFF3E3",
"cX c #FFF8E6",
"vX c #FFF4EC",
"bX c #FFF9EC",
"nX c #FFFAF1",
"mX c #FFF7F0",
"MX c #EEE9E3",
/* pixels */
"O.s.g.7X2X .= X o . _ _ : i.5X,.,.@X[.5 C ..  o + % ~ `.yXB.p.p.p.p.G.pX`.~ % X o   ..N 5 [.@X:.,.5Xi.: ) _   o + =  .2X7Xc.s.O.",
"+.s.+X4XH G q G I.2XyX7X{ F 6.@XXXn.F / :XuX-XW.R q T V *X1Xa.#.p.a.1X(.a G * W ^.-XuX;XL P n.OX@X6.F *.tXyX-XI.B q T T 3X+Xs.+.",
"c.1X4XW.L..   . % [ pXdXx > Z =.U &.> < 6XjXX.*       X.~.(.7XF.A.9X(.).X.    o * X.hX6X1 > U U =.A > x dXyXQ %     o P.I.4X1Xc.",
"4XW.4X9 s a e       m.S.4.Z 0.> > <.F =.b.!.O     r i a + `.R.3X3XR.`.X a i q     @ F.D.&.F 3.> < 2.Z 3.N.A..     e a s 0 -X~.4X",
" ...r X.    ! ).T | h.:.v.jXOXz b Y.hXS.@.d.q.B ). .    ~ T W X.X.W G ~   o X.).V q.d.@.S.hXY.g z OXjXv.@.c.| E ).W     o.r r.} ",
"* !   q *     [ MXhXXXg.+XjX*X*X:XoXhX#Xj.K.jXzXr.    $ e   R q w R   e =     r.vXjXK.g.=XhX&XtX>X*XjXoXf.XXgXMX~     * *   } = ",
"o * o   z.e   . *XgX2.j Z.uXe.lXzXy.;XoXj U aXtX@   = L.X   d o X 6   $ L.=   + tXaXU x OX:Xy.mXzXe.uXC.k 3.hX-Xo   e o.  o *   ",
"  } *   R eXB Q C ' h > N F b :XtX^ m I > f =.M Q V -X..  $  .     .X   X.'.a _ M *.f > ( b L tX:Xm ^ N > n ' M Q G eXT   q ~   ",
"  L. .    qXnXq.- 2 i.D i.; , { w.: - 0.L u.x - _ cXfX&   B ).    ).a   & fXcX^ - x w.I 2.> , 0.{ > , u.D u.> > q.nX2X     .o.  ",
". z.2Xu ) 6XaXC.D &.@X.XOXI D Q.&XP ^ [.XX@X=.F w.iXiX5.M ).)..   _.~.u 5.iXiXe.F =.@XXXE.^ ^ &XQ.J U oX.XOX&.F V.aX7X] M qXo.  ",
"^ qXbX1Xd.k.<.< N @Xf.%.m.!.7 . . O A.F.@.s.%XU , U B.>.|.cXuX) { aXcX$Xd.B.U > / %X7.@.!.A.+ . . 3 oXD.#.g.@XZ , ;.k.7.1XbXqXP ",
": C.*XS.#.j.&., x OX7.#.m.E.O     . A.S.@.7.@XA > K B.:.m.oX{.2 8 Q.oXm.@.k.A > K @X7.@.K.x..   . O !.D.#.f.OXx > &.j.%.S.=Xy.: ",
", F 2 h E.#XaXi.U 3.+X|.$X2.J x.P.P 1.!.$X+Xu.( w.iX@X|.Z > F f 5 L > Z  X=XiX0.( u.$X|.E.2.^ Y.y.P 2.oX|.oX3.U i.iX+X[.f 2 ^ > ",
"C.u.> x 7XbX6XC > 2 C.J Y.: - oX6X; - t.J x.h > c *XxXjXZ > &.].].&.> Z jXxX&Xb > l x.^ q.: , 6XQ.; : V.J x.< > C tXcX6Xh > i.C.",
"v.}.Z.I =.e._.Y.l P 7 . M C k b.H.c M C . 3 ^ 8 x./.C.*.( u.H.J.B.H.u.( *.V._.y.5 ) # . E b v S.m.8 J M   y ^ l Y.&Xt.*.F Z.}.j.",
"+.}.3.> - oXbXmXi.rXt . E hX5X6.,.@XhX..  & tXi.lXvX:X5 > U .X:.@..XU > 5 6XvXgXt.tX& . q.lX#X,.8.5XhXJ . V rXy.mXnX{.: > 3.H.+.",
"-.}.[.m b q.tXrXF i.w . M y.<.n.b.-.e.^   @ i.D ;XrXY.b m i.XXd.8.XXi.m b V.tX:XN Y.@   [ e.;.D.b.&.x.V   t i.F rXtX0.b m [. X-.",
" XC.h F 6XiX/.g 2 f ) O { : : T.OX- ; { # E b > 8 Y.uXrX&.j <.@X@X;.j &.sXiXY.8 , b J 3 ] - - =XZ.; , { O ) 4 2 8 oXiX;XF h S.|.",
"n ( , , OX8XhXT.h n =X}.+Xz M &X3XC 8 E.|.5XD g t.kX8X5Xf > F Z A F > k 5X8XhXw.g F =X|.T.0 C 3X&XM z +X!.#Xx j T.lX8XOX> > ' m ",
"- =.2.4.d.m.C.b U =Xg.8.S.oXM 7 9 y /.}.>.f.=X*.z e.S.d.6.*.u.> > u.&.e.8.F.e.z =.=Xh.a.K.Q.y 7 9 M +XZ.8.j.=X/ b A.N.h.4.9.' - ",
"J 3XbX=X:.h.P : < [.8.#.m.C.. o     q.S.@.7.OXc - v g.#.$XcXdX_ ) aXvX|.:.g.v - n XX7.@.F.q.  . . . A.b.@.f.[.1 ; U h.:.=XcX3XJ ",
"7 ^.fXl.a.#X#X] &.].J.J.S.E.E { ..J T.].B.J.].=./ oX<Xl.l.qX2X9 7 2X3Xq.h.1XoX^ <.].H.B.E.T.J  .{ E E.H.B.J.[.&.] #X#Xa.l.fXR.3 ",
"  L.L.  3 3XnXY.2 f OXu.oX> 2 V.{.8 > Z.u.OXc > 1.bXdXy   ~ ).    ).}   y dXnX=.> x OXu.i.> g {.Y.2 > {.u. Xf > Y.bX2X#   P.o.  ",
"  o.i   q eXU.{ > m Z > F h g i.Y.b f F < x D , _ P.pXa   * L.    L.=   a pXP.) > D x < I 1 b Y.t.g g F , A x > [ U.pX*   i  .  ",
"  e X   z. .o & I.:XD , { oX^ vXvX9.Y.w.> l >XQ.w   W U.o   s o o s .   U.W   t Q.*Xl , C.C.=.nXvX^ oX{ , P 1XP.7   X.o.  X r   ",
"X i   $ G     = fXbXoX;.=XhX*XyXaX&XgX6X4.H.cXmXi     p *   i % % i   * i     i bXxXS.4.6XhX_.lXyX*XhX=X;.OXbXfX=     T X   B X ",
"H X.  ~     e 2XU./.B.s.b.kX>X' { T.cXS.s.g.(.I.qXB     ~ + W W W W % W     B qXP.+Xg.7.S.cXT.*.) >XkXb.7.B./.U.2Xr     ~   o.R ",
"/.z.I.R   q W i   O g.>.v.u.T.> > i.C.n.>.g.0   9 W r o q ^.} (.*X .~.9 o q ! 9   0 M.7.b.C.i.- , T.u.v.>.h.O   e W q   W P.P.~.",
"!.7X2XW U.r       # 4X6Xc > F m h / > f OXtXr       = I.[ /.7X0X0X7X(.~ I.=       y yX+Xf > ( j m F > m 6X*XO       r U.W 4X7X!.",
"$.M.0XwXu o % e L.eXlXlX( f ( OXOX3.f F uXlXpXP.a % o 9 2X4Xc.a.s.B.4X2X* o % a I.pXxXyXD < 4.[.@X( 1 &.gXzXeXz.e % o a yX+XM.$.",
"#.s.m.0X~.r.q s R p x.t.m i.XXg.g..XH.m 9.W.p R i d ..~.1XF.s.p.p.p.!.1X^...* i R i W.1.m ]..Xj.j.XXu.m V.x.a R s r r.~.1XG.s.O.",
"O.s.h.7XX.o o       7 0 > A .X:.@.K.&.- 5 y .         Q 7XM.p.p.p.p.m.7XQ         . l 1 - &.}.@.,..XZ > 0 7           X.7Xh.s.O.",
"O.s.G.*X^.o.q i W B P.x.D u..XN.b. XZ.N q.W.a W a *  .^.*XF.#.p.p.@.!.`.^. .9 a W V ^.9.N Z.}.D.D.oXu.N P.P.V ! i q o.^.1XN.s.O.",
"$.M.0XyXu   $ e r.wXlXhX( , I OX X4.> A iXxXpXI.a % o * 2X9XM.s.s.M.9X4X3 o % a I.pXxXiXD < 4. X@XI , ' hXkXwXr.e +   p wX0XM.$.",
"!.7X2XW I.e     . + =X5Xc > K m j I > f OX7X0       * I.Q (.yX1X*X7X(.~ I.=       r 7XOXf > I j c F > v 5X*X@       e I.W 4X7X!.",
"~.r.P.R   q ! i   3 c.6.b.C.T., > i.T.C.>.c.0   r ! q   r ^.} `.(.} ^.r   r ~ 9 . 0 c.>.n.Z.i.> < T.C.b.>.l.@   i W 9   W L.L.^.",
"G X.  ~     e -X^./.S.a.m.kX&X{ =.Y.cXS.8.v.(.U.qXa     W $ ! E W Q X W     G eXU.+Xv.d.E.cXY.*.' &XkXm.6.S./.).-Xr     ~   r.G ",
"% i   X R     & pXbX.X-.=XhX&XuXgX&XhX6X:.H.xXvXr     a =   e % % i   * a     e cXhXS.;.6XgX&XlXuX>XhX@X-.XXbXpX%     T X   a X ",
"  i X   r.X.  7 Y.=XS > &.[.L vXvX1.C.w.> j OXQ.0 o ! U.o . i . o e .   U.Q . y Q.>Xj > n.V.=.nXvX^ {.&.> F ;XY.=   r.r.  $ r   ",
"  o.i   6 wXW.{ , m A > F g g t.Y.b 1 U > m N : _ I.pXp   * L.  . L.=   V pXI._ , A c > I 5 b Y.t.8 g F > A x - | W.wX=   i X.  ",
"  z.P.  3 3XbXP.2 < OXu. X- 5 Y.Q.8 : C.b.OXc > 9.mXpXy . } _.    ).}   M dXbX| , c OXb.C.- 8 &XY.5 - {.u.OX> > Y.nX3X3 . I.X.  ",
"9 ^.fXx.l.#X*X/ &.[.H.B.H.Q.J ) [ J E.].S.S.[.0.P oX1Xl.l.yX2X9 0 2XeXl.l.1XQ.L 3.[.S.S.E.E.C [ _ ^ E.H.B.H.[.&.] *X+Xl.x.fXW.9 ",
"J 3XcX=X@.f.K > f ].f.#.m.C..   . . 9.F.#.7..Xb - v f.:.|.cXuX^ ^ uXxX|.@.g.n - n .X7.O.S.5.. .   . A.M.#.8.].f - K f.@.0XbX;XC ",
"- { <.-.d.B.D.x ( ,Xj.s.S.+XM 6 7 y /.F.7.f.,X<.h u.J.d.6.] 0.- , 0.` 6.d.J.u.h 2.,Xf.s.K./.y 7 6 M =XB.8.k.,X( l Z.B.f.-.<.( O ",
"N ( > > +XiXkXZ.j m ;XE.OXz m &X:XC z E.|.;XF j w.lXiX6Xf > I F F L > j 6XiXlX0.h K =X/.Z.z C 3X&Xb z oXE.=Xx x T.hXiX+X; > *.n ",
"oXZ.x F ;XuXQ.0 > g _ @ { , - Z.OX; ; ) @ J m > g Y.rXrX' x 4.%X@X4.j &.7XrXY.8 > b J O _ ; - =XZ.- : ) @ _ 1 2 l /.yX:XF l T.|.",
"-. X[.m g e.yXyXL t.w   V x.-.v.v.;.t.^ . @ V.D 3XyXY.h h i.XX7.s.XXi.x l Y.yX3XC Y.O . [ t.;.j.v.-.Y.V . t y.P yXyX9.l m [. X$.",
"+.K.0.> : {.mXmXt.sXt   E gX5X8.,.#XgX..  $ tXy.lXvX;X1 > &..X@.@..X&.> 1 :XnXgXt.tX&   q.gX#X:.8.5XgXE . a uXy.mXvX{.- > 3.H.+.",
"n.}.i./ 9.y._.i.x F 0 . M C f Z.H.x b C . & ^ g w.{.Y.9./ w.H.H.H.].w.( 1.Y.Q.0.4 / # . ^ l c ].Z.f C M . y F j i._.t.2.^ C.[.n.",
"C.0.- g 7XcX;XF > 2 R.J Y.- , {.6X, - t._ V.l > b =XvXaXN , ` T.E.` > N jXxX;Xb > x x._ 9.- , 6X[.- - V.J C.2 2 F rXcX6Xj - n.C.",
"> L < k H.XXiXt.( u..X X|.6.P r.x.E 9.}.K..Xn.' 0.8X#XK.v < U < < I , S K.#X8X9.' n..X XE.5.P P.r.P e.|.}. Xw.( i.iX.XF.f < L > ",
"1 T.=XS.:.j.Y - b OX8.@.b.E.@ . . . x.F.@.>.#XD - A M.:.Z.OX{.8 f {.>XN.#.D.K ; D @X7.@.F.x.. . . @ !.m.#.f.OXl - ' g.,.S.;Xt.2 ",
"E qXnX4Xd.N.4., Z @Xf.:.m.oX7   . O E.!.:.7.=X( , ` B.6.+XbXfX[ { pXvX+Xa.B.( : / ,X7.:.}.R.O . . 7 oXm.:.g.=XZ : 2.m.a.3XbXqXE ",
". L.2XM ] 9XaXx.F &.@X.X+X/ J Q.&XE ^ E..X%X<.F 0.iX8X5.M ~._.    _.~.M 5.8XiX2.P <.%X.XE./ ^ _.Q.C /  X.XXX` F V.dX5XY M 3Xr.. ",
". L.}   . 2XnX9.- < i.A u.2 - =.e.: > 0.I u.x > ) vXpX#   a ~.    ).p   3 pXvX^ > j 8.F <.> : w.{ 2 > u.A u.> > e.nX2X.    .r.  ",
"  ~ * . W qXp Q N *.j > Z F b 6XrXL m I > < =.M ^ u -X..  X  .    } X   X.'.t _ N =.f > ( m ^ sX;Xm ^ Z > x =.N Q a qXR   d !   ",
"  * o   o.r   . -XgX4.k Z.iXe.lXvXx.3XoXc Y aXyX+   = z.X   * o o *   $ L.%   + wXdX` c &X3Xy.mXlXy.uXA.k 3.lX-X    e o.  o d . ",
"d ~   q *      .MXhX+Xc.+XhX>X*X:X/.xX=Xv.}.jXzXz.    % e   R 9 r R   e $     L.zXjX}.v.=XkXoX3X&X*XhX+Xv.+XhXfX .    * q    .* ",
".. .e X.    ! ).T | h.:.D.dX>Xz z Z.jXS.@.a.q.p ^. .o   ~ H W X.o.R R ~   o ..^.i 5.d.@.S.kXZ.z g OXdXc.:.h.| G ).!     o.r o. .",
"4X~.2X9 p a q       m.B.;.n 2.2 , =.S &.D.K.@     q i G + -XW.4X7XR.'.+ G i d     @ K.D.&.N <., 2 <.N ;.B.M..     q a i 0 -X/.-X",
"c.1X1XW.L..     % } fXdXc - Z <.` ( > f 6XhXX.6       X.~.(.9XG.G.9X(.~...      d r.hX6X4 > U ( <.A > n dXyX} =       L.^.4X0Xh.",
"$.s.+X4XB G q R U.-XyXtX*.D 3.@X@Xu.F ( 3XpX-X).~ * B p (.1Xs.p.#.a.9X(.a B * ~ ).-XpX:X( F n.#X=X3.A 1.yXwX-XU.T q G G 4X+X>.+.",
"O.s.c.7X2X[ % % X   _ ^ , u.5X,.:.@XE.1 N |   o $ $ W `.wXG.p.p.p.s.m.yX`.W % $ . . ..N 1 E.@X:.,.<Xu.> ) Q   X $ % } -X7Xc.s.O."
};
