/* XPM */
static char *_1203_24fd5c3340621b1cc06a8bf1a8bdb19c17f268d4779e87d62a2ff77446dbb759[] = {
/* columns rows colors chars-per-pixel */
"64 64 119 2 ",
"   c #010002",
".  c #060509",
"X  c #09070B",
"o  c #07080B",
"O  c #0A0A0C",
"+  c #0E0E11",
"@  c #110F12",
"#  c #0E1114",
"$  c #131215",
"%  c #161519",
"&  c #19171A",
"*  c #14191C",
"=  c #1B1A1D",
"-  c #1F1E21",
";  c #201F23",
":  c #1F2122",
">  c #232225",
",  c #272529",
"<  c #28262A",
"1  c #2A2A2C",
"2  c #2E2E30",
"3  c #312F32",
"4  c #333335",
"5  c #383637",
"6  c #363538",
"7  c #383639",
"8  c #37383C",
"9  c #3B3A3D",
"0  c #403E3F",
"q  c #3E3D41",
"w  c #413F42",
"e  c #434345",
"r  c #484647",
"t  c #464548",
"y  c #494649",
"u  c #4B4B4D",
"i  c #4E504F",
"p  c #4E4D51",
"a  c #504E52",
"s  c #535255",
"d  c #585657",
"f  c #565558",
"g  c #595659",
"h  c #5B5A5C",
"j  c #5E5D60",
"k  c #615F62",
"l  c #646365",
"z  c #686567",
"x  c #666568",
"c  c #69666A",
"v  c #67686C",
"b  c #6B6B6D",
"n  c #6F6E71",
"m  c #716F72",
"M  c #737275",
"N  c #787677",
"B  c #767578",
"V  c #79777A",
"C  c #7B7A7D",
"Z  c #807E7F",
"A  c #7E7D80",
"S  c #817F82",
"D  c #7F8184",
"F  c #848285",
"G  c #888687",
"H  c #868688",
"J  c #89878A",
"K  c #8B8A8D",
"L  c #8E8D91",
"P  c #908F92",
"I  c #8F9193",
"U  c #939295",
"Y  c #989697",
"T  c #979699",
"R  c #99979A",
"E  c #97989C",
"W  c #9B9A9D",
"Q  c #A09E9F",
"!  c #9E9DA0",
"~  c #A09EA1",
"^  c #A3A2A4",
"/  c #A8A6A7",
"(  c #A7A5A8",
")  c #A8A6AA",
"_  c #A7A8AC",
"`  c #ABAAAD",
"'  c #AEADB1",
"]  c #B1AFB2",
"[  c #B3B2B5",
"{  c #B6B5B9",
"}  c #B9B7BA",
"|  c #BCBABD",
" . c #BEBEC1",
".. c #C1BFC2",
"X. c #BFC0C2",
"o. c #C3C2C5",
"O. c #C6C6C9",
"+. c #C8C6C9",
"@. c #CBCACC",
"#. c #D0CBCF",
"$. c #CFCDD0",
"%. c #D0CED2",
"&. c #D3D2D5",
"*. c #D7D5D8",
"=. c #D8D7DA",
"-. c #DCDADD",
";. c #DFDEE1",
":. c #E0DEE2",
">. c #DFE0E2",
",. c #E3E2E4",
"<. c #E6E5E9",
"1. c #E9E7EA",
"2. c #EBEAED",
"3. c #EFEDF1",
"4. c #F1EFF1",
"5. c #F3F1F4",
"6. c #F7F5F9",
"7. c #F8F7FB",
"8. c #FBFAFC",
/* pixels */
"% o   ` W h ' B -           e 3.;   4 / ` ,     K ] b     J c     c K     b [ K     , ' ( 6   = 2.e           = M ' j E ` . . * ",
"#   1  .+.m U <.>.E L S M C ' W ^ N -.` [ ` 6 M &.U ,.! b ^ +.d s +.^ b R ,.U %.B 4 _ } ` ;.B ^ R ` Z M Z K W ,.<.U n +. .1   # ",
"- 4 {  .0 &.h < 9 u ^ ,.` h 2   b =.u 3 Q F 4.W ` f < ] ` c Y Y E W v ` [ 1 s / R 4.G ^ 1 u =.n   1 h ` ,.~ u q < h -.e  .{ 8 : ",
"^ ,.! { U C ' $       % v _ f   A l     V @.z W X.O     F ] M     M [ F     o | ^ l @.C     k S   d / z %       $ ] C I { ! <._ ",
"D J W e | M -.-.:         4 o./ #.'   X ..C   < -.e   O   ' R     R {   o   e -.1   B o.X   ' @._ o.5         - -.-.M { t E K A ",
"I s &.E Q O $ b &.I 8 o   9 -.6 ; ....R =.7     [ O.8     5 1.d d 2.9     5 O.]     5 *.W | o.; 4 ;.w   o 5 L &.b # # ~ R -.s I ",
"J [ k f 8.h     9 2.[ W b $.T     u ~ k m ~ y C W 4 @.q   k J o.O.K l   e @.4 Y C r ~ M h Q u     L %.b E [ 2.w     h 8.h l ] K ",
"2 <.M   N |   O   8 ' e V x ` = @ b -...S ..+.-.x ~ ` ;.| ` &.C V &.` | =.` Q l ;.+...S  .-.b $ = ` x V e ] 9   o   | D   M <.3 ",
"  ` C     / /   .   r / o   K 1.:.` C } %.9   ; :.m   1 ~ W b     v W Q 1   m :.>   6 #.} C ` :.1.L     ` u   X   / /     C `   ",
"  h T     9 5.L     O | b e ] w 1 ^ m l ` 4     @.r     n 2.4     4 2.M     r @.    4 ` c b ~ 1 9 ] u b | $     U 5.9     U k   ",
"  u ,.$   o W U T > Y @.S &.U     j :.S | | 1 q ..! 1 S @.F ` % % ` J @.F 1 W o.q 1 | | S :.k     L =.Z @.W > R T W o   # >.p   ",
". e 2.g     b l k | %.,   s -.=   | J   . | ] %.S m -...m ^ [ { { [ / m  .=.M C %.`  ..   G |   = *.g   > #.| z l b     h 2.t . ",
"  i W E o   5 /   > ^     , o.U K o.d     F b { ..k Y O   0 ` / ) ` e   o Y k | } c S     a ..K Y o.1     ^ <   / 0   . U E i o ",
"  f N D J i =.Q & 9 #.` e G / { &.R ^ e G ,.c C -.~ } .   s >.- = :.g     } ^ -.S c :.P t ~ Y %.[ / G e ` &.9 & Q =.i J D M h   ",
"j ` u # W ,.l Z { ' h U -.J @.e , } W ..| s ~ ` c t O.) h -.C     N -.j / +.r b ) ~ a | O.E | 1 0 @.K ;.T h ] [ S l >.W # i ` j ",
"_ O.,   K u      .b     l =.d     1 #.L     4 -.$   1 +.C M ^ O @ ^ M C @.1   # ;.5     K %.1     s =.l     c ..    u L   > O.` ",
"  x ` I &.n     +.C   o C { c     e { U &   e ,.=   5 ^     ~ ,.>.^ o   ^ 9   * :.t   & T [ e     x | C o   V +.    M &.K ` x   ",
"  u ,.e j -.G C U ~ K  .=.T =.z u +.( o.=.F ] P ` J >.o.r 6 [ 5 6 [ 5 r o.>.K _ P ' F =...( $.p l *.Y -.| J ^ T V F *.l e >.u   ",
"1 &.C     D W @.` s ..F = v R [ -.K K = d *.r   z &.9 9 / h C     D j / q 8 &.n   e -.h - H J -.| Y n = F o.s ` @.E F     N &.1 ",
"/ T n   o Q k W @.M R .   , =.G l -.s     G l   Z v     M ` M     m ` M     x F   l J     p -.c D =.1     T M %.Q k W O   n E _ ",
"K X.X.U @.*.Q l o.! >.t   N o.o   Y `   ; #.| ) e Y     = 1.N     C ,.>     T e ( | $.>   / R     X.C   e >.W O.x W &.$.T  .X.K ",
". k W ( Z   l >.i   M ;.Y o.U     k *.~ #.W   a ] ] 4     ` G     G `     4 ] ] s   ! $.^ &.l     U o.T -.B   u ;.x   A ^ W x o ",
"# o -./     $ &.=   o W M f W B k ] w > } 4     w 4.G     d Y     Y g     F 5.e     2 { , w ] k M Q d M W     = &.$     ^ -.O # ",
"o l Q / Z   l ;.x + w X.&./ U &.o.{ &   c P   O   r %.=   e :.@ + >.u   = %.u   X   L n   % { o.$.U / %.O.e + x -.x   V ( W l . ",
"K X. .L @.*.Y r -.*.:.z Q @.C     Z W W k T F   X   N #.  8 4.i u 5.7 . #.N   O   G Y h Q R D     A @.~ z ,.=.=.u U &.@.U | X.K ",
"_ I n   . Q j K M @ z Q f Y G     l -.e B W 5.T     = ,.( g Y Q Q Q h / ,.=     Y 6.Q B e -.z     J Y g R z @ M L h Q o   n Y ^ ",
"1 &.V   X . Q =.%   + &./ F -.v 9 -.h     # e [ { u   C S -.z K L z ;.S C   u } [ e +     f >.0 c -.J ^ *.@   * =.Q o o   N %.1 ",
"  u 1.8   X . O.Z   b &.$   k *.U ^ G           F 8.R | S a ..) / ..a F | W 8.J           D ^ U &.l   $ @.m   N O.. o   4 1.i   ",
"# u T T 6     U ` Y ) W     9 R   = G U i X       c U p | } @.~ ~ @.} | i T v       o i U J =   T w     W ` U ` U     5 U U i # ",
"W _ ~ L 1.v z | Y ,.E | b c -.` : e b W 3.-.G M z g -.K ~ } 1     3 } ! K :.d l n G -.2.E b e > ( ;.c b | Y ,.Y | l b ,.K Q _ E ",
"1 W ' u g -.T | C $ b o.K ,.f M | ' z h s g b | 6.` r P -.7 % > >   8 -.P t [ 6.| b h s h x ' | B f >.K  .m + C | U ;.d i ` W 2 ",
"o * | =   = O.^       E %.>     | z             & L | ` ' % w c b u $ ' ' } U %             c |     : @.W       Q o.*   - | * o ",
"  4 _ +   i / ^ $   X W ) h     @.A   .       ; v E m S o.$   d F t O  .F m W c :           C $.    f ( ! O   @ ~ ( s   X ` 6   ",
"l .. .A / 2.W +.^ u R #.E 1.( ^ K ( R S T ' ( =.5.^ A | &.g     #   s &.| C ~ 4.-.( ' T F T ` L ( ^ 1.Y $.! u ~ @.W 1.( Z  .o.z ",
"B A C C o.: 1 Q C 8.F ^ 4 = ] P   $ t Y &.E w > % 4 @.u I >.h 1 > h -.T t #.6 & , q E &.E e $   L ] - 2 W F 7.F ! 1 -  .C C A M ",
"  w O.T #     Q ..e } `     8 ) + e [ v %       O ' W K o.V ,.O.o.,.C o.L R ` O       % v [ e O ( 8     ` { e X.!     O T +.t   ",
"  m @.O X   < =.0   5 -.8   T %.( %.h         % o.:.m R z Z T J K U F l R n ,.O.&     .   s +./ %.R   6 =.7   e -.1   o o +.M   ",
"f -.n     < ` +.-   $ O.^ [ &.1 .  .A   X 0 U :.m @   U ^ +.z Q Q v O.^ U   + n -.U q o   V o.o 1 %.] ! o.&   - O.` ,     b =.h ",
"{ K L % 4 &.u v / l Q Z f P b     j ,.J R Q 2.a     4 8.B 9 | G G | 9 m 7.6     p 2.^ R J ,.h     n P f V ^ k _ b u -.5 $ K L ] ",
"h  .{ ] ,.U [ b o.[ o.K ..-.T 4 : ~ c l 5 / a   +   ~ U   9 7.9 6 8.e   K !   +   u / 5 k l ^ > 3 Y ;...K o.] o.b [ I ,.[ { X.h ",
"  4 ' E 8   3 1.9   # [ [ C J 2.-.{ @   R l   o   J +.    e +.    +.u     O.J   X   l E   O { -.1.G C [ [ @   0 2.4   5 W ` 4 . ",
"O $ $.!     & -.>   % { Z z ` < $ W M l O.9     A 4.l     b K     K b     l 2.C     9 O.z m W $ , ` c C { &   ; -.=     Q $.* o ",
": ! ! '  .0 T } b 1 ` O.b %.T     k ,.M / O.e K P ~ ;     @.F     G @.    - ^ K K t o.) B ,.k     P %.v ..] 2 b | U 0 | [ ^ W > ",
"' ^ ' f K 1.V v -.^ @.&   e >.1   #.C     ` | M u K     5 >.M     M :.7     J u b | '     N @.X , :.u   & +.^ =.b V ,.K s ' ^ ` ",
"L { b     N b ` O.l Y O   1 { Q ~ { f     L i   C B     G L m     M P J     m C   u P     s ' Q Q [ 3   + U z +.` v N     v } J ",
"+ ' R     ^ [ @.T h &. .h U [ { O./ ` h Q <.b = F 1.F Z Q i L     K f W D F 1.G = c ,.^ h ) ^ O.] ] U k  .%.j U @.[ ^     Y ' + ",
"  q 1.S ~ %.r 9 [ ` r C =.F o.1 % ` Y o./ 5 W +.G 9 ..} = ; ' J J ` > = { o.5 G o.W 7 ^ ..P ` % 1  .G *.C r ` [ 9 e $.~ S <.e   ",
": L A s ..a     | z     h 2.u     , -.K     2 &.+   = ^ X $ ) ' ] ` $ . / &   o =.3     G -.>     u 1.h     l |     a  .s C L : ",
"o.@.=   F N     $.H   @ P / M     a ` W 2   a 1.;   d -./ ` G     J ` / -.d   ; ,.s   1 W ) p     M / K $   F %.X   B F   & +.O.",
"= I b 6 [ >.[ ` H ! ^ @.%.W =.N k %.] } -.Q / S W S :.c = | K     K  .& b :.S W A ^ ~ -.} _ $.z N *.W #.@.~ ~ F ` ] :.[ 4 c P - ",
"  s B U u O _ I   = o.c . g T [ =.J C O w +.g Y *.L ~     9 3.r r 3.0     Q K &.R d O.t O N F *.[ P h o l o.&   P ( O u T B s   ",
"  u [ K     9 ^   p (     , :.N a <.f     J C ..] a ] 3   s L  ...L d   3 ] i [ o.C J     s ,.u m ,.1     / s   ^ 9     H [ p . ",
". e 6.q     F f Y ' =.k   K }     J | X 4 =.^ ] C L  .=.] ` #.K K @.` ` =. .U V ] Q -.6 X } F     [ K   h -.] Y g G     q 7.t   ",
"  p $.    % ] { l   h =.` X.U     z o.U =.K   = =.S   9 ` P C     C Y / 9   C =.=   K *.U o.z     L  .` =.j   l { ` %     +.p . ",
"  n H     f 8.f     X { 4 % / K Z ` g c ~ >     @.r     b 5.3     3 4.m     t +.    - ^ b f ` Z K ^ % 3 } X .   d 7.h     F m   ",
"o O.A   O  .k   O   Z F   o E | [ ) ^ %.&.b < h O.E & v o.J Q + X Q G o.m % W +.h , b &.%.^ ^ [ | Q X   Z Z   X   j o.O   C +.o ",
"r >.b   | ^   O   N ' l ` ^ W     e O.W h @.*.1.j v =.@.F ) | _ `  .` S @.=.b d ,.*.@.k E +.r     Y ~ ` k ` B   O   ~  .  v ,.u ",
"Q U N K 2.9     Z 8.^ M > ` ^     x [ z U V   5 ] g ^ $   w ! ' ] Q r   + Q d ` 8   N U c ] b     ^ ` ; M ^ 7.S     7 3.L B U ! ",
"Z r ,.B J % u | [ 0 O     > ,.N l =.H C ,.4     | } $     r <., < 1.u   X @ } |     4 <.V G *.l m ,.,     O q ' | i % K B <.u V ",
"Y o.B g *.U 5.^           b _ M o.F     Q [   d ;.=     , -.A     Z :.,     & ;.h   ' !     F o.M / n           R 5.P *.j B O.E ",
"D [ O.O.u D C       O p Y G >   n B     B / ] E / @   > ! m n - - n A ! <   + / ! ' ~ A     n n   , H T p o .   . M A t O.O.{ A ",
"# # G X.H 1.M V L I *.5.` C n > I 1.! n | ( @.( o.G N :.' I  .] ]  .I ] >.N G  .^ @.~  .n E <.L > b C ` 5.;.I L A M <.H  .J # # ",
"#   $ X.{ q E >.{ j q q t e U &.A , { _ ` A . 9 o.K *.a 4 L _ % - _ I 6 p =.K | q . A ' ` [ < A &.U t t q q j [ ;.! q [  .% . # ",
"* # # D I D I 8     . . .   2 { + . # I ! # O   c ' 9   . J q . . q J .   9 ] b . o # ! L + . + { 2     . . . . 4 K D I A O + - "
};
