/* XPM */
static char *_0857_2d13e01f3492fc01735f2b04c1fca8dcb1d95a37f9bfe4c16f5db5c4828fb977[] = {
/* columns rows colors chars-per-pixel */
"64 39 232 2 ",
"   c #010201",
".  c #0A0301",
"X  c #030B0A",
"o  c #080A09",
"O  c #130906",
"+  c #130D0A",
"@  c #160A05",
"#  c #06110C",
"$  c #1B110D",
"%  c #16110E",
"&  c #0C1413",
"*  c #071812",
"=  c #131414",
"-  c #1B1514",
";  c #1C1916",
":  c #161A1A",
">  c #0B0F10",
",  c #231D1A",
"<  c #251A16",
"1  c #20140F",
"2  c #15221D",
"3  c #0E221C",
"4  c #23211E",
"5  c #2D221D",
"6  c #33261E",
"7  c #1C2423",
"8  c #1B2A25",
"9  c #252423",
"0  c #292928",
"q  c #332A24",
"w  c #332D2B",
"e  c #382B25",
"r  c #25332E",
"t  c #3C312B",
"y  c #2B3633",
"u  c #333435",
"i  c #393A38",
"p  c #2A2E31",
"a  c #1F1F21",
"s  c #44352C",
"d  c #473B36",
"f  c #523E33",
"g  c #7E3E1B",
"h  c #36423D",
"j  c #294036",
"k  c #4B413C",
"l  c #55453C",
"z  c #634635",
"x  c #3B3E41",
"c  c #3C4342",
"v  c #3C4946",
"b  c #424546",
"n  c #444B4B",
"m  c #4B4C4C",
"M  c #4D4744",
"N  c #574B45",
"B  c #45544E",
"V  c #58514D",
"C  c #4A4E51",
"Z  c #4C5354",
"A  c #4D5856",
"S  c #555B5B",
"D  c #5B5C5D",
"F  c #555656",
"G  c #655349",
"H  c #785844",
"J  c #655E5C",
"K  c #675B54",
"L  c #69574C",
"P  c #53625C",
"I  c #6B625C",
"U  c #65605C",
"Y  c #766359",
"T  c #595E62",
"R  c #5C6463",
"E  c #596865",
"W  c #5D726A",
"Q  c #626464",
"!  c #636B6B",
"~  c #6C6C6C",
"^  c #676867",
"/  c #7B6C64",
"(  c #756A65",
")  c #65726D",
"_  c #7B736D",
"`  c #686E71",
"'  c #6D7273",
"]  c #6A7975",
"[  c #737474",
"{  c #757B7C",
"}  c #7B7A78",
"|  c #873C15",
" . c #9D522D",
".. c #9D5533",
"X. c #9C5B3A",
"o. c #9B5835",
"O. c #804D30",
"+. c #A94F25",
"@. c #A8532B",
"#. c #A75A35",
"$. c #B2592F",
"%. c #AC613D",
"&. c #8E441F",
"*. c #915E44",
"=. c #9D6446",
"-. c #8A6956",
";. c #99725C",
":. c #976A54",
">. c #A86746",
",. c #B36C49",
"<. c #A9755A",
"1. c #BA7857",
"2. c #87756C",
"3. c #96796A",
"4. c #8B7D75",
"5. c #857B76",
"6. c #957E73",
"7. c #876F65",
"8. c #AA7D65",
"9. c #C57B59",
"0. c #C9734C",
"q. c #70847C",
"w. c #8A817D",
"e. c #93847C",
"r. c #9A857A",
"t. c #9D806E",
"y. c #AF8269",
"u. c #B6846A",
"i. c #A48979",
"p. c #BA8C74",
"a. c #BC937C",
"s. c #B4917E",
"d. c #AE917F",
"f. c #BC805E",
"g. c #CC8B6C",
"h. c #C58566",
"j. c #D88B69",
"k. c #CA8E71",
"l. c #CB957C",
"z. c #C8947A",
"x. c #D6987B",
"c. c #D18F73",
"v. c #E39875",
"b. c #D6845E",
"n. c #7B7E81",
"m. c #7C8282",
"M. c #7A8986",
"N. c #7D928A",
"B. c #828484",
"V. c #848B8B",
"C. c #8A8888",
"Z. c #9C8C84",
"A. c #948984",
"S. c #84938D",
"D. c #9D928B",
"F. c #8B8E91",
"G. c #8B9293",
"H. c #8E9B9A",
"J. c #899A96",
"K. c #949B9B",
"L. c #979796",
"P. c #918F90",
"I. c #A38E83",
"U. c #A78F85",
"Y. c #AB968B",
"T. c #A69389",
"R. c #B39384",
"E. c #BC9682",
"W. c #B49B8D",
"Q. c #BB9C8B",
"!. c #B79888",
"~. c #B69E92",
"^. c #AA9B93",
"/. c #94A39E",
"(. c #8AA298",
"). c #B8A398",
"_. c #9A9EA1",
"`. c #99A8A3",
"'. c #9DB1AA",
"]. c #A5ABAA",
"[. c #BDACA5",
"{. c #A3B4AE",
"}. c #AAB9B4",
"|. c #B3BCBB",
" X c #B6B8B8",
".X c #C39B85",
"XX c #C99C85",
"oX c #D59D82",
"OX c #CAA18C",
"+X c #D9A489",
"@X c #C8A897",
"#X c #D8AC96",
"$X c #D6B19D",
"%X c #E4A688",
"&X c #E3AD93",
"*X c #E8B49A",
"=X c #F7B395",
"-X c #C4AEA2",
";X c #CBB4A9",
":X c #D8B8A7",
">X c #D2BDB1",
",X c #E8BBA6",
"<X c #FBBFA3",
"1X c #AEC2BA",
"2X c #ABC0B7",
"3X c #B2C3BD",
"4X c #B5C6BF",
"5X c #DBC3B5",
"6X c #DFC0AE",
"7X c #E6C2AD",
"8X c #F8C4AB",
"9X c #EDC9B5",
"0X c #E5C6B6",
"qX c #F2C9B4",
"wX c #B9BDC0",
"eX c #BCC3C2",
"rX c #B4CCC1",
"tX c #BACCC5",
"yX c #B8C7C4",
"uX c #BCD5CA",
"iX c #C5C8C9",
"pX c #C3D4CD",
"aX c #C5D6CF",
"sX c #C6CDD2",
"dX c #C4D6D0",
"fX c #C5DAD1",
"gX c #CADCD5",
"hX c #CBD6D5",
"jX c #D1DADF",
"kX c #E6CDC0",
"lX c #CAE1D8",
"zX c #D4DBE1",
/* pixels */
"  u (.3     R G.F.R     3 J.h     v S.*   X ` G.G.T     8 (.r     A S.X   o { V.G.C     y (.2 X   P M.X   & n.V.G.c     c J.& o ",
"8 /.gX4XC F F.C Z F.T b |.gX`.2 8 {.lX}.b R n.A C G.C C tXlXH.: r |.gX{.h ' { S C K.b S uXfXS.* y tXgX/.c n.~ S n _.x Q uXgX{ : ",
"rXyXB B }.' a     a `  XB B 1XuXuX2Xb Z |.Q :     9 n.}.n A 4XpXuX{.h P wXF &     0 V.].v E rXfXuX'.h ^ |.m &     p _._.v ) fX(.",
"q.rX    5 Z.5 < a , U.q     rXq.M.1X    t Z.< < < q Z.<   X uXW S.'.    d e.- 4 - s A.$   : dXP /.J.    N 4.$ 4 % f A.O   r fXv ",
"  `.S q #XoX9Xd.i.qXoX#Xe Z {.    |.c d #XoXqX6.U.qXx.#X< ! /.  X wXu N +XoX0X6.E.qXXX#X@ n.F.  & iX9 Y +X%X5X3.OX7Xl.OXO H.'   ",
"% U F.U.h.@.8.:.-.8...h.I.F.Q < < ~ C.Y.h.@.p.-.3.<...g.Z.P.V 4 - _ B.Y.9.#.s.*.8.<.#.k.A.G.M 5 ; w.m.W.1...s.H p.>.%.k.e.L.i - ",
"R.r.. r.#XX.a.@X@X.XX.%XZ.. i.E.!.t.. ^.oX#..X~.#Xp.X.*X4.+ i.OXQ.2.O [.c.X.@XW.$X8.=.,XI 1 U.OXW./ % >Xg.#.@XW.$X<.=.,XN 5 W.3.",
"<.9X9 q :Xz.;Xf f ;Xz.:Xq < 9X<.<.9X$ d $X.X;Xs l :XE.:X1 t qX>.y.,X@ N $XXX@Xe G :Xz.$X. N <X=.p.:X  Y #XoX@Xq Y :XE.@X. I 7XO.",
"..+XD.[ k s C.    5.s d [ Z.#Xo.X.#XA.} t d 5.    A.q V ' ^.oX..=.*X5.} e V (     P.< K ~ ^.oX..=.:X2.n., Y G     ^.1 J ~ [.p.| ",
"*X3.+ wXF > 4.e.e.e.+ C wX- ;.*X*X-.< iXx : w.e.A.5.  ^ ].$ 8.&X*XH , sX0 9 A.6.A.2.  n._.@ p.&X,Xz q hX= u Z.2.A.(   F.F.+ OXp.",
"( A.: x sX, ;.&X%X<.5 iXx - A./ / A.+ Z wX, 8.%X&X-.q sXp 9 A.( 7.w.  ! ].< p.%X&XH t sX= u A.( 2.5.  n._.5 XX%X&Xz k iX  x A.G ",
"  5.l l ( A.&Xo.X.#XA.Q N k 5.    C.s V Q T.%X..X.*X4.~ d V _     D.e J T ~.oX..*.,X2.[ t Y K   . L.6 I T -Xk...=.7X( ~ q 2.m   ",
"N :XXX,Xd O 9X8.8.9X+ s ,XXX:Xz G 6Xa.,X, < 9X<.y.7X. N ,XXX:Xf Y ,Xz.7X@ w qX>.z.;X  I ,Xx.;Xf 7.,X.X:X. l 8X=..X@X  _ &XoX-Xt ",
"@Xp...x.).% 2.R.R.4.= ^.oX..a.Q.OXp...+XT.= 3.Q.R.2.+ [.c. ..X!.@X8.o.&X4.; 6.!.U./ ; ;X9. ..X!.#X<.X.*X/ 9 6.OXI.Y 4 5X1.#.@X4.",
"6.p.#.k.r.G.~ O @ ( L.6.k.#.p.-.;.p.#.c.6.K.J + @ 5.F.Z.g.#.a.Y 8.y.X.k.2./.N 1 O C.B.I.h.#.E.H y.<.%.XX2.].d 1 + L.} i.9.#..XL ",
"6.,X&XXXt i |.    |.x t XX+X0X6.r.0X+XOX< Z }.  X |.p d XX&X:X6.i.9X+XOX$ ! `.  = iX, G XX*X>X2.R.qXXX.X. q.G.  0 4X= Y l.*X;XI ",
"% O 4.t     }.N.N.2XX   6 e.+ + + + w.5   X yXM.(.{.X   s 4.. = O < A.1   * uXq.'.(.    l _ . = . q 4.O   9 fXq.{.N.    G Y . - ",
"  p ` eX` R rXrX4X3XP ) eX' u     x n.wXQ ! 3XrXrX1XP ) eX^ p X   x n.|.R ] rX4X4X}.A { wXR a X   b F. XP q.tX4X4X'.A B.|.T :   ",
"b n.F u {.fX`.* * /.pX{.y Z V.T Z N.n x }.dXS.* : `.aX/.p T { T C G.x c 3XpXm.# 8 {.dXH.p ` ` E C G.u C 4XuX] X r 2XpXS.p n.` v ",
"hX_.      dXB     n fXX     G.sXjXn.    * lXj     P uXX     ].tXzX`     8 lX8     q.yX      wXyXzXT     j lX&   X N.{.      uX_.",
"Z V.m 9 `.fXJ.# X J.fX`.9 m V.T T V.i 0 '.fXN.X * /.fXH.8 F n.Q T F.u p }.fXq.X 3 '.fXN.9 R { ` T F.p x |.uX)   8 }.pXM.7 ` [ C ",
"  u [ eX{ W rX1X|.rXW q.eX} i     c } iX] ] tX}.1X3XE M.iX' p     n C.wX) q.yX2X3X2XP S.wX^ 0     C P. XW N.tX}.rX{.R G.|.^ a   ",
">   5.t     }./.(.|.    w 5.o > o o 5.9     tXJ.`.{.    i _   > o = B.-   & pXS.{.K.    m (   >   : B.+   7 hXM.1XM.    D J   = ",
"e.>X;XW.t p |.X   wXu q !.;X>Xe.Z.5X$X~., b }.  # yX9 d !.:X>Xw.Z.5X@XQ.@ S ].  2 4X: V !.:X;X4.T.kX@XY.. ' K.  y 4X> K E.>X;XI ",
"8.g.@.j.6.G.[   X ` K.6.j.@.c.:.;.g.@.x.2./.Q o   B.G.t.j.@.l.*.8.h.#.x.7.].Z o o G.B.i.j.+.oXH u.1.%.x.7.].x + o K.} i.9.$.oXG ",
"OXu.+.j.-X; 2.U.Y.2.; ~.v.+.h..XXX9.+.v.Y.; 2.Y.U./ ; ;Xj.+.k.a.oX1.+.%Xr.9 2.W.r.( 4 :X9.+.l.s.+X,.$.=X2.0 3.Q.r.K q 5X0.+.+X3.",
"K >X.X9Xk . 8X1.1.<X. s ,XQ.>XL I 5XE.0X5 $ 8X1.g.,X. V ,X!.5XN Y 5XE.0X+ q 8X,.c.$X. I ,X.X>Xl 6.:XE.>X  d 8X>.oX@X  2.:XXX-Xd ",
"  } N V T 6.*X#.#.&XA.T V N w.    C.d K S T.+X .o.*X4.Q k K _     D.t I F ).x.@.X.,X/ ~ d Y U     ^.w ( C -Xg.@.>.7XK ^ e } M   ",
"I A., u iXt 3.@X@X6.e iXu 1 A.J I A.+ M eXq i.OX@X-.t sX4 q A.K I A.. Q  Xq d.XX$XY d iXO i A.L ( w.  } _.q .XXX$XG M iX  M C.M ",
":X3.O  XD . 4.I.U.4.O F wX+ 3.>X7XY + iXb % e.Z.Z.5.. ~ ].O i.>X5XG < iX0 , A.Z.T./   B.L.@ U.:X>Xl 5 sX; q U.A.T.I   L.B.@ @Xs.",
"..+XI.n.k w C.    w.w i n.I.oX#.#.+Xe.m.w d }     A.9 m n.Y.oX@.%.#X4.B.4 V (     L.- F { ~.g.@.>.#X2.C.: ^ K     L.+ R { ).z.| ",
">.8Xe q ;XR.;Xs t ;X!.;Xq 5 <X,.,.8X< d ;X!.;X6 f >XR.;X- d 8X$.1.8X+ V @X!.[.5 N ;XR.-Xo G <X$.h.,X. ^ @XQ.~.< Y ;XR.).  ( *X&.",
"W.T.  e.=X#.x.OXOXx.$.%Xr.  i.).).r.  T.%X$.oXXXOXg.#.=X7.o Y.@XW.4.  @Xv.$.+XE.#Xh.#.<XL % W.@X~./ o :Xb.$.&Xs.&X9.%.8Xf , ).6.",
"; D B.Y.9.@.1.:.:.1.@.h.Y.V.U 9 9 ^ B.W.9.@.1.-.<.1.$.g.T.V.V 0 2 _ B.~.0.+.p.*.8.,.$.c.r.P.b w 2 5.} ).0.+.z.H u.%.#.c.Z.P.i 4 ",
"  /.Q q :XE.kXI.I.0X.X$Xt D ].    }.C d $XXXkXr.I.0XE.$X4 ' L.    4Xd N #XXX5X4.W.0X.X-X- V.m.  # eXw Y OX@X5X5.).0Xa.@XO _.~   ",
"] eX    5 D.w , , w D.5     tXW [ 3X    q T.9 a 4 i Z.<   X fXP M.{.    d D.a 9 < d A.-   : hXZ K./.    l A., 9 - N w.+   r hXv ",
"uX4Xv h ].( ;     : ^  Xh v 4XgXgX2Xj b  XJ =     ; } ].h B 4XfXfX{.y C  XV >     9 B.^.y P tXgXfX/.r S  Xl >     0 D.L.y E gX/.",
"r `.fX4XS T F.v b C.Q Z 4XfX'.8 r {.gX3XF ` n.n c G.F J rXgX/.2 y 1XgX}.C { ' C x K.C ^ pXfXJ.3 v rXfX].m M.Q C x K.m ] dXfXM.3 ",
"  h '.8     ! _.K.`     8 `.h   X v /.:     ' H.H.R     r `.y   X P H.&   X n.H.K.A     h `.8   X ! S.X   & M.J.H.b     B /.& X "
};
