/* XPM */
static char *_8026_ebef51be179241dc11832f769d71fe2479e68da2d08190b21457be8cd478d875[] = {
/* columns rows colors chars-per-pixel */
"64 63 255 2 ",
"   c #0C0200",
".  c #0A0804",
"X  c #150C01",
"o  c #150B04",
"O  c #191309",
"+  c #1A1814",
"@  c #0D191A",
"#  c #241A09",
"$  c #231C13",
"%  c #261E18",
"&  c #282218",
"*  c #362917",
"=  c #302610",
"-  c #121B20",
";  c #1A2B2E",
":  c #2A2824",
">  c #332D26",
",  c #3A3429",
"<  c #3A3936",
"1  c #283636",
"2  c #1E241F",
"3  c #531713",
"4  c #4B120D",
"5  c #6D1614",
"6  c #463A29",
"7  c #5B342B",
"8  c #433D35",
"9  c #5B352E",
"0  c #643B33",
"q  c #6B3C39",
"w  c #743B37",
"e  c #68342A",
"r  c #4D2718",
"t  c #4B4438",
"y  c #564938",
"u  c #54472F",
"i  c #6B4334",
"p  c #6C433B",
"a  c #6C4B3A",
"s  c #674437",
"d  c #73443D",
"f  c #744C3C",
"g  c #754938",
"h  c #67553B",
"j  c #77533C",
"k  c #65432D",
"l  c #2C3C41",
"z  c #384747",
"x  c #334D52",
"c  c #3D6A6F",
"v  c #4B4843",
"b  c #544D43",
"n  c #5B5449",
"m  c #475857",
"M  c #595854",
"N  c #475150",
"B  c #6E4742",
"V  c #734541",
"C  c #744B43",
"Z  c #7A4C45",
"A  c #7C4E4A",
"S  c #794643",
"D  c #655846",
"F  c #755342",
"G  c #7B5443",
"H  c #7C5A44",
"J  c #7C534B",
"K  c #7C5C4B",
"L  c #745749",
"P  c #635C54",
"I  c #7E5852",
"U  c #52625C",
"Y  c #79654B",
"T  c #69635A",
"R  c #786956",
"E  c #7C7257",
"W  c #486565",
"Q  c #5A6968",
"!  c #597674",
"~  c #526F71",
"^  c #686965",
"/  c #736C64",
"(  c #7A7468",
")  c #6C7774",
"_  c #797A76",
"`  c #4C5F65",
"'  c #901519",
"]  c #90352E",
"[  c #A52F31",
"{  c #A7463A",
"}  c #91473A",
"|  c #834B47",
" . c #82544D",
".. c #835B4B",
"X. c #845848",
"o. c #835451",
"O. c #835B52",
"+. c #8A5C54",
"@. c #8A5C5A",
"#. c #94504D",
"$. c #A95A4D",
"%. c #84634D",
"&. c #8A664D",
"*. c #856453",
"=. c #8B6453",
"-. c #8C6A54",
";. c #8D635C",
":. c #8C6C5B",
">. c #856957",
",. c #936B5C",
"<. c #926858",
"1. c #89745B",
"2. c #94725C",
"3. c #99775B",
"4. c #89714E",
"5. c #B16C56",
"6. c #8E6961",
"7. c #956C62",
"8. c #986A64",
"9. c #897968",
"0. c #947363",
"q. c #9C7464",
"w. c #9C7B6B",
"e. c #997967",
"r. c #857C76",
"t. c #9B7D76",
"y. c #A37B6C",
"u. c #A37968",
"i. c #A87C73",
"p. c #AD726B",
"a. c #79817B",
"s. c #8E826B",
"d. c #93846D",
"f. c #998369",
"g. c #88827A",
"h. c #9C8B74",
"j. c #988B78",
"k. c #9E9174",
"l. c #A3846C",
"z. c #A7886A",
"x. c #A48473",
"c. c #AB8473",
"v. c #AC8C7C",
"b. c #A88975",
"n. c #B38C7B",
"m. c #B38878",
"M. c #AD947B",
"N. c #A89478",
"B. c #B3937C",
"V. c #B59B7D",
"C. c #B99879",
"Z. c #B1916D",
"A. c #BBA27E",
"S. c #9F815E",
"D. c #C59C78",
"F. c #C68A73",
"G. c #C5A379",
"H. c #667C82",
"J. c #778887",
"K. c #6D8D8C",
"L. c #72969B",
"P. c #888986",
"I. c #938C84",
"U. c #9A958B",
"Y. c #879494",
"T. c #9A9A94",
"R. c #8A9189",
"E. c #B58C83",
"W. c #A99985",
"Q. c #B59583",
"!. c #BB9584",
"~. c #B49B82",
"^. c #BB9B84",
"/. c #B9998A",
"(. c #A89D95",
"). c #B99C93",
"_. c #AB8B81",
"`. c #92A399",
"'. c #ACA28A",
"]. c #BDA48B",
"[. c #B7A488",
"{. c #AAA598",
"}. c #B7AA97",
"|. c #BBB19B",
" X c #BCB08A",
".X c #99A6A5",
"XX c #91ADAD",
"oX c #A9A9A4",
"OX c #B6ACA5",
"+X c #A9B5A9",
"@X c #BBB5AB",
"#X c #B8B5A8",
"$X c #ABB7B5",
"%X c #B8BAB6",
"&X c #899CA0",
"*X c #C49A89",
"=X c #C49895",
"-X c #D6968A",
";X c #C3A284",
":X c #C4A38B",
">X c #C7A988",
",X c #D5AB89",
"<X c #CCB38B",
"1X c #D3B38D",
"2X c #D8B68B",
"3X c #C4AB94",
"4X c #CCAC94",
"5X c #C9A897",
"6X c #D4AB97",
"7X c #C4B49B",
"8X c #CAB598",
"9X c #D3BB95",
"0X c #D7B898",
"qX c #E5BA9B",
"wX c #F1B69A",
"eX c #C3B5A3",
"rX c #CCBCA3",
"tX c #C4BCAB",
"yX c #C8BAA8",
"uX c #D3BCA3",
"iX c #D9B9A6",
"pX c #C6BBB6",
"aX c #D5BAB6",
"sX c #CFACA8",
"dX c #EBB9A5",
"fX c #BBC4B9",
"gX c #AFC4B9",
"hX c #DBC39B",
"jX c #E3C59B",
"kX c #CAC2AB",
"lX c #DCC3A3",
"zX c #D3C3AB",
"xX c #DBC7A8",
"cX c #CCC4B3",
"vX c #C8C6BA",
"bX c #D3C5B3",
"nX c #D7CBB9",
"mX c #DBD3BB",
"MX c #E3CCAC",
"NX c #E6C6A7",
"BX c #E8D1AC",
"VX c #E5CBB4",
"CX c #E9D3B6",
"ZX c #F4CBB2",
"AX c #B3BDC3",
"SX c #ABC4C3",
"DX c #B8C8C6",
"FX c #B6D2D1",
"GX c #C8C8C6",
"HX c #D5C8C6",
"JX c #D8D5C6",
"KX c #CFD3D0",
"LX c #E3D7C6",
"PX c #E8D1CA",
"IX c #EDE3D4",
/* pixels */
"h.N.s.s.s.s.d.9.B.B.Q.b.[.V.N.>X:Xn.*X!.B.^.3X[.V.3X].M./.*XC.:X>Xn./.*X*XQ.4X:XV.0X8X/.6X5X:X4X6X6X4X8X6X*X6X5X).W.N.W.W.W.U.|.",
"h.Y 9.s.s.s.s.2.a a s >.N.f.1.N.%.j Z i f e.M.9.h.M.K j C k G q.<.G f C f %.q.K *.0.*.-. .S ..=.y.<.,.u...X. .V R N.h.h.k.N.1.h.",
"s.1.7XrX8X9XzX5XL B L t.a h.N.Y H E.A S e.e.R W.j.h *.y.V S y...g i. .S 8.8.f 0.v.F 7.:XZ Z q.+.O.b.y.K +.u.A I E.IXCXCXCXIX7Xk.",
"j.E N.V.>X[.3X:Xp @.B C b._.9.d.v.J V O.C L ~.W.>.v.y.f I @.S O.i.X.q 8.o.A v.e.K w./.O. .8. .+.v.v.;.u.8.S @.O.t.CXBXNXNXCX|.k.",
"d.R M.N.>X<X8X8XB @.0 :.[.>.Y _.e.F +.o.s e.'.s.9.^.*.d @.A q q.q.d A 8.S J _.0.-./.0.J @.;.Z w.Q.6.,.i.+. .8.V l.PXNXBXBXCX8Xh.",
"d.Y ^.[.[.[.3X3XL B O.!.a >.Q.Y a c.A V w.l.R N.h.j :.q.p p w.+.0 8.o.d @.,.B 0.].K G c.;.O.q.w.L 2.y.H =.y.X. .b.CXxXBXMXBX Xh.",
"d.E :X].[.^.>XiXs B f j 4.f.Y %.2...e f j g f.z.j e.f.j 0 i f f &.X.0 i j j l.z.%.&.q.=.f f H H 3.u.&.-.3.X.j 0 b.PXVXBXZXCX8Xh.",
"j.R x.w.3.l.v.:.:.5X*XC.,X>XV.<X4XZ.*X:XZ.;X9X[.G.9X>XC.:X:XC.>X4XD.4X4X4X0XNX0X9XlXiX:X0X0X4X9XNX0X9XqX6X6XqX=XY ^.^.C.B.=Xy._.",
"W.B 0 s s q 0 =.B.6XwXwX2X,X2X<X8XxXlXhXlX8XhXhXhXG.<X<XhX8X<XhXhXhXlXMXBXjXjXjXBXBXxXCXCXCXBXCXNXNXZXwXZXZXwXNX:Xs C C V V q E.",
"E.L 0 s @.p e m.D.F.{ { $.,X<XhX X1.Y E Y 8XN.Y G.hXhX Xh V.xXE h 3XhXY f.MXhXjXf.Y BXs.Y R Y N.lXjXZXF.{ $.5.ZXNX*.V A 8.I q E.",
"b.F 0.p 9 ;.Z <.D.5.' ' 5 -XhXd.= X X X   j.T   a.G.hXu   T zX= X h.|.X = 3X0X:X= # |.* O O # $ R xXZX$.' ' { wXqXF x.I S c.=.c.",
"B.*.O.y.>.K 3.Z.D.5.' ' #.dX8XeXOX_ _ r./ eX{.g.kXhXkXgX( '.bX9.D #XkXj.(.nXzXxX'.g.mXk.( j.g.#XmXzXZXF.[ ' { wXdX:.w./.x.:.m.4X",
"~.[.y 2.^.H j G.D.F.} $.-XiXzXR , M r.@XnX[.pXT.1 +XL.N +XtX|.xXkXzX7XkXt v GXv M mX8XMXmX}./ n t eXCXdXF.$.F.wXNX^.y v.aXK R iX",
"N.s.N.K %.f.Y 3.D.,X6XiXsX3XW.vXM + + % Y zXnX_ O J.K.1 T.vXbXh = }.nXkX> : @X: > vXmX7Xy , & < @XtX}.CXPXZXdXdX0Xf.5XR K }.:.x.",
"N.1.d.e.%.1.l.z.D.G.4X3XW.tXn 8 U.T.n # R `.< $X(.GXvX+X.Xz {.P = oXM ^ %X{.IX=XvX^ b {.t y U.oX/ : #XbXyXxXhXhX0X2.W.v.>.2.b.].",
"N.A.F 0.B.&.%.;XG.0XD }.T T (.o % U.JX{.JXT @ ) PX9.t.PXQ - a.tX'.vX: - @XsX@.sX%X: 2 #X|.nXvXt o n vX8 nXE 9XMXlXV.a _.5XF 2.iX",
"V.1.7.Z <.u.F u.G.N.O ( _   _ ( + # s.rX}.vX.XKXE.4 3 =XHXT.pX7X8XyX%X$XPXS 3 | LX%X$XvXuX8X, $ v @X8 < |.* s.MXhX3.c...;.n.=.B.",
"~.F ;.A 0 ..j &.>X3.O t a.+ , vXR # >.VXuXr.v P.aXS | aX/ > j.dX0XyXQ Q pXE.w Q.DXQ ^ cXVX4X* t JXU.+ P R.& h xX9Xh ,.J p +.G m.",
"^.K 7 A o.0 7 3.G.f.O 8 @X, + 9.7X^.-Xw E.6.- T.HXHXaXHX_ + t.p.w 5Xm W FXGXFXGXFX` N sX| 5.6XkXbXt % W.{.$ h xXjXX.f @.8.Z p !.",
"Q.K q 0  .Z 7 2.>X3.X 6 yXR   ( [.:XE.4 B aX@X.X: T.I.% (.oXaXS 3 =XfXgX&XK.SXa.K.SXvX).3 S MXeXcX6 , nXk.O h MXiXX.L V I o.0 c.",
"M.G x.+.0 ;.<.<.G.Z.* P ].[.T.oXOX}.OX)./.4XbX9.  I.r.  s.zX4XiX=XiX7XvXL.K.gXa.Q GXlX0X).OX@XDX$X+XkXxX Xu s.BX9X%.v.;.C t.0.c.",
"~.f.i y.q.q X.Z.Z.9XW.#XW.{.T.1 P.P.+ _ sX^.5X:X}.tXpX{.'.3XzX2.7 [.zX|.+XgXfXfXtX).0XzXpXN ^ $Xz m kXfXmX'.xXMXlXl.F Q./.I w.iX",
"N.B.H G v.2.g z.<Xf.X t #XoXXXz J.R.1 P.OXaX#.4 Q.0X7Xs.X R HXy $ W.kX* 6 fXkXNXw 3 yX%XAXQ ) AXW a.gXgX`.# h xXlXC.0.6.Q._.:.3X",
"N.-.z.%.a q.%.<.G.A.* T R.; J.$XpXpX%XT.+ r.p.e >X3XzXd.& , vXP & +Xg.$ y nX3X0X$.| tXN Q FXHXHXGXFX~ ~ +Xu k.BX9X-./.6.I v.7.x.",
"B.2.F e.,.H 2.Z.G.G.G.9Xr.l _ pX| S aXg.1 ( iXqX1.# 9.JX8 + I.M & T.v $ (.vX, 6 0XBX@XT Q vXi.w {.vXK.K.xXhXjXjXqX2...n.i.X.u.6X",
"Z.n.i H b...i C.G.G.A.V.$X.X%X).4 4 t.HX.XGX~.4X( # + g.I.. r.r., oX: v @X8 % y rXrXvX$X%XHXq 3 *.KXXXgXkXjXjXjXqXz.f ,.m.<.X.*X",
"b...q. .Z 7...<.G.<Xf.OX) - M GX@.o.HX^ - Q cX[.nXg.$ + oX( R eXr.tX, %Xv $ P LXyXtX%X1 l vXsX6.cX%X; l vXA.hXBX2XX.m. .S i.+.y.",
"B.F V  .d p d 2.<XA.O y T.1 P.oXsXpX(..X1 P.( $ n (.P., n nX{.tXbX#XcX(., r.@Xr.6 , #XU J.gX+XPX+XDX~ a.+XO h MXhXj | #.o.| f n.",
"~.=.9 A @.S 7 3.9XZ.# u 8X|.Y.+ H.Y.- _ pXyXY O O o P cXj.eXmXmXnXLXCX{.pX(.> % > y 7XmXgXm ~ SXx ~ fXJX'.6 Y MXNX&.q  .8.o.d !.",
"!.K J p A o.p <.G.8XOXyXB.[.T.1 r.T.< (.7XV.aX}._ t & T zXyX|.T b U.JXmX).8 v _ @XLXuX8XHX) J.FX~ K.mXhXbXCXCXMXqXX.8.S | 8.| i.",
"^...7.8.A ..<.3.A.A.R 9.}.W.g.{.).].sXm.*X6Xr.I.P.P.@XOX|.kXt X $ $ U.CXpXaXU.g.I.9.W.VXy.5XMXbXmX`.a.mX#Xn b.MX0X&.3.p.;.<.u.!.",
"Q.B.k 8.E.F j D.G.S.  O ].R   n =X*Xq.4 X.w.  # . + , I.bX'.& 2 : O T LXtXD % % O O 6 =X4 e 9XkX+X+ # xXE X u BXjXu.q i.*XC +.qX",
"Q.t.8.A 6.w.G 3.G.N.u D 7Xk.n oX|.).sX;.c.:XB P T ^ oXtX7XyX8 o O + W.JXkXnX(.g.g.E W.xX0.).HXfXKX`.s.MX Xh s.BXhX4.8.| ,.i.X.C.",
"M.L 6.A 9 O. .&.C.<XzXkXM./.OXM j.(.0 W.6X/.nXvXT.T n T tXuX(.b t j.nXJX{.t n ( #XLXxXeXHXP.Y.FXK.&XJX7XxXmXLXBXxXj 8.o.S ;.o.m.",
"/.O.7 B I 0 9 q.G.V.u T |.@Xr.. ^ r.  ^ bXyXj., + . < tX}.|.yXbXbXnXcX}.HXI.+ + : t tXJXAXx ! SXc a.FXJX{., E BXMX..q @.8.| S *X",
"!.-.9 9 I S e -.G.z.O t {.M .Xr.(.pXr.oXM {.T o 8 r.(.M b bX}.7XzX}.tXU.> P.@X( 6 > #XQ L.DX$XIXSXFXL.K.{.O Y CXNXX.Z d @.#.d m.",
"Q.H 0...0 <.<.X.G.2XS.'._ @ M HX_.p.PX/ o M aXd.nX{.> . U.g.^ OX9.#X, %X8 + T LXuXyX#X: z HXsXi.vXfX` z vXk.hXBX0XG E.8.Z v.c.c.",
"Q.x.i 0.q.i H Z.G.G.A.W.oXY.$XOX3 # t.GXY.%X].8Xj.& + P T.o _ r.> oX& b oX> & P iX5XvX$XAXHXS 5 O.KXSXAXvXxXhXjXBXf.j Q.5XF x.VX",
"M./.K %.z.-.g Z.A.G.>X|.&XK.Y.@XV 9 OXP.` J.yXNXL o D HXv + P.v $ I.t + OX|., * iXPXsX` Q HXp.w ).%X~ ~ JX8XMXjXjXC.0.:.:Xt.>.6X",
"~.4.e.*.h f.4.4.G.<Xu ( J.z J.fXsXsX%XY.; _ *Xg =Xj.eXW.& 6 pXy + OX( # n nX'.3Xp.@.OX> ` HXHXHXHXGXx N #X, s.jXhX2.5X:.L 8Xv.f.",
"'.3.Y f.e.Y 2.z.G.z.X > |.T..Xz H.$Xx XX{.iXX.4 c.8X7X9.X R nX8 # (.eX# 8 sX5XNXw 3 5XeX%XQ ^ pXz ) vXcX'.# h MXMXS.Y v.B.%.b.0X",
"N.4Xa Y Q.K f C.C.4Xk.(.'.}.P.@ ) &X1 ) rX:X*XE.eXOX#X#XU.}.rXY * ].rXW.(.sXsX6X6X-X0XiXsX8 N $X; N mXkXnX|.nXCXMX<X%.x.sX2.<.iX",
"N.1.l.I C 0.%.-.G. XD R [.'.{.T.(.}.).OX4X:XsXU.x XXL.` +X#X].6X*X0X>XzX< : %X> v aX5XiXsXiXrXbX#XOXyXmX}.t 1.mXjX2.*X<.O.Q.q.m.",
"A.L a F s s F <.<Xz.X > 7X9.O j.3X!.n.4 p rX#X`.x XXL.` XXfXzXj 3 *XbX#Xv > pXl N %XtX*X3 | NX8XtXt 6 mXU.# u xXBXH X.o.@.o.A m.",
"/.*.0 C I C q 7.>XN.$ < @Xt O / yX:X!.7 6.T.z &X$XpXGXAX&Xx (.9.r 5XM ` pXpXPXsX%X~ U @Xw <.iXyXcXt : U.oX& h VXVX=.L @.y.o.w E.",
"Q.L L p C L 0 -.<XZ.# t I.+ : @Xj.* ,.sXpXg.x ) HX6.@.GXK.x P.zX6XyXz x @X).w =XGXW m %XiXdX7 8 nXU.& P U.= y VXNX*.8.A A 8.o.E.",
"B.Y -.0.j &.q.3.G.A.= n T . T I.& O Y 8X'.fX&XGX=X3 3 _.KXXXfX X4X7X$X$XPXA 5 | HXAX$XfX5X4X6 & v %X8 < #X> s.CXNX-./._.*.;.8.E.",
"B.:Xk 2.*Xj j >XZ.hXD I.T 8 T.+ O T bX|.kXa.1 ) HX@.@.aXY.W `.kX}.yXN z %X=Xo.=XAX! Q vXeXrXcXv % ^ pX6 nX( 8XCXVX].L Q.).@.8.6X",
"M.V.3.j S.z.j S.G.G.Q.}.9.}.P O P oX( , / T.1 &XFXGXGX%X$XW .X( & {.U U DXSXKXgXFXK.) gX8 t T.OXM * tXeX0XVXMXNXMXV.t.L _.).6.).",
"V.%.b.3.k 3.z.4.G.G.6X6X5X|.9.@XP.% O O y GX$X+X! XXL.: Y.gXfXb O '.fXfXK.~ $X! a.SXGX}.* % + < %XOX}.LXPXZXZXBXBX-.w.w.6.h._.W.",
"C.C.k f.C.a =.D.G.D.5.5.6XsXyX9.O : n j.yX[.#X+X! XXY.& I.#X'.kX|.|.'.fX! ~ gXa.~ gX XkXcXI.n , , OXVXZX-X$.p.ZXZXq.G n.n.L w.bX",
"B.^.Y L v.3.i Z.G.F.4 5 #.6X5XW.@XI.U.(.h.7X|.U.fX$X#X%X(.'.7XA.s. X7X'.`.$XfXfXXX`.bX].W.{.U.OXcX@XVX-X] ' ] wXZX3.X. .i.0.K 4X",
"M.Y w.I 0 7.>.=.G.F.5 ' 5 *XiX).b & & $ O 9.(   R |.|.1.  y bX* . 1.eX& = '. X7X8 2 |.y & * > , E bXZXp.' ' [ wXdX..8.@.A E.8.y.",
"~.K 9 B L s 0 q.,XF.] [ ] -X6X3Xh.D t y 6 W.W.u M.>X>XA.u 9.bXY 6 h.kXh Y 9X>X9Xd.h xXa.y D n 9.3XuXNXF.{ { 5.dXZX>.V @.6.A C n.",
"^.:.0 0 B B 9 >.>XG.,X,X,X2X1X1X2X9X9X9X9X9X9X0XhX1X1X0X0X9X<X1X1X9X1X9XjXjXjXG.jXjXhXjXjXhXjXNXjXjXjXwXwXwXwXdXiXO.S Z o.I a v.",
"b.K 0.6.@.0.t.Y <.6X;X;X,X,X<X,X,X,X1X0X,X<X2X1XG.1X1XG.,X1X>X,X2X,X,X2XjX2XG.hX2XjXjXG.2XqX2X2X2X2XG.jXqX1XNX0XR i.c.w.w.E.0.x.",
"h.1.8X8X;X8XiX5X| &.g G ,.f.z.z.2.j H X.i -.l.&.3.A.%.g X.| X.u.u.j G X.g +.p.%.=.Z.q.G ....g 3.B.%.1.>X:.H  .B w.PXCXVXCXPX8Xh.",
"N.>.Q.[.C.C.^.].;.d | ;.f e.N.z.j y. .q +.q.i 0.M.3...i.q d u.X.i m.@.q +.q.f <.i.0.H !.O.q 8.c.k b.8XY 2./.B q c.iXhXhXNXVX7Xh.",
"W.R V.A.A.[.>X6Xw | o.Z S.f.h.'.Z.*.p o.J F y.z.3.b.q. .S o.o.+.m.q.d  . . .<.m.:.e.!.,.S ;.A L b.[.%.b.3X>.C I 0.iX9XxXhXCX7Xs.",
"k.>.].V.>XG.:X:Xd ;.S S ;Xz.E [.b.k J ;.i ;.n.-.>.~.2.p @.A p n.D.f S ;.V X.m.=.Y /.y.d J 6.B 8.3X:.9.rXw.p ;.O.,.VX8XlXlXMX7Xs.",
"W.9.].].;X>X].6X;.S  .u.h 4. Xs.j B.L d  .u.a %.b.4.G y.V q w.l.w 3.;.d  .n.X...^.b.G i.@.V 7.!.F 2.].9.F y.I B x.CXxX0XlXzXkXd.",
"W.Y 1.1.1.1.1.e.q 0 G %.4.A.k.4.Z.q.0 p X.X.-.2.%.%.2...0 p +...2.-.g d X...-.c.f.:.;.,.p J O.%.0.'.f.1.f.2.s s *.~.b.N.N.V.N.s.",
"M.d.E 1.1.1.1.1.y.c.z.z.hXA.f. X>X3.c.n.c.c.<XC.l.;XC.u.B.!.l.[.1Xm.n.!.B.c.0X1XN.].6Xc.!.!.b.M.0X3X[.<X4Xl.B.Q._.9.f.d.d.d.9.}."
};
