/* XPM */
static char *_278_0d56a26f5ec13dc4ed8c3b10eb6bf59732e5d1d6c6d0e359b312c2fd49d9ec99[] = {
/* columns rows colors chars-per-pixl */
"64 64 239 2 ",
"   c #020102",
".  c #0A0502",
"X  c #0A0905",
"o  c #050409",
"O  c #08070B",
"+  c #07090B",
"@  c #0A0A0A",
"#  c #030B04",
"$  c #130C01",
"%  c #0D140D",
"&  c #05150C",
"*  c #171408",
"=  c #0D1612",
"-  c #131313",
";  c #141C16",
":  c #191B16",
">  c #181A18",
",  c #221A07",
"<  c #211E18",
"1  c #182119",
"2  c #29220C",
"3  c #23221D",
"4  c #2A2514",
"5  c #332C18",
"6  c #393016",
"7  c #1D2824",
"8  c #282A25",
"9  c #2D352D",
"0  c #373429",
"q  c #353532",
"w  c #393936",
"e  c #3C3C3A",
"r  c #373A38",
"t  c #2F342D",
"y  c #413D33",
"u  c #37413E",
"i  c #3B443D",
"p  c #454239",
"a  c #5A5238",
"s  c #544A2E",
"d  c #65593B",
"f  c #705F34",
"g  c #155C55",
"h  c #19584D",
"j  c #3B4C47",
"k  c #3D514A",
"l  c #0D645E",
"z  c #12635D",
"x  c #196259",
"c  c #26645B",
"v  c #33685C",
"b  c #0D6561",
"n  c #0A6964",
"m  c #0B6D68",
"M  c #126561",
"N  c #136A63",
"B  c #1C6E69",
"V  c #186C66",
"C  c #0A726D",
"Z  c #18736D",
"A  c #0C7572",
"S  c #0E7874",
"D  c #137672",
"F  c #127875",
"G  c #1A7772",
"H  c #276B64",
"J  c #27716C",
"K  c #2A7A74",
"L  c #2B7873",
"P  c #38736A",
"I  c #444442",
"U  c #4B4B45",
"Y  c #4C4B49",
"T  c #454A45",
"R  c #48544B",
"E  c #55534C",
"W  c #4A5D55",
"Q  c #4F5E5B",
"!  c #545452",
"~  c #5B5A5B",
"^  c #595A55",
"/  c #514F4F",
"(  c #675D45",
")  c #605F5D",
"_  c #4F6259",
"`  c #6C634A",
"'  c #62635C",
"]  c #776C51",
"[  c #4E7268",
"{  c #6A6963",
"}  c #6B6D69",
"|  c #7C7B76",
" . c #6D766D",
".. c #827658",
"X. c #806F44",
"o. c #887D64",
"O. c #3F847C",
"+. c #47847C",
"@. c #708279",
"#. c #BA862A",
"$. c #BD892A",
"%. c #BA8626",
"&. c #BA8B34",
"*. c #B28936",
"=. c #BA831F",
"-. c #C9891E",
";. c #D6911E",
":. c #D8921C",
">. c #D28E1C",
",. c #C48B24",
"<. c #CB8D23",
"1. c #C28927",
"2. c #D49222",
"3. c #D59325",
"4. c #C28E34",
"5. c #C3933A",
"6. c #CF8F21",
"7. c #928259",
"8. c #BA9444",
"9. c #B79650",
"0. c #9A8A65",
"q. c #868679",
"w. c #9C8D71",
"e. c #958B6F",
"r. c #A79979",
"t. c #AD9766",
"y. c #B9A77C",
"u. c #C69A46",
"i. c #C89E4D",
"p. c #CAA359",
"a. c #D4A857",
"s. c #CBA14D",
"d. c #CAAB67",
"f. c #D9B369",
"g. c #DABA79",
"h. c #CFB06F",
"j. c #E4BD72",
"k. c #E3B96D",
"l. c #E8C379",
"z. c #DEC07A",
"x. c #3A8982",
"c. c #458A83",
"v. c #5B9D98",
"b. c #559993",
"n. c #7B958C",
"m. c #77988C",
"M. c #6A9C92",
"N. c #6F9489",
"B. c #5CA199",
"V. c #6EA49B",
"C. c #71A59C",
"Z. c #78AA9F",
"A. c #71ACA4",
"S. c #8B8C88",
"D. c #899B94",
"F. c #93958D",
"G. c #A69F89",
"H. c #8EA699",
"J. c #B8A986",
"K. c #A3A29D",
"L. c #B4AB8F",
"P. c #91A7A4",
"I. c #99ABA7",
"U. c #9BB6AA",
"Y. c #99BCB5",
"T. c #88B3AB",
"R. c #ABAAA5",
"E. c #A7A7A5",
"W. c #B0AFAA",
"Q. c #B3B2AC",
"!. c #BCB9AA",
"~. c #A4BDB5",
"^. c #B7B6B2",
"/. c #BCBBB5",
"(. c #BCBBBA",
"). c #B8B7B4",
"_. c #A7B5AB",
"`. c #C1AE85",
"'. c #C9B589",
"]. c #D4BD86",
"[. c #C8B997",
"{. c #D4BE93",
"}. c #C6BDA6",
"|. c #C0BEB8",
" X c #99C2BC",
".X c #96C4BC",
"XX c #8BC2B9",
"oX c #A3C4BD",
"OX c #A8C3B9",
"+X c #B3C5BC",
"@X c #DAC28B",
"#X c #D7C397",
"$X c #C7C19F",
"%X c #E8C887",
"&X c #E7CC96",
"*X c #EBD199",
"=X c #F6D799",
"-X c #F2CD86",
";X c #D9CAA6",
":X c #C3C1BC",
">X c #C6C5B5",
",X c #D1CCAD",
"<X c #E7D4A8",
"1X c #F4DDA8",
"2X c #EBDBB3",
"3X c #EBD7AC",
"4X c #FFE3A4",
"5X c #FCE3AD",
"6X c #F7E4B7",
"7X c #EDE1BB",
"8X c #FEE19D",
"9X c #9DC6C0",
"0X c #98D0C5",
"qX c #ACCCC5",
"wX c #ACCDC9",
"eX c #A5C7C1",
"rX c #B2CBC4",
"tX c #B4CCC6",
"yX c #A9D5CB",
"uX c #B7D4CB",
"iX c #BADCD3",
"pX c #ACDBD2",
"aX c #BBE5DB",
"sX c #BDE8E0",
"dX c #CAC9C3",
"fX c #D5D6CB",
"gX c #C4DAD4",
"hX c #D9D9D4",
"jX c #C7D5C7",
"kX c #E2DECA",
"lX c #C6E2DC",
"zX c #D6E5D7",
"xX c #FFF7CA",
"cX c #E7E5D9",
"vX c #FEFDDC",
"bX c #F4EACA",
"nX c #C2EBE0",
"mX c #FAFFE7",
"MX c #F0F5EA",
/* pixls */
"| ! ~ ~ ~ / | :X/ ) ~ ~ ~ ~ ~ / ).>XY ) ~ ~ ~ !  .dX~ ~ ~ ~ ~ ~ ~ ^ ~ ~ / F.^./ ~ ^ ~ ) U | cX} ^ ~ ~ ~ ~ ~ ! S.(.Y ~ ~ ~ ~ ^ dX",
"q       o   j E.o o     o       % Q.} o         8 !.                      ) S.  o       : :X!     o           Y I.  o         /.",
"w   O O O o I E.  O o o o o o O   @ dX|   O #   8 ^.  O o o o o o o O O   { S.  @ @ o < hX^ . O O o o O o O   ! K.  O o o # X /.",
"w   o o o o I W.  o o o o o o o o   O :X|   @   U :X  o o o o o o o o O o ' Q.  @   < fX^   O o o o o o o o o ! K.o o o o o X /.",
"w   o o O   I E.  o o o o o o o o o   @ |.|   q fXI   o o o o o o o o o o O W.S.  3 fX^   o o o o o o o o o   ! E.  O o o o . /.",
"q   o o o   I R.  o   o o   o o o o o   * !.q.+XE   X o o o o o o o o o o   X Q.q.!.'   O o o o o   o o o o   / K.o o o o     /.",
"I @ - - - X Y W.  - - - - - % - o   o O   0 mXe.  O o o o o o o o o o o o @   5 mXL.  O # o o = - - - - % -   ^ E.  - - - - - +X",
"dX).|.(.(.).dXzXrXwXrXwXqXwXwXtXrX1     5 <Xh.*X] . o o o o o o o o o o O   , ;Xh.*Xo.  X    .gXqXrXqXtXwXrXrXgXhX^.(.(.(.(.!.cX",
"I O - - - # T wXH K L L L L L H C.iX; 2 =Xf.%.u.5X`   o o o o o o o o o   * #Xj.$.4.4X..  @.pXP L L L L L L c V.I.X - - - - - (.",
"q o o o o o r eXz C C C C C C C x m.+X;Xf.,.;.-.d.{.. o o o o o o o o o o ( =X$.2.<.8.*X!.oXH N m C C C C C n B.P.  # o o o   /.",
"w   O o o o u wXM F A A S F S D x P zX6X8.<.:.-.a.'.. O o o o o o o O O   ( -X1.;.2.&.@XvXH.g D D A F S C S l B.P.  o o o o . /.",
"w   o o o   u wXM F A C n l l x O.lXi a 4Xu.$.%.p.'..       . o X     o   d %X%.1.#.-Xy.* ~.Y.g z l l C C A n B.P.  o o o o X /.",
"w   o o o   j wXM A A Z A.9X.X XlXR     ( 6X&X*X<X3Xt.0.r.(   O   < w.t.0.'.6X#X&X2XL.$   % ~.tXY.XX0XO.m F b B.P.  o o o o   /.",
"w   o o o   r wXM A A B aX_ u R 8   o O   8 s 0 ( 2Xg.f.g.5X] . , ;X&Xf.h.*XJ.6 s p @   O   % I T u .XV.n F b B.P.  O o o o . /.",
"r   o o o o u wXM F C B qX1       o o o X   .   2 *X&.-.<.u.1XX.h.l.%.,.%.j.0.      # o o o o       m.V.n F b B.P.  o o o o X (.",
"q   O o o o u qXz D D V qX8   + o o o o o o O   8 <X4.:.:.<.t.xX&X*.3.;.-.k.w.  @ O o o o o o o + o D.M.M D z b.P.  o o o # . Q.",
"{   O o o   q gXJ N x +.jX%   o o o o o o o o   3 2Xu.<.,.u.6X( J.%X%.2.%.=Xe.  o o o o o o o o +   S. Xx Z h XXH.  O o O   1 fX",
"cX'   O o o o  .sXH +.nXR # o o o o o o o o o #   ( 4Xu.u.8X( . * @Xl.*.%X'..   o o o o o o o o o o + OXXXh T.OX=   o O   - >XcX",
"/ +X}   o # o   } +X+XE   # o o o o o o o o o o #   a <X<Xd   X . * J.3XJ.$   o o   o o o o o o o o   & I.+X_.-   o o   - dX{ W.",
"t $ fX{   O O   2 bX,X.   O o o o o o o o o o o X # = zXzX&   X X .  .mX'   o o o o o o o o o o o o @   ] mX]   X O   - dX{   |.",
"w   : dX{     , &Xh.].{.$   X o o o o o o o o o   = uXm.m.uX;      .pX[ aX' # X o o o o o o o o o .   ` =Xi.1XX..   - :X}   X /.",
"w   o : fX' * 3Xk.$.#.%X[.  o o o o o o o o o o O +XZ.x x A.+X# ^ aXc x v lXW   o o o o o o o o o   ( 6Xu.1.u.1X] $ dX}   X . /.",
"w   O   - }.7Xh.1.2.2.&.3X:   O o o o o o o o   9 uXx Z Z z yX% D.C.l G z V.D.  o o o o o o o o O   r.].%.;.<.5.<XkX'   + # X /.",
"q   O   > !.3Xg.$.2.>.4.<X2   o o o o o o o X   9 qXN A A V oX& n.C.z F l A.n.  # o o o o o o X X   0.j.,.;.<.u.*XfX'   O   . ).",
"q     3 fXE $ ;Xj.#.4.8.<X,       . X o         8 yXV A A V oX& m.C.l D l A.m.  # #   + # o     .   0.].&.4.u.4X( . dX|       !.",
":XQ.W.fX^     , #X1X*X*X6X[.'.[.G.$     ; I.OXU.qXyXN A A V oX& m.C.l F n B.aXU.OX+X)   O   ` $X'.`.2X1X*X*X2X`     * ^.|.W.Q.cX",
"! 8 q 3   X X   $ 5 5 2 {.g.a.a.-X{.. % qXT.O.c.O.O.C A A V oX& n.C.z S C D x.c.O.+.lX[   ` 4Xa.a.s.1X] , 6 <   X o   @ t t 0 :X",
"q     o o o o o o     . ].i.-.6.#.%XL._.T.g n m C C A A A Z eX& n.C.l S A A m m m l [ +XF.<Xu.-.>.%.&Xa   o o o o o o o       !.",
"w   o o o o o o O o o . {.i.<.2.,.8.xXzXc B F F A A A S A B oX= m.C.N A S A F F S Z h H.mX'.%.;.;.$.&X(   o o o o o o o o o . /.",
"w   o o o o o o o o o . '.l.$.<.5.4Xa } aXH g z n l b b M g OX# n.N.g l l l z l z g Z.+X5 #Xj.1.<.5.6Xy   o o O o o o o o o X /.",
"w   o o o o o o o o o   < ;Xj.8.6X]     @.lXY. X.X.X.XY.Y. X7Xq.+X>XU..X X.XY..XY.qXtX;   , &X].9.5X]   o o o o o o o o o o . (.",
"w   o o o o o o o o o o   * ].5X`   X X   i Q W W W W W Q R $X$XkXq.R W W W W W W W ;   O   * [.5Xf . o o o o o o o o o o o # /.",
"w   o o o o o o o o o o   $ ].6Xs   @ # o q R k k k k k k i $X$X7X@.u k k k k k j T %   O   X J.6Xs X X o o o o o o o o o o   /.",
"w   o o o o o o o o o   $ [.l.9.6Xd     [ lXY.9X.X9X9X9X XOXzXe.>X,X.XXX.X XoX X.XuX+X%   $ #X@Xp.6X(   X o o o o o o o o o X /.",
"w   o o o o o o o o o . J.%X%.<.u.4Xs E aXP g b b b l z l h OX# m.M.h l l l l l l x T.OX, J.l.$.,.u.6X0   o o o o o o o o o   (.",
"w   o o o o o o o o o . #Xp.6.;.<.8.bXzXv M D A A S S S S B eX& m.Z.N O.S S S S S Z h H.mX@X$.2.:.%.*X`   o o o o o o o o o X /.",
"t   o   o o o o o   o . ].p.-.>.$.z.[.+XM.x V A A A A A A B eX& m.V.b S A A C C A M v OXR.<Xu.-.:.=.*Xa   # o o o o o o       /.",
"I % > -   O o   . * , $ #Xd.u.u.%X#X* 1 iXV.J K K G C A A V eX& n.V.n A A D G O.K P iX@.  ..=Xi.5.u.<Xf . , $ .   o o X > - : /.",
"dX^.^.dXY   o $ J.&X%X&X6X;X#X;X[.*     7 +XqXeXuX0XM A A V oX& n.C.l S m b.aXOXOXiX .  #   ] <X#X#X2X3X&X&X<Xa     . R.:X^./.cX",
"y . X q hXU . [.%Xu.u.9.<X4   $   X o #   . - # 9 uXV A A Z oX& n.C.n A n A.D.  % O o X o X   X * . w.@X8.u.p.6Xa   |.S.. % $ |.",
"w   X   8 }.;Xg.$.6.6.5.<X2     o o o o o o     8 wXV A A B oX& m.Z.l F l A.n.  # o o o o o o     . 0.g.%.2.-.s.<X,Xo.  o     /.",
"w   O . . !.bXd.$.;.;.&.<X2   o o o o o o o o   9 uXz G D x qX% D.M.z G z V.D.  O o o o o o o o O   r.].1.:.2.&.<XcXU   + o X /.",
"w     @ >X ., 3Xf.$.%.j.}.X   o o o o o o o o o = uXV.z g V.tX  { iXc x c aX)   o o o o o o o o O   ` 6X4.,.5.4X..* fX!   X . /.",
"r   @ :Xo.    5 =Xp.g.&X* . X o o o o o o o o o   1 iX@.N.iX1     n.pXv pX@.  o o o o o o o o o o X X ] 8X8.=X7..   3 fX!   X /.",
"t   |.q.o O O o 2 7X,X*   o o o o o o o o o o o o   ; zXjX;   O O   @.mX .# o o o o o o o o o o o o X   ] vX..  X o   3 fX!   |.",
"y W.S.  O o o   R jXuXi   o o o o o o o o o o o X   s 3X3Xs   @ . . r.6XG..   o o o o o o o o o o o o # H.jXI.&   X o   8 dXE R.",
"cX|   o o o   Q sXP [ aXj   o o o o o o o o o o   a 4Xi.i.4Xs   X J.l.&.=XJ.. o o o o o o o o o o     U.XXh Y.~.+   o O   3 >XcX",
"|   o o O   9 gXK N N +.gX-     o o o o o o o   < 2Xi.,.<.s.6Xs y.&X,.3.%.=Xo.  o o o o o o o o o   n.eXg Z h  XD.  O o O   0 kX",
"t   o o o   u eXM F D H wX8   o o o o o o o O   5 *X4.;.:.1.t.xX&X*.3.;.-.k.w.  O o o o o o o X +   D.M.z G z b.I.  + o o   . ^.",
"r   o o o   e wXM A A B wX>       X o o X     . 4 <X&.,.<.4.=X7.@Xf.#.>.%.k.0.      X O o o #   X   n.V.n S n B.P.  o o o o . |.",
"w   o o o   j wXM A A B iXR 9 r 1   . #   3 0 5 a 2Xh.a.d.1Xo.  5 <X%Xd.d.&Xr.4 0 0 X   o o X q r 7 U.V.b F n B.P.  o o o   . /.",
"w   o o o o r wXM S A Z XXyXqXqXlXu     a 2X<X*X2X2Xh.`.'...  O   5 J.`.y.@X6X<X<X5XG..   # I.iXqXyXpXc.m S b B.P.  o o o o X /.",
"w   o o o o u wXN S A A m l N z +.nXi s 5Xs.1.#.d.'.. . .     o #     .   d %X#.4.&.=Xy.# U.XXx z M n D A A l B.P.  o o o o   /.",
"w   o o o   u wXM S A A A A A Z x +.fX7Xi.,.;.<.a.'.. O o O o o o o o O   ( -X-.:.2.&.@XbXI.x Z A S A A A A n B.P.  o o o o X /.",
"q   o o o   u wXM A C A A C A D x +.jX;Xd.,.3.<.p.{.o o o o o o o o o O   ` -X%.2.6.&.&X,X Xc V C C A A C A l B.P.  @ o o o   /.",
"w   X o o   e qXc B B B B Z J x M.aX1 5 1Xa.#.&.1X..  O o o o o o o o o   4 <Xf.$.4.=X0.  D.yXH J B B B B J x M.P.  o o o   . /.",
").K.R.W.R.K./.hX~.oXoXoXoXoXoXeXtX8     6 2Xd.*X7.  o o o o o o o o o o o   5 3Xy.*X0.  .   n.uXY.oXoXoXoXOX~.uXfXK.R.R.R.R.R.kX",
"Y - 3 > 8 - ! ^.% > : ; : ; > > @   O #   0 vXr.o X o o o o o o o o o o o o   0 vXJ.. O o #   ; : 1 : ; 1 1 @ ' W.* 3 > > 3 3 :X",
"q   o   o   u E.  # o   o   X o o o o # X K.F.!.e   o o o o o o o o o o o     K.G.!.U   o o o     o o         Y E.  o o       /.",
"w   o o o   T E.  o o o o o o o o o o   Q.F.  y fXw   o o o o o o o o o o   K.K.  0 hXI   O o o o X o o o + o / K.  o o o o X /.",
"w   o o o   I W.  o o o o o o o O o   W.S.  @   / |.o o o o o o o o o O   ~ ^.  X   t hXI   O o o o o o o o   ! E.  o o o o . /.",
"w   O o O   I E.  o o X o # o o     Q.F.  X O   8 ).  X o o o o o O o +   { S.  @ O   q hXT   O o o o o X O   ! K.  + o o o X /.",
"w           e R.                . E.q.          8 Q.                      ' S.  .       8 dXp               o Y K.  o         ).",
"} p Y Y U e | (.p Y U T Y Y Y y K.dXw U U U Y I { dXI U Y Y T T Y Y Y Y y S.W.y Y U U U w q.cX! I Y Y U Y Y e | (.e Y Y U U U dX"
};
