/* XPM */
static char *_0861_99d89603e2f7e6dd351bff00a0b35afd38122bd3662d54d7d53b139832eee2fa[] = {
/* columns rows colors chars-per-pixl */
"64 64 216 2 ",
"   c #010101",
".  c #090603",
"X  c #0E0C09",
"o  c #0B0906",
"O  c #110D0A",
"+  c #100B07",
"@  c #15110E",
"#  c #1B140E",
"$  c #1A1613",
"%  c #1C1916",
"&  c #1D1B18",
"*  c #211E1A",
"=  c #23211D",
"-  c #28231F",
";  c #2C2825",
":  c #322E2A",
">  c #302B27",
",  c #34322D",
"<  c #3D3A36",
"1  c #3A3734",
"2  c #423D3A",
"3  c #433C36",
"4  c #45413D",
"5  c #4B453F",
"6  c #335B4D",
"7  c #1A735D",
"8  c #1B6F5B",
"9  c #236C59",
"0  c #236955",
"q  c #2A715C",
"w  c #21725E",
"e  c #3A6C5B",
"r  c #147B63",
"t  c #1B7B64",
"y  c #1B7760",
"u  c #397464",
"i  c #267864",
"p  c #494641",
"a  c #4D4A45",
"s  c #4B4946",
"d  c #514C47",
"f  c #514D49",
"g  c #56524D",
"h  c #5A5652",
"j  c #5D5A55",
"k  c #5D5A57",
"l  c #615C56",
"z  c #615E5A",
"x  c #446A5D",
"c  c #65625C",
"v  c #477869",
"b  c #59786A",
"n  c #4C7668",
"m  c #696662",
"M  c #6D6965",
"N  c #6B6965",
"B  c #726E69",
"V  c #79746E",
"C  c #76726E",
"Z  c #797672",
"A  c #7D7974",
"S  c #7B7774",
"D  c #65786D",
"F  c #99391B",
"G  c #B7330C",
"H  c #A93B19",
"J  c #B63914",
"K  c #9D3F23",
"L  c #C63A0E",
"P  c #CC3B0D",
"I  c #D63602",
"U  c #D93500",
"Y  c #D33B0B",
"T  c #D53805",
"R  c #CB3C11",
"E  c #C53C12",
"W  c #D23E10",
"Q  c #BA411C",
"!  c #95452C",
"~  c #964E36",
"^  c #A34629",
"/  c #AA4D31",
"(  c #B24928",
")  c #B9654B",
"_  c #AE6853",
"`  c #817E79",
"'  c #827C76",
"]  c #BC7A64",
"[  c #D77759",
"{  c #CF7B61",
"}  c #15846B",
"|  c #1B846D",
" . c #13896F",
".. c #0D876E",
"X. c #21816A",
"o. c #39826E",
"O. c #368872",
"+. c #4A8675",
"@. c #5F8E7E",
"#. c #568877",
"$. c #43917C",
"%. c #57907F",
"&. c #67897B",
"*. c #85817D",
"=. c #D38C77",
"-. c #E3886E",
";. c #5B9784",
":. c #4D9581",
">. c #669786",
",. c #709082",
"<. c #77A796",
"1. c #66A391",
"2. c #79B2A1",
"3. c #878480",
"4. c #8D8A85",
"5. c #8B8682",
"6. c #89968C",
"7. c #97938D",
"8. c #9A9A94",
"9. c #908B86",
"0. c #A19D98",
"q. c #88A99A",
"w. c #9BA59A",
"e. c #A8A49D",
"r. c #ABA7A2",
"t. c #B6B2AC",
"y. c #BDB6AD",
"u. c #BDBAB2",
"i. c #BFB7B4",
"p. c #AEB3AB",
"a. c #90B0A1",
"s. c #CCA292",
"d. c #EDB29D",
"f. c #F4B29A",
"g. c #C3BDB7",
"h. c #C3BDB9",
"j. c #D8BCAF",
"k. c #F2B7A1",
"l. c #E3BBAC",
"z. c #CC9E8E",
"x. c #96C3B2",
"c. c #A7C7B9",
"v. c #BBC5BB",
"b. c #C5C2BA",
"n. c #CAC4BC",
"m. c #CCC8BD",
"M. c #D7C7BD",
"N. c #FDC7B5",
"B. c #FDC9B6",
"V. c #F9CABA",
"C. c #E9C4B5",
"Z. c #BDCDC2",
"A. c #B7CDC1",
"S. c #A9D6C7",
"D. c #B7DBCB",
"F. c #B9DFD2",
"G. c #BCE8D7",
"H. c #CDCBC3",
"J. c #CAC6C1",
"K. c #D3CCC4",
"L. c #D2CEC9",
"P. c #D8CDC5",
"I. c #C7D7CB",
"U. c #D7D0C6",
"Y. c #D5D2CB",
"T. c #DBD4CC",
"R. c #D6D4CA",
"E. c #C9DCD1",
"W. c #DCD6D1",
"Q. c #DED9D3",
"!. c #D1DDD2",
"~. c #E1DACF",
"^. c #FEDAC9",
"/. c #F6D7C8",
"(. c #E0D7D0",
"). c #E4DCD4",
"_. c #E9DED5",
"`. c #E6DFD9",
"'. c #E8D2C7",
"]. c #CEEBDC",
"[. c #C8E3D5",
"{. c #D9E7DB",
"}. c #E4E0D7",
"|. c #E9E0D7",
" X c #E5E3DA",
".X c #ECE4DC",
"XX c #E5EADF",
"oX c #ECE9DE",
"OX c #FCE4D6",
"+X c #F2E6DC",
"@X c #FDE6DA",
"#X c #F1E8DF",
"$X c #FFEADC",
"%X c #F7E1D4",
"&X c #DCEDE2",
"*X c #D7EBE0",
"=X c #DCF2E5",
"-X c #D9F3E5",
";X c #EDE6E0",
":X c #E6ECE2",
">X c #ECEBE1",
",X c #F0E7E0",
"<X c #F2EBE3",
"1X c #F5EFE9",
"2X c #F8EFEA",
"3X c #E2F2E6",
"4X c #EAF1E6",
"5X c #E5F4E9",
"6X c #EAF6EB",
"7X c #F6F1EA",
"8X c #FAF4EC",
"9X c #FCF8EF",
"0X c #F6F0E7",
"qX c #FCF6F0",
"wX c #FFF9F4",
"eX c #FFFEF9",
/* pixls */
"K.).(.).).~.~.(.(.).(.(.(.~.(.).~.~.).W.(.(.(.Q.(.(.T.(.W.W.T.(.T.T.T.T.R.R.T.R.R.T.T.K.K.L.K.P.K.P.K.P.K.K.K.K.K.K.K.K.K.K.K.K.",
"(.<XoXoX.X.X.X.X.X.XoX.XoX.XoX+XoX+X+X.X+XoX;X;X.X.X.X.X.X.X.X;X+X#X+X#XoX.X;X;XoX:XXX;X>X>X#X<X<X,XoX;XoXoX+X;X.X+X;X;X;X,X,X,X",
"(.,X.X<X0X1X1X7X7X7X7X7X2X2X,X`.+X.X+X2X2X2X2X2X2X2X2X2X8X8X2X8XoX.X.X.X:X:X=X=X3X3X3X3X5X:X X|..X.X2X0X8X7X8X0X2XqX8X8X2X.X_..X",
"W..X<X' p s s s a a s d p l ).<X_.<Xr.3 d d a d d d f f f f a Z 1X.X_.oXw.&.,.;.@.;.>.>.&.7.oX.X_.2X9.l z j l l z z z z B `.+X.X",
"T..X0X2                     2  X,X`.oXh                         z 7X.XoXR.b 0 r r r t 8 x I.>X}.qX`                     + (.,X.X",
"T.+X0Xs . .       .     .     <  X,X.XqXm   . .   . . . . .       z 1X X:X].+.r  ...} O.[.6X}.wX`     .         . . . . * ).+X.X",
"T.+X1Xa   .                 .   < .X<X`.8Xm           .         .   z 7X X:X].+.7  .7 S.6X}.8XA                         % ).;X.X",
"T.oX1Xs                       .   < `.;X.X8Xm   .                     c 0X XXX].+.w i S.XX0X5.                          * ).,X_.",
"T.oX0Xs                             <  X<X.X8XN                     .   z 7X X:X].#.6 D.:X7Xa                           % Q.oX.X",
"T.;X8Xs                           .   < )..X.X7Xm                         c 7X}.XX{.b A.>X7Xh                           % Q.,X_.",
"T..X2Xs   .                             a 2X`..XwXp                         j 7X}.>XQ.u..X7Xg   .                       $ Q.<X.X",
"R..X7Xa                               % h.>X_.8X7.X                           j 1XoXoXQ.y.8Xh                           % W.,X.X",
"T.oX1Xp                             & J.8X).wX7.                                j 1X.X+XT.m.f                           $ W.<X.X",
"T.oX0Xj   .                       X b.8X).wX7.                                    j <XoX.XoXh   .                       * `..X.X",
"T.oX,X).<   .                     & `..X0X7.                                        h .X.XoX.Xp   .                   + t.2X_.,X",
"R.+X.X<X X<                 .     & T.oX>X>   o                                       0..X.XoX;Xs                   o t.qX_..X.X",
"T.oX.X_.+X.X3   .                 @ `.<X<X:                                         . g.b.~..X.X;Xs               X t.8X_.+X.X+X",
"T.+X.X<X|.+X.X2           @ 1 : > 4 b.M.K.g : : : : : , %                             n.<Xy..XoX;X;Xs           + t.8X_.<X,X;X_.",
"T.oX.Xe.`..X+X.X2   .   & J.1XoX.XoX).).(..X+XoXoXoX.X9X3.                          . g.0X`.7..XoXoX;Xs   .   X t.8X).8Xy.P.,X+X",
"T.oX2X3 g 8X.X;X.X4   * H.0X`.,XoXoX#X<X<X.X>XXXoXoX|.8X3.                            g.<X8Xd 5 0X.X.X>Xf   O y.8X).8Xe.# T.<X`.",
"T..X2Xd   z 2X|.<X).z b.0X).1X).).Q.W.Y.!.!.[.[.[.{..X8X3.                            g.<X0Xz   h <X.X;X;Xh r.9X).qXr.. O W.,X.X",
"U..X0Xd .   l 0X|..X0X<X}.qX4.% % : g.J.v.b u v e p.>X8X3.  .         0.A   .         g.<X0Xj     f 1X;X.X1X<X).qXr..   $ T.,X.X",
"T.oX1Xd   .   l 1X.X)..XwX9.      $ `.1X=X+.y t 9 x.:X8X3.          0.8X8XC   .       h.<X0Xj   o   g <X.X`.`.8Xr.      @ T.,X;X",
"T.+X8Xd     .   j 1X.XqX4.    .   % W.>X*X+.t | w x.6XqX5.  o     0.8X_.`.qXC   .     g.<X7Xz   . .   f <X.X8Xr..   . . @ W.<X`.",
"U.oX2Xd           k qX4.          % Q.>X*Xn 0 q 0 a.!..XA .   o 0.8X}.<X+X.X8XZ     . g.<X0Xz       .   a qXr.          @ T.>X.X",
"K.+X2Xd   .         1             % (.oXXXZ.c.c.c.J.H.K.b.t.t.h.0X_.$Xl.C.$X|.8XA   . g.<X0Xk   .         < X           @ W.,X.X",
"P.oX8Xs                           $ W..X}.>X:X:X>X>X<X<X,X1X1X,X_.$Xk.! ~ B.@X_.8XV   b.#X8Xl   .       .               @ Y.,X.X",
"P.oX1Xf                           & >X9X8X8X8X8X8X+X|..X@X@X@XOX@Xf.^ Q Q / B.@X_.9XV y.<X0Xz   .                       O T.>X.X",
"T.oX1Xf                           X m B N M M B M r.K.M.z.] { [ [ Q E Y W J / N.$X.X).P.oX7Xz                           @ L.<X.X",
"P.oX1Xg   .                                       0.1X@X=.F J G G L T U I Y J / B.$XP.U..X7Xz                           @ Y.<X_.",
"P..X7Xa                                     . o . 8.7X@X=.H R Y Y I I U U U Y J / B.'.M.+X0Xk                           + L.<X_.",
"T..X0X`   .                                     . u.<XOX-.G Y I U U U U U U U Y J / l.'.+X0XZ                       .   : _..X,X",
"P.oX.X0XC                                 .     e.2X_.2X-.G Y U U U U U U U U I Y Q ! C.%X_.m.&..                     ; W.<X.X.X",
"U.#X|..XqXZ                                 . 0.8X_.@Xd.Q L I U U U U U U U U U U P ^ d.$X|.y.8X' . .               ; Q.<X.X.X.X",
"K.#X.X.X}.qXZ                               r.8X_.$Xd.K J T U U U U U U U U U U U P Q f.$X|.b._.8X`               ; Q.<X|..X.X.X",
"M.#X X;X>X}.8XV                           r.qX).<Xl.K Q W I U U U U U U U U U U U P F f.OX}.v..X.X8X`           > Q.<X XoX.X.X.X",
"K.#X4X6.I.4X}.9XS                         k >X;X.X/._ H R U U U U U U I U U U U U P ^ f.OX4X6.Z.0X}.8X*.      > ~.4X}.4X8.I.oX.X",
"m.XX4XD n [.XX|.8XS                         f 1XoXOX^.) G Y T U U U I I U U U U U P H f.OX5X&.x E.4X).wX*.  , Q.4XXX-Xq.6 I.>X|.",
"K.XX3X&.9 o.[.XX}.9XA   .                     f <X+X%X^.) H W I U U U U I I U U U P Q f.OX4X>.w u G.6X}.9X5.g.8X|.5X<.9 e D.>X.X",
"m.oX3X>.7 } u [.3X}.9XS   .                 .   s ;X.X%X^.) G R T U U U U U U U U P F f.OX3X;.t t u I.4X.X1Xg.T.6X<.7 X.q D.4X|.",
"U.XX3X;.r ..r u E.:X`.qXS                     .   f <X+X%X^.) J Y I U U U U U I U W H f.OX3X;.7  .t u D.1X`._.v.,.q } } q D.XX.X",
"K.XX=X@.r }  .w n I.4X,XwX*.                        5 oX;XOX^.) H R L P L R R E P J ^ k.$X6X1.7 | i n p.L.;X.X6X<.w } } q D.4X.X",
"K.>X3X@.t r i v x D b.b.h.T.z $ % & % $ $ $ $ $ $ * O z `.%X%X^._ ! / ^ ^ ^ ^ ^ ! ~ ~ s.M.H.&.e e +.[.7Xb.Q.<X}.6Xq.7 | q D.:X|.",
"M.:X3X,.0 :.G.[.[.E.Y.T.T.Y.).).Q.Q.).W.Q.Q.Q.W.W.W.).P.g.(.;X+X^.s.N.V.B.V.V.B.N.V.V.P.P.Y.!.E.E.{.>X}.7XC n.8X|.6X2.0 e D.>X.X",
"m.>X4XD b *X4XXX>X>X>X+X+X+XoX<X#X#X#X#X;X;XoX,X+XoXoX<X_.g.(..X+X/.j.+X$XOX@XOXOXOX+X@X<X<X>XoX>X X}.qXZ   = L.0X}.6Xa.6 I.>X.X",
"m.>XXXe.{.oX.X<X;X>X<XoX>X<X|.(.).)._.#X<X>X,X<X<X1X<X,X1X<Xh..X;XoX).u.{.:X*X*X=X&X&X}.).).oX<X<X<X7XZ   .   * H.0X}.4Xw.I.>X+X",
"m.#X.XoX.X.X<Xc : , , , 1 2 u.Q.M.T.e.: 1 1 < 3 < < < < < < , g ;XoX.X X6.b %.$.$.$.#.c.U.T.A < 2 2 1           = L.7X}.<X.X.X|.",
"m.#X.X}..X1Xj               > W.0X.X1XV                         p ;X+X.X{.@.8 y r r 0 A.3X9Xl                     * K.0X}..X.X+X",
"m.<X.XoX7Xh   .           .   ; Y.1X`.qX3.  .     .   .       .   p ,XoX X=X@.8  .| 9 c.:X7Xm   .                   * L.1X}..X.X",
"M.oX.X#Xh                       ; Y.<X`.qX*.                        p ;X+XXX-X;.7 w +.].:X2Xm   .                     * K.<X|..X",
"m.oX0XV   .                       ; T.1X).8X*.                    .   p oXoX X=X,.v ].>X`.qXs                           - ).+X.X",
"m.oX8Xh                             ; L.1X.XqX3.                        5 oX<X>Xv.!.>X.X7XB                             . K.<X.X",
"m.oX7Xl   .                           ; K.oX`.qX3..                       p Q.b.R.>XXX<XC                               O L.<X.X",
"n.oX7Xl                             .   2 1X.X`.eXf   .                 .   z ;X.X.X<X4.  .                             + L.<X_.",
"n.+X0Xl   .                           * n.<X.X8X4.o                       < W.;X X Xg.).k   .                           + L.<X`.",
"n..X8Xl                         .   * L.0X).8X9.                    .   1 `.<X;X:Xv. X<X7Xk                         .   + K.<X.X",
"n.;XqXz                           = K.0X).qX9.                        1 XX>X X5X>.b *X:X X2Xk                           O K.<X.X",
"b.;X8Xz                         = L.1X).qX4.                    .   < XX;X X5X>.8 w +.].:X X7Xk                         O L.<X_.",
"n.>XqXz . .   .     .         = K.1X.XqX9.    .       .       .   < ;X>XXX6X1.7  . .y $.*X:X;X1Xc     .                 O Y.<X|.",
"n.oX7Xk                     = Y.1X_.<XV                         < ;X;X}.XX&.0 | r r t 0 b !.;X X7Xz                       K.+X.X",
"b.+X0X7.g j h h g g h g h h H.7X).<Xg.5 f f f f f g a s p s 4 l `.<X}.<Xp.b &.#.#.%.#.@.b 6.;X.X.X1XB 3 4 4 4 4 4 4 4 3 a T.#X.X",
"b.#X X#X7X2X7X7X7X7X2X2X0X8X+X.X.X.X.X0X7X7X1X1X0X0X7X7X2X1X1X2X,X_.oX.X}.4X&X-X=X=X-X=X3XXX.X.X.X.X7X<X<X1X<X0X<X1X1X1X1X.X.X.X",
"m.0XoXoX.XoX.X.X.XoX+X.X.X.XoXoX+X+X,X+XoX.X.X.X.X.X.X.X.X.XoX.XoX.X.X;X.X.XXXXX:X;X:XXX XoX;X+XoXoX.X.XoXoX.X.X.X.X.X.X.X.X.X.X",
"t.T.U.U.T.P.L.T.R.Y.T.T.T.T.T.T.T.T.T.T.T.W.(.(.(.(.~.W.(.(.).(.).).).).).).).).).).).).).).).).).`.`.).).).`.).`.).}.)._._.|.)."
};
