/* XPM */
static char *_602_629f36c6cb01d0dd6612beb2adf78e699f5cf8e6bea1e811e36001a9b41e190e[] = {
/* columns rows colors chars-per-pixel */
"64 64 250 2 ",
"   c #030200",
".  c #0A0501",
"X  c #0B0A03",
"o  c #0C0B0A",
"O  c #060A06",
"+  c #120B01",
"@  c #130B03",
"#  c #0C130A",
"$  c #171506",
"%  c #181A14",
"&  c #0F1412",
"*  c #241C06",
"=  c #211E12",
"-  c #18241A",
";  c #0E2218",
":  c #2A230C",
">  c #272619",
",  c #342C13",
"<  c #382E12",
"1  c #1B2D22",
"2  c #2C2B25",
"3  c #36362B",
"4  c #393933",
"5  c #2E3428",
"6  c #433D25",
"7  c #413F33",
"8  c #364133",
"9  c #4B4328",
"0  c #554725",
"q  c #48473B",
"w  c #5A5238",
"e  c #554D36",
"r  c #645839",
"t  c #66552A",
"y  c #736439",
"u  c #55451B",
"i  c #185C4B",
"p  c #165F51",
"a  c #305645",
"s  c #1A614C",
"d  c #0E6559",
"f  c #146454",
"g  c #1B6453",
"h  c #13655A",
"j  c #146A5C",
"k  c #1A695A",
"l  c #1F705F",
"z  c #276956",
"x  c #346C59",
"c  c #2F705A",
"v  c #0E6D64",
"b  c #136D63",
"n  c #1B6E61",
"m  c #1B756B",
"M  c #187267",
"N  c #12756F",
"B  c #267769",
"V  c #377866",
"C  c #2C7D71",
"Z  c #357D72",
"A  c #276E62",
"S  c #4A5448",
"D  c #565548",
"F  c #5C5D54",
"G  c #4B5046",
"H  c #665D44",
"J  c #56665A",
"K  c #496B5A",
"L  c #796B48",
"P  c #66665A",
"I  c #7B7358",
"U  c #6F6A52",
"Y  c #457966",
"T  c #547569",
"R  c #6C6D62",
"E  c #767569",
"W  c #7E7D73",
"Q  c #697466",
"!  c #877958",
"~  c #86744A",
"^  c #827D6E",
"/  c #3D826B",
"(  c #3A8878",
")  c #338573",
"_  c #478876",
"`  c #5A8978",
"'  c #4C8A74",
"]  c #67897A",
"[  c #758878",
"{  c #BF881D",
"}  c #BC8A25",
"|  c #BD8C2B",
" . c #B78728",
".. c #B78C33",
"X. c #BC923A",
"o. c #BE912E",
"O. c #C48B1E",
"+. c #CB8D1C",
"@. c #C28719",
"#. c #CF901E",
"$. c #D4931F",
"%. c #D18F18",
"&. c #C38D24",
"*. c #C98F22",
"=. c #C38E2A",
"-. c #C88F29",
";. c #CC9123",
":. c #C7922A",
">. c #D39625",
",. c #C79737",
"<. c #D49E35",
"1. c #D9A43C",
"2. c #978555",
"3. c #B99648",
"4. c #A98F55",
"5. c #998B66",
"6. c #87867A",
"7. c #948C73",
"8. c #A89A76",
"9. c #A99667",
"0. c #B9A573",
"q. c #C79C45",
"w. c #C29E53",
"e. c #CBA24A",
"r. c #D9A947",
"t. c #C8A559",
"y. c #D4AB56",
"u. c #DBB25A",
"i. c #DEB14B",
"p. c #E1AE45",
"a. c #E4B24D",
"s. c #E6B856",
"d. c #C9AA65",
"f. c #D9B567",
"g. c #CDB478",
"h. c #D7B976",
"j. c #C9AE72",
"k. c #E5BC66",
"l. c #EBC269",
"z. c #F4C868",
"x. c #E8C577",
"c. c #F3CC76",
"v. c #FAD37D",
"b. c #EAC166",
"n. c #499586",
"m. c #579B88",
"M. c #479183",
"N. c #679787",
"B. c #789A88",
"V. c #6C9084",
"C. c #5AA492",
"Z. c #69A996",
"A. c #76A897",
"S. c #74A791",
"D. c #79B9A7",
"F. c #73B1A2",
"G. c #7BC4AF",
"H. c #8D8C83",
"J. c #9C9B8B",
"K. c #959588",
"L. c #9C9C92",
"P. c #859687",
"I. c #A29E8E",
"U. c #89A996",
"Y. c #95A798",
"T. c #89AE98",
"R. c #B8AB86",
"E. c #A6A598",
"W. c #B0AA8E",
"Q. c #85BAA8",
"!. c #99B7A7",
"~. c #93B6AB",
"^. c #ACABA2",
"/. c #A6B8A7",
"(. c #B7B7A9",
"). c #BBBCB3",
"_. c #ACB5AA",
"`. c #C8B688",
"'. c #D1BC8B",
"]. c #C2BCA7",
"[. c #C0BEB2",
"{. c #89C2AB",
"}. c #95C9B5",
"|. c #8FCCB6",
" X c #B5C7B8",
".X c #A9CDB9",
"XX c #DBC48A",
"oX c #D9C696",
"OX c #CEC09B",
"+X c #E9CB89",
"@X c #FCDA89",
"#X c #E5CE97",
"$X c #EBD399",
"%X c #F9DB96",
"&X c #EFD08B",
"*X c #FFE188",
"=X c #FFE698",
"-X c #FFF09F",
";X c #C8C2AC",
":X c #C8C7BA",
">X c #DED7BC",
",X c #D3CDB1",
"<X c #E8D6A7",
"1X c #F4DDA9",
"2X c #E6DAB9",
"3X c #E0CFA1",
"4X c #FCE6A8",
"5X c #FFF3AA",
"6X c #FCE9B8",
"7X c #FFF7BA",
"8X c #EFE3BD",
"9X c #93D9C6",
"0X c #A7DAC5",
"qX c #B6D6C4",
"wX c #B7E9D6",
"eX c #ADE8D1",
"rX c #B5F8E3",
"tX c #98E2CF",
"yX c #CDCCC2",
"uX c #C7D8C8",
"iX c #D7D6C8",
"pX c #D2D5CB",
"aX c #E1DED5",
"sX c #C8EBD8",
"dX c #D0EAD6",
"fX c #F8EBC8",
"gX c #FFF4C3",
"hX c #FFF4CC",
"jX c #FFFDC6",
"kX c #E8E6D9",
"lX c #F4ECD8",
"zX c #FEF3D2",
"xX c #FDF4DC",
"cX c #FFFDD8",
"vX c #EAE3C8",
"bX c #C9FCE7",
"nX c #D8FBE9",
"mX c #D7FFF8",
"MX c #CEFCF2",
"NX c #EDEBE3",
"BX c #EAE7E0",
"VX c #F1EDE4",
"CX c #F1EFE9",
"ZX c #E7FBE9",
"AX c #F9F6EB",
"SX c #FDFAED",
"DX c #F8F4E5",
"FX c #E8FFF6",
"GX c #FEFDF4",
"HX c #FAFEF6",
/* pixels */
"& &   H.GXH.  & o & ^.GXP   o 2 SXvX2 . & O D xX@X:.;.1.5XfX> O   6.jXx.*.*.y.gX].& o &   ^ SXL.  & . yXGXD   &   2 vXAX2 . o 3 ",
"O .   q J.. . . .   @ W.>   O   I.3   X O .   L k.| >.} g.5.  O   , oX3.-.;.e.h.$   . . . O K.D   O   ^ U   o O .   6 J..     2 ",
"  .   P iX:         9 vX7     X ,X5.        @ 0.c.} &.,.1X;X      w jXf.:.| e.4Xt         > >XI   .   I.W.+       . 5.,X.     2 ",
"E > D W.1Xj.~ ! ! L '.1X0.6 > 5.$X%X! ~ ! U 9.%Xx.f.l.4.9.E.6.> G J.W.2.t.l.h.&X+X~ I ! ~ j.1X`.r * I oX1X9.L ! ~ ! $X<X7.2 G E ",
"GXJ.fX#X .=.f.5X5Xy.=. .1X4XXX7Xo.} q.@X7X+X,.} d.jX5.. . % FX/.ZXJ.    , 2X4X| =.e.6X7Xk.:. .k.7Xg.jXd.} ,.&X7X@X,.} X.zXE.iXiX",
"H.  r '.=.>.@.1.s.} >.#.z.t.3.z.<.#.%.O.c.,.+.-.h.5.  O   - }.a N.V.  o   , '.,.;.{ s.y.@.$.*.s.s.o.l.r.*.*.e.z.&.#.#.q.R.. 7 ^.",
"o     ! e.+.>.+.i.e.} 1.r.&.;.<.p.*.$.#.,.a.O.,.9.@   O   T V h z N.2   o   u f. .1.a.&.$.+.,.a.&.;.:.a.;.-.s.,.$.$.} f.,     3 ",
"o o   5.=X:.#.&.k.-Xt.=Xa.} &.<.-Xf.:.:.o.=Xx.&XoX      Q FXV n i Q.dX-     9 gXf.=Xk.} &.<.@Xv.} :.o.*Xl.k.@X=.*.+.s.4X:     2 ",
"O X   7.5Xl.r.e.'.hXhXgXd.f.+Xd.<X3Xd.d.d.<X2.J.;X3 8 J sXqX' c x T.bX}.8 8 U >XL OXh.t.t.g.<X`.j.&X3.$XhXhX1Xd.r.r.@X6X:     2 ",
"O     2.u.o.i.4XhXlXVXAX<X6XhX2X: X * `.hX<     w ZX.XV c _ bX{.bX|.s x ] ZX:XO     8.cXy @ . ^ DXhX<XfXDXVXlX7Xv.,.,.g.,     2 ",
"W   9 g.o.:.} f.zXVXGXE.].DXkXSX^     = 7.. . O X Y.z f k ) 9XB Z.G.f B i B.J   &   e I     = aXSXlXlX7.kXAXlX8X,.+.*.q.9.  3 E.",
"GXK.vX#X .*.1.*XhXAXL.  ).GXSX[.%   O L.AX>     8 FXG.j f n.) f k m.B f ) sX.X  O   6.AX7     P VXSXGX7 3 kXcXgXz.*.O.,.cXI.iXiX",
"E 4 D R.@Xl.r.b.h.<XE.L.K.F ^.[.K.^.F E [ E.D J !.S.Z.C..XrX) v h D.wXD.C.F.!.K.8 7.K.W F 6.^.K.yXW U E.K.,XXXf.s.p.c.#X5.4 D E ",
"      L 7Xe.&.} f.6XDXGXD > aXSXGXK.O   . lX(. XsXi k c 0XMX) v d D.mXm.f s ` HX6.GXW     3 aXGXSXI.  :XHXxX$XX.O.:.+X<X+     > ",
"O X   < XX..;.:.%XzXlXxXJ.aXSXCXkX2   . $ K.X & B.z m v k G.) j f C.C.d m j ` J   F R   o   6.SXBXGX^.,XDXlX7Xu.+.{ d.9.  o   2 ",
"&     K.cXh.q.X.h.gXfX2X8XDXlXlXGXK.    R 3     a S.d m j ) C.s / Z.d N j B A.      E 2   2 kXAXlXlXzX<XfXhX4X3.,.y.4XhX2     3 ",
"pX[ yXK.> < 5.7X+Xe.c.3.$XhXhXfX: 6.:XW AX2 .   G FXZ.p p A MXD.sX}.i k A wXuX  $   E.yX[ aX> ^ DXfX7Xd.f.l.d.5X<X0 , 4 pX6._. X",
"nX] uXP.      8.*X| =.o.%X+Xj.#Xr E.GXAXNX5 ^.E.E _.!.` Z.S..XN.{.~.Z.C.V. XL.R aXq H.GXSXDXH 9.$Xt.=Xu.&.| d.6X6 .   & nXB..X:X",
"( f V T   o   . 2.,.*.#.a.:.&.q.gXDXlXVXkX:XAXHXyX    ;  XbXA j i Z.FXQ     D GXAXaX:XSXBXVXDX+X| &.r.1.O.&.0.u . o   1 m.s z ` ",
"v m f Q.T   o   y &X..z.p.O.>.| XXlXDXGXE pXCXCXGXF     8 T.k B j _ P.    X :XGXBXGXK.].GXlX6Xw.&.$.:.z.<.y.g.. .   # !./ b M M ",
"N N b D.FXT     U cXR.jXf.} -.s.6XhXlXF . kXGXAXH.    2 iXZXx g i U.HX[     2 yXAXGXE   ;XzXgX=X<.&...-X#X3X2X    &  XFXZ v M B ",
"v m h F.}.V.V.).E.G $ w XX@Xa.a.f.`.2XE.^.E F :X^.^.E.D P T 0XZ.{.T.F P R [.I.yXK.G L.E.(.3Xj.u.1.z.=X5.: > 6. XY.] A.0X) b n m ",
"C g z C.b h V wX[   .   2.%X:.*.X.+XxXGXGX> E AXHXCXD     % MXA.sXU.    o ^.HXGXpX@ K.GXDXfXy.{ +.a.1X:     % pXA.n f ) n.z z ` ",
"rX_ 0XD.p n i Q.J   o   U oXX.=.q.=XzXlXvXW.SXVXAXpX%     1 B.i Y `     O E GXBXGXiX].DXlXhXl.| :.t.OX+   O X !._ d b B rX` {.0X",
"rXD.wX{.V _ Z.nX/.$ O : (.fXd.t.3.h.6XgXoX6XDXCXNXkX).3 2 U.Z M p A.T > R kXaXCXNXxX<X4XgX1Xt.e.t.XXlXU O O J nX0X( _ ' wX{.0X}.",
"A z a Q.mXD.B z S.ZXB.ZXP . * 4.jXx.w.l.3.=X6XxX;X+ $ q NXFXC b h D.HXY.= . w DXfXjXf.e.l.3.4X6Xu $ + uX X!.dXc c _ rXbX/ s z K ",
"b m s G.9Xd M j A.0XV wXJ   . . 8.+X .-.:.@Xy.h.`..     8 dXZ M f Q._.  . . 6 4X3.v.z.{ &.e.4X9        XS.m.eXz M v ( rX) j l c ",
") j k m.M v N j m.V f Y K   o   X 4.,.&.<.r.+.:.0.$   o   8 _ g z ` o   o . t t.} $.p.o.{ e.0   o   ; ] k f ' / v N f ( ( k k / ",
"0Xc {.Q.h m f Z.|.f b s .XP   O   2.&Xe.@Xe.*.&.j.`.@     - qXT !.B.  X   w 1X..:.+.z.h.t.$X*     O ).V.f d ' eXl d v ) eXT S..X",
"FXT.nX~.f B C.mX|.g ) n.bXFXJ O   6.gX0.7Xw.&.<.c.jX`.*   > ZXY.kXJ.  X w 6X4Xy.:.| &X1X`.zX> O ; .XmX|.) j ' mXtX) k V nX!.dX:X",
"4 O - Y.bXG.( ( D.bX|.) _ _ ' Q.kXJ.: . 9 <X*Xp.r.1.y.t.#X2Xq O & K.vXg.y.r.1.1.z.5X9.$ . e uXqXm.M.( M.C.rX0X' ( m.eXsXS O % D ",
"  .   8  Xc k f ' .X/ f v v b c qXq   O   9.x.| +.#.+.=.XXI.  .   6 1X3.&.%.%.+.q.$X<   O   ^.P.i v v b z Z.{.s j f B./.      > ",
"  .   G qXc j d ' eX/ k j j k V uXG   .   8.x.} *.+.+.=.+XW.  .   9 <Xt.&.%.%.*.e.<X6       /.U.s v v j s Q.{.s l s [ .XO     > ",
"4 # - Y.bX|.( ( A.bX9X( ( M._ Q.kXJ.: $ 9 1X=Xs.1.r.i.d.3X>XG # % K.fXg.t.r.1.1.z.5X9.* + e uXuXN.' ( _ Z.rX0X' ( n.wXwXK # > S ",
"FXY.nX}.f m m.mX|.z n _ MXZXS #   7.gX0.7Xt.-.:.c.gX0.$   > ZXY.dXI.  @ 0 6X-Xr.:.| &X4X`.hX>   ; !.FX|.B k ' mXtX) l c nX!.uX>X",
"0Xx T.D.d m p C.|.s B s .XF   .   2.+X,.c.e.*.&.g.R..     - 0XK T.B.  X   9 #XX.>.&.l.f.w.$X:       .X] j M ' 0Xm b v ) 0XY B..X",
"M k k m.m b N b ' / s / K   X . . 4.,.&.<.r.O.,.0.$ . .   S Z h z M.;   o . t t.=.<.r.&.&.q.t   o   & ] g k n.V v N f n.( d z ) ",
"v m f G.9Xk v h D.wX' sXJ   . . R.&X .&.,.@Xy.x.`.      G nXZ M h D.).o     u 6X3.v.z.O.&.q.6Xe .     qXA.Z.eXg b j M.rX) j n l ",
"V z z Q.MXG./ V U.dX[ dXR $ : 9.7Xx.t.x.3.4XfXxX;X= > G kXnXC M n D.HXL.2 % H DXfXhXf.e.k.w.4X4Xt * : :X_.!.uXY / _ rXrX' z x _ ",
"bX{.bX{.z V Z.nX/.X O $ ;XjXh.e.X.h.gXhX3X6XxXCXCXAX[.2 % P.Z k p A.S @ U DXVXVXNXSX3X4XgX6Xw.q.w.$XcXF     S FXeX( c Y rX{.wX.X",
"eX/ |.{.d M s A.J   #   r XXo.-.,.4XhXlXvXI.SXVXAXpX&     1 S.i T Q O O   P HXBXGXyX].xXlXhXk.&.:.q.`.+     O !.V h k B rX' D..X",
") f z C.n h / sX[   .   5.4X:.O.o.+XxXGXGX> P AXGXAXF     % nXQ.sXU.    & (.HXGXyX@ K.GXDXfXt.O.O.u.1X,     = dXF.z p ( _ f z ' ",
"v N j D.|.] B. XE.D : w XX@Xa.i.f.`.>XE.^.E D :X^.^.^.D P Q .Xm.Q.T.J F E [.L.yX7.G L.E.].3Xj.k.r.z.=X5.< > 6.(.!.] S.eX) b M B ",
"N N f G.FXF     U cXR.jXu. .*.s.5XzXxXP . kXGXCXK.    % :XnXz f p A.HXE     3 pXAXGXE . :XzX7X@X<.-...4X$X<X2X    #  XZXC v M B ",
"v m s D.J   #   y x...s.p.*.$.&.+XzXCXGX6.iXCXNXGXP     8 U.k m n Y P.  O X yXGXBXSXL.[.GXlXfXw.*.>.:.z.<.t.j.. .   + !.Z v n B ",
"M.p Y T   o   . 4.3.*.*.a.=.=.q.hXAXBXCXkX).GXGXyX    1 uXMXz d d F.FX]     G HXHXaX:XGXBXVXxX#X .&.1.1.+.-.d.0   X   1 N.f x m.",
"nXB.dXP.    . R.%X .-.=.@X#Xg.$Xw E.GXAXVX2 K.L.E _.T.` A.Z.9XS.~.}.N.N.V._.L.R yX4 6.HXSXDXH 5.$Xd.-Xu.&.| d.6X0     # nXU..XuX",
":XQ (.J.9 0 5.6Xx.y.@Xw.#XzXzXfX6 6.(.R CX5     G FXm.g f V bXS.wX{.f k c eXuXO o   E.[.R yX7 7.cXfXgXd.h.x.f.4X$Xr 9 D :XW Y.^.",
"      7.cXx.q...h.gXhX2XvXxXlXVXGXK.    F 4     a ] d m j ) C.p B C.h m v A S.O     R 2 O % VXSXVXlXxX2XzXzX1X3.,.e.6XhX:     2 ",
"O o   , g. .;.:.=XzXlXAX6.iXGXVXaX%   O & L.X - !.z m v k |.) v h F.C.d N n ` Q   P R   &   ^ SXNXGXK.;XAXlX7Xu.*.@.t.5.  O   2 ",
"      I 7Xy.:.| d.7XDXGXD % iXSXGX^.X   . VX(. XwX8 g c 0XmXC M h D.mXC.g p ` HXH.HX^     q BXGXSX7.  :XGXxX&X3.&.:.&X<X$     2 ",
"H.q U `.+Xs.a.z.h.2XJ.^ J.E (.^.W K.F H.K.K.q G T.{.G.C.{.wX) M h D.eXA.C.|.!.[ 5 E K.L.R R H.^ yXH.6.K.E [.#Xk.s.a.c.+X8.q P 6.",
"HX7.vX$X} +.<.@XhXAX^.  ).GXGX[.%     H.NX=     8 nXF.j d M.( g k m.M f V wX!.      6.BX3     R CXGXGX4 7 kXxXgXl.+.O.X.cXJ.,XiX",
"R   6 g.=.>.} h.zXVXGX].].DXlXGX6.    : J.X     $ Y.x h n C tXV D.{.h m i S.R   o   e W . . % aXSXkXzXI.VXSXVX6X,.*.;.r.5.  > J.",
"  O   ! f...s.5XhXVXVXDX3X6XzX2X:   : 3XcX<     D HX.XY z V MX}.bX}.s x ] FXyX.     8.cXL @ . I xXgX<X8XDXNXlX6X@X<.X.h.:     2 ",
"o O   5.5Xs.r.e.XXhXhXhXt.y.+Xd.3X#Xt.d.t.<X9.I.(.3 8 K sXwX` z x T.bX~.8 5 P >XI oX'.t.d.g.<X'.j.&X3.&XhXhX1Xd.e.r.@X6X,     2 ",
"o . . 5.@X-.+.@.k.=Xe.@Xa.{ &.,.-Xs.=.&.,.=Xk.&XOX      R nXV k s {.uX;     9 gXd.=Xl.} &.,.*X&X} :.o.*Xk.f.@X| +.+.i.1X:   . 2 ",
"o . . ! e.+.$.*.i.q.} 1.r.&.+.1.1.&.$.+.,.i.@.,.9.@ O .   J Z g g N.-   o   u d. .<.r.#.$.%.:.p.;.*.:.p.;.*.p.,.+.$.=.u.< .   4 ",
"L.. L XX-.>.} r.k. .>.;.c.t.e.c.>.#.+.*.z.q.#.-.h.8.  .   - .Xx B.V.  o   < +X,.>.{ k.u.@.$.+.s.s.X.c.y.#.*.e.c.&.#.#.q.`.@ q (.",
"GXI.lX#X .,.k.5X5Xu.=. .-X1XXX7X,.=.q.@X7X&X,. .y.jX8..   % ZX!.ZXK.    < fX=X..=.y.6X7Xk.,. .l.7Xg.jXd. .,.&XjX@Xq.=.3.cXE.iXiX",
"F = 4 R.6X`.t H r r XX4X5.< : I 1X1X~ r H r 9.4Xx.u.f.3.R.;XR - 4 J.OX0.d.k.f.%X+Xy H H t 0.6X`.9 $ r OX6X4.w H r L 1X1XI % 4 R ",
"      F ,X=         9 2X3     X ;XI         X 0.c. .} ,.&X].      e 6Xd.-.&.q.%X0 .       * ;XR   O   I.I..         I ]..     2 ",
"O O   q E.    . O   $ (.>     O I.q   . . .   L x.o.>.| g.8.  .   5 oX3.-.:.e.XX* . O O     K.D   O   6.E     o O   q I.      2 ",
"& %   K.GXL.o % & % ).GXR   # 3 AXkX4 o % o P cX@X:.+.1.4XfX2 &   7.jXc.;.+.y.gX[.% & % o H.GXE.O % $ :XGXF o % o 4 kXAX3 o & 3 "
};
