/* XPM */
static char *b2efc9d869c44b5abb62100b4887ae9dfEloVOP2vAJPuiD2[] = {
/* columns rows colors chars-per-pixel */
"63 64 244 2 ",
"   c #020102",
".  c #090604",
"X  c #0A0A06",
"o  c #050409",
"O  c #08070C",
"+  c #0A0A0B",
"@  c #040A09",
"#  c #12110E",
"$  c #191509",
"%  c #141413",
"&  c #1A1915",
"*  c #1C1C1B",
"=  c #171715",
"-  c #100E0E",
";  c #201E19",
":  c #211B0B",
">  c #18221C",
",  c #22221E",
"<  c #1D1F21",
"1  c #1A2422",
"2  c #232323",
"3  c #2B2A26",
"4  c #2C2C2A",
"5  c #262724",
"6  c #302F2C",
"7  c #33322D",
"8  c #383226",
"9  c #353432",
"0  c #3A3935",
"q  c #3D3D3A",
"w  c #373834",
"e  c #2A352F",
"r  c #413F39",
"t  c #423C2C",
"y  c #40361D",
"u  c #39443F",
"i  c #42413D",
"p  c #48453E",
"a  c #59533D",
"s  c #60563B",
"d  c #185D54",
"f  c #1E5A4B",
"g  c #29584D",
"h  c #15645C",
"j  c #1A645B",
"k  c #16645A",
"l  c #0F645D",
"z  c #256458",
"x  c #3F6E5A",
"c  c #126B64",
"v  c #146A65",
"b  c #13736C",
"n  c #19736A",
"m  c #167067",
"M  c #0F7672",
"N  c #127671",
"B  c #117875",
"V  c #0F6C65",
"C  c #37756C",
"Z  c #337B73",
"A  c #3D7A73",
"S  c #2E7169",
"D  c #454441",
"F  c #4B4A46",
"G  c #4D4D4A",
"H  c #484744",
"J  c #514F4B",
"K  c #52514E",
"L  c #535047",
"P  c #555452",
"I  c #585753",
"U  c #5A5955",
"Y  c #5D5C5A",
"T  c #4A5750",
"R  c #605F5A",
"E  c #605843",
"W  c #526A5D",
"Q  c #63635F",
"!  c #656156",
"~  c #716952",
"^  c #49756A",
"/  c #457E76",
"(  c #6A6A65",
")  c #696967",
"_  c #716F6A",
"`  c #73726C",
"'  c #757471",
"]  c #787774",
"[  c #7B7A75",
"{  c #7E7D7A",
"}  c #717973",
"|  c #677D76",
" . c #817F7A",
".. c #847D6A",
"X. c #83775D",
"o. c #388079",
"O. c #4B847A",
"+. c #568477",
"@. c #6D877B",
"#. c #BB872B",
"$. c #B78B36",
"%. c #CB8B1D",
"&. c #DA8E15",
"*. c #D38E1C",
"=. c #D58E17",
"-. c #DA9017",
";. c #D6901C",
":. c #D99119",
">. c #CC8D23",
",. c #C58C28",
"<. c #D49121",
"1. c #CB9738",
"2. c #CE9028",
"3. c #BC964C",
"4. c #B99650",
"5. c #83827D",
"6. c #89897F",
"7. c #958A72",
"8. c #C59947",
"9. c #C19951",
"0. c #D3A752",
"q. c #D0B06D",
"w. c #E7B866",
"e. c #E1BE7C",
"r. c #E5B35C",
"t. c #EBC57B",
"y. c #DDC27F",
"u. c #558E84",
"i. c #7B8C84",
"p. c #70948B",
"a. c #6FA599",
"s. c #79ACA3",
"d. c #79B3AA",
"f. c #858581",
"g. c #8B8A84",
"h. c #8D8E89",
"j. c #868A84",
"k. c #908F8A",
"l. c #87968C",
"z. c #93928D",
"x. c #989389",
"c. c #969591",
"v. c #9B9A95",
"b. c #9D9D9A",
"n. c #969793",
"m. c #889C93",
"M. c #A19E99",
"N. c #A49C87",
"B. c #85A99A",
"V. c #98AA98",
"C. c #A1A19C",
"Z. c #B2AD8F",
"A. c #89B3AA",
"S. c #95B6AB",
"D. c #88BBB2",
"F. c #90B1A9",
"G. c #A5A5A1",
"H. c #AEADAA",
"J. c #AAA9A5",
"K. c #B1AFAB",
"L. c #B3B2AE",
"P. c #B8B5A9",
"I. c #B5B4B1",
"U. c #BBBAB6",
"Y. c #BEBDB9",
"T. c #B7B8B2",
"R. c #A7B6AF",
"E. c #CCB88E",
"W. c #C0BEBC",
"Q. c #8CC3B9",
"!. c #98C4BB",
"~. c #B0C3BB",
"^. c #DDC28A",
"/. c #DBC898",
"(. c #D4CD9A",
"). c #EACA88",
"_. c #ECD19B",
"`. c #F3D491",
"'. c #C3C2BE",
"]. c #D0D2AA",
"[. c #EBDAB8",
"{. c #EFD8A8",
"}. c #FEE4A7",
"|. c #FCE9BA",
" X c #FCE09F",
".X c #9ACDC4",
"XX c #B9D9CD",
"oX c #BBE3DA",
"OX c #C6C5C2",
"+X c #CACAC6",
"@X c #CDCCC9",
"#X c #C9C7C3",
"$X c #D1CFCB",
"%X c #D2D2CE",
"&X c #D5D4D1",
"*X c #DBD9D5",
"=X c #DBDBD7",
"-X c #C8DCCF",
";X c #E1DEDA",
":X c #EDDDC3",
">X c #C5E6DD",
",X c #D8E4DC",
"<X c #DFF3D7",
"1X c #FBEBC8",
"2X c #FFF3C5",
"3X c #FFF3CD",
"4X c #F7F5CF",
"5X c #E3E2DE",
"6X c #ECE7D8",
"7X c #F5EDDA",
"8X c #FEF3D4",
"9X c #FCF3DD",
"0X c #FDFADA",
"qX c #E5F0D4",
"wX c #CAEBE3",
"eX c #D6EAE4",
"rX c #D9F5EB",
"tX c #DAFCF5",
"yX c #CCF5EB",
"uX c #E4E4E1",
"iX c #E9E6E3",
"pX c #ECEAE5",
"aX c #EDECEB",
"sX c #E6ECE8",
"dX c #F0EEEE",
"fX c #F0EEED",
"gX c #F3EDE3",
"hX c #E8F3EB",
"jX c #FDFCE4",
"kX c #F3F2EE",
"lX c #FDFEEC",
"zX c #F7F7E8",
"xX c #F0EEF1",
"cX c #EBFBF4",
"vX c #EBFFFA",
"bX c #E6FBF5",
"nX c #F5F4F2",
"mX c #F9F6F3",
"MX c #FBFAF5",
"NX c #F5FFFC",
"BX c #FFFDFA",
"VX c #FEFEFB",
"CX c #F6FAF6",
"ZX c #EFEDF0",
/* pixels */
"o o o o o   D mXpXfXkXG   o o o . W.mXfXfXfXaXmXc.  o o o   ] +X2   o o   * 5XkXfXaXkXpXBXI   o o o o C.BXiXMXL.  o o o o o o ",
"o o o o o   D BXkXkXI   o o o   . #XmXfXdXgXZXBXv.  o o o   7 v.  o o o   * pXkXfXaXaXaXBXQ   o o O   o J.BXBXT.  o o o o o O ",
"o o o o o   . z.fXI   o o o o   ] fXdXdXxXfXfXxXiXL   o   4 %XBXz.o o   - C.MXfXkXaXxXaXkX&X9   o o o o . G.5Xi   o o o o o O ",
"o o o o o .   5 x.  o o o o o 5 dXnXaXdXfXxXxXaXBX@Xo o   C.BXsXBXr     K BXaXdXxXfXfXxXpXVXG.  o o o O   0 6.  o o o o o o O ",
"o o o o o o - T.MX[   o o o O   J fXfXxXxXxXdXnX*X3   O   % T.MX(   o @   [ mXaXxXfXfXaXnXT.%   o o o   & OXMXQ   o o o o o o ",
"o o o o o   D BXfXBX]       o     '.MXaXZXxXpXVXc.  . o o   6 6.  X o     & 5XnXaXfXaXaXVXI   o   o   & #XCXMXW.    o o o o o ",
"- + o   X . G zXpXpXMX] % - - % # OXnXnXdXfXfXMXn.. #     . C.pXG   o . + 3 5XfXnXaXzXfXCXQ o % - % 2 OXMXiXCXL.X %     o - % ",
"=X@X4 o H.iXU.3 4 4 6 4 f.pX&X&X;XR * R nX;Xp * 5.iX%Xu   C.BXkXkXF   h.uX$Xp ;  .VXY.7 , H.5X&X=X&XH 6 4 4 , ( uX=X)   ] ;X&X",
"kXBX+XH.VXMX#X          . G.BXaXBXr     P q     ' VXNX&XV.NXsXsXcX,Xm.NXnXaX*     ) <     L.BXnXkXF           K VXnXfXz.mXkXkX",
"fXmXR 7 =XVXW.. o o o o     b.BXkXD   @     X   ' NXtXB.^ >XvXsXvXA.^ XXvX;X< o o   o X   H.BXaXD   o o o O   P nXBXc.& K.BXpX",
"mXQ     9 pX@X  o o o o @ o   C.BXD   o o o o   } vXa.h v Z >XvXd.j h S oXrX;   o o o o   T.BXD   o o o o o   P VXc.    + L.BX",
"U   o o   q K.  .   o o o @     J.F   o o o O   | D.d b n v / S.j n N V S XX1   o o o o   J.I   X o o o o O   I G.    o   # H.",
"  X o   X   D w   @ o o o o o   = U   o o o o @ | z N M V j F.wXO.h B N l O.g . o o o   2 L   o o o o o o o   I -   o o o   - ",
"o o o o .   F 5X5   o o o o o o   @X]   o o   G..Xl N N h D.vXbXyXu.l B V o.wXi   O   # OX)   O o o o o o   { Y.  o o o o o o ",
"o o o o o   i BX*X5   o o o o o o '.VX(     c.NXQ.k n v D.vXaXaXhXyXu.v b Z rXaXi   = W.VXI   O o o o o   _ VXI.  o o o O o + ",
"O o     @   D kXzX&X2   o O o o o '.nXmX' c.VXhX!.j h a.vX7X7XzX7XhXoXS V Z wXkXpXU U.mXnXU   O O o     _ nXnXI.  O   o o + + ",
"o   ) b.o   i BXmXBX5X8           +XBXBX5.C.BXNX!.f f a.0X3X Xq.|.4X<XW f S bXBXkX( '.BXBXI   o       { VXCXBXW.    0 U.2   o ",
"' g.ZXVXG._ g.n.z.z.C.] ( 5.] ] [ z.b.)   X 5.n.V.B.B.R.(.t.1.#.q.(.].V.s.A.n.n.F   , c.c.g.' [ ] { I n.c.z.c.c.] ] =XVX@X' [ ",
"VXVXZXZXCXVX+X          H kXBXMXBXD   o @       } NXjX].$.>.;.<.;.#.4.2XlXhX*     @       U.VXmXVXH.+         K VXBXxXaXnXVXBX",
"aXaXZXZXZXnX#XX o o O o   w 5XnXCXr   O o o +   _ lX3X).2.-.&.&.-.<.1.}.9X5X* o o o o O   G.VXmXb.o   O O O   R CXpXfXxXZXpXpX",
"xXxXxXxXZXaXnXn.o o o o X   0 =X{   o o o o o   + Z. X1.*.&.&.&.-.:.>.r.[.L   o o   o o   < #XM.o   o o o   0 =XxXfXfXxXxXaXgX",
"xXxXxXxXZXaXnXaX3   o o o .   v.7   o o o   o @   s y.#.<.&.&.-.-.-.%.8.E.X   . o o o o      .J   O o o O   f.VXdXxXxXfXxXfXfX",
"ZXZXxXxXZXaXiXD   o o o o   h.BX$X*   o o o O   r 7X1Xq.>.-.&.-.&.;.1.).jXH.o o o o o o   ) MXiXq   @ o O o   n.mXaXxXxXxXaXpX",
"nXZXaXZXaXMX'.            l.NXhXNXD   o o o o   [ BX8X_.,.<.;.;.;.2.8.|.9XfX*   o o o o   U.VXcXsXw     o o   G VXdXaXaXaXkXkX",
"5XdXnXxXfXpX'., * ; * > p.tXwXwXrXT = %     & # [ gX6X/.3.1.>.>.1.8.q.[.6X*X9 & - o   * % R.tXwXtX>Xg * * ; # Q fX5XnXfXnXuX5X",
"* 5 @XxXG + K pX5X,XbXB.^ C A ^ ^ +XhXOX: 0 *XzXv.$ $ X.2X}.w.$.`.|.[.y $ 7 =XpXZ.. R 6XhXp.x A C ^ ^ XXsX,XpXP.& & c.VX[ = 2 ",
"    2 q     p BXaXvXD.v c V b k j oXzXjX(.{.0XMXx.    ` MX7X1X[.8XgXgX:   & 6XzX0XZ.1XzXlXp.k m V V v A wXvXNXW.    + G .   o ",
"o o o   @ . # '.NXA.h b M M m Z ^ ].3X{.9.0.}.4XN.$ $ 5 ;XmXgXkXpXVXv.. & 8 :X|.).4.e.|.4Xl.x n V B M v C >XNX)   O o   o o X ",
"o o o   o o   > S.g n b b k s.rXqXq.8.1.%.%.1.8.E.1X;Xr ; 5XmXiXVXv.  v.gX[.0.8.2.>.,.1.3._.<X>Xo.v B N k +.l.  @ o o   o   O ",
"    < 9   o   i.hXu.k n k s.bXgX2X0.%.-.-.-.-.#.y.8XzXkXr ; =XBXv.  M.MXgX2X1.%.&.-.-.;.,.`.9XcXwXo.v n z !.,X7   o + H   . o ",
"+ + '.aX7   f.BXcXtXu.f s.bXhX8X X1.;.-.-.&.-.%.0.}.8XfXmX0 8 N.  n.VXgX8X).2.;.-.&.-.:.*.r.1XgXxXwX^ g !.vXCXuX7   k.VX_   p ",
"G.L.BXzX*Xh.BXpXaXhXrXQ.bXhXgX1X3.#.:.-.&.&.&.;.#.q.9XpXzXpXx.K.M.VXpXgX[.4.2.:.&.-.-.:.;.#.E.zXsXbXoX.XvXsXaXCX*Xx.BXaXmXh.6X",
"H U kXBXg.4 @XMXaXvXQ./ XXvXpX8XE.,.*.&.&.&.&.2.1._.9XpXVXx.t x.7 5XmX7X1Xq.,.:.-.&.&.-.*.8.[.zXpXbXs.O.wXcXpXBXg.6 %XBXY.4 M.",
"    Q h.    2 -XNX!.z k C oXcX6X|.0.2.:.&.&.:.,.q.2X6XBXM.  k.pX7 , pXmX6X|.1.;.-.-.=.;.2.).3XhXbXA.k k +.rXNXh.    4 G.&   X ",
". o o   . o   5 S.z m N v Z oXCX0Xq.#.%.=.=.2.#.).0XMXC.  v.VXxXzX0 , 5XMX1X8.,.=.:.%.>.#. XzXtXd.k n n d +.l.  o o .     o + ",
"o o O X o o   ) wX/ h N M V A B.V.(.).w.,.,.w.).Z...` . z.VXgXfXkXkX0 3 5.7.^.t.0.#.1.t.).Z.B.a.k b M n j D.XX,   o o o o o + ",
"o . o . o   0 nXnXwX/ l N B N v f -X0X4X)._.8XlXx..   Q VXpX7XgX7XnX6X&   & 1X8X|.^.|.4XjXp.d v B B m k A.hXNXH.  o o O o o + ",
"     .H.o   D VXMXNXtXu.v v v h f oXNXlX~ 7.CXVXv.  . ( MX8X_.q.1X9X1X:   & aXBX6Xa P.CXNXp.d v c h m .XNXCXBXY.    D +X4   o ",
"{ b.nXVXI.{ h.h.f.f.l.| p.S.A.A.S.m.h.U   . ` k.h.5...q.).w.1.,.0.t.E.7. .g.h.h.r   & 5.j.F.A.A.A.D.@.i.j.j.g.z.5.f.5XVX&X .f.",
"VXMXdXdXnXVX+X        o e eXNXhXCXu   . o o o   ] BXlX/.#.%.=.-.*.,.3.2XlXzX&   . @ o     L.NXcXCXV.          K VXBXxXaXnXBXBX",
"aXaXZXZXaXxX$X-   o O o   5 &XBXCXw   O o o O   _ lX3Xe.>.;.&.&.&.2.1.}.0X=X* o o o o O   C.BXCXz.    X @ X   ( MXiXaXxXaXaXpX",
"xXxXxXxXZXaXmXK.% o o o @   2 +X(   o o o o o   X 7.{.3.2.&.&.&.&.*.%.q.[.u   o o o o o   # T.z.  o o o o   F uXZXZXfXxXxXfXfX",
"xXZXxXxXfXdXmXiX5   o o o o   v.7   o o o o o o   L ^.$.<.&.&.&.-.:.>.8.E.#   o o o o o .   g.I   @ o o O   [ BXaXaXxXaXfXfXfX",
"aXZXxXxXdXfX;X7   O X o     b.BX*X;   o o o o   D 7X2Xw.>.-.&.&.-.;.2.`.0XU.X o o o o o   [ BXfXG   o O o O   g.CXpXxXxXaXaXpX",
"mXnXZXaXaXBXOX          X G.BXkXBXr   o o o o   [ lX0X`.#.=.&.=.:.%.8.|.0XhX>   o o o     U.BXnXmXK           K VXxXsXaXfXmXmX",
"@X=XnXnXuX@XL.q q 0 0 w { *X+X@X%X) w ,     4 9 j.,X-X(.0.0.>.,.1.0.q.].-X-XG 0 %   . w 0 G.&X+X%X#XG u w q 7 ' &X@XCXnXfX@X@X",
"o % '.iX9   F BXnXkXBX] X o o X o #XVX&X5 G aXNX!.z g a.0X|.e.4.{.4XqX^ z C rXBXT.&  .MXBXU   + o . , +XBXaXBXU.  o { VX)   - ",
"o   ; 4     D zXpXCX_     o   o   '.fXBXJ.'.MXbX!.j j d.vX6X1X|.9XhXyXC h o.eXaXBXb.5XgXmXI   .   .   & OXmXnXI.    o w     . ",
"o o     O   D MXMX'   o o o o     W.VXY.+ 4 *XNXD.v m Z >XcX7XgXpXbXQ.m m Z wXBXn.  I zXBXI   @ o o o   = OXBXL.  o o   o o o ",
"o o o o o   D VX'   o o o o o o   &X+X%     3 uX.Xd N v A wXbXhXvXD.k b V Z vXb.  .   I BXY   o o o o o   = &X'.  o o @ o o O ",
"  o o o O   H {   o o o o o o o o c.<   o o   g s.j N N c A wXvXQ.k b M V o.m.    @ o   ( I   O o o o o o   2 g.  o   o o o o ",
"&   o o   . _ #   o o o o o o   G D   O o o +   W O.v N N k / S.d m b b k a.1   o o o o   [ &   o o o   o X   G J   O o o   I ",
"'.=   o   v.%X  o o o o   o   D zXH   O o o o   @.rXC v b d A.>XO.k n k s.rX>   o o o o   '.'.X   o o o o o   U mXq   X   Y mX",
"BXOX%   z.BXW.o   o o o o   g aXNXD   O o o X   ' NXoXC d D.vXvXyXO.f a.vXuX,   X   o o   H.BXL.O   o o o o   P BXpXq   I zXfX",
"iXMXY.c.BXnXW.o o o o o o i iXgXdXD     % + o   ' CXcX-XS.vXZXsXcX<XS.cXhXuX>     = o o   K.nXnXI.X   o o O   P CXkX5X5.kXgXpX",
"VXVX] L pXVX+X          K nXBXmXVXD   = OXG..   ] VXBXh.0 uXnXpXBXC.w *XVXfX;   7 5X_     T.VXMXVX'.*         K VXVXL.w +XBXMX",
"Y G     0 U ] L.K.H.Y.f.K R U U R G.L.$XmXmX'.L.c.U I X   w 5XBXG..   3 Y ( K.H.5XMXxXI.T. .I Y I R I L.L.L.L.b.U Y %   < Y Y ",
"    o o o   p BXnXVX%X;           #XBXkXaXaXnXBXc.    o X   0 C.    o o   = pXBXkXaXaXCXBXP           _ BXmXBX'.    o o o     ",
"O O o o o   6 pXVXOX%   O O O   & &XkXaXkXxXsXCXH.  o o o   ( '.&   @ X   r fXfXaXxXaXaXCX{   O o X @   Q zXBXb.  X o o o O + ",
"o o o o o o   F Y.&   o o o o = OXnXaXxXdXdXfXaXmXz.  o   ` mXBX%X>     7 ;XfXfXxXaXxXxXfXnX_   o o   o   ( P.+   o o o o o O ",
"o o o o o o   u I.-   o o o o * @XmXaXaXZXZXxXaXBXG.o o   { BXzX=X3     0 iXkXaXnXZXZXaXaXMX{   o o o X   I G.    o o o o o O ",
"o o o o o   2 5XVXY.-   o o o   * =XnXaXZXZXaXmXT.  o o o   ] $X5   o o   D fXaXaXsXZXaXMXf.  o o o o   K aXBXv.  o o o o o O ",
"        o   H VXaXVXOX%   o o     OXVXnXnXnXnXVXc.  .   o   r M.      o   & aXmXCXnXnXnXVXI   o       U MXnXVXY.    o o o o o ",
"2 2 2 < 2 * G @XOXOX=Xh.< 2 2 < < H.%XOX+X+XOX&Xg.& 2 2 < 4 K.;X_ * 2 2 * 9 '.+XOX+X+XOX&XY = 5 5 * q OX@XOX&Xb.* 2 2 < < < 5 "
};