/* XPM */
static char *result[] = {
/* columns rows colors chars-per-pixel */
"64 63 191 2 ",
"   c #171916",
".  c #350F00",
"X  c #3C1102",
"o  c #35291A",
"O  c #421403",
"+  c #4C1604",
"@  c #4F1B08",
"#  c #531604",
"$  c #5B1704",
"%  c #551B06",
"&  c #5C1A05",
"*  c #551D08",
"=  c #621703",
"-  c #631904",
";  c #6C1C05",
":  c #691F08",
">  c #711E05",
",  c #5D2107",
"<  c #5D210C",
"1  c #5E2917",
"2  c #533316",
"3  c #642206",
"4  c #6B2407",
"5  c #652209",
"6  c #6C2309",
"7  c #7C2105",
"8  c #742509",
"9  c #7B260A",
"0  c #75280A",
"q  c #7D290B",
"w  c #7F3303",
"e  c #702F16",
"r  c #793B11",
"t  c #832303",
"y  c #8C2807",
"u  c #832B0B",
"i  c #8A2D0C",
"p  c #8D2706",
"a  c #902908",
"s  c #8E310D",
"d  c #8B3A0A",
"f  c #973F06",
"g  c #92340D",
"h  c #9A360E",
"j  c #943E08",
"k  c #9E390F",
"l  c #863011",
"z  c #8E3210",
"x  c #933410",
"c  c #9A3610",
"v  c #9E3910",
"b  c #A13B0F",
"n  c #A33B11",
"m  c #AA3E11",
"M  c #994106",
"N  c #9D420A",
"B  c #934117",
"V  c #8C521F",
"C  c #945219",
"Z  c #A44409",
"A  c #AC490A",
"S  c #A64708",
"D  c #B24D0A",
"F  c #B84D0C",
"G  c #BC550C",
"H  c #B5500C",
"J  c #AE4112",
"K  c #A14912",
"L  c #AD4E13",
"P  c #A44115",
"I  c #B04412",
"U  c #B24B12",
"Y  c #AF5215",
"T  c #A45117",
"R  c #B55214",
"E  c #BB5515",
"W  c #BE5916",
"Q  c #BF5C18",
"!  c #B3591D",
"~  c #884622",
"^  c #A55D2D",
"/  c #A95F2E",
"(  c #A95520",
")  c #BB5132",
"_  c #9B602E",
"`  c #9E6031",
"'  c #B46522",
"]  c #A66635",
"[  c #AB6333",
"{  c #AB6836",
"}  c #AF6C38",
"|  c #B46935",
" . c #B96B33",
".. c #B46B3A",
"X. c #B96D39",
"o. c #B06533",
"O. c #BE7137",
"+. c #BD733D",
"@. c #BE793F",
"#. c #C05716",
"$. c #C35C16",
"%. c #C85F15",
"&. c #C35E18",
"*. c #C76017",
"=. c #CB6216",
"-. c #C76018",
";. c #CC641A",
":. c #CE691D",
">. c #D56E17",
",. c #D36A1D",
"<. c #D86E1E",
"1. c #D56B18",
"2. c #DC7317",
"3. c #DB731E",
"4. c #DD7A1D",
"5. c #D6701C",
"6. c #E27C1B",
"7. c #E27917",
"8. c #C75E38",
"9. c #D56D21",
"0. c #D86D20",
"q. c #D77020",
"w. c #DC7521",
"e. c #DE7922",
"r. c #C66833",
"t. c #C2753B",
"y. c #C4793F",
"u. c #CA7538",
"i. c #E07520",
"p. c #E27D23",
"a. c #BD7440",
"s. c #BF7B44",
"d. c #B57D47",
"f. c #C27640",
"g. c #C57A42",
"h. c #CA7D44",
"j. c #E5831E",
"k. c #E98E1F",
"l. c #D88126",
"z. c #E68224",
"x. c #E88626",
"c. c #E38924",
"v. c #EC8D25",
"b. c #E58328",
"n. c #E98728",
"m. c #E7882A",
"M. c #EC8C29",
"N. c #F08E28",
"B. c #EE912B",
"V. c #F1932B",
"C. c #F49C2C",
"Z. c #F89D2D",
"A. c #EB9434",
"S. c #E8953F",
"D. c #F69E31",
"F. c #F8A22F",
"G. c #F6A231",
"H. c #FAAA33",
"J. c #EDC734",
"K. c #C68047",
"L. c #CC8144",
"P. c #CC834A",
"I. c #D38645",
"U. c #D2864B",
"Y. c #D48B4D",
"T. c #D88E4E",
"R. c #DC924E",
"E. c #CD8D54",
"W. c #D58D51",
"Q. c #D98F52",
"!. c #D99152",
"~. c #DD9758",
"^. c #DF9B58",
"/. c #E29D5B",
"(. c #EAA35D",
"). c #F2A958",
"_. c #E19F61",
"`. c #E5A562",
"'. c #E9A761",
"]. c #E7A964",
"[. c #E8AA64",
"{. c #E7A86A",
"}. c #EAAC6C",
"|. c #EDB26C",
" X c #ECB066",
".X c #F0B66F",
"XX c #EBAF71",
"oX c #EDB171",
"OX c #EFB678",
"+X c #F1B673",
"@X c None",
/* pixels */
"@X@X@X@X@X@X@X@X@X@X@X@X@X@X@X@X@X@X@X@X@X@X@X@X@X@X@X@X@X@X@X@X@X@X@X@X@X@X@X@X@X@X@X@X@X@X@X@X@X@X@X@X@X@X@X@X@X@X@X@X@X@X@X@X",
"@X@X@X@X@X@X@X@X@X@X@X@X@X@X@X@X@X@X@X@X@X@X@X@X@X@X@X@X@X@X@X@X@X@X@X@X@X@X@X@X@X@X@X@X@X@X@X@X@X@X@X@X@X@X@X@X@X@X@X@X@X@X@X@X",
"@X@X@X@X@X@X@X@X@X@X@X@X@X@X@X@X@X@X@X@X@X@X@X@X@X@X@X@X@X@X@X@X@X@X@X@X@X@X@X@X@X@X@Xi @X@XU J u i @X@X@X@X@X@X@X@X@X@X@X@X@X@X",
"@X@X@X@X@X@X@X@X@X@X@X@X@X@X@X@X@X@X@X@X@X@X@X@X@X@X@X@X@X@X@X@X@X@X@X@X@X@X@X@X@X@X@Xi i x n h x x @X@X@X@X@X@X@X@X@X@X@X@X@X@X",
"@X@X@X@X@X@X@X@X@X@X@X@X@X@X@X@X@X@X@X@X@X@X@X@X@X@X@X@X@X@X@X@X@X@X@X@X@X@X@X@Xh m i q c g u h n m i m @X@X@X@X@X@X@X@X@X@X@X@X",
"@X@X@X@X@X@X@X@X@X@X@X@X@X@X@X@X@X@X@X@X@X@X@X@X@X@X@X@X@X@X@X@X@X@X@X@X@X@X@Xg m m x 8 u 8 i g 8 u u s @X@X@X@X@X@X@X@X@X@X@X@X",
"@X@X@X@X@X@X@X@X@X@X@X@X@X@X@X@X@X@X@X@X@X@X@X@X@X@X@X@X@X@X@X@X@X@X@X@X@Xq u v m # # i 9 9 u q 8 u 6 8 8 3 @X@X@X@X@X@X@X@X@X@X",
"@X@X@X@X@X@X@X@X@X@X@X@X@X@X@X@X@X@X@X@X@X@X@X@X@X@X@X@X@X@X@X@X@X@X@X@X9 8 8 - n # $ # u 9 O % O + 6 9 h @X@X@X@X@X@X@X@X@X@X@X",
"@X@X@X@X@X@X@X@X@X@X@X@X@X@X@X@X@X@X@X@X@X@X@X@X@X@X@X@X@X@X@X@X@X@X@X9 w 3 % # H h >.=.% , X N . * % u i @X@X@X@X@X@X@X@X@X@X@X",
"@X@X@X@X@X@X@X@X@X@X@X@X@X@X@X@X@X@X@X@X@X@X@X@X@X@X@X@X@X@X@X@X@X@X@X0 i , $ D 2.k.k.4.6.2.4.j.>.3 , 6 x x @X@X@X@X@X@X@X@X@X@X",
"@X@X@X@X@X@X@X@X@X@X@X@X@X@X@X@X@X@X@X@X@X@X@X@X@X@X@X@X@X@X@X@X@X@Xu 9 0 - + T   j.j.j.j.j.4.c.j.2.5 O 0 c i @X@X@X@X@X@X@X@X@X",
"@X@X@X@X@X@X@X@X@X@X@X@X@X@X@X@X@X@X@X@X@X@X@X@X@X@X@X@X@X@X@X@X@X@X8 g u & H @.J.t   6.k.j.=.z.6.o : q + 6 m m J I u @X@X@X@X@X",
"@X@X@X@X@X@X@X@X@X@X@X@X@X@X@X@X@X@X@X@X@X@X@X@X@X@X@X@X@X@X@X@X@X9 s n i - %.v.+X1 =.l.c.c.2.N p 5 D q 8 q # 5 6 @X@X@X@X@X@X@X",
"@X@X@X@X@X@X@X@X@X@X@X@X@X@X@X@X@X@X@X@X@X@X@X@X@X@X@X@X@X@X@X@X@Xi v J q T j.j.6.2.V ` o.{ ' '.[.(.G 6 q q @X@X@X@X@X@X@X@X@X@X",
"@X@X@X@X@X@X@X@X@X@X@X@X@X@X@X@X@X@X@X@X@X@X@X@X@X@X@X@X@X@X@X@Xl u n u < *.2.j.2.[.d ) r.r.) Q.C 7.=.6 u J g @X@X@X@X@X@X@X@X@X",
"@X@X@X@X@X@X@X@X@X@X@X@X@X@X@X@X@X@X@X@X@X@X@X@X@X@X@X@X@X@X@X@X8 h c q N G =.=.I. X.Xd P k E.T.2 >.2.4 8 n J i @X@X@X@X@X@X@X@X",
"@X@X@X@X@X@X@X@X@X@X@X@X@X@X@X@X@X@X@X@X@X@X@X@X@X@X@X@X@X@X@X@X9 k u : G D H H Y.^.(.[.]. X[.Y.%.>.=.S q u m n @X@X@X@X@X@X@X@X",
"@X@X@X@X@X@X@X@X@X@X@X@X@X@X@X@X@X@X@X@X@X@X@X@X@X@X@X@X@X@X@X@X8 h u 8 N A S A l.L.L.P.P.T.T.L.H G r G u q u c @X@X@X@X@X@X@X@X",
"@X@X@X@X@X@X@X@X@X@X@X@X@X@X@X@X@X@X@X@X@X@X@X@X@X@X@X@X@X@X@X@Xu c b i 9 f f Z d.{. XoX.X XK.y.S S A $.3 8 u n @X@X@X@X@X@X@X@X",
"@X@X@X@X@X@X@X@X@X@X@X@X@X@X@X@X@X@X@X@X@X@X@X@X@X@X@X@X@X@X@X@X9 x h g i 4 5 4 !.`.|..X.X X(.Z M Z G f 6 q u c x @X@X@X@X@X@X@X",
"@X@X@X@X@X@X@X@X@X@X@X@X@X@X@X@X@X@X@X@X@X@X@X@X@X@X@X@X@X@X@Xh g 8 s b i 8 4 q U.^.`.[.[.]./.9 u Z A 6 3 6 i c k @X@X@X@X@X@X@X",
"@X@X@X@X@X@X@X@X@X@X@X@X@X@X@X@X@X@X@X@X@X@X@X@X@X@X@X@X@X@X@Xh 9 u 8 i g k i s +.L.Y.T.!.!.U.; u 8 j 8 0 - 9 i h @X@X@X@X@X@X@X",
"@X@X@X@X@X@X@X@X@X@X@X@X@X@X@X@X@X@X@X@X@X@X@X@X@X@X@X@X@X@X@X@X5 h ; i i s u g B  .O.+.y.t.O.7 b b u 8 6 @X3 i g c @X@X@X@X@X@X",
"@X@X@X@X@X@X@X@X@X@X@X@X@X@X@X@X@X@X@X@X@X@X@X@X@X@X@X@X@X@X@X@X9 9 i 9 s h g 9 g b m 8 q t y 7 i m m u q @X@X6 s i i @X@X@X@X@X",
"@X@X@X@X@X@X@X@X@X@X@X@X@X@X@X@X@X@X@X@X@X@X@X@X@X@X@X@X@X@X@X@XT 8 u 6 z z i i 8 u n u - 8 y = b I m q g @X@X@X@X@X@X@X@X@X@X@X",
"@X@X@X@X@X@X@X@X@X@X@X@X@X@X@X@X@X@X@X@X@X@X@X@X@X@X@X@X@X@X@X@XM.6 8 u 6 g x x u q h J $ = 7 $ m n n g k @X@X@X@X@X@X@X@X@X@X@X",
"@X@X@X@X@X@X@X@X@X@X@X@X@X@X@X@X@X@X@X@X@X@X@X@X@X@X@X@X@X@X@XD.C.e.4 q 9 8 x u s i h s m $ ; 7 m m 8 g h @X@X@X@X@X@X@X@X@X@X@X",
"@X@X@X@X@X@X@X@X@X@X@X@X@X@X@X@X@X@X@X@X@X@X@X@X@XF.Z.F.G.H.@XF.Z.M.3.q q 4 8 x g s 0 s b b $ h m n s b h @X@X@X@X@X@X@X@X@X@X@X",
"@X@X@X@X@X@X@X@X@X@X@X@X@X@X@X@X@X@X@X@X@XC.C.C.C.B.V.Z.C.C.C.C.C.V.e.#.q q q k i g g 9 g h n g n i 8 n k @X@X@X@X@X@X@X@X@X@X@X",
"@X@X@X@X@X@X@X@X@X@X@X@X@X@X@X@X@X@X@XC.x.z.M.M.B.B.M.V.B.B.F.Z.N.z.p.,.W q O 8 u i h u 8 i s h k 9 u g u @X@X@X@X@X@X@X@X@X@X@X",
"@X@X@X@X@X@X@X@X@X@X@X@X@X@X@X@X@XV.M.x.e.w.p.z.z.z.z.z.m.x.H.Z.N.x.e.,.%.9 O 8 k 7 s u u g s x h 6 u i p.@X@X@X@X@X@X@X@X@X@X@X",
"@X@X@X@X@X@X@X@X@X@X@X@X@X@X@X@XV.N.z.3.<.q.9.w.b.b.b.e.6.b.D.Z.N.z.3.,.-.^ O O g i 0 u q i g h s 8 8 u p.@X@X@X@X@X@X@X@X@X@X@X",
"@X@X@X@X@X@X@X@X@X@X@X@X@X@X@X@XV.V.m.e.9.;.;.<.<.3.w.0.w.V.D.G.M.z.3.,.%.^ O O 8 g u u 5 i x u 9 9 9 u i.@X@X@X@X@X@X@X@X@X@X@X",
"@X@X@X@X@X@X@X@X@X@X@X@X@X@X@XV.v.m.e.w.;.W %.;.,.,.,.<.<.v.V.C.z.z.<.,.%.^ [ O # @ + u 6 9 u 9 6 0 u ,.3.@X@X@X@X@X@X@X@X@X@X@X",
"@X@X@X@X@X@X@X@X@X@X@X@X@X@X@XV.V.n.e.,.#.R #.%.%.$.;.=.,.v.V.C.z.p.<.,.#./ [ + & # * 8 ; z 9 9 & R #.,.p.@X@X@X@X@X@X@X@X@X@X@X",
"@X@X@X@X@X@X@X@X@X@X@X@X@X@X@XM.M.z.e.,.&.R R W #.E #.$.&.V.V.V.j.i.<.%.#.[ [ O - # = # 5 c z u $ L $.=.3.@X@X@X@X@X@X@X@X@X@X@X",
"@X@X@X@X@X@X@X@X@X@X@X@X@X@XM.M.B.p.3.,.*.W +.E H R #.#.$.M.B.M.p.3.9.;.W [ | & * & $ $ $ 9 8 $ $ L #.,.3.@X@X@X@X@X@X@X@X@X@X@X",
"@X@X@X@X@X@X@X@X@X@X@X@X@X@Xm.z.z.p.3.:.-.&.+.+.t.R R R $.M.B.j.3.3.;.%.U [ ..X.~ # $ - $ : $ = ..L W ;.w.@X@X@X@X@X@X@X@X@X@X@X",
"@X@X@X@X@X@X@X@X@X@X@X@X@X@Xw.z.i.6.w.;.-.#.+.+.f.t.y.t.r.m.M.z.3.,.%.#.L X.X.f.X.f.# $ - - $ $ N K W ;.w.@X@X@X@X@X@X@X@X@X@X@X",
"@X@X@X6 @X@X@X@X@X@X@X@X@X@Xw.p.e.p.<.;.%.#.h.y.g.y.g.h.h.p.x.b.<.;.$.R | a.a.f.a.f.# # = - #  .K Y #.,.@X@X@X@X@X@X@X@X@X@X@X@X",
"@X@Xq 8 @X@X@X@X@X@X@X@X@X@X<.z.w.w.,.;.-.%.L h.g.h.L.h.P.p.x.i.<.:.#.L X.f.f.g.h.h.* ; - # t.L L E %.<.@X@X@X@X@X@X@X@X@X@X@X@X",
"@X@Xq 5 i @X@X@X@X@X@X@X@X@Xw.z.w.<.;.%.%.&.R L R P.h.U.6.b.p.<.w.,.-.E g.g.h.U.U.h.# - P.u.Q Q W #.-.w.@X@X@X@X@X@X@X@X@X@X@X@X",
"@X@X6 4 h s @X@X@X@X@X@X@X@Xw.e.w.<.-.%.&.@XR R U E U.Y.w.w.p.p.e.w.,.#.h.P.W.W.W.W.e E.@X-.-.-.;.;.,.6.@X@X@X@X@X@X@X@X@X@X@X@X",
"@X@X0 i v n @X@X@X@X@X@X@X3.w.3.9.;.*.*.%.@X#.W U W $.Q.w.w.x.z.z.z.e.:.W.!.Q.^.~.@X@X@X@XQ -.;.,.,.<.p.z.@X@X@X@X@X@X@X@X@X@X@X",
"@X@X4 x g J @X@X@X@X@X@X@X;.w.w.<.-.%.*.@X@X;.#.&.&.%.%.0.i.z.M.M.M.p.,.^./.@X@X@X@X@X@X@XQ -.9.9.w.p.m.z.@X@X@X@X@X@X@X@X@X@X@X",
"@X@X0 g c J @X@X@X@X@Xe.5.%.w.,.;.-.%.-.@X@X:.-.&.%.$.;.<.6.p.m.M.M.p.<.@X@X@X@X@X@X@X@X@XW &.:.w.p.m.M.z.@X@X@X@X@X@X@X@X@X@X@X",
"@X@X@Xq q @X@X@X@X@Xp.:.$.w.w.:.-.-.-.@X@X@X;.-.;.%.$.$.,.<.p.x.V.N.x.<.@X@X@X@X@X@X@X@X@X@XQ :.w.p.M.V.z.@X@X@X@X@X@X@X@X@X@X@X",
"@X@X@X@Xg -.,.e.p.;.%.@X@X,.<.,.,.,.@X@X@X@X;.;.%.=.$.@X;.,.p.z.V.M.z.,.@X@X@X@X@X@X@X@X@X@XE -.9.p.v.V.x.@X@X@X@X@X@X@X@X@X@X@X",
"@X@X@X@X@X@X@X@X@X@X@X@X@X,.e.e.,.@X@X@X@X:.;.;.;.:.@X@X3.;.e.m.M.M.z.@X@X@X@X@X@X@X@X@X@X@XR -.9.p.m.M.x.@X@X@X@X@X@X@X@X@X@X@X",
"@X@X@X@X@X@X@X@X@X@X@X@X@X,.e.z.<.@X@X@X@X@X:.:.-.e.@X@X3.;.w.z.B.M.w.@X@X@X@X@X@X@X@X@X@X@X@X-.:.w.x.M.x.@X@X@X@X@X@X@X@X@X@X@X",
"@X@X@X@X@X@X@X@X@X@X@X@X<.,.e.m.;.@X@X@X@X@X:.,.;.w.@X@X@X,.3.p.m.M.<.@X@X@X@X@X@X@X@X@X@X@X@XQ -.9.p.M.p.@X@X@X@X@X@X@X@X@X@X@X",
"@X@X@X@X@X@X@X@X@X@X@X@X<.3.z.m.@X@X@X@X@X@X@X,.:.3.@X@X@X;.q.p.M.M.<.@X@X@X@X@X@X@X@X@X@X@X@X@X-.,.p.M.z.@X@X@X@X@X@X@X@X@X@X@X",
"@X@X@X@X@X@X@X@X@X@X@X@X<.w.z.x.@X@X@X@X@X@X@X,.;.:.n.@X@X%.0.p.z.e.,.@X@X@X@X@X@X@X@X@X@X@X@X@X&.,.<.p.z.;.@X@X@X@X@X@X@X@X@X@X",
"@X@X@X@X@X@X@X@X@X@X@X@X,.e.z.n.@X@X@X@X@X@X@X@X;.%.z.@X@X&.;.0.e.w.,.@X@X@X@X@X@X@X@X@X@X@X@X@X;.9.,.w.3.,.@X@X@X@X@X@X@X@X@X@X",
"@X@X@X@X@X@X@X@X@X@X@X@X,.w.z.z.,.@X@X@X@X@X@X@X;.&.9.@X@X-.<.p.x.3.,.@X@X@X@X@X@X@X@X@X@X@X@X@X@X9.,.3.p.p.-.@X@X@X@X@X@X@X@X@X",
"@X@X@X@X@X@X@X@X@X@X@X@X1.<.p.w.;.@X@X@X@X@X@X@X@XQ ;.p.w.-.,.p.p.p.,.@X@X@X@X@X@X@X@X@X@X@X@X@X@Xw.-.<.p.z.n.M.m.m.@X@X@X@X@X@X",
"@X@X@X@X@X@X@X@X@X@X@X@Xe.z.A.w.).p.@X@X@X@X@X@X@XE Q &.w.9.M.p.x.m.w.@X@X@X@X@X@X@X@X@X@X@X@X@X@X&.#.%.w.n.6.R.w.).@X@X@X@X@X@X",
"@X@X@X@X@X@X@X@X@X@X@X@X{.{.OX}.OX_.@X@X@X@X@X@X@XY !  .{.;.+XR.oXoX(./.@X@X@X@X@X@X@X@X@X@X@X@X@X@X#.;.<.{.}.}.}.XX_.@X@X@X@X@X",
"@X@X@X@X@X@X@X@X@X@X@X@XU.E.P.g.P.d.a.@X@X@X@X@X@X@X@X@XXXh.oX!.}.}.`.{.@X@X@X@X@X@X@X@X@X@X@X@X@X@X@X-.Y.Q._.P.W.W.s.@X@X@X@X@X",
"@X@X@X@X@X@X@X@X@X@X@X@X@X@X@X@X@X@X@X@X@X@X@X@X@X@X@X@Xg.{ P.+.P.P.a.s.@X@X@X@X@X@X@X@X@X@X@X@X@X@X@X( { ....] { { @X@X@X@X@X@X",
"@X@X@X@X@X@X@X@X@X@X@X@X@X@X@X@X@X@X@X@X@X@X@X@X@X@X@X@X_ @X] @X{ @X@X@X@X@X@X@X@X@X@X@X@X@X@X@X@X@X@X@X@X@X@X@X@X@X@X@X@X@X@X@X",
"@X@X@X@X@X@X@X@X@X@X@X@X@X@X@X@X@X@X@X@X@X@X@X@X@X@X@X@X@X@X@X@X@X@X@X@X@X@X@X@X@X@X@X@X@X@X@X@X@X@X@X@X@X@X@X@X@X@X@X@X@X@X@X@X",
"@X@X@X@X@X@X@X@X@X@X@X@X@X@X@X@X@X@X@X@X@X@X@X@X@X@X@X@X@X@X@X@X@X@X@X@X@X@X@X@X@X@X@X@X@X@X@X@X@X@X@X@X@X@X@X@X@X@X@X@X@X@X@X@X"
};
