/* XPM */
static char *_091882acf904671ef9df4d590708280WeoZizlMbNyTYodV[] = {
/* columns rows colors chars-per-pixel */
"64 64 211 2 ",
"   c None",
".  c #3E3B7F",
"X  c #433E7C",
"o  c #765E5D",
"O  c #6F5A5F",
"+  c #7B625A",
"@  c #5B4E6D",
"#  c #53486C",
"$  c #5F5069",
"%  c #4C4376",
"&  c #46407A",
"*  c #524773",
"=  c #4C436E",
"-  c #62536A",
";  c #695764",
":  c #715C63",
">  c #655B79",
",  c #C83F34",
"<  c #D4382C",
"1  c #EE2E23",
"2  c #E72F24",
"3  c #ED3123",
"4  c #E43226",
"5  c #AD5838",
"6  c #9B753E",
"7  c #BE6D32",
"8  c #BC7835",
"9  c #DB4727",
"0  c #D45229",
"q  c #D65927",
"w  c #C04236",
"e  c #CA4E2A",
"r  c #CD602B",
"t  c #D3662A",
"y  c #D66C29",
"u  c #CC792C",
"i  c #D87929",
"p  c #C26C32",
"a  c #B64743",
"s  c #9A764B",
"d  c #987548",
"f  c #876A53",
"g  c #A47C45",
"h  c #A77C47",
"j  c #A66E4A",
"k  c #897671",
"l  c #957C64",
"z  c #2C9347",
"x  c #9B8C3E",
"c  c #959136",
"v  c #8C933B",
"b  c #AF883A",
"n  c #B5843C",
"m  c #B58C3E",
"M  c #BC8C3B",
"N  c #BA8934",
"B  c #BC913C",
"V  c #BB9234",
"C  c #BB8C29",
"Z  c #FAB01F",
"A  c #CE852A",
"S  c #D38C2A",
"D  c #D8862A",
"F  c #C9982D",
"G  c #D49927",
"H  c #DB932B",
"J  c #D49A2D",
"K  c #DA9D2D",
"L  c #C28C36",
"P  c #CC9634",
"I  c #CD9936",
"U  c #C3943B",
"Y  c #CC9B3C",
"T  c #C5943A",
"R  c #D39B33",
"E  c #D99E30",
"W  c #D59737",
"Q  c #E19729",
"!  c #DEA02B",
"~  c #DCA332",
"^  c #D5A13C",
"/  c #DBA33B",
"(  c #D7A133",
")  c #EEAA26",
"_  c #E3A42C",
"`  c #E9A529",
"'  c #ECAA2A",
"]  c #E7A72B",
"[  c #F4AE25",
"{  c #F1AD28",
"}  c #F8AF21",
"|  c #F7B025",
" . c #FDB323",
".. c #FCB924",
"X. c #E5AA35",
"o. c #E9AC34",
"O. c #E4AB3B",
"+. c #E3A834",
"@. c #8E8B40",
"#. c #9B8443",
"$. c #9E8657",
"%. c #AD8341",
"&. c #AA8848",
"*. c #B58D41",
"=. c #B18A47",
"-. c #BC9243",
";. c #B79148",
":. c #AA8C54",
">. c #AF925A",
",. c #B99757",
"<. c #97806F",
"1. c #AD9363",
"2. c #B79B69",
"3. c #B49E74",
"4. c #A68F64",
"5. c #BDA16B",
"6. c #BAA172",
"7. c #B8A37C",
"8. c #C29643",
"9. c #C29847",
"0. c #C69A4D",
"q. c #C29B55",
"w. c #D4A344",
"e. c #DEAB45",
"r. c #D3A44B",
"t. c #DCAC4C",
"y. c #D8A849",
"u. c #CDA353",
"i. c #C9A45D",
"p. c #DDAE53",
"a. c #D5AC5D",
"s. c #D5A854",
"d. c #DBB05C",
"f. c #DDB155",
"g. c #CFA044",
"h. c #E2AC43",
"j. c #E2B45A",
"k. c #C2A162",
"l. c #C8A769",
"z. c #D7AF62",
"x. c #DAB263",
"c. c #D9B56C",
"v. c #DAB56B",
"b. c #CCAD72",
"n. c #C0A777",
"m. c #CEB27A",
"M. c #D9B773",
"N. c #D9BA7C",
"B. c #D8B777",
"V. c #E0B96C",
"C. c #2C2E8F",
"Z. c #2E308F",
"A. c #353586",
"S. c #393784",
"D. c #3C3982",
"F. c #32338B",
"G. c #2C2F92",
"H. c #2E3092",
"J. c #313492",
"K. c #403C82",
"L. c #5B5C9D",
"P. c #5F609E",
"I. c #60629F",
"U. c #5D5EA1",
"Y. c #6868A4",
"T. c #7778AB",
"R. c #897C85",
"E. c #85809C",
"W. c #8383AE",
"Q. c #8485B2",
"!. c #8C8CB5",
"~. c #DBBD83",
"^. c #D3BB8B",
"/. c #D8BC87",
"(. c #CFBC96",
"). c #CBBFA6",
"_. c #DCC18B",
"`. c #DBC69D",
"'. c #DCC597",
"]. c #D9C6A1",
"[. c #DDC9A2",
"{. c #DDCCAB",
"}. c #D5C8AE",
"|. c #DDCEB1",
" X c #DACFBA",
".X c #DED3BA",
"XX c #DED1B5",
"oX c #E1D2B5",
"OX c #E1D5BE",
"+X c #E3CEA6",
"@X c #DFD5C2",
"#X c #DCD8CF",
"$X c #D7D7DE",
"%X c #D0CDD0",
"&X c #E3DAC9",
"*X c #E3DED4",
"=X c #E8E2D6",
"-X c #EBE6DD",
";X c #E6E1D6",
":X c #DADBE5",
">X c #DFE0E9",
",X c #EDE9E3",
"<X c #E4E4EB",
"1X c #ECEBEB",
"2X c #E5E4E6",
"3X c #F0EFEC",
"4X c #F2F1EE",
"5X c #ECEDF2",
"6X c #F4F4F3",
"7X c #F7F7F9",
"8X c #FEFFFF",
/* pixels */
"                                                                                                                                ",
"                                                              =.=.                                                              ",
"                                                              B V                                                               ",
"                                                        4.:.7.+.X.6.>.>.                                                        ",
"                                                    =.6.k.s.y.+./ w.s.k.2.:.                                                    ",
"                                                  6.u.y.( T N k.5.b T E y.i.6.                                                  ",
"                                          &.>.1.1.r.^ -.      ,.,.      B ^ u.1.2.>.&.                                          ",
"                                      :.&.7.r.u.n.^           q.,.          ^ l.i.r.7.:.:.                                      ",
"                                    &.3.b.^ L 5.a.M   w , , 5 q.k.5 w , w   M s.5.V ( b.3.d                                     ",
"                                    6.l.I   $.,.E r 4 3 3 1 9 0.q.9 1 1 3 3 e / q.$.  ( l.7.                                    ",
"                                  &.i.^ h a 7 b.W 0 3 3 1 3 t a.z.t 3 3 3 3 0 Y b.p a h ^ k.:.                                  ",
"                                  :.^.u < 2 0 / M.W 9 9 y e H .X&XH 0 y 9 9 W M.^ 0 2 < A m.,.                                  ",
"                                  5.u.t 1 2 i f.#Xp.q i ..i u t.y.y i  .i q t.#Xj.i 3 1 q y.5.                                  ",
"                                =.i.y.0 9 t t H / _ t D H H D S S H Q H D t _ ^ H t t 9 q e.l.&.                                ",
"                                L M.v.A S  .i i A u ) _ N P ! N M ( P N _ ` u D i i | H u v.c.B                                 ",
"                                *.}.].A u K K { W L M *.b B U n n B B m m m M P { H K u A `.}.m                                 ",
"                                  :.9.K ` R B ;.B @.v F b.a.A e e A a.b.F v @.B ;.M P ] K 9.:.                                  ",
"                                        ;.=.8.w.c z z V r.g.J 8 8 J w.y.V z z c w.9.*.=.                                        ",
"                                          p u.a.J x #.*.m m V T U V m m m #.x F i.u.7                                           ",
"                                          j P *.*.T _ [ | .. . . . ...| { _ Y M B P j                                           ",
"                                            -.+. . . .Z  .} [ [ [ [ }  . . . . .+.8.                                            ",
"                                        Y '  . .Z [ o.p.M._.].{.{.]._.M.p.+.[ Z  . .' Y                                         ",
"                                      +. . . .{ f.`.*X6X7X8X8X8X8X8X8X7X4X*X`.d.'  . . ._                                       ",
"                                  U {  . .) s R.1X8X8X8X8X8X8X8X8X8X8X8X8X8X8X6X.Xx.'  . .' 8.                                  ",
"                                8.|  . .U @ F.Z.!.7X8X8X8X8X8X8X8X8X8X8X8X8X8X8X8X6X{.y. . .| Y                                 ",
"                              Y  . .| g D.G.G.G.J.!.7X8X8X8X8X8X8X8X8X8X8X8X8X8X8X8X8X;Xx.[  .| 8.                              ",
"                            8.|  .[ f F.H.H.F.. H.H.W.6X8X8X8X8X8X8X8X8X8X8X8X7X@X6X8X8X4XB.[  .| Y                             ",
"                          ;.{  .| f Z.H.H.K.g P @ G.F.W.6X8X8X8X8X8X8X8X8X8X7X/.] z.;X8X8X6XB.|  .{ ;.                          ",
"                          +. . .s F.H.G.% T  . .K @ G.Z.W.6X8X8X8X8X8X8X8X7X/.)  .Z h.@X8X8X4Xz. . ._                           ",
"                        Y  . .M D.H.G.* W  . . . .K $ G.G.T.1X4X6X7X8X8X6XN.{  . . . .O.@X8X8X-Xt. . .Y                         ",
"                        )  .] @ G.H.K.T  . .T L  . .! - * f u.p.t.j.N.|.m.[  .[ x.y.|  .e.*X8X8XXX'  .{                         ",
"                      I  . .s G.H.Z.%. . .M X . %. ..._ F }  . . . .Z [ K K ] M.1X&Xe. . .d.6X8X7Xv.|  .R                       ",
"                      '  .+.> G.G.: [  .R & G.G.X F  . .` G ` K K )  . .| [ Y #X8X8X&X+. .[ `.8X8X&X]  .'                       ",
"                    8. . .z.:XU.S.P  .[ : G.G.S.8 _ !  . .) d . = b K ! |  .[ (.8X8X8X'.[  .h.,X8X7Xx. . .Y                     ",
"                    ~  .[ {.8X:Xl |  .%.F.G.F.s | ..F M  . .] f g  . ._ i.+.B.4X8X8X8X3Xp.Z [ '.8X8X{.[  .~                     ",
"                    )  .O.;X8X7Xj. .{ @ G.G.; [ ..! $ S.%. . .|  . .` l $X&X6X8X8X8X8X8X{.)  .p.6X8X-XO. .]                     ",
"                  -.[  .d.7X8X&Xo. .U A.G.A.M  .| + G.G.D.g |  . .` O Z.T.1X8X8X8X8X8X8X,Xh. .' &X8X7Xd. .[ -.                  ",
"                  T  . .~.8X8X[. . .k.P.G.@ {  .M F.H.H.H.F.s | ] ; G.H.C.Y.1X8X8X8X8X8X7XM. .[ [.8X8X~.|  .T                   ",
"                  I  .[ [.8X8X~. .[ '.<XI.f  . .+ G.H.H.H.G.F.f ; G.G.H.H.G.Y.<X8X8X8X8X8X`. .} ~.8X8X`.[  .I                   ",
"                  R  .{ |.8X7XV.Z [ oX8X2X9. .] * G.H.H.Z.X & & X & S.H.H.H.H.Y.<X8X8X8X8XoX[ Z v.8X8X|.[  .J                   ",
"                  G  .{ .X8X7Xx. .) &X8X3Xh. .+.& H.H.H.D.U _ _ _ _ O G.H.H.H.G.Y.<X8X8X8XOX) Z x.7X8X.X{  .G                   ",
"                  G  .{ .X8X7Xx. .) .X8X6Xt. ._ K.H.H.G.D.E  . . ...+ G.J.Z.H.H.G.Y.<X8X8XOX`  .x.7X8XOX'  .G                   ",
"                  R  .[ |.8X8Xv.Z [ oX8X7Xx. .) - H.G.G.K.E  ._ 6 6 # G.Z.H.H.H.H.G.Y.>X8XoX[ Z V.7X8X|.[  .E                   ",
"                  P  .[ `.8X8X~. .} '.8X8X~.}  .l.Y.G.C.K.E ..W # . Z.G.H.H.H.H.H.H.C.I.>X'.} Z ~.8X8X`.[  .I                   ",
"                  U  . .B.8X8X{.[ Z c.8X8XOX{  .h.%XT.C.K.E  . .` V A.H.H.H.H.H.H.H.H.C.L.i. .[ {.8X8XN. . .U                   ",
"                    {  .f.6X8X*X+. .O.-X8X4Xj. . .M.2XT.D.E  . . .R A.H.H.H.H.H.H.H.H.G.D.J  .X.=X8X6Xd. .[                     ",
"                    '  .O.=X8X7Xd. .[ `.8X8XoX)  .{ _.:XE.K  .) n d Z.H.Z.& Z.H.H.H.H.G.: |  .d.7X8X=XX. .]                     ",
"                    ~  .[ `.8X8X{.[  .t.,X8X8X~.|  .' c.}.+. .R S.G.C.X s ! O Z.H.H.H.S.L  .{ k :X8X`.[  ./                     ",
"                    8. . .d.6X8X1Xt. .| ~.8X8X4XM.|  . .] J ! V - ; s E  . .! % G.H.H.f |  .n F.L.%Xa. .| 8.                    ",
"                      `  .' .X8X8X{.'  .' |.8X8X6X/.+. . .| | ' [ |  . . .! + F.H.G.- ]  .) @ G.C.> ]  .'                       ",
"                      Y  . .d.6X8X7XM.|  .O.oX8X8X7X&Xv.X.|  . . . .[ E s % G.H.G.* K  . .f Z.J.F.g  . .Y                       ",
"                        '  .) `.8X8X,Xs. . .O..X8X8X8X7X XI ! J z.2.; X Z.H.H.G.- !  . .%.S.G.G.; {  .]                         ",
"                        U |  .O.&X8X8X;Xt.Z Z N.8X8X8X8X-Xo. .X.2X5XT.H.H.H.H.Z.%. . .m D.H.H.& P  . .8.                        ",
"                          ~  . .p.,X8X8X;Xd.[ _.8X8X8X8X-Xo. .O.-X8X4XW.H.H.H.Z.%. .g D.H.H.A.%. . .~                           ",
"                            '  . .z.,X8X8X3Xm.^.8X8X8X8X-Xo. .O.,X8X8X5XT.F.G.Z.d f F.H.G.F.s  . .'                             ",
"                            ;.)  .} z.-X8X8X8X1X8X8X8X8X=XX. .O.-X8X8X8X6XQ.Z.C.A.H.Z.G.D.g  . .{ -.                            ",
"                              9.[  . .p.@X7X8X8X8X8X8X8X4X{.+X{.6X8X8X8X8X7XW.Z.G.G.G.% n  . .[ 8.                              ",
"                                -.{  . .o.^.,X8X8X8X8X8X8X8X8X8X8X8X8X8X8X8X7XQ.J.S.o E  . .' 8.                                ",
"                                  ;._  . .| h.[.,X8X8X8X8X8X8X8X8X8X8X8X8X8X8X$Xk m |  . ._ ;.                                  ",
"                                      ( |  . .{ e.N.oX-X7X7X8X8X8X8X7X7X-XoXN.h. . . .| /                                       ",
"                                        -.+. . . .[ [ O.p.M.~.^.^./.v.f.O.{  . . . .+.-.                                        ",
"                                            8.~ [  . . . . .Z [ Z [  . . . . .{ ~ 8.                                            ",
"                                                  Y ~ ] [ [ } }  .[ | { ] ~ Y                                                   ",
"                                                          m L C C V B                                                           "
};
